<?xml version="1.0" encoding="UTF-8"?>
<svg width="50px" height="98px" viewBox="0 0 50 98" version="1.1" xmlns="http://www.w3.org/2000/svg" xmlns:xlink="http://www.w3.org/1999/xlink">
    <!-- Generator: Sketch 64 (93537) - https://sketch.com -->
    <title>Group 87</title>
    <desc>Created with Sketch.</desc>
    <defs>
        <polygon id="path-1" points="0 0.549118214 49.8086921 0.549118214 49.8086921 98 0 98"></polygon>
        <polygon id="path-3" points="0.000119512507 0.549 49.8083939 0.549 49.8083939 97.9996 0.000119512507 97.9996"></polygon>
    </defs>
    <g id="Page-1" stroke="none" stroke-width="1" fill="none" fill-rule="evenodd">
        <g id="illustration" transform="translate(-781.000000, -635.000000)">
            <g id="Group-87" transform="translate(781.000000, 634.000000)">
                <g id="Group-3" transform="translate(0.000000, 0.450900)">
                    <mask id="mask-2" fill="white">
                        <use xlink:href="#path-1"></use>
                    </mask>
                    <g id="Clip-2"></g>
                    <path d="M47.4723,75.2832 C47.5543,74.5392 47.6543,73.9202 47.6793,73.2982 C47.6933,72.9682 47.5103,72.6272 47.5343,72.2992 C47.6183,71.1102 47.7503,69.9262 47.8653,68.7402 C47.9203,68.1542 48.0093,67.5692 48.0203,66.9822 C48.0313,66.4632 47.9113,65.9402 47.9233,65.4212 C47.9763,63.0802 48.0563,60.7402 48.1223,58.4002 C48.1283,58.1902 48.0883,57.9782 48.0963,57.7692 C48.1073,57.5212 48.1723,57.2742 48.1673,57.0282 C48.1573,56.4262 48.1673,55.8302 48.4063,55.2622 C48.4113,55.2482 48.4013,55.2272 48.4003,55.2112 C48.3473,54.3862 48.2433,53.5602 48.2543,52.7372 C48.2813,50.9332 48.3733,49.1312 48.4173,47.3262 C48.4233,47.0802 48.2433,46.8292 48.2463,46.5822 C48.2633,45.2332 48.2273,43.8772 48.3683,42.5412 C48.5233,41.0872 47.7283,39.6862 48.2113,38.2332 C48.2373,38.1562 48.2033,38.0592 48.2043,37.9712 C48.2083,37.3132 48.2063,36.6542 48.2223,35.9952 C48.2543,34.5962 48.2943,33.1992 48.3393,31.8012 C48.3473,31.5572 48.3983,31.3172 48.4163,31.0742 C48.4653,30.4672 48.5563,29.8562 48.5413,29.2502 C48.5103,27.8712 47.8493,26.5402 48.3053,25.1132 C48.5253,24.4262 48.5523,23.6792 48.7203,22.9722 C48.8573,22.3972 49.0093,21.8182 48.6573,21.2972 C48.3013,20.7712 48.3003,20.2212 48.3513,19.6382 C48.4233,18.8012 48.5023,17.9632 48.5383,17.1242 C48.5653,16.5062 48.2243,16.1782 47.5973,16.1982 C47.2503,16.2092 46.9083,16.3142 46.5613,16.3542 C45.8983,16.4302 45.2313,16.6432 44.5443,16.3552 C44.5913,16.2442 44.6183,16.1602 44.6593,16.0852 C46.3353,13.1002 47.7133,9.9802 48.7483,6.7232 C49.2173,5.2502 49.5553,3.7192 49.7793,2.1882 C49.9413,1.0832 49.4323,0.6602 48.2853,0.5842 C48.0413,0.5672 47.7963,0.5512 47.5513,0.549118214 C46.3623,0.5422 45.3993,0.9842 44.7493,2.0082 C43.9153,3.3232 43.0943,4.6462 42.2643,5.9652 C41.9383,6.4832 41.5933,6.9892 41.2733,7.5122 C40.4403,8.8672 39.5213,10.1812 38.8173,11.6012 C38.2213,12.8042 37.5933,13.9612 36.7233,14.9782 C36.6063,15.1152 36.3913,15.2312 36.2143,15.2442 C34.4133,15.3642 32.6123,15.4602 30.8113,15.5662 C29.8323,15.6242 28.8553,15.6982 27.8763,15.7452 C26.3923,15.8142 24.9073,15.8902 23.4213,15.9212 C21.4953,15.9612 19.5703,15.9642 17.6453,15.9692 C17.2633,15.9702 16.8813,15.9182 16.5003,15.8792 C15.6343,15.7902 14.7693,15.6222 13.9043,15.6172 C11.8343,15.6042 9.7663,15.6932 7.6973,15.6912 C6.4733,15.6902 5.2493,15.5652 4.0253,15.5542 C3.0623,15.5452 2.0953,15.5902 1.1363,15.6752 C0.4063,15.7392 0.0753,16.0852 0.0903,16.8072 C0.1073,17.6032 0.2433,18.3972 0.3233,19.1922 C0.3823,19.7962 0.5563,20.4202 0.4633,21.0002 C0.1993,22.6442 0.2013,24.2792 0.3693,25.9262 C0.4203,26.4272 0.4553,26.9332 0.4423,27.4352 C0.4283,27.9022 0.3213,28.3662 0.2883,28.8332 C0.2423,29.4972 0.2333,30.1632 0.1983,30.8272 C0.1483,31.7902 0.0573,32.7512 0.0403,33.7142 C0.0053,35.7462 -0.0037,37.7782 0.0003,39.8102 C0.0023,40.8952 0.0183,41.9832 0.0943,43.0652 C0.1383,43.6982 0.3643,44.3102 0.1103,44.9572 C0.0283,45.1652 0.1203,45.4402 0.1323,45.6842 C0.1903,46.9622 0.2823,48.2372 0.2933,49.5142 C0.3033,50.5452 0.1433,51.5792 0.1883,52.6052 C0.2803,54.6872 0.4653,56.7642 0.6013,58.8452 C0.6833,60.1012 0.7393,61.3592 0.8193,62.6162 C0.8723,63.4622 1.1383,64.3452 0.9703,65.1402 C0.7383,66.2412 0.7853,67.2912 0.9243,68.3682 C1.1593,70.2032 1.4263,72.0352 1.6203,73.8752 C1.7683,75.2762 2.0983,76.6792 1.7373,78.0982 C1.7263,78.1392 1.7713,78.1932 1.7913,78.2412 C1.9593,78.6372 2.2293,79.0192 2.2773,79.4292 C2.4923,81.2552 2.6703,83.0862 2.8113,84.9192 C2.9363,86.5512 3.0983,88.1632 3.8583,89.6512 C3.9343,89.8022 3.9693,89.9842 3.9813,90.1552 C4.0323,90.9562 4.0153,91.7652 4.1203,92.5582 C4.2773,93.7462 4.5223,94.9212 4.7143,96.1042 C4.7933,96.5872 5.0223,96.9322 5.5113,97.0272 C5.9223,97.1072 6.3453,97.1792 6.7603,97.1692 C8.8283,97.1212 10.8973,96.9652 12.9623,97.0022 C15.3873,97.0442 17.8073,96.9982 20.2343,97.4622 C22.2803,97.8532 24.4203,97.7462 26.5193,97.8692 C26.7253,97.8812 26.9283,97.9552 27.1283,98.0002 C27.1753,97.9652 27.2643,97.8412 27.3623,97.8332 C28.7763,97.7202 30.1913,97.6122 31.6073,97.5272 C32.5663,97.4702 33.5283,97.4412 34.4893,97.4172 C35.3783,97.3952 36.2683,97.3862 37.1583,97.3922 C37.8043,97.3982 38.4513,97.4362 39.0983,97.4682 C39.4933,97.4872 39.9053,97.4662 40.2823,97.5642 C41.2863,97.8282 42.2763,97.9242 43.2823,97.5822 C43.4313,97.5322 43.6243,97.5512 43.7813,97.5952 C44.4413,97.7882 44.7483,97.6172 44.9273,96.9342 C45.1603,96.0382 45.4163,95.1462 45.6303,94.2462 C45.8243,93.4302 46.0363,92.6122 46.1263,91.7832 C46.2763,90.4102 46.3333,89.0282 46.4263,87.6492 C46.4353,87.5282 46.4153,87.4042 46.4263,87.2822 C46.4513,87.0012 46.4813,86.7202 46.5163,86.4392 C46.6223,85.5782 46.7503,84.7192 46.8343,83.8542 C46.9013,83.1762 46.9263,82.4922 46.9453,81.8092 C46.9513,81.5682 46.8293,81.3182 46.8613,81.0852 C46.9713,80.2402 47.1223,79.4012 47.2623,78.5342 C47.2403,78.5352 47.2893,78.5352 47.3393,78.5292 C47.3973,78.5232 47.4533,78.5122 47.4513,78.5122 C46.8273,76.9872 47.4973,75.7802 48.2653,74.5742 C48.0373,74.7782 47.8093,74.9812 47.4723,75.2832" id="Fill-1" fill="#FEFEFE" mask="url(#mask-2)"></path>
                </g>
                <g id="Group-6" transform="translate(0.000000, 0.450900)">
                    <mask id="mask-4" fill="white">
                        <use xlink:href="#path-3"></use>
                    </mask>
                    <g id="Clip-5"></g>
                    <path d="M20.32,71.8916 C20.32,71.8836 20.32,71.8766 20.319,71.8696 C21.054,71.9136 21.79,71.9596 22.525,72.0056 C22.528,71.9676 22.53,71.9296 22.532,71.8916 L20.32,71.8916 Z M18.374,88.6186 C18.365,88.6896 18.355,88.7606 18.345,88.8326 C18.796,88.8896 19.246,88.9476 19.697,89.0046 C19.706,88.9286 19.715,88.8536 19.723,88.7786 C19.274,88.7246 18.824,88.6716 18.374,88.6186 L18.374,88.6186 Z M33.339,72.8686 C33.356,72.9626 33.374,73.0576 33.392,73.1536 C33.944,73.0426 34.497,72.9326 35.049,72.8226 C35.038,72.7666 35.028,72.7106 35.017,72.6556 C34.458,72.7256 33.898,72.7966 33.339,72.8686 L33.339,72.8686 Z M43.379,18.8566 C43.827,18.6536 44.212,18.4796 44.689,18.2636 C43.828,17.9596 43.577,18.0756 43.379,18.8566 L43.379,18.8566 Z M26.104,43.2106 C26.837,43.3406 27.068,44.0806 27.768,44.1386 C27.919,44.1516 28.051,44.4606 28.178,44.6436 C28.256,44.7546 28.276,44.9286 28.376,44.9996 C28.759,45.2766 29.165,45.5236 29.551,45.7736 C29.562,44.2276 27.626,42.6856 26.104,43.2106 L26.104,43.2106 Z M44.414,91.6125905 C43.933,91.6116 43.648,91.6886 43.411,92.2186 C43.154,92.7916 43.253,93.3296 43.209,93.8756 C43.168,94.3956 43.277,94.9276 43.33,95.5756 C43.976,94.5276 44.437,92.7936 44.414,91.6125905 L44.414,91.6125905 Z M26.654,93.1496 C26.156,93.0056 25.632,92.8556 25.068,92.6926 C25.068,93.6296 25.049,94.5176 25.074,95.4056 C25.098,96.2636 25.437,96.4756 26.179,96.2516 C26.339,95.2106 26.49,94.2196 26.654,93.1496 L26.654,93.1496 Z M34.209,92.9606 C33.603,92.9606 33.029,92.9316 32.462,92.9816 C32.31,92.9946 32.06,93.2506 32.060997,93.3936 C32.069,94.0746 32.161,94.7536 32.197,95.4346 C32.215,95.7816 32.406,95.9056 32.704,95.8916 C33.253,95.8656 33.8,95.8146 34.35,95.7736 C33.967,94.1216 33.938,93.6036 34.209,92.9606 L34.209,92.9606 Z M35.923,95.6206 C36.755,95.6826 37.46,95.7356 38.118,95.7846 C38.05,94.7436 37.984,93.7346 37.913,92.6606 C37.498,92.6606 37.013,92.6476 36.53,92.6626 C35.863,92.6846 35.667,92.8486 35.693,93.5066 C35.721,94.2116 35.841,94.9126 35.923,95.6206 L35.923,95.6206 Z M28.004,96.1546 C28.888,96.0476 29.8,95.9386 30.736,95.8266 C30.647,94.9106 30.564,94.0556 30.494,93.3316 C29.855,93.2516 29.328,93.2026 28.807,93.1156 C28.305,93.0316 28.022,93.1906 28.009,93.6666 C27.988,94.4676 28.004,95.2696 28.004,96.1546 L28.004,96.1546 Z M14.534,95.3906 C14.482,94.9806 14.429,94.6386 14.397,94.2946 C14.316,93.4306 14.251,92.5646 14.169,91.7006 C14.093,90.9036 13.908,90.7056 13.132,90.5596 C12.98,90.5316 12.828,90.5126 12.685,90.4906 C12.663,90.5256 12.643,90.5406 12.645,90.5536 C12.808,92.0616 12.769,93.5486 12.285,95.0066 C12.257,95.0896 12.491,95.3656 12.614,95.3726 C13.22,95.4126 13.831,95.3906 14.534,95.3906 L14.534,95.3906 Z M41.856,96.0736 L41.856,91.8976 C41.63,92.4976 41.128,92.3956 40.576,92.3336 C40.261,92.2986 39.709,92.4186 39.633,92.6136 C39.446,93.0966 39.424,93.6626 39.422,94.1966 C39.42,94.6766 39.532,95.1576 39.608,95.7446 C40.215,95.8326 40.952,95.9406 41.856,96.0736 L41.856,96.0736 Z M5.546,91.3556 C5.582,91.3606 5.617,91.3656 5.652,91.3706 C5.59,91.5526 5.42,91.7966 5.483,91.9096 C5.873,92.5976 5.743,93.3416 5.813,94.0686 C5.854,94.4896 5.981,94.9306 6.189,95.2946 C6.276,95.4486 6.672,95.4686 6.924,95.4606 C7.005,95.4586 7.14,95.1726 7.142,95.0146 C7.155,93.5986 7.11,92.1806 7.149,90.7656 C7.179,89.6736 7.085,89.4936 6.013,89.2646 C5.503,89.1566 5.297,89.3946 5.406,89.9306 C5.451,90.1496 5.422,90.3816 5.443,90.6056 C5.467,90.8566 5.511,91.1056 5.546,91.3556 L5.546,91.3556 Z M15.729,91.2566 C15.812,91.9616 15.906,92.6666 15.974,93.3736 C16.014,93.7876 16.032,94.2046 16.023,94.6206 C16.015,94.9676 16.056,95.2936 16.454,95.3396 C17.112,95.4156 17.776,95.4486 18.438,95.4666 C18.873,95.4786 19.054,95.2396 19.013,94.7946 C18.933,93.9426 18.902,93.0856 18.799,92.2376 C18.779,92.0786 18.535,91.8656 18.358,91.8216 C17.535,91.6156 16.7,91.4596 15.729,91.2566 L15.729,91.2566 Z M23.502,96.0846 L23.502,92.4056 C22.455,92.2276 21.366,92.0416 20.256,91.8536 C20.358,93.2446 20.451,94.5006 20.551,95.8566 C21.441,95.9256 22.463,96.0046 23.502,96.0846 L23.502,96.0846 Z M11.377,92.4246 C11.338,92.4136 11.299,92.4046 11.259,92.3936 C11.251,92.2356 11.25,92.0776 11.233,91.9206 C11.029,90.0196 11.456,90.4886 9.572,89.8816 C9.189,89.7576 8.954,89.8126 8.912,90.2506 C8.804,91.3796 8.658,92.5076 8.616,93.6396 C8.603,94.0086 8.816,94.4156 9.012,94.7556 C9.282,95.2266 9.752,95.3786 10.282,95.2966 C10.386,95.2806 10.543,95.2066 10.568,95.1266 C10.849,94.2296 11.11,93.3266 11.377,92.4246 L11.377,92.4246 Z M7.266,17.3426 L7.252,17.5036 C7.345,17.5436 7.436,17.5906 7.532,17.6236 C8.339,17.9006 9.144,18.1766 9.952,18.4476 C10.514,18.6356 11.068,18.8876 11.647,18.9846 C12.662,19.1536 13.691,19.2696 14.718,19.3286 C16.574,19.4366 18.432,19.4846 20.289,19.5616 C21.09,19.5956 21.891,19.6366 22.692,19.6836 C22.95,19.6996 23.206,19.7686 23.463,19.7686 C24.265,19.7666 25.069,19.7386 25.872,19.7296 C26.265,19.7256 26.659,19.7566 27.051,19.7426 C27.523,19.7246 27.993,19.6636 28.464,19.6446 C28.971,19.6226 29.505,19.7246 29.984,19.6026 C31.398,19.2456 32.814,19.1526 34.26,19.3036 C34.453,19.3236 34.764,19.2246 34.847,19.0806 C35.151,18.5546 35.381,17.9856 35.71,17.2796 C35.049,17.2226 34.475,17.1356 33.902,17.1336 C33.045,17.1306 32.168,17.0866 31.335,17.2486 C30.546,17.4026 29.792,17.4166 28.999,17.3706 C28.412,17.3356 27.813,17.6346 27.216,17.6506 C26.171,17.6766 25.123,17.5976 24.076,17.5666 C21.622,17.4916 19.169,17.4156 16.715,17.3456 C15.367,17.3066 14.019,17.2746 12.672,17.2416 C12.081,17.2276 11.488,17.1976 10.897,17.2146 C10.307,17.2316 9.719,17.3166 9.129,17.3376 C8.508,17.3606 7.887,17.3426 7.266,17.3426 L7.266,17.3426 Z M31.265,47.5886 C31.657,47.6836 31.997,47.7456 32.323,47.8506 C32.736,47.9836 32.919,47.8566 32.91,47.4226 C32.902,47.0586 32.891,46.6916 32.929,46.3296 C33.058,45.1206 32.855,43.9236 32.215,42.9446 C31.674,42.1186 31.695,41.4056 31.961,40.5746 C32.438,39.0776 32.902,37.5766 33.382,36.0796 C33.45,35.8656 33.576,35.6696 33.675,35.4646 C34.023,34.7426 34.399,34.0316 34.714,33.2926 C35.201,32.1506 35.621,30.9786 36.115,29.8376 C36.79,28.2826 37.468,26.7266 38.217,25.2056 C38.833,23.9536 39.552,22.7546 40.222,21.5296 C40.252,21.4756 40.242,21.4016 40.258,21.2806 C40.035,21.3006 39.85,21.3146 39.667,21.3346 C38.956,21.4126 38.247,21.5166 37.534,21.5596 C36.976,21.5926 36.409,21.5036 35.855,21.5616 C35.608,21.5876 35.274,21.7896 35.173,22.0036 C34.908,22.5626 34.769,23.1796 34.542,23.7586 C34.365,24.2096 34.133,24.6406 33.921,25.0776 C33.356,26.2396 32.706,27.3676 32.246,28.5696 C31.78,29.7866 31.742,31.1726 30.746,32.1716 C30.674,32.2436 30.629,32.3476 30.59,32.4446 C30.08,33.6916 29.398,34.9006 29.114,36.1976 C28.808,37.5946 28.183,38.8306 27.652,40.1186 C27.517,40.4446 27.141,40.8296 26.82,40.8886 C26.071,41.0276 25.28,41.0696 24.521,40.9956 C23.568,40.9026 22.622,40.9316 21.945,41.5956 C21.328,42.2016 20.671,42.9056 20.826,43.9446 C20.849,44.0986 20.729,44.2736 20.679,44.4396 C20.599,44.7056 20.517,44.9716 20.448,45.2406 C20.359,45.5856 20.281,45.9346 20.179,46.3606 C20.775,46.7906 21.542,46.7316 22.21,46.7306 C22.21,46.3046 22.091,45.8656 22.233,45.5396 C22.619,44.6626 23.066,43.8026 23.581,42.9946 C24.358,41.7726 25.532,41.1016 26.968,41.3276 C27.921,41.4766 28.818,41.9756 29.739,42.3236 C29.8,42.3466 29.858,42.4036 29.896,42.4596 C30.622,43.5376 31.363,44.6146 31.367,45.9866 C31.368,46.5246 31.3,47.0626 31.265,47.5886 L31.265,47.5886 Z M34.472,38.1696 C34.238,38.9156 34.082,39.6436 33.783,40.3066 C33.368,41.2286 33.518,41.9916 34.158,42.7276 C34.293,42.8816 34.401,43.1366 34.382,43.3316 C34.289,44.2816 34.296,44.3096 35.262,44.3866 C35.455,44.4026 35.649,44.3996 35.841,44.4166 C38.023,44.6136 40.207,44.8086 42.388,45.0126 C43.904,45.1556 45.421,45.6566 47.028,44.8966 C47.028,44.3706 47.051,43.7596 47.022,43.1506 C46.989,42.4516 46.862,41.7536 46.858,41.0556 C46.841,37.7756 46.762,34.4926 47.148,31.2236 C47.272,30.1736 47.238,29.1446 46.992,28.0996 C46.702,26.8686 46.638,25.6036 46.838,24.3356 C47.056,22.9466 46.956,21.5516 46.839,20.1606 C46.825,19.9956 46.755,19.8366 46.678,19.5646 C45.698,19.8366 44.774,20.0866 43.854,20.3506 C43.485,20.4566 43.127,20.6896 42.759,20.6986 C41.902,20.7186 41.683,21.3356 41.409,21.9456 C40.979,22.9006 40.578,23.8726 40.083,24.7936 C39.513,25.8536 38.771,26.8106 38.429,28.0026 C38.2,28.8036 37.806,29.5636 37.435,30.3156 C37.077,31.0396 37.141,31.9076 36.635,32.5756 C36.596,32.6266 36.604,32.7116 36.578,32.7766 C36.32,33.4026 36.168,34.1066 35.777,34.6346 C35.077,35.5806 34.922,36.6786 34.601,37.7716 C34.967,37.9346 35.312,38.0866 35.657,38.2406 L35.639,38.3106 C35.265,38.2656 34.891,38.2206 34.472,38.1696 L34.472,38.1696 Z M22.785,87.2126 C22.831,87.2346 22.861,87.2566 22.894,87.2616 C26.338,87.6996 29.784,88.1046 33.26,88.1356181 C33.48,88.1376 33.753,87.9736 33.916,87.8056 C35.3,86.3696 36.658,84.9056 38.046,83.4716 C38.28,83.2286 38.599,83.0266 38.919,82.9156 C39.608,82.6756 40.133,83.0416 40.229,83.7576 C40.261,84.0006 40.274,84.2566 40.365,84.4796 C40.592,85.0336 40.474,85.5196 40.112,85.9486 C39.832,86.2806 39.51,86.5806 39.189,86.8756 C39.032,87.0206 38.833,87.1206 38.653,87.2406 C40.166,87.3586 41.53,87.3516 42.893,87.3626 C43.47,87.3666 44.048,87.4066 44.768,87.4356 C44.833,87.2596 44.989,86.9516 45.055,86.6236 C45.135,86.2316 45.135,85.8236 45.176,85.4226 C45.398,83.2686 45.623,81.1136 45.844,78.9586 C45.992,77.5306 46.148,76.1016 46.27,74.6696 C46.298,74.3516 46.198,74.0236 46.155,73.6786 C45.083,73.7696 44.052,73.6916 43.023,74.2096 C43.907,74.5236 44.481,75.0956 44.503,75.9126 C44.524,76.7326 44.304,77.5646 44.136,78.3796 C44.088,78.6156 43.88,78.8386 43.699,79.0236 C43.191,79.5436 42.463,79.5186 41.989,78.9646 C41.578,78.4836 41.321,77.9496 41.456,77.2786 C41.532,76.9026 41.506,76.5046 41.587,76.1306 C41.641,75.8756 41.764,75.6146 41.925,75.4096 C42.142,75.1296 42.103,74.8766 41.762,74.7546 C40.939,74.4586 40.101,74.4716 39.282,74.7196 C38.681,74.9006 38.118,74.8706 37.529,74.6996 C37.198,74.6026 36.843,74.5636 36.498,74.5536 C35.836,74.5366 35.172,74.5586 34.509,74.5606 C33.688,74.5636 32.868,74.5686 32.048,74.5636 C31.177,74.5576 30.299,74.6126 29.437,74.5166 C27.366,74.2856 25.297,74.0156 23.237,73.6936 C22.233,73.5366 21.248,73.3816 20.22,73.4366 C19.662,73.4666 19.06,73.3296 18.533,73.1266 C17.848,72.8646 17.175,72.8216 16.47,72.9036 C16.227,72.9316 15.981,72.9716 15.738,72.9586 C13.955,72.8656 12.168,72.7956 10.452,72.2036 C10.096,72.0796 9.706,72.0586 9.332,71.9906 C9.776,72.2936 10.235,72.5086 10.713,72.6676 C11.059,72.7836 11.322,72.9336 11.364,73.3256 C11.41,73.7456 11.385,74.1636 10.963,74.3816 C10.295,74.7266 9.628,75.0986 8.92,75.3356 C7.269,75.8896 5.424,75.2706 4.509,73.9476 C4.243,73.5616 4.152,73.1926 4.495,72.8066 C4.005,72.6586 3.533,72.5146 3.024,72.3606 C3.015,72.5296 2.998,72.6166 3.008,72.6996 C3.165,74.1076 3.318,75.5146 3.493,76.9196 C3.519,77.1336 3.592,77.3876 3.736,77.5316 C4.133,77.9276 4.259,78.3936 4.215,78.9216 C4.168,79.4706 4.176,79.9996 4.453,80.5046 C4.53,80.6466 4.585,80.8956 4.513,81.0096 C4.164,81.5636 4.489,82.0806 4.539,82.6136 C4.567,82.9096 4.599,83.2066 4.603,83.5036 C4.612,84.3106 4.596,85.1186 4.61,85.9246 C4.621,86.5566 4.815,86.6926 5.397,86.5226 C5.514,86.4886 5.636,86.4546 5.757,86.4536 C8.335,86.4246 10.915,86.3546 13.492,86.3946 C14.889,86.4156 16.286,86.6056 17.678,86.7596 C18.435,86.8436 19.183,87.0106 19.863,87.1286 C19.863,86.3556 19.875,85.6626 19.859,84.9716 C19.842,84.2516 20.065,83.8176 20.598,83.6036 C21.041,83.4256 21.756,83.6156 22.071,84.1526 C22.609,85.0696 23.098,86.0346 22.785,87.2126 L22.785,87.2126 Z M2.183,60.4536 C2.876,60.4596 3.601,60.1436 3.965,60.9486 C4.136,61.3286 3.62,62.2666 3.154,62.4796 C2.683,62.6956 2.44,62.3726 2.165,62.0736 C2.299,62.3406 2.465,62.6856 2.691,62.7316 C3.924,62.9856 5.168,63.1826 6.413,63.3636 C7.088,63.4606 7.783,63.4306 8.452,63.5536 C10.723,63.9716 13.003,64.0816 15.311,64.0226 C17.48,63.9666 19.653,64.0656 21.824,64.1226 C22.91,64.1516 23.993,64.2566 25.078,64.2866 C25.263,64.2906 25.462,64.0926 25.639,63.9696 C26.005,63.7166 26.327,63.3656 26.726,63.2126 C27.257,63.0116 27.901,63.4326 27.836,63.9096 C27.759,64.4646 28.048,64.5326 28.452,64.5636 C28.766,64.5866 29.08,64.6356 29.394,64.6416 C30.428,64.6606 31.465,64.6236 32.496,64.6856 C33.713,64.7566 34.896,64.7366 36.085,64.3716 C36.563,64.2246 37.146,64.3926 37.678,64.4506 C37.953,64.4796 38.22,64.5806 38.492,64.6486 C39.991,65.0216 41.444,64.5196 42.982,64.4186 C42.911,64.2506 42.879,64.0906 42.788,63.9806 C42.523,63.6616 42.512,63.3466 42.755,63.0246 C43.022,62.6686 43.377,62.6916 43.752,62.8146 C44.499,63.0616 44.636,63.6346 44.527,64.3136 C45.244,64.5286 45.919,64.7306 46.63,64.9446 C46.748,60.5786 46.864,56.2426 46.981,51.9246 C46.613,52.1276 46.342,52.3496 46.035,52.4276 C45.652,52.5256 45.24,52.5206 44.84,52.5306 C44.265,52.5436 43.69,52.5346 43.115,52.5276 C42.507,52.5196 41.896,52.4706 41.289,52.4956 C39.296,52.5756 37.303,52.6976 35.309,52.7646 C34.724,52.7856 34.129,52.5976 33.55,52.6456 C31.982,52.7766 30.424,52.9996 28.857,53.1556 C27.178,53.3216 25.545,52.9156 23.893,52.7186 C23.13,52.6276 22.343,52.6926 21.59,52.5596 C20.163,52.3076 18.773,51.8946 17.304,51.8126 C15.295,51.7016 13.292,51.4506 11.286,51.2596 C9.488,51.0896 7.691,50.9166 5.892,50.7546 C5.589,50.7276 5.28,50.7506 4.98,50.7506 C4.967,50.8786 4.956,50.9306 4.958,50.9826 C4.975,51.5086 4.814,51.9286 4.252,52.0626 C3.701,52.1936 3.438,51.8966 3.224,51.4126 C2.971,50.8406 2.781,50.1326 1.803,50.2446 C1.729,51.3846 1.623,52.5706 1.591,53.7566 C1.579,54.1826 1.777,54.6096 1.824,55.0416 C1.959,56.2756 2.081,57.5116 2.176,58.7486 C2.218,59.3006 2.183,59.8596 2.183,60.4536 L2.183,60.4536 Z M18.803,42.6536 C19.233,42.0846 19.625,41.6366 19.936,41.1396 C20.556,40.1516 21.468,39.5826 22.566,39.3706 C23.541,39.1826 24.544,39.1306 25.538,39.0536 C25.894,39.0256 26.136,38.9126 26.275,38.5796 C26.77,37.3846 27.283,36.1966 27.765,34.9956 C28.267,33.7476 28.674,32.4566 29.246,31.2416 C29.879,29.8946 30.655,28.6156 30.881,27.1076 C30.913,26.8896 31.013,26.6616 31.143,26.4826 C32.27,24.9266 32.976,23.1686 33.591,21.3476 L33.31,21.3476 C30.626,21.3476 27.94,21.3466 25.256,21.3496 C25.082,21.3496 24.901,21.3556 24.734,21.3976 C23.743,21.6486 22.763,21.5796 21.764,21.3986 C21.07,21.2736 20.347,21.3056 19.637,21.2646 C19.393,21.2506 19.15,21.2316 18.906,21.2096 C18.023,21.1306 17.14,21.0396 16.256,20.9736 C15.441,20.9126 14.62,20.9096 13.808,20.8206 C11.726,20.5926 9.712,20.0886 7.778,19.2746 C7.668,19.2276 7.533,19.2456 7.417,19.2106 C6.818,19.0366 6.104,19.0026 5.647,18.6446 C4.513,17.7556 3.094,18.0046 1.915,17.4286 C1.644,17.9436 1.55,18.3746 1.718,18.8886 C1.851,19.2956 1.884,19.7546 1.867,20.1876 C1.835,20.9546 1.681,21.7196 1.668,22.4876 C1.636,24.2546 1.699,26.0246 1.649,27.7906 C1.588,29.9626 1.45,32.1316 1.35,34.3026 C1.342,34.4756 1.363,34.6516 1.379,34.8256 C1.434,35.4156 1.538,36.0056 1.541,36.5966 C1.549,37.7876 1.505,38.9796 1.477,40.1716 C1.469,40.5046 1.419,40.8386 1.435,41.1696 C1.462,41.7016 1.508,42.2336 1.583,42.7596 C1.628,43.0786 1.738,43.3866 1.82,43.7036 C2.304,43.5966 2.841,43.4436 3.388,43.3636 C4.722,43.1676 6.06,42.9986 7.398,42.8346 C7.724,42.7946 8.106,42.7066 8.381,42.8286 C9.223,43.1986 10.05,43.0246 10.906,42.9536 C12.617,42.8106 14.335,42.7316 16.05,42.6606 C16.988,42.6206 17.927,42.6536 18.803,42.6536 L18.803,42.6536 Z M44.841,5.1426 C44.783,5.2176 44.724,5.2916 44.666,5.3666 C44.537,5.5316 44.397,5.6886 44.282,5.8616 C43.576,6.9246 42.876,7.9926 42.174,9.0586 C41.445,10.1636 40.716,11.2686 39.989,12.3746 C39.952,12.4316 39.919,12.5026 39.916,12.5686 C39.874,13.5566 39.336,14.3146 38.758,15.0486 C37.77,16.3086 37.266,17.8026 36.665,19.2536 C36.881,19.3016 37.101,19.2876 37.231,19.3896 C37.7,19.7566 38.226,19.7346 38.736,19.6126 C39.587,19.4086 40.437,19.1816 41.254,18.8726 C41.581,18.7496 41.845,18.4076 42.079,18.1176 C42.153,18.0266 42.033,17.7806 42.002,17.6046 C41.959,17.3576 41.794,17.0306 41.894,16.8776 C42.185,16.4366 42.208,15.6896 43.008,15.7286 C43.053,15.7306 43.117,15.6436 43.15,15.5856 C43.68,14.6616 44.249,13.7546 44.721,12.8006 C45.187,11.8626 45.584,10.8846 45.961,9.9056 C46.825,7.6566 47.897,5.4716 48.168,3.0316 C48.191,2.8156 48.209,2.5986 48.229,2.3826 C46.359,2.2736 44.901,3.4876 44.841,5.1426 L44.841,5.1426 Z M47.472,75.2836 C47.809,74.9816 48.038,74.7786 48.265,74.5746 C47.498,75.7806 46.828,76.9876 47.452,78.5116 C47.454,78.5116 47.397,78.5236 47.34,78.5296 C47.29,78.5356 47.24,78.5356 47.262,78.5346 C47.123,79.4016 46.971,80.2406 46.861,81.0846 C46.83,81.3186 46.952,81.5686 46.945,81.8096 C46.926,82.4926 46.901,83.1756 46.835,83.8546 C46.751,84.7186 46.623,85.5786 46.516,86.4396 C46.481,86.7196 46.451,87.0006 46.426,87.2826 C46.416,87.4046 46.435,87.5286 46.426,87.6496 C46.334,89.0286 46.276,90.4106 46.127,91.7836 C46.037,92.6126 45.824,93.4306 45.631,94.2456 C45.417,95.1466 45.161,96.0376 44.927,96.9346 C44.749,97.6176 44.441,97.7876 43.781,97.5956 C43.625,97.5506 43.431,97.5326 43.282,97.5816 C42.276,97.9236 41.287,97.8286 40.282,97.5646 C39.905,97.4656 39.494,97.4876 39.098,97.4676 C38.452,97.4366 37.804,97.3986 37.158,97.3926 C36.268,97.3856 35.379,97.3956 34.489,97.4166 C33.528,97.4416 32.566,97.4696 31.607,97.5276 C30.191,97.6126 28.776,97.7206 27.362,97.8326 C27.264,97.8406 27.175,97.9646 27.129,97.9996 C26.928,97.9546 26.725,97.8806 26.519,97.8696 C24.421,97.7456 22.28,97.8536 20.234,97.4616 C17.807,96.9976 15.387,97.0436 12.963,97.0016 C10.897,96.9646 8.829,97.1206 6.76,97.1686 C6.345,97.1786 5.923,97.1076 5.511,97.0276 C5.022,96.9326 4.794,96.5866 4.715,96.1046 C4.522,94.9206 4.277,93.7456 4.121,92.5586 C4.015,91.7656 4.032,90.9556 3.981,90.1556 C3.969,89.9846 3.934,89.8016 3.858,89.6516 C3.098,88.1626 2.936,86.5506 2.811,84.9186 C2.671,83.0856 2.493,81.2546 2.277,79.4286 C2.229,79.0196 1.96,78.6366 1.792,78.2416 C1.771,78.1936 1.726,78.1396 1.737,78.0986 C2.098,76.6796 1.768,75.2766 1.621,73.8746 C1.426,72.0356 1.16,70.2036 0.924,68.3686 C0.786,67.2906 0.738,66.2416 0.97,65.1406 C1.138,64.3456 0.873,63.4616 0.819,62.6166 C0.739,61.3596 0.683,60.1016 0.601,58.8446 C0.466,56.7646 0.28,54.6876 0.188,52.6056 C0.143,51.5796 0.303,50.5446 0.294,49.5146 C0.282,48.2376 0.19,46.9616 0.133,45.6846 C0.121,45.4406 0.028,45.1646 0.11,44.9566 C0.364,44.3106 0.138,43.6986 0.094,43.0656 C0.018,41.9836 0.003,40.8956 0.001,39.8106 C-0.003,37.7786 0.006,35.7456 0.041,33.7136 C0.057,32.7506 0.148,31.7896 0.198,30.8276 C0.233,30.1626 0.243,29.4966 0.289,28.8326 C0.321,28.3666 0.428,27.9026 0.442,27.4356 C0.456,26.9336 0.421,26.4266 0.37,25.9256 C0.202,24.2796 0.199,22.6446 0.464,20.9996 C0.556,20.4196 0.383,19.7956 0.323,19.1926 C0.244,18.3976 0.107,17.6036 0.091,16.8076 C0.075,16.0846 0.406,15.7396 1.136,15.6746 C2.095,15.5896 3.062,15.5446 4.025,15.5536 C5.25,15.5656 6.473,15.6906 7.697,15.6916 C9.766,15.6936 11.835,15.6046 13.904,15.6176 C14.769,15.6216 15.634,15.7896 16.501,15.8786 C16.882,15.9176 17.263,15.9696 17.645,15.9686 C19.57,15.9636 21.496,15.9606 23.422,15.9206 C24.907,15.8906 26.392,15.8146 27.877,15.7456 C28.855,15.6986 29.833,15.6236 30.811,15.5666 C32.612,15.4596 34.414,15.3646 36.215,15.2446 C36.391,15.2316 36.606,15.1156 36.723,14.9786 C37.593,13.9606 38.221,12.8036 38.817,11.6016 C39.521,10.1816 40.44,8.8676 41.273,7.5116 C41.593,6.9896 41.938,6.4836 42.264,5.9646 C43.094,4.6466 43.916,3.3236 44.75,2.0076 C45.399,0.9846 46.362,0.5416 47.551,0.548518394 C47.797,0.5506 48.042,0.5676 48.286,0.5836 C49.432,0.6606 49.941,1.0826 49.779,2.1886 C49.555,3.7186 49.217,5.2496 48.749,6.7236 C47.714,9.9806 46.336,13.1006 44.66,16.0846 C44.618,16.1606 44.591,16.2446 44.545,16.3556 C45.231,16.6436 45.898,16.4306 46.561,16.3546 C46.908,16.3146 47.251,16.2086 47.597,16.1986 C48.224,16.1776 48.565,16.5056 48.539,17.1236 C48.503,17.9626 48.424,18.8006 48.351,19.6386 C48.3,20.2216 48.301,20.7716 48.657,21.2966 C49.009,21.8186 48.857,22.3976 48.72,22.9726 C48.552,23.6796 48.525,24.4256 48.305,25.1136 C47.849,26.5396 48.51,27.8706 48.542,29.2496 C48.556,29.8566 48.466,30.4666 48.417,31.0746 C48.398,31.3176 48.347,31.5576 48.34,31.8006 C48.295,33.1996 48.255,34.5966 48.222,35.9956 C48.207,36.6546 48.209,37.3136 48.205,37.9716 C48.204,38.0596 48.237,38.1566 48.212,38.2336 C47.728,39.6866 48.523,41.0866 48.369,42.5406 C48.227,43.8766 48.263,45.2336 48.247,46.5816 C48.244,46.8296 48.424,47.0796 48.418,47.3266 C48.374,49.1306 48.281,50.9336 48.255,52.7376 C48.243,53.5606 48.347,54.3856 48.4,55.2106 C48.401,55.2276 48.412,55.2476 48.406,55.2616 C48.168,55.8296 48.157,56.4256 48.168,57.0286 C48.173,57.2746 48.107,57.5216 48.096,57.7696 C48.089,57.9786 48.129,58.1906 48.123,58.4006 C48.056,60.7406 47.976,63.0796 47.924,65.4206 C47.912,65.9406 48.031,66.4626 48.02,66.9826 C48.009,67.5696 47.921,68.1546 47.865,68.7406 C47.751,69.9256 47.618,71.1106 47.534,72.2986 C47.51,72.6266 47.693,72.9676 47.679,73.2976 C47.654,73.9196 47.554,74.5386 47.472,75.2836 L47.472,75.2836 Z" id="Fill-4" fill="#B02524" mask="url(#mask-4)"></path>
                </g>
                <path d="M18.8034,43.1042 C17.9274,43.1042 16.9884,43.0722 16.0504,43.1112 C14.3344,43.1822 12.6164,43.2612 10.9064,43.4042 C10.0504,43.4752 9.2234,43.6492 8.3804,43.2792 C8.1064,43.1582 7.7244,43.2462 7.3984,43.2862 C6.0604,43.4502 4.7224,43.6192 3.3884,43.8142 C2.8414,43.8942 2.3044,44.0472 1.8204,44.1542 C1.7384,43.8372 1.6274,43.5292 1.5824,43.2102 C1.5084,42.6842 1.4614,42.1522 1.4354,41.6212 C1.4184,41.2902 1.4694,40.9562 1.4774,40.6232 C1.5044,39.4302 1.5484,38.2392 1.5404,37.0472 C1.5374,36.4572 1.4344,35.8672 1.3784,35.2762 C1.3634,35.1022 1.3424,34.9262 1.3504,34.7532 C1.4494,32.5832 1.5874,30.4142 1.6494,28.2422 C1.6994,26.4752 1.6364,24.7062 1.6674,22.9382 C1.6814,22.1702 1.8344,21.4062 1.8664,20.6382 C1.8844,20.2062 1.8514,19.7472 1.7184,19.3392 C1.5504,18.8262 1.6444,18.3942 1.9144,17.8792 C3.0944,18.4562 4.5134,18.2072 5.6474,19.0952 C6.1044,19.4542 6.8184,19.4872 7.4164,19.6622 C7.5324,19.6962 7.6674,19.6782 7.7784,19.7252 C9.7114,20.5402 11.7264,21.0432 13.8084,21.2712 C14.6194,21.3602 15.4414,21.3632 16.2554,21.4242 C17.1404,21.4912 18.0234,21.5822 18.9064,21.6612 C19.1504,21.6822 19.3934,21.7022 19.6374,21.7152 C20.3474,21.7562 21.0704,21.7242 21.7644,21.8492 C22.7634,22.0312 23.7424,22.0992 24.7344,21.8482 C24.9014,21.8062 25.0814,21.8002 25.2554,21.8002 C27.9404,21.7972 30.6254,21.7982 33.3104,21.7982 L33.5904,21.7982 C32.9764,23.6202 32.2704,25.3772 31.1434,26.9332 C31.0134,27.1122 30.9124,27.3402 30.8804,27.5582 C30.6554,29.0662 29.8784,30.3452 29.2454,31.6922 C28.6744,32.9082 28.2674,34.1992 27.7654,35.4472 C27.2824,36.6472 26.7704,37.8352 26.2754,39.0312 C26.1364,39.3642 25.8944,39.4762 25.5374,39.5042 C24.5434,39.5822 23.5404,39.6332 22.5664,39.8222 C21.4684,40.0342 20.5564,40.6022 19.9364,41.5902 C19.6244,42.0872 19.2334,42.5362 18.8034,43.1042" id="Fill-7" fill="#FEFEFE"></path>
                <path d="M10.5729,57.5544 C10.6059,58.2964 10.9099,58.6954 11.4109,58.6534 C11.8219,58.6184 12.2069,58.1074 12.1889,57.6164 C12.1709,57.1124 11.7709,56.7464 11.2559,56.7644 C10.7879,56.7814 10.5509,57.0554 10.5729,57.5544 M38.4979,55.6664 C38.4899,56.2384 39.0759,56.7704 39.7329,56.7664 C40.1589,56.7634 40.3649,56.5004 40.3859,56.1004 C40.4189,55.4844 39.8719,54.7764 39.3709,54.7644 C38.8729,54.7514 38.5049,55.1324 38.4979,55.6664 M18.0009,55.3704 C17.4889,55.7264 17.0039,56.0044 17.1239,56.6854 C17.2089,57.1714 17.5049,57.5044 17.9559,57.5884 C18.2189,57.6364 18.6109,57.5434 18.7879,57.3624 C19.1169,57.0234 19.0179,56.5624 18.7639,56.2004 C18.5499,55.8924 18.2559,55.6414 18.0009,55.3704 M16.3969,62.4714 C16.4059,63.0804 16.8949,63.4774 17.6329,63.4704 C18.1429,63.4664 18.5179,63.1054 18.5099,62.6234 C18.5009,61.9984 18.0009,61.6454 17.1459,61.6604 C16.6549,61.6694 16.3899,61.9564 16.3969,62.4714 M11.9449,52.6564 C11.1589,52.6444 11.0099,52.8504 11.2619,53.6004 C11.3019,53.7154 11.3289,53.8344 11.3689,53.9494 C11.5339,54.4284 11.8699,54.6454 12.3739,54.5794 C12.8619,54.5174 13.1029,54.2044 13.1619,53.7414 C13.2559,52.9964 12.8839,52.6694 11.9449,52.6564 M44.5259,56.0914 C44.5309,55.5584 44.0609,55.0914 43.5179,55.0893979 C43.0319,55.0884 42.6799,55.4474 42.6689,55.9574 C42.6519,56.6404 43.1279,57.2254 43.7129,57.2424 C44.1609,57.2554 44.5189,56.7474 44.5259,56.0914 M28.1769,59.9604 C28.7389,59.9774 29.1429,59.4774 29.1479,58.7594 C29.1519,58.2834 28.6919,57.8884 28.1039,57.8624 C27.5739,57.8374 26.9889,58.2504 26.9559,58.6704 C26.9239,59.0864 27.7379,59.9484 28.1769,59.9604 M41.8259,63.2284 C41.7449,62.9744 41.7019,62.7254 41.5889,62.5144 C41.3789,62.1224 40.8979,62.0124 40.6279,62.3424 C40.3389,62.6964 40.0779,63.1214 39.9649,63.5574 C39.8549,63.9794 40.0929,64.3844 40.5309,64.5704 C40.8919,64.7234 41.2579,64.6564 41.4479,64.3024 C41.6259,63.9704 41.7049,63.5854 41.8259,63.2284 M22.7179,58.5684 C22.2519,58.5114 21.9829,58.7134 21.8789,59.1644 C21.8229,59.4014 21.7409,59.6324 21.6569,59.8614 C21.4479,60.4244 21.6919,60.8234 22.2939,60.8844 C23.0919,60.9674 23.6319,60.1624 23.4499,59.1854 C23.3719,58.7594 23.1769,58.5104 22.7179,58.5684 M33.4669,63.6724 C33.5869,64.0454 33.7059,64.4564 33.8589,64.8554 C33.8929,64.9454 34.0429,65.0244 34.1509,65.0454 C34.8289,65.1794 35.6559,64.3584 35.5279,63.6854 C35.4259,63.1464 34.9859,63.0064 34.5429,62.8764 C33.8749,62.6814 33.4809,62.9584 33.4669,63.6724 M33.0229,57.4754 C33.5849,57.4554 34.3539,56.6104 34.3069,56.0654 C34.2779,55.7214 33.6239,55.4084 32.9879,55.4354 C32.3749,55.4604 31.9859,55.7974 31.9989,56.2924 C32.0159,56.9524 32.4849,57.4934 33.0229,57.4754 M10.1169,61.4874 C10.0779,61.2834 10.0769,61.0644 9.9929,60.8824 C9.7789,60.4154 8.3259,60.2714 8.0339,60.6924 C7.7399,61.1164 7.8229,61.5554 8.0999,61.9614 C8.4109,62.4164 9.0249,62.6204 9.5379,62.4374 C9.9779,62.2794 10.1579,61.9544 10.1169,61.4874 M9.2809,57.8924 C8.7069,56.9004 8.2279,56.0334 7.7099,55.1914 C7.4679,54.7984 7.0589,54.7094 6.6439,54.8964 C6.2769,55.0624 6.2369,55.3874 6.3519,55.7454 C6.3789,55.8284 6.3599,55.9354 6.4049,56.0004 C6.6679,56.3814 6.9009,56.8014 7.2349,57.1074 C7.3799,57.2394 7.7449,57.1174 8.0079,57.1354 C8.1369,57.1454 8.2789,57.1884 8.3879,57.2584 C8.6529,57.4274 8.9029,57.6214 9.2809,57.8924 M35.7459,60.4374 L35.7459,60.4004 C35.6929,60.4034 35.6409,60.4084 35.5899,60.4084 C35.3079,60.4054 34.9999,60.3704 34.9369,60.7524 C34.8719,61.1464 35.1499,61.2314 35.4549,61.3394 C35.5909,61.3864 35.7189,61.6094 35.7469,61.7704 C35.8029,62.1084 35.8969,62.3854 36.2659,62.4664 C37.0499,62.6384 37.7389,61.9874 37.6299,61.1864 C37.5789,60.8204 37.4779,60.4744 37.0379,60.4444 C36.6089,60.4134 36.1769,60.4374 35.7459,60.4374 M2.1829,60.9044 C2.1829,60.3104 2.2189,59.7514 2.1769,59.2004 C2.0809,57.9624 1.9589,56.7264 1.8239,55.4924 C1.7769,55.0604 1.5789,54.6334 1.5909,54.2074 C1.6229,53.0214 1.7289,51.8354 1.8029,50.6954 C2.7809,50.5834 2.9709,51.2914 3.2239,51.8644 C3.4379,52.3474 3.7009,52.6444 4.2519,52.5134 C4.8139,52.3794 4.9749,51.9594 4.9579,51.4334 C4.9559,51.3814 4.9679,51.3294 4.9799,51.2014 C5.2799,51.2014 5.5889,51.1784 5.8919,51.2054 C7.6909,51.3674 9.4879,51.5404 11.2859,51.7104 C13.2919,51.9014 15.2949,52.1524 17.3039,52.2634 C18.7729,52.3454 20.1629,52.7584 21.5899,53.0104 C22.3439,53.1434 23.1299,53.0784 23.8929,53.1694 C25.5449,53.3674 27.1779,53.7724 28.8569,53.6064 C30.4239,53.4504 31.9819,53.2274 33.5499,53.0964 C34.1289,53.0484 34.7239,53.2364 35.3089,53.2154 C37.3029,53.1484 39.2959,53.0264 41.2889,52.9464 C41.8959,52.9214 42.5069,52.9704 43.1149,52.9784 C43.6899,52.9854 44.2649,52.9944 44.8399,52.9814 C45.2399,52.9714 45.6519,52.9764 46.0349,52.8784 C46.3429,52.8004 46.6129,52.5784 46.9809,52.3754 C46.8639,56.6934 46.7479,61.0294 46.6299,65.3954 C45.9189,65.1814 45.2439,64.9794 44.5269,64.7644 C44.6359,64.0854 44.4989,63.5124 43.7519,63.2654 C43.3769,63.1424 43.0219,63.1194 42.7549,63.4754 C42.5119,63.7974 42.5229,64.1124 42.7879,64.4314 C42.8789,64.5414 42.9109,64.7014 42.9819,64.8694 C41.4439,64.9704 39.9909,65.4724 38.4919,65.0994 C38.2199,65.0324 37.9529,64.9304 37.6779,64.9014 C37.1459,64.8434 36.5629,64.6754 36.0849,64.8234 C34.8959,65.1874 33.7129,65.2074 32.4959,65.1364 C31.4649,65.0754 30.4279,65.1114 29.3939,65.0924 C29.0799,65.0864 28.7659,65.0374 28.4519,65.0144 C28.0479,64.9834 27.7599,64.9154 27.8359,64.3604 C27.9009,63.8834 27.2579,63.4624 26.7259,63.6634 C26.3269,63.8164 26.0049,64.1674 25.6389,64.4204 C25.4619,64.5434 25.2629,64.7414 25.0779,64.7374 C23.9929,64.7074 22.9099,64.6024 21.8239,64.5744 C19.6529,64.5164 17.4799,64.4174 15.3109,64.4734 C13.0029,64.5334 10.7229,64.4224 8.4519,64.0044 C7.7829,63.8814 7.0879,63.9114 6.4129,63.8144 C5.1679,63.6334 3.9239,63.4364 2.6909,63.1824 C2.4649,63.1364 2.2999,62.7914 2.1649,62.5244 C2.4399,62.8244 2.6829,63.1464 3.1539,62.9304 C3.6199,62.7174 4.1359,61.7804 3.9649,61.3994 C3.6009,60.5944 2.8759,60.9104 2.1829,60.9044" id="Fill-9" fill="#FEFEFE"></path>
                <path d="M22.7965,78.2028 C22.6825,79.1418 23.2325,79.8738 23.5605,80.6778 C24.1245,82.0578 25.1595,82.8938 26.5505,83.3428 C27.1645,83.5408 27.5805,83.3328 27.7655,82.7198 C28.0235,81.8558 27.8945,81.0498 27.3555,80.3298 C26.7885,79.5728 26.2305,78.8048 25.5985,78.1028 C25.2085,77.6708 24.7315,77.2748 24.2185,77.0058 C23.3885,76.5698 22.8695,76.9148 22.8145,77.8358 C22.8065,77.9588 22.8025,78.0808 22.7965,78.2028 M10.1365,83.2958 C10.1855,83.6908 10.2375,84.1248 10.2915,84.5568 C10.3025,84.6428 10.3095,84.7308 10.3305,84.8158 C10.4825,85.4108 10.8815,85.7488 11.4945,85.7578 C12.3715,85.7698 13.0075,85.3118 13.2625,84.5248 C13.6135,83.4348 13.8505,82.3038 14.0855,81.1798 C14.2635,80.3338 14.1925,79.5058 13.6375,78.7798 C13.5905,78.7178 13.5855,78.6168 13.5775,78.5328 C13.5185,77.9238 13.3455,77.7408 12.7535,77.8528 C12.4535,77.9098 12.1275,78.0928 11.9155,78.3148 C10.6065,79.6958 10.3385,81.4628 10.1365,83.2958 M22.7845,87.6638 C23.0985,86.4848 22.6095,85.5198 22.0705,84.6028 C21.7555,84.0658 21.0405,83.8768 20.5985,84.0548 C20.0655,84.2678 19.8425,84.7028 19.8585,85.4228 C19.8745,86.1138 19.8625,86.8068 19.8625,87.5798 C19.1835,87.4618 18.4355,87.2948 17.6785,87.2108 C16.2855,87.0568 14.8895,86.8668 13.4915,86.8458 C10.9145,86.8058 8.3345,86.8758 5.7565,86.9038 C5.6365,86.9048 5.5145,86.9388 5.3975,86.9738 C4.8155,87.1428 4.6205,87.0078 4.6095,86.3758 C4.5965,85.5688 4.6115,84.7618 4.6035,83.9548 C4.5995,83.6578 4.5675,83.3598 4.5385,83.0638 C4.4885,82.5318 4.1635,82.0148 4.5135,81.4608 C4.5845,81.3468 4.5295,81.0978 4.4525,80.9558 C4.1765,80.4508 4.1675,79.9218 4.2145,79.3728 C4.2595,78.8448 4.1335,78.3788 3.7355,77.9818 C3.5925,77.8388 3.5195,77.5848 3.4925,77.3708 C3.3175,75.9658 3.1645,74.5578 3.0075,73.1498 C2.9975,73.0668 3.0155,72.9798 3.0245,72.8108 C3.5325,72.9658 4.0045,73.1088 4.4945,73.2578 C4.1515,73.6428 4.2425,74.0128 4.5095,74.3978 C5.4235,75.7218 7.2695,76.3408 8.9195,75.7868 C9.6275,75.5498 10.2945,75.1778 10.9625,74.8328 C11.3855,74.6148 11.4095,74.1958 11.3635,73.7758 C11.3215,73.3848 11.0595,73.2338 10.7125,73.1188 C10.2345,72.9598 9.7755,72.7448 9.3315,72.4408 C9.7055,72.5098 10.0965,72.5308 10.4515,72.6538 C12.1675,73.2468 13.9545,73.3158 15.7375,73.4098 C15.9815,73.4228 16.2275,73.3828 16.4705,73.3538 C17.1755,73.2718 17.8485,73.3148 18.5325,73.5778 C19.0605,73.7808 19.6615,73.9178 20.2205,73.8878 C21.2475,73.8328 22.2335,73.9868 23.2365,74.1438 C25.2965,74.4668 27.3655,74.7358 29.4375,74.9678 C30.2985,75.0628 31.1775,75.0088 32.0475,75.0148 C32.8675,75.0188 33.6885,75.0148 34.5095,75.0118 C35.1715,75.0098 35.8355,74.9868 36.4975,75.0048 C36.8435,75.0148 37.1975,75.0538 37.5285,75.1498 C38.1175,75.3218 38.6815,75.3508 39.2815,75.1708 C40.1015,74.9228 40.9395,74.9098 41.7625,75.2058 C42.1035,75.3278 42.1425,75.5808 41.9245,75.8598 C41.7645,76.0648 41.6415,76.3268 41.5865,76.5818 C41.5055,76.9558 41.5315,77.3528 41.4555,77.7288 C41.3205,78.3998 41.5775,78.9338 41.9885,79.4158 C42.4625,79.9698 43.1915,79.9948 43.6985,79.4738 C43.8795,79.2898 44.0875,79.0658 44.1365,78.8308 C44.3045,78.0158 44.5245,77.1828 44.5025,76.3628 C44.4815,75.5468 43.9065,74.9738 43.0235,74.6608 C44.0525,74.1418 45.0825,74.2208 46.1545,74.1298 C46.1975,74.4738 46.2975,74.8028 46.2705,75.1208 C46.1485,76.5528 45.9915,77.9808 45.8445,79.4098 C45.6225,81.5638 45.3985,83.7198 45.1765,85.8738 C45.1355,86.2738 45.1355,86.6818 45.0555,87.0748 C44.9885,87.4018 44.8325,87.7108 44.7685,87.8868 C44.0475,87.8568 43.4705,87.8168 42.8935,87.8128 C41.5295,87.8028 40.1655,87.8088 38.6525,87.6908 C38.8325,87.5708 39.0315,87.4718 39.1895,87.3268 C39.5105,87.0318 39.8315,86.7308 40.1115,86.3988 C40.4745,85.9708 40.5925,85.4838 40.3645,84.9308 C40.2745,84.7078 40.2615,84.4518 40.2295,84.2088 C40.1325,83.4928 39.6085,83.1268 38.9185,83.3668 C38.5995,83.4768 38.2795,83.6798 38.0455,83.9228 C36.6575,85.3558 35.3005,86.8198 33.9155,88.2568 C33.7525,88.4248 33.4805,88.5888 33.2605,88.5868181 C29.7835,88.5558 26.3375,88.1498 22.8945,87.7128 C22.8605,87.7078 22.8305,87.6848 22.7845,87.6638" id="Fill-11" fill="#FEFEFE"></path>
                <path d="M34.4723,38.6208 C34.8913,38.6718 35.2653,38.7168 35.6393,38.7618 L35.6573,38.6908 C35.3123,38.5378 34.9673,38.3858 34.6013,38.2228 C34.9213,37.1298 35.0763,36.0318 35.7773,35.0858 C36.1673,34.5578 36.3203,33.8528 36.5773,33.2268 C36.6043,33.1628 36.5963,33.0778 36.6353,33.0258 C37.1413,32.3578 37.0763,31.4908 37.4353,30.7668 C37.8063,30.0148 38.2003,29.2548 38.4293,28.4538 C38.7713,27.2618 39.5133,26.3048 40.0823,25.2448 C40.5773,24.3238 40.9793,23.3508 41.4093,22.3958 C41.6833,21.7868 41.9023,21.1698 42.7593,21.1488 C43.1263,21.1408 43.4853,20.9078 43.8543,20.8018 C44.7743,20.5378 45.6983,20.2878 46.6783,20.0158 C46.7543,20.2878 46.8253,20.4468 46.8383,20.6108 C46.9553,22.0028 47.0563,23.3968 46.8373,24.7868 C46.6383,26.0548 46.7013,27.3188 46.9923,28.5508 C47.2383,29.5958 47.2723,30.6248 47.1483,31.6748 C46.7623,34.9428 46.8413,38.2258 46.8583,41.5068 C46.8623,42.2048 46.9893,42.9018 47.0223,43.6008 C47.0513,44.2108 47.0283,44.8218 47.0283,45.3478 C45.4203,46.1068 43.9043,45.6058 42.3883,45.4638 C40.2063,45.2598 38.0233,45.0638 35.8413,44.8678 C35.6493,44.8498 35.4543,44.8528 35.2623,44.8378 C34.2953,44.7608 34.2883,44.7318 34.3813,43.7828 C34.4013,43.5878 34.2923,43.3328 34.1583,43.1788 C33.5183,42.4418 33.3683,41.6798 33.7833,40.7578 C34.0813,40.0948 34.2383,39.3668 34.4723,38.6208" id="Fill-13" fill="#FEFEFE"></path>
                <path d="M31.2653,48.0397 C31.3003,47.5137 31.3683,46.9757 31.3673,46.4367 C31.3633,45.0647 30.6213,43.9877 29.8963,42.9107 C29.8583,42.8537 29.8003,42.7977 29.7393,42.7737 C28.8183,42.4267 27.9203,41.9277 26.9683,41.7777 C25.5323,41.5527 24.3583,42.2237 23.5803,43.4447 C23.0663,44.2537 22.6193,45.1127 22.2333,45.9907 C22.0903,46.3157 22.2093,46.7557 22.2093,47.1817 C21.5413,47.1827 20.7753,47.2417 20.1793,46.8107 C20.2813,46.3857 20.3593,46.0367 20.4483,45.6907 C20.5173,45.4227 20.5993,45.1567 20.6793,44.8907 C20.7293,44.7247 20.8493,44.5497 20.8263,44.3947 C20.6703,43.3557 21.3273,42.6517 21.9453,42.0467 C22.6213,41.3827 23.5683,41.3527 24.5213,41.4457 C25.2803,41.5197 26.0713,41.4777 26.8203,41.3397 C27.1413,41.2797 27.5173,40.8947 27.6523,40.5687 C28.1833,39.2817 28.8083,38.0457 29.1143,36.6477 C29.3983,35.3517 30.0793,34.1427 30.5893,32.8947 C30.6283,32.7987 30.6743,32.6937 30.7453,32.6227 C31.7423,31.6237 31.7803,30.2367 32.2453,29.0197 C32.7053,27.8177 33.3563,26.6897 33.9203,25.5277 C34.1333,25.0917 34.3653,24.6607 34.5413,24.2097 C34.7693,23.6307 34.9083,23.0137 35.1723,22.4547 C35.2743,22.2407 35.6083,22.0387 35.8553,22.0127 C36.4093,21.9547 36.9763,22.0437 37.5343,22.0107 C38.2463,21.9677 38.9553,21.8627 39.6663,21.7857 C39.8503,21.7657 40.0353,21.7517 40.2583,21.7307 C40.2423,21.8527 40.2513,21.9267 40.2223,21.9797 C39.5523,23.2057 38.8323,24.4047 38.2173,25.6567 C37.4683,27.1777 36.7893,28.7327 36.1153,30.2887 C35.6203,31.4297 35.2013,32.6017 34.7133,33.7437 C34.3993,34.4817 34.0233,35.1927 33.6743,35.9157 C33.5763,36.1207 33.4503,36.3157 33.3813,36.5307 C32.9023,38.0267 32.4383,39.5277 31.9603,41.0247 C31.6953,41.8557 31.6743,42.5687 32.2143,43.3947 C32.8553,44.3747 33.0583,45.5707 32.9293,46.7807 C32.8913,47.1427 32.9023,47.5097 32.9103,47.8737 C32.9183,48.3077 32.7363,48.4347 32.3233,48.3017 C31.9963,48.1957 31.6573,48.1347 31.2653,48.0397" id="Fill-15" fill="#FEFEFE"></path>
                <path d="M44.8415,5.5934 C44.9015,3.9384 46.3595,2.7244 48.2295,2.8334 C48.2085,3.0494 48.1915,3.2664 48.1675,3.4824 C47.8975,5.9224 46.8245,8.1074 45.9605,10.3564 C45.5835,11.3354 45.1875,12.3134 44.7215,13.2514 C44.2485,14.2054 43.6805,15.1124 43.1505,16.0364 C43.1165,16.0944 43.0535,16.1814 43.0075,16.1794 C42.2075,16.1404 42.1855,16.8874 41.8945,17.3284 C41.7935,17.4814 41.9585,17.8084 42.0015,18.0554 C42.0325,18.2314 42.1535,18.4774 42.0785,18.5684 C41.8455,18.8584 41.5805,19.2004 41.2535,19.3234 C40.4375,19.6324 39.5865,19.8594 38.7365,20.0634 C38.2265,20.1854 37.6995,20.2074 37.2315,19.8404 C37.1015,19.7384 36.8805,19.7524 36.6645,19.7044 C37.2665,18.2534 37.7705,16.7594 38.7585,15.4994 C39.3355,14.7654 39.8735,14.0074 39.9155,13.0194 C39.9185,12.9534 39.9515,12.8824 39.9885,12.8254 C40.7155,11.7194 41.4455,10.6144 42.1735,9.5094 C42.8755,8.4434 43.5755,7.3754 44.2815,6.3124 C44.3975,6.1394 44.5365,5.9824 44.6655,5.8174 C44.6005,5.9764 44.5225,6.1314 44.4715,6.2954 C44.2175,7.1094 43.9235,7.9144 43.7385,8.7444 C43.6095,9.3264 43.9475,9.7134 44.5635,9.8964 C45.0005,10.0254 45.4555,10.1294 45.7175,9.6244 C46.1705,8.7504 46.5535,7.8384 47.0295,6.9784 C47.2945,6.4984 47.1975,6.0464 47.1275,5.5784 C47.0685,5.1894 46.8045,4.9884 46.4105,4.9234 C45.7375,4.8134 45.2785,5.1694 44.8415,5.5934" id="Fill-17" fill="#FEFEFE"></path>
                <path d="M7.2663,17.7936 C7.8873,17.7936 8.5083,17.8116 9.1283,17.7886 C9.7193,17.7676 10.3073,17.6826 10.8973,17.6656 C11.4883,17.6476 12.0803,17.6786 12.6713,17.6916 C14.0193,17.7256 15.3673,17.7576 16.7143,17.7966 C19.1683,17.8666 21.6213,17.9416 24.0763,18.0176 C25.1223,18.0486 26.1703,18.1276 27.2153,18.1016 C27.8133,18.0856 28.4123,17.7866 28.9983,17.8206 C29.7913,17.8676 30.5453,17.8536 31.3343,17.6996 C32.1673,17.5376 33.0443,17.5816 33.9023,17.5846 C34.4753,17.5866 35.0483,17.6736 35.7093,17.7306 C35.3803,18.4366 35.1513,19.0056 34.8473,19.5316 C34.7643,19.6756 34.4533,19.7736 34.2603,19.7546 C32.8143,19.6036 31.3983,19.6956 29.9843,20.0536 C29.5043,20.1756 28.9713,20.0736 28.4633,20.0956 C27.9933,20.1146 27.5233,20.1756 27.0513,20.1926 C26.6593,20.2076 26.2653,20.1766 25.8713,20.1806 C25.0693,20.1896 24.2653,20.2176 23.4623,20.2196 C23.2053,20.2196 22.9503,20.1496 22.6923,20.1346 C21.8913,20.0876 21.0893,20.0466 20.2883,20.0126 C18.4323,19.9356 16.5743,19.8876 14.7183,19.7796 C13.6913,19.7206 12.6623,19.6046 11.6473,19.4356 C11.0683,19.3386 10.5143,19.0866 9.9523,18.8976 C9.1443,18.6276 8.3383,18.3516 7.5323,18.0746 C7.4363,18.0416 7.3453,17.9946 7.2513,17.9546 L7.2663,17.7936 Z" id="Fill-19" fill="#FEFEFE"></path>
                <path d="M44.8415,5.5934 C45.2785,5.1694 45.7375,4.8134 46.4105,4.9234 C46.8045,4.9884 47.0685,5.1894 47.1275,5.5784 C47.1975,6.0464 47.2945,6.4984 47.0295,6.9784 C46.5535,7.8384 46.1705,8.7504 45.7175,9.6244 C45.4555,10.1294 45.0005,10.0254 44.5635,9.8964 C43.9475,9.7134 43.6095,9.3264 43.7385,8.7444 C43.9235,7.9144 44.2175,7.1094 44.4715,6.2954 C44.5225,6.1314 44.6005,5.9764 44.6655,5.8174 C44.7245,5.7424 44.7825,5.6684 44.8415,5.5934" id="Fill-21" fill="#B02524"></path>
                <path d="M11.3766,92.8757 C11.1096,93.7767 10.8496,94.6807 10.5676,95.5777 C10.5426,95.6577 10.3866,95.7307 10.2816,95.7477 C9.7516,95.8297 9.2816,95.6777 9.0126,95.2067 C8.8156,94.8667 8.6036,94.4597 8.6156,94.0907 C8.6576,92.9587 8.8046,91.8307 8.9116,90.7017 C8.9536,90.2637 9.1886,90.2087 9.5716,90.3327 C11.4556,90.9387 11.0286,90.4707 11.2326,92.3717 C11.2496,92.5277 11.2506,92.6867 11.2596,92.8447 C11.2986,92.8547 11.3376,92.8647 11.3766,92.8757" id="Fill-23" fill="#FEFEFE"></path>
                <path d="M23.5016,96.5358 C22.4626,96.4558 21.4406,96.3768 20.5516,96.3068 C20.4506,94.9518 20.3576,93.6948 20.2556,92.3048 C21.3656,92.4928 22.4546,92.6788 23.5016,92.8558 L23.5016,96.5358 Z" id="Fill-25" fill="#FEFEFE"></path>
                <path d="M15.7291,91.7077 C16.7001,91.9107 17.5351,92.0657 18.3581,92.2717 C18.5351,92.3157 18.7791,92.5287 18.7981,92.6877 C18.9021,93.5367 18.9331,94.3937 19.0131,95.2457 C19.0541,95.6897 18.8731,95.9297 18.4381,95.9177 C17.7761,95.8987 17.1121,95.8667 16.4541,95.7907 C16.0561,95.7447 16.0151,95.4187 16.0231,95.0707 C16.0321,94.6557 16.0141,94.2377 15.9741,93.8247 C15.9061,93.1177 15.8121,92.4127 15.7291,91.7077" id="Fill-27" fill="#FEFEFE"></path>
                <path d="M5.5455,91.8063 C5.5115,91.5563 5.4675,91.3073 5.4425,91.0563 C5.4215,90.8323 5.4505,90.6003 5.4055,90.3813 C5.2965,89.8453 5.5025,89.6073 6.0135,89.7153 C7.0845,89.9443 7.1795,90.1243 7.1495,91.2163 C7.1095,92.6313 7.1545,94.0493 7.1425,95.4653 C7.1405,95.6233 7.0045,95.9103 6.9245,95.9113 C6.6715,95.9193 6.2755,95.8993 6.1895,95.7453 C5.9815,95.3813 5.8545,94.9403 5.8135,94.5193 C5.7425,93.7923 5.8725,93.0483 5.4835,92.3603 C5.4195,92.2473 5.5895,92.0033 5.6515,91.8213 C5.6165,91.8163 5.5815,91.8113 5.5455,91.8063" id="Fill-29" fill="#FEFEFE"></path>
                <path d="M41.8561,96.5241 C40.9521,96.3911 40.2141,96.2841 39.6081,96.1951 C39.5321,95.6081 39.4191,95.1281 39.4211,94.6471 C39.4231,94.1131 39.4461,93.5471 39.6331,93.0641 C39.7091,92.8701 40.2611,92.7501 40.5761,92.7851 C41.1271,92.8461 41.6291,92.9491 41.8561,92.3481 L41.8561,96.5241 Z" id="Fill-31" fill="#FEFEFE"></path>
                <path d="M14.5338,95.8415 C13.8308,95.8415 13.2208,95.8625 12.6138,95.8235 C12.4908,95.8165 12.2578,95.5405 12.2848,95.4575 C12.7688,93.9995 12.8078,92.5125 12.6448,91.0045 C12.6428,90.9915 12.6628,90.9765 12.6848,90.9415 C12.8278,90.9635 12.9798,90.9825 13.1318,91.0105 C13.9078,91.1565 14.0938,91.3545 14.1688,92.1515 C14.2508,93.0155 14.3158,93.8815 14.3968,94.7455 C14.4298,95.0895 14.4818,95.4315 14.5338,95.8415" id="Fill-33" fill="#FEFEFE"></path>
                <path d="M28.0036,96.6052 C28.0036,95.7202 27.9876,94.9182 28.0096,94.1182 C28.0226,93.6412 28.3056,93.4822 28.8076,93.5662 C29.3276,93.6532 29.8556,93.7032 30.4936,93.7832 C30.5646,94.5062 30.6476,95.3612 30.7356,96.2772 C29.8006,96.3892 28.8886,96.4992 28.0036,96.6052" id="Fill-35" fill="#FEFEFE"></path>
                <path d="M35.9225,96.071 C35.8415,95.364 35.7215,94.663 35.6935,93.958 C35.6665,93.3 35.8625,93.135 36.5295,93.114 C37.0135,93.098 37.4975,93.111 37.9125,93.111 C37.9845,94.185 38.0495,95.194 38.1175,96.235 C37.4595,96.186 36.7545,96.133 35.9225,96.071" id="Fill-37" fill="#FEFEFE"></path>
                <path d="M34.2086,93.4118 C33.9376,94.0548 33.9676,94.5728 34.3506,96.2248 C33.8006,96.2658 33.2526,96.3158 32.7036,96.3428 C32.4056,96.3558 32.2146,96.2318 32.1966,95.8858 C32.1606,95.2048 32.0686,94.5248 32.061597,93.8448 C32.0606,93.7018 32.3106,93.4448 32.4616,93.4328 C33.0286,93.3828 33.6036,93.4118 34.2086,93.4118" id="Fill-39" fill="#FEFEFE"></path>
                <path d="M26.6539,93.6003 C26.4899,94.6703 26.3389,95.6623 26.1789,96.7033 C25.4369,96.9263 25.0979,96.7143 25.0739,95.8563 C25.0489,94.9683 25.0679,94.0803 25.0679,93.1433 C25.6329,93.3063 26.1559,93.4563 26.6539,93.6003" id="Fill-41" fill="#FEFEFE"></path>
                <path d="M44.4137,92.0631905 C44.4367,93.2452 43.9767,94.9782 43.3297,96.0262 C43.2767,95.3782 43.1677,94.8462 43.2087,94.3272 C43.2527,93.7812 43.1537,93.2432 43.4107,92.6692 C43.6477,92.1392 43.9337,92.0622 44.4137,92.0631905" id="Fill-43" fill="#FEFEFE"></path>
                <path d="M26.1041,43.6618 C27.6251,43.1368 29.5621,44.6788 29.5511,46.2248 C29.1651,45.9748 28.7591,45.7268 28.3751,45.4508 C28.2761,45.3798 28.2551,45.2058 28.1781,45.0948 C28.0511,44.9118 27.9181,44.6018 27.7681,44.5898 C27.0681,44.5318 26.8361,43.7918 26.1041,43.6618" id="Fill-45" fill="#FEFEFE"></path>
                <path d="M43.3786,19.3073 C43.5766,18.5263 43.8276,18.4113 44.6896,18.7143 C44.2116,18.9303 43.8266,19.1043 43.3786,19.3073" id="Fill-47" fill="#FEFEFE"></path>
                <path d="M33.3385,73.319 C33.8985,73.248 34.4575,73.176 35.0175,73.106 C35.0275,73.162 35.0375,73.217 35.0485,73.273 C34.4965,73.383 33.9435,73.494 33.3925,73.604 C33.3735,73.508 33.3565,73.414 33.3385,73.319" id="Fill-49" fill="#FEFEFE"></path>
                <path d="M18.3737,89.069 C18.8237,89.123 19.2737,89.175 19.7237,89.229 C19.7147,89.304 19.7057,89.38 19.6967,89.456 C19.2457,89.398 18.7957,89.34 18.3457,89.284 C18.3547,89.212 18.3647,89.14 18.3737,89.069" id="Fill-51" fill="#FEFEFE"></path>
                <path d="M20.32,72.3425 L22.532,72.3425 C22.53,72.3805 22.528,72.4185 22.525,72.4565 C21.79,72.4105 21.054,72.3645 20.319,72.3205 C20.32,72.3275 20.32,72.3345 20.32,72.3425" id="Fill-53" fill="#FEFEFE"></path>
                <path d="M35.7458,60.4372 C36.1768,60.4372 36.6088,60.4142 37.0378,60.4442 C37.4778,60.4742 37.5788,60.8202 37.6298,61.1862 C37.7388,61.9872 37.0498,62.6382 36.2668,62.4662 C35.8968,62.3852 35.8038,62.1082 35.7468,61.7702 C35.7198,61.6092 35.5908,61.3862 35.4548,61.3392 C35.1498,61.2312 34.8718,61.1462 34.9368,60.7522 C34.9998,60.3712 35.3088,60.4052 35.5898,60.4082 C35.6418,60.4092 35.6928,60.4032 35.7458,60.4002 L35.7458,60.4372 Z" id="Fill-55" fill="#B02524"></path>
                <path d="M9.2809,57.8923 C8.9029,57.6213 8.6529,57.4273 8.3879,57.2583 C8.2789,57.1883 8.1369,57.1453 8.0079,57.1353 C7.7449,57.1173 7.3799,57.2393 7.2349,57.1073 C6.9009,56.8013 6.6679,56.3813 6.4049,56.0003 C6.3599,55.9353 6.3789,55.8293 6.3519,55.7463 C6.2369,55.3873 6.2769,55.0623 6.6439,54.8963 C7.0589,54.7093 7.4679,54.7983 7.7099,55.1913 C8.2279,56.0333 8.7069,56.9003 9.2809,57.8923" id="Fill-57" fill="#B02524"></path>
                <path d="M10.1168,61.487 C10.1578,61.955 9.9778,62.279 9.5378,62.437 C9.0248,62.621 8.4108,62.417 8.0998,61.962 C7.8228,61.555 7.7398,61.116 8.0338,60.692 C8.3258,60.271 9.7788,60.416 9.9928,60.883 C10.0768,61.064 10.0778,61.284 10.1168,61.487" id="Fill-59" fill="#B02524"></path>
                <path d="M33.0231,57.4753 C32.4851,57.4943 32.0161,56.9533 31.9991,56.2923 C31.9861,55.7973 32.3751,55.4603 32.9881,55.4353 C33.6241,55.4093 34.2781,55.7213 34.3071,56.0653 C34.3541,56.6103 33.5851,57.4553 33.0231,57.4753" id="Fill-61" fill="#B02524"></path>
                <path d="M33.4665,63.6725 C33.4815,62.9585 33.8745,62.6815 34.5425,62.8765 C34.9865,63.0065 35.4255,63.1465 35.5285,63.6855 C35.6555,64.3585 34.8285,65.1795 34.1515,65.0455 C34.0425,65.0245 33.8935,64.9445 33.8595,64.8555 C33.7055,64.4565 33.5865,64.0455 33.4665,63.6725" id="Fill-63" fill="#B02524"></path>
                <path d="M22.7174,58.5681 C23.1774,58.5101 23.3714,58.7591 23.4494,59.1851 C23.6314,60.1631 23.0914,60.9671 22.2934,60.8841 C21.6924,60.8231 21.4474,60.4241 21.6564,59.8611 C21.7404,59.6321 21.8224,59.4011 21.8784,59.1651 C21.9834,58.7141 22.2514,58.5111 22.7174,58.5681" id="Fill-65" fill="#B02524"></path>
                <path d="M41.8258,63.2282 C41.7048,63.5852 41.6258,63.9702 41.4478,64.3022 C41.2578,64.6562 40.8918,64.7232 40.5308,64.5702 C40.0928,64.3842 39.8548,63.9792 39.9648,63.5572 C40.0778,63.1222 40.3388,62.6962 40.6278,62.3422 C40.8978,62.0122 41.3788,62.1232 41.5888,62.5142 C41.7018,62.7252 41.7448,62.9742 41.8258,63.2282" id="Fill-67" fill="#B02524"></path>
                <path d="M28.1764,59.9606 C27.7384,59.9476 26.9234,59.0866 26.9554,58.6706 C26.9894,58.2506 27.5734,57.8376 28.1044,57.8616 C28.6924,57.8886 29.1524,58.2836 29.1484,58.7596 C29.1434,59.4776 28.7384,59.9776 28.1764,59.9606" id="Fill-69" fill="#B02524"></path>
                <path d="M44.526,56.0915 C44.519,56.7475 44.161,57.2555 43.713,57.2415 C43.128,57.2255 42.652,56.6405 42.669,55.9575 C42.68,55.4465 43.032,55.0885 43.518,55.0894979 C44.061,55.0915 44.531,55.5585 44.526,56.0915" id="Fill-71" fill="#B02524"></path>
                <path d="M11.945,52.6559 C12.883,52.6699 13.256,52.9969 13.162,53.7419 C13.103,54.2049 12.862,54.5169 12.374,54.5799 C11.87,54.6449 11.534,54.4279 11.369,53.9489 C11.329,53.8349 11.301,53.7159 11.262,53.5999 C11.01,52.8499 11.159,52.6439 11.945,52.6559" id="Fill-73" fill="#B02524"></path>
                <path d="M16.3971,62.4714 C16.3901,61.9564 16.6551,61.6694 17.1461,61.6604 C18.0011,61.6454 18.5011,61.9984 18.5101,62.6234 C18.5181,63.1054 18.1431,63.4664 17.6321,63.4704 C16.8951,63.4774 16.4061,63.0804 16.3971,62.4714" id="Fill-75" fill="#B02524"></path>
                <path d="M18.0006,55.3708 C18.2556,55.6418 18.5496,55.8918 18.7646,56.1998 C19.0186,56.5618 19.1166,57.0228 18.7876,57.3618 C18.6106,57.5438 18.2186,57.6368 17.9556,57.5888 C17.5046,57.5048 17.2086,57.1718 17.1236,56.6848 C17.0036,56.0048 17.4886,55.7258 18.0006,55.3708" id="Fill-77" fill="#B02524"></path>
                <path d="M38.4977,55.6667 C38.5047,55.1327 38.8727,54.7517 39.3707,54.7647 C39.8717,54.7757 40.4187,55.4837 40.3867,56.1007 C40.3647,56.5007 40.1587,56.7637 39.7327,56.7667 C39.0757,56.7707 38.4897,56.2377 38.4977,55.6667" id="Fill-79" fill="#B02524"></path>
                <path d="M10.5729,57.5544 C10.5509,57.0554 10.7879,56.7814 11.2559,56.7644 C11.7709,56.7464 12.1709,57.1124 12.1889,57.6164 C12.2069,58.1074 11.8219,58.6184 11.4109,58.6534 C10.9099,58.6954 10.6059,58.2964 10.5729,57.5544" id="Fill-81" fill="#B02524"></path>
                <path d="M10.1364,83.2956 C10.3384,81.4626 10.6064,79.6956 11.9154,78.3156 C12.1274,78.0926 12.4534,77.9096 12.7534,77.8536 C13.3454,77.7406 13.5184,77.9236 13.5774,78.5326 C13.5854,78.6166 13.5904,78.7176 13.6374,78.7796 C14.1934,79.5056 14.2634,80.3336 14.0854,81.1796 C13.8504,82.3036 13.6144,83.4356 13.2624,84.5246 C13.0074,85.3126 12.3714,85.7706 11.4944,85.7576 C10.8814,85.7486 10.4824,85.4106 10.3304,84.8166 C10.3094,84.7316 10.3024,84.6436 10.2914,84.5576 C10.2384,84.1246 10.1854,83.6916 10.1364,83.2956" id="Fill-83" fill="#B02524"></path>
                <path d="M22.7965,78.2028 C22.8025,78.0808 22.8065,77.9588 22.8145,77.8358 C22.8695,76.9148 23.3885,76.5698 24.2185,77.0058 C24.7315,77.2748 25.2085,77.6708 25.5985,78.1028 C26.2305,78.8048 26.7885,79.5728 27.3555,80.3298 C27.8945,81.0498 28.0235,81.8558 27.7655,82.7198 C27.5805,83.3328 27.1645,83.5408 26.5505,83.3428 C25.1595,82.8938 24.1245,82.0578 23.5605,80.6778 C23.2325,79.8738 22.6825,79.1418 22.7965,78.2028" id="Fill-85" fill="#B02524"></path>
            </g>
        </g>
    </g>
</svg>