<?xml version="1.0" encoding="UTF-8"?>
<svg width="47px" height="86px" viewBox="0 0 47 86" version="1.1" xmlns="http://www.w3.org/2000/svg" xmlns:xlink="http://www.w3.org/1999/xlink">
    <!-- Generator: Sketch 64 (93537) - https://sketch.com -->
    <title>Group 59</title>
    <desc>Created with Sketch.</desc>
    <defs>
        <polygon id="path-1" points="0 0.658342523 46.5982692 0.658342523 46.5982692 85.9999036 0 85.9999036"></polygon>
        <polygon id="path-3" points="0.000143478261 0.658133668 46.5989244 0.658133668 46.5989244 86 0.000143478261 86"></polygon>
    </defs>
    <g id="Page-1" stroke="none" stroke-width="1" fill="none" fill-rule="evenodd">
        <g id="illustration" transform="translate(-634.000000, -650.000000)">
            <g id="Group-59" transform="translate(634.000000, 649.000000)">
                <g id="Group-3" transform="translate(0.000000, 0.341900)">
                    <mask id="mask-2" fill="white">
                        <use xlink:href="#path-1"></use>
                    </mask>
                    <g id="Clip-2"></g>
                    <path d="M28.406,85.9296 C28.406,85.9426 28.405,85.9556 28.405,85.9686 C28.936,85.9686 29.481,86.0476 29.996,85.9546 C32.293,85.5436 34.588,85.1166 36.869,84.6306 C38.475,84.2886 40.089,83.9306 41.433,82.8726 C42.267,82.2166 42.944,81.5296 42.712,80.3316 C42.378,78.6056 43.09,77.2026 44.16,75.9296 C44.864,75.0926 45.084,74.0886 45.142,73.0366 C45.177,72.4256 45.155,71.8106 45.182,71.1996 C45.335,67.8156 45.469,64.4316 45.658,61.0496 C45.788,58.7306 45.995,56.4146 46.169,54.0976 C46.318,52.1056 46.552,50.1156 46.593,48.1206 C46.633,46.2696 46.433,44.4136 46.406,42.5596 C46.384,41.0916 46.522,39.6196 46.483,38.1536 C46.401,35.0746 46.255,31.9966 46.124,28.9186 C46.023,26.5566 45.17,24.5466 43.401,22.9186 C42.463,22.0556 41.811,20.9566 41.408,19.7396 C40.907,18.2276 39.985,17.0126 38.693,16.1426 C34.831,13.5396 30.587,11.8746 25.973,11.1836 C25.604,11.1286 25.34,11.0756 25.275,10.6006 C25.056,8.9706 24.819,7.3416 24.521,5.7246 C24.276,4.3866 23.986,3.0456 23.142,1.9206 C22.974,1.6976 22.783,1.4166 22.544,1.3336 C20.993,0.7966 19.402,0.4486 17.756,0.8006 C13.992,1.6056 12.304,4.8346 12.864,8.4086 C13.017,9.3846 13.279,10.3486 13.549,11.3026 C13.654,11.6766 13.537,11.8306 13.266,12.0496 C11.744,13.2766 10.154,14.4396 8.753,15.7956 C6.934,17.5556 5.946,19.7666 5.914,22.3456 C5.894,23.9316 5.392,25.3376 4.354,26.5426 C3.48,27.5566 2.776,28.6736 2.356,29.9476 C1.522,32.4716 1.04,35.0406 1.098,37.7286 C1.136,39.4716 0.917,41.2236 0.758,42.9666 C0.556,45.1766 0.219,47.3766 0.088,49.5896 C-0.028,51.5216 -0.03,53.4706 0.085,55.4026 C0.198,57.3256 0.563,59.2326 0.725,61.1546 C0.777,61.7726 0.54,62.4166 0.422,63.0476 C0.34,63.4916 0.087,63.9596 0.168,64.3676 C0.455,65.8146 0.538,67.2626 0.526,68.7346 C0.504,71.4516 1.402,73.8256 3.266,75.8426 C3.59,76.1936 3.791,76.7786 3.802,77.2616 C3.816,77.7786 3.59,78.3236 3.379,78.8186 C2.899,79.9476 2.981,80.9196 3.853,81.5136 C4.564,81.9976 5.371,82.4096 6.195,82.6436 C8.007,83.1566 9.849,83.5616 11.69,83.9636 C14.484,84.5746 17.263,85.3416 20.092,85.6766 C22.835,85.9999036 25.633,85.8646 28.406,85.9296" id="Fill-1" fill="#FEFEFE" mask="url(#mask-2)"></path>
                </g>
                <g id="Group-6" transform="translate(0.000000, 0.341900)">
                    <mask id="mask-4" fill="white">
                        <use xlink:href="#path-3"></use>
                    </mask>
                    <g id="Clip-5"></g>
                    <path d="M21.0759,14.4442 C20.6329,14.6282 20.0659,14.6132 20.1169,15.2162 C20.1289,15.3582 20.6349,15.6062 20.8519,15.5532 C21.5119,15.3952 21.1499,14.9102 21.0759,14.4442 M19.4189,6.8552 C18.1789,6.9212 17.5549,7.7822 17.9549,9.0102 C18.0609,9.3392 18.1949,9.6572 18.3169,9.9792 C18.6149,10.7582 19.1869,11.0252 19.9579,10.7432 C20.4909,10.5482 20.6159,10.1142 20.3309,9.2982 C20.0469,8.4882 19.7309,7.6892 19.4189,6.8552 M23.6559,15.6722 C23.6979,15.6692 23.7409,15.6652 23.7839,15.6622 C23.6419,15.0322 23.5439,14.3882 23.3469,13.7752 C23.0779,12.9302 22.5799,12.1182 23.2169,11.2322 C23.2359,11.2052 23.2239,11.1532 23.2219,11.1122 C23.1339,8.8472 22.9979,6.5882 22.3489,4.3952 C22.1589,3.7532 21.7509,3.2882 21.1639,2.9812 C19.6949,2.2142 18.2649,2.3942 16.9299,3.2672 C15.5419,4.1752 14.5439,5.4172 14.7639,7.1672 C14.9269,8.4462 15.2619,9.7332 15.7319,10.9332 C16.2439,12.2372 17.0029,13.4452 17.6949,14.7742 C18.2589,14.1012 18.6959,13.5802 19.1749,13.0072 C17.4619,12.8112 16.7669,11.6542 16.3759,10.2032 C16.2799,9.8502 16.1879,9.4942 16.0649,9.1502 C15.5799,7.7992 15.8579,6.8282 17.0239,5.9622 C17.7579,5.4172 18.5489,5.0662 19.4689,5.4852 C19.9969,5.7252 20.5149,5.9892 21.0199,6.2732 C21.1649,6.3542 21.2949,6.5302 21.3479,6.6902 C21.7009,7.7522 22.0409,8.8162 22.3659,9.8862 C22.6079,10.6822 22.3349,11.3372 21.7189,11.8482 C21.2999,12.1972 20.8469,12.5062 20.3829,12.8522 C21.0449,13.0872 21.5429,13.6912 22.3409,13.5322 C22.4629,13.5072 22.6949,13.7192 22.7779,13.8752 C23.0929,14.4622 23.3669,15.0712 23.6559,15.6722 M25.6489,14.0872 C25.8859,14.1132 26.0839,14.1442 26.2829,14.1562 C28.6599,14.2992 30.7889,15.0542 32.3619,16.9012 C33.2979,17.9992 34.0799,19.2292 34.8929,20.4252 C35.3579,21.1102 35.3429,21.4002 34.6319,21.8172 C33.6359,22.4002 32.5869,22.9292 31.5019,23.3182 C25.6689,25.4112 19.8779,24.6622 14.1319,22.9062 C12.9169,22.5352 12.4809,21.4582 12.9149,20.2482 C13.0309,19.9232 13.1839,19.6042 13.3689,19.3142 C13.9819,18.3502 14.6119,17.3952 15.2479,16.4452 C15.7619,15.6772 15.7259,14.7922 15.0749,14.1192 C14.9389,13.9802 14.5879,13.8962 14.4159,13.9702 C11.9699,15.0252 10.0829,16.7152 8.8659,19.0922 C8.0789,20.6302 8.5449,21.7782 10.1489,22.4342 C11.2819,22.8972 12.4199,23.3482 13.5669,23.7752 C15.7379,24.5822 17.9519,25.1592 20.2969,25.2152 C21.6539,25.2492 23.0079,25.4682 24.3619,25.6112 C25.1529,25.6952 25.9399,25.8422 26.7329,25.8782 C30.0039,26.0252 33.0659,25.1422 36.0789,23.9782 C37.2949,23.5082 38.2989,22.7772 39.1819,21.8542 C39.8949,21.1102 39.9489,20.5122 39.3729,19.6572 C38.5849,18.4882 37.5799,17.5302 36.3599,16.8252 C34.1969,15.5752 31.9099,14.5902 29.5169,13.8822 C28.3189,13.5272 27.0719,13.3332 25.8019,13.0562 C25.7359,13.4962 25.6949,13.7722 25.6489,14.0872 M24.3129,64.2922 C24.3139,64.3022 24.3139,64.3122 24.3149,64.3232 C25.6399,64.2612 26.9669,64.1992 28.2919,64.1382 C30.5329,64.0362 31.8039,62.7422 32.5189,60.7342 C33.3909,58.2872 34.0309,55.7792 34.4379,53.2152 C34.8769,50.4492 35.2089,47.6732 34.8649,44.8632 C34.7559,43.9712 34.4809,43.6272 33.6279,43.4372 C33.2099,43.3442 32.7929,43.2432 32.3789,43.1322 C30.3649,42.5952 28.3719,42.1312 26.2319,42.4402 C22.4789,42.9822 20.3919,44.7472 19.6449,48.4632 C19.3169,50.0962 19.1839,51.7762 19.0559,53.4422 C18.8219,56.5112 19.4639,59.5002 20.0529,62.4832 C20.2759,63.6152 21.1259,64.2612 22.2899,64.2892 C22.9639,64.3042 23.6389,64.2922 24.3129,64.2922 M2.6429,66.3952 C2.0369,69.4962 2.7479,72.2432 4.7249,74.6542 C5.1069,75.1202 5.5299,75.6442 5.6629,76.2062 C5.9929,77.6042 6.9069,78.2502 8.2019,78.5232 C9.7749,78.8552 11.3579,79.1372 12.9239,79.5032 C17.3829,80.5422 21.8939,80.3052 26.3949,80.0222 C29.2029,79.8452 31.9959,79.4352 34.7949,79.1182 C35.8779,78.9962 36.9569,78.8422 38.0969,78.6962 C37.9699,78.2602 37.8789,77.9092 37.7639,77.5642 C37.3469,76.3002 37.4329,76.0872 38.6049,75.5032 C39.8549,76.6422 38.6589,77.5912 38.2909,78.6442 C39.2049,78.6322 39.9299,78.3682 40.5179,77.7662 C41.6519,76.6052 42.4689,75.2562 42.8939,73.6852 C43.3479,72.0072 43.3339,70.3192 43.0329,68.6282 C39.7779,69.3392 36.5929,70.0322 33.4099,70.7312 C28.1489,71.8882 22.8989,72.0212 17.6419,70.6772 C14.1479,69.7832 10.6209,69.0112 7.1389,68.0732 C5.6149,67.6632 4.1669,66.9732 2.6429,66.3952 M41.4299,24.0772 C40.3229,24.9062 39.3669,25.7992 38.2569,26.4122 C36.7639,27.2342 35.1829,27.9232 33.5839,28.5202 C30.4789,29.6772 27.2679,30.1992 23.9669,29.5712 C21.9249,29.1812 19.9009,28.6932 17.8749,28.2232 C14.4019,27.4202 10.7219,27.4312 7.5069,25.5602 C6.9659,26.2482 6.4699,26.9222 5.9279,27.5572 C4.4129,29.3342 3.6529,31.3692 3.5309,33.7092 C3.4869,34.5452 3.6979,34.9112 4.3889,35.3572 C9.3469,38.5562 14.8609,39.4242 20.6079,39.3462 C23.5879,39.3052 26.5659,39.1742 29.5459,39.1132 C32.1809,39.0582 34.7949,38.8592 37.4029,38.4232 C40.1379,37.9652 42.5249,36.9712 44.3739,34.8372 C44.7109,34.4482 44.8439,34.0872 44.7929,33.5782 C44.6399,32.0762 44.5489,30.5682 44.4119,29.0652 C44.2149,26.8892 43.1799,25.2182 41.4299,24.0772 M33.6179,40.9242 L33.6119,41.1622 C33.8179,41.2702 34.0149,41.4022 34.2319,41.4812 C35.2179,41.8392 35.9249,42.4922 36.2189,43.4952 C36.4109,44.1532 36.5709,44.8502 36.5699,45.5302 C36.5589,51.4402 35.5989,57.1782 33.4229,62.7002 C32.8459,64.1652 31.8639,65.0932 30.3749,65.5472 C27.6709,66.3702 24.9209,66.4572 22.1319,66.1522 C19.9809,65.9182 18.7659,64.8572 18.2959,62.7462 C17.5939,59.5972 17.3119,56.4122 17.5459,53.1952 C17.6619,51.5902 17.8419,49.9822 18.1029,48.3942 C18.5559,45.6472 19.7429,43.2812 22.1299,41.4742 C21.7379,41.4302 21.4859,41.3952 21.2339,41.3752 C18.6699,41.1642 16.0999,41.0112 13.5449,40.7322 C10.4669,40.3952 7.5549,39.5202 4.9289,37.8022 C4.4069,37.4632 3.7569,37.3202 3.0859,37.0552 C2.9529,38.1392 2.8219,39.0672 2.7279,39.9982 C2.5219,42.0492 2.3829,44.1092 2.1289,46.1542 C1.7219,49.4322 1.6579,52.6952 2.0549,55.9872 C2.3529,58.4742 2.4019,60.9912 2.5879,63.4922 C2.6019,63.6912 2.7719,63.9312 2.9409,64.0592 C4.6489,65.3582 6.4989,66.2632 8.6559,66.6912 C12.5949,67.4722 16.4809,68.5142 20.4079,69.3572 C21.9939,69.6972 23.6399,70.0252 25.2429,69.9612 C29.3719,69.7942 33.4299,69.0262 37.4189,67.9472 C39.3209,67.4332 41.2949,67.0902 43.0009,66.0112 C43.2179,65.8742 43.4319,65.5782 43.4669,65.3302 C43.7109,63.5302 43.9419,61.7262 44.1149,59.9182 C44.4339,56.5652 44.8189,53.2142 44.9709,49.8522 C45.0979,47.0002 44.9449,44.1342 44.8979,41.2762 C44.8799,40.1662 44.8109,39.0562 44.7609,37.8032 C41.2009,39.6552 37.5109,40.6532 33.6179,40.9242 M28.4059,85.9292 C25.6329,85.8642 22.8349,86.0012 20.0919,85.6762 C17.2629,85.3412 14.4839,84.5742 11.6899,83.9642 C9.8489,83.5612 8.0069,83.1562 6.1949,82.6432 C5.3709,82.4102 4.5639,81.9982 3.8529,81.5132 C2.9809,80.9202 2.8989,79.9472 3.3789,78.8182 C3.5899,78.3232 3.8159,77.7782 3.8029,77.2612 C3.7909,76.7782 3.5899,76.1932 3.2659,75.8422 C1.4019,73.8252 0.5039,71.4522 0.5259,68.7342 C0.5379,67.2622 0.4549,65.8142 0.1679,64.3672 C0.0869,63.9602 0.3399,63.4912 0.4219,63.0482 C0.5399,62.4172 0.7769,61.7722 0.7249,61.1542 C0.5629,59.2322 0.1979,57.3252 0.0849,55.4022 C-0.0291,53.4702 -0.0281,51.5212 0.0879,49.5902 C0.2199,47.3772 0.5559,45.1762 0.7579,42.9662 C0.9169,41.2232 1.1369,39.4712 1.0979,37.7282 C1.0399,35.0412 1.5219,32.4712 2.3559,29.9472 C2.7759,28.6732 3.4799,27.5562 4.3539,26.5432 C5.3919,25.3382 5.8939,23.9312 5.9139,22.3452 C5.9459,19.7662 6.9339,17.5552 8.7529,15.7962 C10.1539,14.4392 11.7439,13.2762 13.2659,12.0492 C13.5369,11.8312 13.6539,11.6762 13.5489,11.3022 C13.2789,10.3482 13.0169,9.3842 12.8639,8.4082 C12.3049,4.8352 13.9919,1.6052 17.7559,0.8002 C19.4019,0.4482 20.9929,0.7972 22.5439,1.3342 C22.7829,1.4172 22.9739,1.6972 23.1419,1.9212 C23.9859,3.0462 24.2759,4.3862 24.5209,5.7242 C24.8189,7.3412 25.0559,8.9702 25.2749,10.6002 C25.3399,11.0762 25.6039,11.1292 25.9729,11.1832 C30.5869,11.8752 34.8309,13.5402 38.6929,16.1422 C39.9849,17.0122 40.9069,18.2272 41.4079,19.7392 C41.8109,20.9572 42.4629,22.0552 43.4009,22.9192 C45.1699,24.5472 46.0229,26.5562 46.1239,28.9192 C46.2549,31.9972 46.4009,35.0742 46.4829,38.1532 C46.5219,39.6202 46.3839,41.0912 46.4059,42.5592 C46.4329,44.4142 46.6329,46.2692 46.5939,48.1212 C46.5519,50.1152 46.3179,52.1052 46.1689,54.0972 C45.9949,56.4152 45.7879,58.7302 45.6579,61.0492 C45.4699,64.4312 45.3349,67.8152 45.1819,71.1992 C45.1549,71.8102 45.1769,72.4252 45.1419,73.0372 C45.0839,74.0892 44.8639,75.0922 44.1599,75.9292 C43.0899,77.2032 42.3779,78.6052 42.7119,80.3322 C42.9439,81.5292 42.2669,82.2162 41.4329,82.8732 C40.0889,83.9302 38.4749,84.2892 36.8689,84.6312 C34.5879,85.1162 32.2929,85.5442 29.9959,85.9552 C29.4809,86.0482 28.9359,85.9682 28.4049,85.9682 C28.4049,85.9562 28.4059,85.9422 28.4059,85.9292" id="Fill-4" fill="#B02524" mask="url(#mask-4)"></path>
                </g>
                <path d="M33.6179,41.2666 C37.5109,40.9956 41.2009,39.9966 44.7609,38.1456 C44.8109,39.3986 44.8799,40.5076 44.8979,41.6186 C44.9449,44.4766 45.0979,47.3416 44.9709,50.1946 C44.8189,53.5556 44.4339,56.9076 44.1149,60.2596 C43.9419,62.0686 43.7109,63.8716 43.4669,65.6716 C43.4319,65.9196 43.2179,66.2156 43.0009,66.3536 C41.2949,67.4316 39.3209,67.7756 37.4189,68.2886 C33.4309,69.3686 29.3719,70.1356 25.2429,70.3026 C23.6399,70.3676 21.9939,70.0386 20.4079,69.6996 C16.4809,68.8566 12.5949,67.8146 8.6559,67.0336 C6.4989,66.6056 4.6489,65.7006 2.9409,64.4016 C2.7719,64.2736 2.6019,64.0336 2.5879,63.8336 C2.4019,61.3326 2.3529,58.8166 2.0549,56.3296 C1.6579,53.0376 1.7219,49.7746 2.1289,46.4956 C2.3829,44.4516 2.5219,42.3916 2.7279,40.3396 C2.8219,39.4096 2.9529,38.4816 3.0859,37.3976 C3.7569,37.6626 4.4069,37.8046 4.9289,38.1446 C7.5559,39.8626 10.4669,40.7376 13.5449,41.0746 C16.0999,41.3536 18.6699,41.5056 21.2339,41.7166 C21.4859,41.7376 21.7379,41.7726 22.1299,41.8166 C19.7429,43.6226 18.5559,45.9896 18.1029,48.7366 C17.8419,50.3246 17.6619,51.9316 17.5459,53.5376 C17.3119,56.7536 17.5939,59.9396 18.2959,63.0876 C18.7659,65.1996 19.9809,66.2596 22.1319,66.4946 C24.9209,66.7986 27.6709,66.7116 30.3749,65.8886 C31.8639,65.4356 32.8459,64.5066 33.4229,63.0416 C35.5989,57.5206 36.5589,51.7826 36.5699,45.8716 C36.5709,45.1926 36.4109,44.4956 36.2189,43.8366 C35.9249,42.8336 35.2179,42.1806 34.2319,41.8236 C34.0149,41.7446 33.8179,41.6126 33.6119,41.5036 L33.6179,41.2666 Z" id="Fill-7" fill="#FEFEFE"></path>
                <path d="M10.1052,35.6377 C10.6612,36.5877 10.7652,36.6037 11.8792,35.9067 C11.2612,35.0417 11.2102,35.0337 10.1052,35.6377 M40.8802,35.1047 C40.5512,34.8777 40.2292,34.6567 39.8972,34.4267 C39.4102,35.5077 39.4362,35.6547 40.1732,36.1387 C40.3632,35.8797 40.5552,35.6207 40.7422,35.3597 C40.7882,35.2947 40.8192,35.2197 40.8802,35.1047 M41.2512,28.0667 C41.1712,28.5757 41.0502,28.9747 41.0842,29.3607 C41.0952,29.4877 41.5942,29.7317 41.7162,29.6597 C42.0602,29.4577 42.3242,29.1197 42.6872,28.7707 C42.1702,28.5177 41.8112,28.3407 41.2512,28.0667 M15.4212,31.1587 C14.4702,31.8287 14.4452,32.0307 15.1762,33.0537 C16.3692,32.0567 16.3862,31.9207 15.4212,31.1587 M10.5662,31.4337 C10.1722,30.3397 9.8512,30.0507 9.2822,30.2407 C8.7902,30.4047 8.7162,30.6787 8.9432,31.4937 C9.3922,31.4937 9.8382,31.4957 10.2842,31.4917 C10.3622,31.4917 10.4392,31.4607 10.5662,31.4337 M38.6832,29.3057 C38.1142,28.2597 37.8242,28.2127 36.8412,28.9777 C37.1642,29.3827 37.4862,29.7867 37.8322,30.2227 C38.1412,29.8897 38.4022,29.6097 38.6832,29.3057 M21.0932,33.8407 C21.5042,33.6347 21.8262,33.5037 22.1152,33.3217 C22.4802,33.0907 22.5852,32.7117 22.3512,32.3697 C22.2112,32.1667 21.9002,31.9997 21.6492,31.9717 C21.1942,31.9207 21.0852,32.2667 21.0922,32.6587 C21.0982,33.0247 21.0932,33.3907 21.0932,33.8407 M33.2852,34.0747 C32.0242,33.4497 31.8072,33.4537 31.5222,34.0757 C31.2952,34.5677 31.5752,34.8787 32.5902,35.2457 C32.7462,34.9927 32.9082,34.7357 33.0652,34.4757 C33.1362,34.3567 33.1992,34.2327 33.2852,34.0747 M18.6792,36.6237 C18.5462,36.2987 18.4472,36.0357 18.3342,35.7787 C18.2082,35.4907 18.0842,35.2247 17.6642,35.3757 C17.2852,35.5117 16.9912,35.6737 17.0762,36.1417 C17.1362,36.4717 17.2082,36.7987 17.2842,37.1737 C17.7722,36.9817 18.1982,36.8137 18.6792,36.6237 M25.1692,36.2137 C24.4182,37.3057 24.3922,37.5237 24.9322,37.8507 C25.4512,38.1637 25.8062,37.9357 26.3982,36.8797 C25.9982,36.6627 25.5972,36.4467 25.1692,36.2137 M41.4292,24.4187 C43.1792,25.5607 44.2142,27.2317 44.4122,29.4077 C44.5482,30.9097 44.6402,32.4177 44.7932,33.9197 C44.8432,34.4287 44.7102,34.7897 44.3742,35.1787 C42.5252,37.3137 40.1372,38.3067 37.4032,38.7647 C34.7942,39.2007 32.1812,39.4007 29.5452,39.4547 C26.5662,39.5167 23.5872,39.6477 20.6082,39.6887 C14.8612,39.7667 9.3472,38.8987 4.3892,35.6997 C3.6982,35.2527 3.4872,34.8867 3.5312,34.0507 C3.6532,31.7107 4.4132,29.6757 5.9272,27.8997 C6.4692,27.2637 6.9652,26.5897 7.5062,25.9027 C10.7222,27.7737 14.4022,27.7617 17.8752,28.5657 C19.9012,29.0347 21.9242,29.5237 23.9662,29.9127 C27.2682,30.5407 30.4792,30.0197 33.5842,28.8627 C35.1832,28.2657 36.7642,27.5757 38.2562,26.7537 C39.3672,26.1417 40.3232,25.2477 41.4292,24.4187" id="Fill-9" fill="#FEFEFE"></path>
                <path d="M15.1189,75.4414 C14.7829,75.2944 14.5519,75.1184 14.3109,75.1064 C14.0759,75.0934 13.7509,75.1824 13.6189,75.3494 C13.5349,75.4554 13.6659,75.8694 13.8209,75.9874 C13.9699,76.1004 14.2989,76.0744 14.5019,75.9914 C14.7099,75.9074 14.8609,75.6804 15.1189,75.4414 M9.9769,74.5484 C9.2649,75.5264 9.2879,75.7374 10.1519,76.2504 C10.7459,75.1644 10.7409,75.1144 9.9769,74.5484 M34.4109,74.4754 C34.8319,74.6924 35.1809,74.8734 35.5269,75.0504 C36.0089,74.2884 35.9879,74.1824 35.2299,73.4254 C35.1759,73.4784 35.1109,73.5254 35.0649,73.5864 C34.8609,73.8574 34.6619,74.1334 34.4109,74.4754 M14.5529,77.6554 C14.4589,78.0654 14.3209,78.4324 14.3119,78.8034 C14.3079,78.9824 14.5129,79.2264 14.6869,79.3304 C14.8469,79.4234 15.1599,79.4574 15.2929,79.3614 C15.9209,78.9094 15.8129,78.1754 15.1039,77.8724 C14.9399,77.8014 14.7719,77.7414 14.5529,77.6554 M24.6299,75.6224 C24.8869,74.2524 24.5849,73.9624 23.2369,74.2814 C23.1159,75.4674 23.1159,75.4674 24.6299,75.6224 M26.5239,78.3884 C27.5959,78.9994 27.8309,78.9274 28.4489,77.8274 C28.1979,77.5314 27.9419,77.2294 27.6459,76.8804 C27.2449,77.4204 26.8869,77.9024 26.5239,78.3884 M6.7469,70.4544 C6.5599,70.7274 6.3939,70.9554 6.2449,71.1924 C5.9169,71.7134 5.9899,72.0444 6.4909,72.3794 C6.9289,72.6724 7.2979,72.5824 7.6129,72.1864 C7.9889,71.7154 7.9489,71.4054 7.4489,70.9954 C7.2329,70.8164 7.0049,70.6524 6.7469,70.4544 M41.4219,73.3524 C42.1979,71.9154 42.1049,71.5434 40.7639,70.6004 C40.1379,72.2774 40.1699,72.4144 41.4219,73.3524 M2.6429,66.7374 C4.1669,67.3154 5.6149,68.0044 7.1399,68.4154 C10.6209,69.3534 14.1479,70.1254 17.6419,71.0194 C22.8989,72.3634 28.1489,72.2304 33.4099,71.0734 C36.5929,70.3744 39.7779,69.6804 43.0329,68.9694 C43.3339,70.6614 43.3479,72.3494 42.8939,74.0274 C42.4689,75.5974 41.6519,76.9474 40.5179,78.1084 C39.9309,78.7104 39.2049,78.9734 38.2909,78.9864 C38.6589,77.9334 39.8549,76.9844 38.6049,75.8444 C37.4329,76.4284 37.3469,76.6424 37.7649,77.9064 C37.8789,78.2514 37.9699,78.6024 38.0979,79.0384 C36.9569,79.1844 35.8779,79.3374 34.7949,79.4604 C31.9959,79.7774 29.2029,80.1874 26.3949,80.3644 C21.8939,80.6474 17.3829,80.8834 12.9239,79.8444 C11.3579,79.4794 9.7749,79.1974 8.2019,78.8654 C6.9069,78.5914 5.9929,77.9464 5.6629,76.5474 C5.5299,75.9864 5.1069,75.4624 4.7249,74.9964 C2.7479,72.5854 2.0369,69.8374 2.6429,66.7374" id="Fill-11" fill="#FEFEFE"></path>
                <path d="M24.3132,64.6338 C23.6382,64.6338 22.9632,64.6468 22.2902,64.6308 C21.1252,64.6038 20.2762,63.9568 20.0522,62.8248 C19.4632,59.8418 18.8222,56.8538 19.0562,53.7838 C19.1842,52.1178 19.3172,50.4388 19.6452,48.8048 C20.3922,45.0888 22.4792,43.3238 26.2322,42.7818 C28.3722,42.4738 30.3652,42.9378 32.3782,43.4748 C32.7922,43.5848 33.2092,43.6868 33.6272,43.7798 C34.4812,43.9688 34.7552,44.3138 34.8652,45.2048 C35.2092,48.0158 34.8762,50.7908 34.4382,53.5578 C34.0312,56.1208 33.3912,58.6288 32.5192,61.0758 C31.8032,63.0838 30.5332,64.3778 28.2922,64.4808 C26.9662,64.5408 25.6402,64.6038 24.3152,64.6648 C24.3142,64.6548 24.3142,64.6448 24.3132,64.6338" id="Fill-13" fill="#FEFEFE"></path>
                <path d="M25.6492,14.4287 C25.6952,14.1147 25.7362,13.8377 25.8012,13.3987 C27.0722,13.6747 28.3192,13.8687 29.5172,14.2237 C31.9102,14.9317 34.1972,15.9167 36.3602,17.1667 C37.5802,17.8717 38.5852,18.8297 39.3732,19.9987 C39.9492,20.8547 39.8952,21.4517 39.1822,22.1967 C38.2982,23.1187 37.2952,23.8507 36.0792,24.3207 C33.0662,25.4847 30.0032,26.3667 26.7332,26.2197 C25.9402,26.1847 25.1532,26.0367 24.3622,25.9527 C23.0072,25.8107 21.6542,25.5907 20.2962,25.5577 C17.9522,25.5007 15.7382,24.9237 13.5672,24.1167 C12.4202,23.6907 11.2822,23.2397 10.1492,22.7767 C8.5452,22.1197 8.0792,20.9717 8.8662,19.4347 C10.0832,17.0577 11.9692,15.3667 14.4162,14.3127 C14.5872,14.2387 14.9392,14.3227 15.0752,14.4607 C15.7262,15.1337 15.7612,16.0197 15.2482,16.7867 C14.6122,17.7377 13.9822,18.6927 13.3692,19.6567 C13.1842,19.9467 13.0312,20.2657 12.9152,20.5897 C12.4812,21.7997 12.9172,22.8767 14.1312,23.2477 C19.8782,25.0037 25.6692,25.7527 31.5022,23.6597 C32.5862,23.2717 33.6352,22.7417 34.6312,22.1587 C35.3422,21.7417 35.3582,21.4517 34.8932,20.7677 C34.0802,19.5717 33.2972,18.3407 32.3622,17.2427 C30.7892,15.3967 28.6602,14.6417 26.2832,14.4977 C26.0842,14.4867 25.8852,14.4547 25.6492,14.4287" id="Fill-15" fill="#FEFEFE"></path>
                <path d="M23.656,16.0137 C23.367,15.4127 23.093,14.8037 22.778,14.2167 C22.695,14.0617 22.463,13.8497 22.341,13.8737 C21.543,14.0337 21.045,13.4287 20.383,13.1947 C20.846,12.8477 21.3,12.5387 21.719,12.1907 C22.335,11.6787 22.608,11.0247 22.366,10.2287 C22.041,9.1587 21.701,8.0937 21.348,7.0327 C21.295,6.8717 21.165,6.6967 21.02,6.6157 C20.515,6.3307 19.997,6.0677 19.469,5.8267 C18.549,5.4087 17.758,5.7587 17.024,6.3037 C15.858,7.1697 15.58,8.1417 16.065,9.4927 C16.188,9.8357 16.28,10.1927 16.376,10.5447 C16.767,11.9957 17.462,13.1537 19.175,13.3497 C18.696,13.9217 18.259,14.4437 17.695,15.1167 C17.003,13.7867 16.244,12.5787 15.732,11.2757 C15.261,10.0757 14.927,8.7877 14.764,7.5087 C14.544,5.7587 15.542,4.5177 16.93,3.6097 C18.265,2.7367 19.695,2.5557 21.164,3.3237 C21.751,3.6297 22.159,4.0947 22.349,4.7377 C22.998,6.9297 23.134,9.1897 23.222,11.4537 C23.224,11.4947 23.236,11.5467 23.217,11.5747 C22.58,12.4597 23.078,13.2727 23.347,14.1177 C23.544,14.7307 23.642,15.3737 23.784,16.0037 C23.741,16.0067 23.698,16.0107 23.656,16.0137" id="Fill-17" fill="#FEFEFE"></path>
                <path d="M19.4187,7.1973 C19.7307,8.0313 20.0467,8.8303 20.3307,9.6403 C20.6157,10.4563 20.4907,10.8893 19.9577,11.0853 C19.1877,11.3673 18.6147,11.1003 18.3167,10.3213 C18.1947,9.9993 18.0617,9.6803 17.9547,9.3523 C17.5547,8.1243 18.1787,7.2623 19.4187,7.1973" id="Fill-19" fill="#FEFEFE"></path>
                <path d="M21.0759,14.7861 C21.1499,15.2521 21.5119,15.7371 20.8519,15.8951 C20.6349,15.9481 20.1289,15.7001 20.1169,15.5581 C20.0659,14.9551 20.6329,14.9701 21.0759,14.7861" id="Fill-21" fill="#FEFEFE"></path>
                <path d="M25.1697,36.2139 C25.5977,36.4459 25.9977,36.6629 26.3987,36.8799 C25.8067,37.9359 25.4507,38.1639 24.9327,37.8509 C24.3927,37.5239 24.4177,37.3059 25.1697,36.2139" id="Fill-23" fill="#B02524"></path>
                <path d="M18.6794,36.624 C18.1984,36.813 17.7724,36.981 17.2834,37.174 C17.2074,36.799 17.1364,36.472 17.0754,36.142 C16.9914,35.674 17.2844,35.512 17.6634,35.376 C18.0844,35.225 18.2074,35.49 18.3334,35.778 C18.4474,36.036 18.5464,36.299 18.6794,36.624" id="Fill-25" fill="#B02524"></path>
                <path d="M33.2849,34.0742 C33.1989,34.2322 33.1369,34.3562 33.0649,34.4752 C32.9079,34.7352 32.7459,34.9932 32.5909,35.2462 C31.5749,34.8792 31.2959,34.5672 31.5219,34.0752 C31.8069,33.4542 32.0239,33.4492 33.2849,34.0742" id="Fill-27" fill="#B02524"></path>
                <path d="M21.0935,33.8408 C21.0935,33.3908 21.0985,33.0248 21.0925,32.6578 C21.0855,32.2668 21.1945,31.9208 21.6495,31.9718 C21.9005,31.9998 22.2115,32.1668 22.3515,32.3698 C22.5855,32.7118 22.4805,33.0908 22.1145,33.3208 C21.8255,33.5038 21.5045,33.6348 21.0935,33.8408" id="Fill-29" fill="#B02524"></path>
                <path d="M38.6833,29.3057 C38.4023,29.6097 38.1413,29.8897 37.8313,30.2227 C37.4863,29.7867 37.1633,29.3827 36.8413,28.9777 C37.8243,28.2127 38.1143,28.2597 38.6833,29.3057" id="Fill-31" fill="#B02524"></path>
                <path d="M10.5662,31.4336 C10.4392,31.4606 10.3622,31.4916 10.2842,31.4926 C9.8382,31.4956 9.3922,31.4946 8.9432,31.4946 C8.7162,30.6786 8.7902,30.4046 9.2822,30.2406 C9.8512,30.0506 10.1722,30.3396 10.5662,31.4336" id="Fill-33" fill="#B02524"></path>
                <path d="M15.4216,31.1592 C16.3866,31.9212 16.3686,32.0562 15.1766,33.0542 C14.4446,32.0302 14.4706,31.8292 15.4216,31.1592" id="Fill-35" fill="#B02524"></path>
                <path d="M41.2507,28.0664 C41.8117,28.3404 42.1707,28.5174 42.6877,28.7704 C42.3237,29.1204 42.0607,29.4584 41.7167,29.6604 C41.5947,29.7314 41.0957,29.4874 41.0837,29.3604 C41.0507,28.9744 41.1717,28.5764 41.2507,28.0664" id="Fill-37" fill="#B02524"></path>
                <path d="M40.8806,35.1045 C40.8186,35.2195 40.7876,35.2945 40.7416,35.3595 C40.5556,35.6215 40.3626,35.8795 40.1736,36.1385 C39.4366,35.6545 39.4096,35.5075 39.8976,34.4265 C40.2296,34.6565 40.5516,34.8775 40.8806,35.1045" id="Fill-39" fill="#B02524"></path>
                <path d="M10.1052,35.6377 C11.2102,35.0337 11.2612,35.0417 11.8792,35.9067 C10.7652,36.6037 10.6612,36.5877 10.1052,35.6377" id="Fill-41" fill="#B02524"></path>
                <path d="M41.4216,73.3525 C40.1696,72.4145 40.1376,72.2775 40.7636,70.6005 C42.1056,71.5425 42.1976,71.9155 41.4216,73.3525" id="Fill-43" fill="#B02524"></path>
                <path d="M6.7468,70.4541 C7.0048,70.6521 7.2328,70.8161 7.4488,70.9951 C7.9488,71.4051 7.9888,71.7161 7.6128,72.1861 C7.2978,72.5821 6.9288,72.6731 6.4908,72.3801 C5.9898,72.0441 5.9168,71.7141 6.2448,71.1921 C6.3938,70.9551 6.5598,70.7271 6.7468,70.4541" id="Fill-45" fill="#B02524"></path>
                <path d="M26.5242,78.3887 C26.8862,77.9027 27.2452,77.4207 27.6462,76.8807 C27.9422,77.2297 28.1982,77.5317 28.4492,77.8267 C27.8312,78.9277 27.5952,78.9987 26.5242,78.3887" id="Fill-47" fill="#B02524"></path>
                <path d="M24.6296,75.6221 C23.1156,75.4681 23.1156,75.4681 23.2366,74.2811 C24.5846,73.9621 24.8866,74.2521 24.6296,75.6221" id="Fill-49" fill="#B02524"></path>
                <path d="M14.5525,77.6553 C14.7725,77.7413 14.9405,77.8013 15.1045,77.8723 C15.8135,78.1763 15.9205,78.9093 15.2925,79.3613 C15.1595,79.4573 14.8465,79.4243 14.6875,79.3303 C14.5125,79.2263 14.3085,78.9823 14.3125,78.8033 C14.3215,78.4323 14.4585,78.0653 14.5525,77.6553" id="Fill-51" fill="#B02524"></path>
                <path d="M34.4109,74.4756 C34.6619,74.1336 34.8609,73.8576 35.0649,73.5856 C35.1109,73.5256 35.1759,73.4786 35.2299,73.4256 C35.9879,74.1826 36.0089,74.2886 35.5269,75.0506 C35.1819,74.8726 34.8319,74.6926 34.4109,74.4756" id="Fill-53" fill="#B02524"></path>
                <path d="M9.9773,74.5488 C10.7413,75.1138 10.7463,75.1638 10.1523,76.2498 C9.2883,75.7368 9.2653,75.5268 9.9773,74.5488" id="Fill-55" fill="#B02524"></path>
                <path d="M15.1189,75.4414 C14.8609,75.6804 14.7099,75.9074 14.5019,75.9914 C14.2989,76.0744 13.9699,76.1004 13.8209,75.9874 C13.6659,75.8694 13.5349,75.4554 13.6189,75.3494 C13.7509,75.1824 14.0759,75.0934 14.3109,75.1064 C14.5519,75.1184 14.7829,75.2944 15.1189,75.4414" id="Fill-57" fill="#B02524"></path>
            </g>
        </g>
    </g>
</svg>