<?xml version="1.0" encoding="UTF-8"?>
<svg width="64px" height="115px" viewBox="0 0 64 115" version="1.1" xmlns="http://www.w3.org/2000/svg" xmlns:xlink="http://www.w3.org/1999/xlink">
    <!-- Generator: Sketch 64 (93537) - https://sketch.com -->
    <title>Group 219</title>
    <desc>Created with Sketch.</desc>
    <defs>
        <polygon id="path-1" points="0 0.819 63.585 0.819 63.585 114.99971 0 114.99971"></polygon>
        <polygon id="path-3" points="0 0.819 63.585 0.819 63.585 114.99981 0 114.99981"></polygon>
    </defs>
    <g id="Page-1" stroke="none" stroke-width="1" fill="none" fill-rule="evenodd">
        <g id="illustration" transform="translate(-299.000000, -210.000000)">
            <g id="Group-219" transform="translate(299.000000, 209.000000)">
                <g id="Group-3" transform="translate(0.000000, 0.181000)">
                    <mask id="mask-2" fill="white">
                        <use xlink:href="#path-1"></use>
                    </mask>
                    <g id="Clip-2"></g>
                    <path d="M33.9254,38.197 L33.7414,38.197 C33.7414,39.024 33.7664,39.851 33.7354,40.676 C33.7024,41.547 33.3734,41.798 32.4974,41.739 C32.0984,41.713 31.9184,41.558 31.9404,41.136 C31.9684,40.573 31.9034,40.004 31.9534,39.445 C32.1674,37.115 31.9774,34.774 32.4094,32.44 C32.7944,30.366 32.8114,28.225 32.9964,26.114 C33.0174,25.877 33.0954,25.645 33.1174,25.408 C33.2554,23.909 33.3924,22.41 33.5124,20.909 C33.5524,20.412 33.4094,19.859 33.5814,19.423 C33.9764,18.42 34.0294,17.437 33.9304,16.376 C33.8074,15.068 33.6434,13.805 32.9974,12.63 C32.5824,11.874 32.2944,11.049 31.8794,10.293 C31.6944,9.955 31.3224,9.723 31.0624,9.421 C30.9444,9.284 30.7904,9.071 30.8214,8.929 C31.0874,7.703 30.8464,6.622 30.0724,5.624 C29.6764,5.114 29.4454,4.471 29.0294,3.98 C28.4814,3.328 27.9294,2.537 27.1974,2.206 C24.4204,0.947 21.5104,0.359 18.4794,1.239 C16.7294,1.748 14.9784,2.263 13.8644,3.92 C13.6314,4.267 13.1634,4.47 12.7794,4.699 C11.0514,5.728 9.3034,6.726 7.5884,7.777 C7.2114,8.009 6.9064,8.389 6.6294,8.747 C6.2154,9.282 5.9884,9.97 5.2594,10.23 C5.1094,10.284 4.9984,10.518 4.9194,10.692 C3.7874,13.207 2.6344,15.696 2.0544,18.437 C1.4314,21.381 1.2004,24.272 1.7104,27.262 C2.0714,29.372 2.1184,31.536 2.2874,33.677 C2.3994,35.084 2.4764,36.493 2.5744,37.901 C2.8054,41.169 3.0424,44.437 3.2654,47.706 C3.2754,47.839 3.2164,48.04 3.1184,48.105 C2.1804,48.735 1.8654,49.754 1.3604,50.686 C0.5894,52.106 -0.0286,53.535 0.0004,55.164 C0.0324,56.942 0.0664,58.723 0.2274,60.491 C0.2974,61.262 0.7174,61.995 0.9174,62.761 C1.0534,63.282 1.0604,63.835 1.1634,64.365 C1.9694,68.502 2.8224,72.629 3.5854,76.774 C4.0904,79.518 4.4604,82.287 4.9074,85.043 C5.2884,87.39 5.7004,89.732 6.0884,92.078 C6.4414,94.212 6.8084,96.344 7.1164,98.485 C7.3994,100.444 7.6054,102.413 7.8594,104.376 C8.0394,105.771 8.2494,107.162 8.4364,108.556 C8.5334,109.285 8.8404,109.876 9.4884,110.26 C9.5804,110.315 9.6754,110.37 9.7744,110.411 C11.2844,111.04 12.7534,111.811 14.3164,112.259 C16.3444,112.839 18.4414,113.197 20.5204,113.584 C22.1114,113.88 23.7174,114.097 25.3224,114.303 C26.4424,114.446 27.5714,114.51 28.6954,114.609 C30.3174,114.751 31.9454,115.048 33.5604,114.993 C35.4344,114.93 37.2964,114.552 39.1644,114.319 C41.9034,113.976 44.5804,113.314 47.4094,113.529 C50.3374,113.752 53.2524,113.331 55.9204,111.889 C56.5964,111.524 57.0534,111.052 57.1744,110.27 C57.5104,108.089 57.8134,105.901 58.2254,103.733 C58.5534,102.005 58.8484,100.29 58.8994,98.522 C58.9394,97.162 59.1984,95.809 59.3594,94.452 C59.5444,92.882 59.7364,91.311 59.9084,89.739 C60.1034,87.971 60.2774,86.202 60.4624,84.434 C60.7124,82.062 60.9664,79.69 61.2154,77.318 C61.3764,75.785 61.5314,74.252 61.6894,72.719 C61.8804,70.842 62.1024,68.967 62.2534,67.087 C62.4144,65.073 62.5474,63.055 62.6194,61.037 C62.6814,59.343 62.6554,57.644 62.6264,55.948 C62.6184,55.437 62.5204,54.913 62.3794,54.419 C62.0364,53.218 61.6084,52.042 61.2874,50.837 C61.1024,50.139 60.8854,49.38 60.9824,48.691 C61.2684,46.638 61.6864,44.602 62.0844,42.566 C62.3964,40.971 62.7814,39.392 62.5774,37.744 C62.5384,37.426 62.5924,37.093 62.6234,36.769 C62.7604,35.348 62.9234,33.928 63.0334,32.505 C63.0684,32.06 62.9044,31.6 62.9354,31.155 C63.1284,28.386 63.4054,25.623 63.5444,22.852 C63.6324,21.093 63.6424,19.35 62.8854,17.634 C62.3824,16.494 61.9634,15.317 61.1014,14.433 C60.3984,13.712 59.7654,12.86 58.7604,12.47 C58.3374,12.305 58.1934,12.013 58.3744,11.533 C58.5154,11.16 58.6014,10.731 58.5784,10.335 C58.4844,8.711 58.3424,7.089 58.2094,5.467 C58.1234,4.415 57.7074,3.468 56.8054,2.947 C55.8434,2.391 54.7934,1.883 53.7184,1.651 C51.3994,1.152 49.1104,1.873 46.8094,2.102 C45.8284,2.199 45.3514,2.97 44.7384,3.625 C43.8374,4.585 43.1574,5.637 42.7864,6.884 C42.6034,7.501 42.2604,7.837 41.6294,8.041 C38.9384,8.914 37.1434,10.817 36.0754,13.352 C35.6154,14.446 35.5274,15.699 35.2904,16.885 C34.9434,18.624 34.5054,20.354 34.3074,22.111 C34.0704,24.223 33.9794,26.357 33.9414,28.484 C33.8834,31.721 33.9254,34.959 33.9254,38.197" id="Fill-1" fill="#FEFEFE" mask="url(#mask-2)"></path>
                </g>
                <g id="Group-6" transform="translate(0.000000, 0.181000)">
                    <mask id="mask-4" fill="white">
                        <use xlink:href="#path-3"></use>
                    </mask>
                    <g id="Clip-5"></g>
                    <path d="M15.4537,19.9841 C15.1077,19.6941 14.8217,19.4551 14.5357,19.2151 C14.7717,20.0941 14.9387,20.2281 15.4537,19.9841 L15.4537,19.9841 Z M58.9787,24.6671 L58.7827,24.7761 C58.9377,25.0621 59.0927,25.3481 59.2477,25.6341 C59.2967,25.6161 59.3457,25.5981 59.3947,25.5801 C59.4467,25.3591 59.4987,25.1371 59.5507,24.9121 C59.3277,24.8171 59.1527,24.7421 58.9787,24.6671 L58.9787,24.6671 Z M16.4347,18.2011 C16.6017,18.4371 16.7367,18.6271 16.8787,18.8261 C17.0997,18.6601 17.2537,18.5451 17.4507,18.3971 C17.0797,18.2791 16.8447,17.7011 16.4347,18.2011 L16.4347,18.2011 Z M29.8997,12.5051 C29.7057,12.9581 29.5697,13.2721 29.4237,13.6151 C29.7517,13.6641 29.9927,13.7001 30.2947,13.7461 C30.1647,13.3371 30.0567,12.9981 29.8997,12.5051 L29.8997,12.5051 Z M50.8127,31.3701 C50.6877,30.9631 50.5837,30.6251 50.4417,30.1661 C49.9337,31.1711 49.9877,31.3321 50.8127,31.3701 L50.8127,31.3701 Z M15.2197,18.8801 C15.4657,19.0951 15.6497,19.2751 15.8557,19.4251 C15.9197,19.4711 16.0627,19.4741 16.1297,19.4321 C16.1987,19.3881 16.2657,19.2591 16.2527,19.1801 C16.1927,18.8211 15.6297,18.6281 15.2197,18.8801 L15.2197,18.8801 Z M14.0977,20.9591 C14.1887,20.9331 14.2807,20.9071 14.3737,20.8811 C14.5607,20.3381 13.9427,20.1181 13.8357,19.6931 C13.7387,19.7321 13.6427,19.7711 13.5477,19.8091 C13.7297,20.1921 13.9137,20.5751 14.0977,20.9591 L14.0977,20.9591 Z M11.5757,28.9681 C11.4177,28.5611 11.3277,28.3281 11.2247,28.0641 C10.8747,28.1721 10.5767,28.2631 10.2797,28.3551 C10.2737,28.4001 10.2677,28.4461 10.2627,28.4911 C10.6457,28.6301 11.0287,28.7701 11.5757,28.9681 L11.5757,28.9681 Z M58.6777,27.6671 C59.0627,26.7571 59.0627,26.7571 58.6417,26.1671 C58.5467,26.6681 58.0407,27.1521 58.6777,27.6671 L58.6777,27.6671 Z M13.0307,20.4311 C12.3687,20.8221 12.7657,21.2051 12.9807,21.5591 C13.0337,21.6461 13.2167,21.6531 13.3397,21.6961 C13.3847,21.5561 13.4997,21.3901 13.4607,21.2781 C13.3637,21.0001 13.1967,20.7461 13.0307,20.4311 L13.0307,20.4311 Z M53.3967,19.2631 C53.2137,19.7771 53.0967,20.1061 52.9537,20.5031 C53.3577,20.5281 53.6727,20.5481 54.1057,20.5751 C53.8697,20.1381 53.6807,19.7881 53.3967,19.2631 L53.3967,19.2631 Z M57.1257,26.2921 C57.5047,25.4581 57.2887,24.9471 56.3857,24.3601 C56.6307,25.0001 56.8567,25.5901 57.1257,26.2921 L57.1257,26.2921 Z M52.0417,17.8981 C51.6347,17.4271 51.4447,17.8071 51.2297,18.0121 C50.9077,18.3211 50.8027,18.6451 51.2307,18.9941 C51.3677,18.8241 51.5077,18.6631 51.6327,18.4931 C51.7717,18.3041 51.8977,18.1081 52.0417,17.8981 L52.0417,17.8981 Z M12.6317,22.2771 C12.4567,22.0131 12.3077,21.7891 12.0917,21.4601 C11.8597,22.0121 11.6667,22.4741 11.4747,22.9351 C11.5397,22.9711 11.6057,23.0081 11.6727,23.0441 C11.9857,22.7941 12.2987,22.5431 12.6317,22.2771 L12.6317,22.2771 Z M45.0897,24.1981 C43.7667,24.9671 43.2887,25.6511 43.7407,26.1271 C44.1687,25.5141 44.5897,24.9131 45.0897,24.1981 L45.0897,24.1981 Z M49.6777,32.6251 C49.6077,33.0651 49.5537,33.6831 50.1357,33.7161 C50.7717,33.7521 50.6807,33.1041 50.7747,32.5861 C50.4587,32.7981 50.2127,32.9631 49.9367,33.1471 C49.8427,32.9561 49.7607,32.7911 49.6777,32.6251 L49.6777,32.6251 Z M18.7907,21.8591 C19.3847,22.3731 19.8497,22.7741 20.3477,23.2041 C20.4907,23.0031 20.5947,22.8591 20.7167,22.6871 C20.1747,22.4091 19.6807,22.1531 19.1827,21.9031 C19.1317,21.8781 19.0607,21.8881 18.7907,21.8591 L18.7907,21.8591 Z M56.4327,30.7361 C57.2207,30.0671 57.2247,30.0351 56.6267,29.3781 C55.9197,29.9411 55.9197,29.9411 56.4327,30.7361 L56.4327,30.7361 Z M57.6407,29.5691 C58.2667,29.0621 58.0347,28.4851 57.9427,27.8001 C57.6207,28.1911 57.3777,28.4861 57.1417,28.7731 C57.3167,29.0531 57.4667,29.2911 57.6407,29.5691 L57.6407,29.5691 Z M57.5647,24.2811 C57.3207,23.4691 57.1197,22.8011 56.9187,22.1331 C56.4847,23.4941 56.5137,23.5881 57.5647,24.2811 L57.5647,24.2811 Z M27.2967,22.7461 C27.5737,22.1751 27.8057,21.7001 28.0537,21.1911 C27.8107,21.0981 27.6417,21.0331 27.3217,20.9111 C27.5237,21.5701 26.4077,21.9661 27.2967,22.7461 L27.2967,22.7461 Z M26.1757,8.4561 C26.0137,7.8361 25.8917,7.3701 25.7677,6.9031 C25.7047,6.9091 25.6417,6.9141 25.5767,6.9191 C25.3657,7.3081 25.1537,7.6961 24.9327,8.1021 C25.3137,8.2101 25.6207,8.2971 26.1757,8.4561 L26.1757,8.4561 Z M28.7937,19.3401 C28.4977,19.1881 28.2657,19.0681 28.0157,18.9391 C27.6877,20.2851 27.6877,20.2851 28.3487,20.5271 C28.4887,20.1531 28.6287,19.7791 28.7937,19.3401 L28.7937,19.3401 Z M16.9987,23.3941 C16.9707,23.4551 16.9417,23.5171 16.9137,23.5781 C17.4757,24.1751 18.0387,24.7741 18.6977,25.4741 C18.7557,24.5891 18.1597,24.2251 17.7217,23.7941 C17.5317,23.6081 17.2427,23.5241 16.9987,23.3941 L16.9987,23.3941 Z M7.7967,14.2951 C7.7177,14.3011 7.6397,14.3081 7.5597,14.3141 C7.5847,14.5271 7.5577,14.7641 7.6437,14.9481 C7.8387,15.3611 8.0897,15.7481 8.3447,16.1921 C8.5877,15.9981 8.7307,15.8821 8.8747,15.7681 C8.4757,15.2241 8.1367,14.7591 7.7967,14.2951 L7.7967,14.2951 Z M7.7917,16.6921 C7.5617,16.2611 7.3467,15.8561 7.1307,15.4491 C7.0677,15.4651 7.0067,15.4811 6.9437,15.4971 C6.9127,16.1191 6.8807,16.7411 6.8407,17.5301 C7.2377,17.1801 7.4787,16.9681 7.7917,16.6921 L7.7917,16.6921 Z M40.9537,24.9281 C40.0657,24.6681 39.0017,25.7311 39.1237,26.6751 C39.7247,26.1021 40.3167,25.5361 40.9537,24.9281 L40.9537,24.9281 Z M21.3657,21.7411 C21.2977,21.6801 21.2697,21.6441 21.2337,21.6251 C20.7967,21.3921 20.3447,21.1831 19.9247,20.9231 C19.5577,20.6961 19.3937,20.8251 19.2777,21.1711 C21.0507,22.1781 21.0507,22.1781 21.3657,21.7411 L21.3657,21.7411 Z M53.1037,30.2971 C53.1967,30.5321 53.3287,30.7571 53.3677,30.9971 C53.4067,31.2341 53.3497,31.4851 53.3327,31.7641 C53.6097,31.7851 53.8387,31.8011 54.0587,31.8181 C54.3457,30.6861 54.1417,30.3721 53.1037,30.2971 L53.1037,30.2971 Z M53.9007,33.3561 C53.5217,33.1581 53.2087,32.9941 52.7957,32.7781 C52.9007,33.4971 52.9977,34.1511 53.0937,34.8041 L53.2837,34.8171 C53.4897,34.3311 53.6947,33.8441 53.9007,33.3561 L53.9007,33.3561 Z M52.2517,20.3801 C52.4237,19.9471 52.5407,19.6231 52.6797,19.3091 C52.8177,18.9931 53.1337,18.6651 52.5217,18.4431 C52.2017,18.8621 51.8767,19.2861 51.5167,19.7571 C51.7547,19.9601 51.9767,20.1481 52.2517,20.3801 L52.2517,20.3801 Z M29.0547,18.6421 C29.1147,18.2601 29.1737,17.8901 29.2367,17.4871 C28.8097,17.3651 28.4467,17.2621 28.0807,17.1581 C27.8777,18.1491 27.8917,18.1701 29.0547,18.6421 L29.0547,18.6421 Z M22.7707,19.0931 C22.7277,18.4481 22.6937,17.9301 22.6587,17.4131 C22.5757,17.3861 22.4927,17.3601 22.4107,17.3341 C22.1107,17.6851 21.8107,18.0361 21.4777,18.4251 C21.8557,18.6201 22.2297,18.8141 22.7707,19.0931 L22.7707,19.0931 Z M20.4647,19.6091 C21.0167,19.8551 21.5647,20.0991 22.1617,20.3651 C22.2717,20.1351 22.3597,19.9501 22.4447,19.7731 C21.1377,18.8291 20.9807,18.8171 20.4647,19.6091 L20.4647,19.6091 Z M11.3897,11.1611 C11.3117,11.1311 11.2347,11.1011 11.1577,11.0711 C10.9847,11.2821 10.6237,11.5601 10.6717,11.6931 C10.8707,12.2581 11.1907,12.7801 11.4677,13.3171 C11.5507,13.2851 11.6337,13.2531 11.7167,13.2211 C12.0117,12.4741 11.4347,11.8581 11.3897,11.1611 L11.3897,11.1611 Z M41.2397,19.0451 C42.3517,19.1691 43.4147,19.2871 44.4757,19.4051 L44.5147,19.2751 C43.4767,18.9581 42.4407,18.6401 41.3427,18.3031 C41.2977,18.6271 41.2727,18.8101 41.2397,19.0451 L41.2397,19.0451 Z M8.2497,13.7401 C8.6387,14.2761 8.9917,14.7621 9.3707,15.2831 C9.5937,15.0811 9.7647,14.9261 9.9317,14.7741 C9.5577,14.1971 9.2117,13.6611 8.8377,13.0831 C8.6397,13.3041 8.4697,13.4941 8.2497,13.7401 L8.2497,13.7401 Z M58.9977,19.6331 C57.9617,20.8191 57.9617,20.8191 58.5467,21.5881 C58.8757,21.3951 59.2047,21.2031 59.5717,20.9881 C59.3697,20.5131 59.1887,20.0861 58.9977,19.6331 L58.9977,19.6331 Z M13.3767,26.5521 C13.7817,27.1731 14.1457,27.7321 14.5337,28.3281 C14.7557,28.2101 14.9537,28.1051 15.2047,27.9711 C14.7737,27.3121 14.3887,26.7211 13.9797,26.0961 C13.7477,26.2721 13.5797,26.3991 13.3767,26.5521 L13.3767,26.5521 Z M10.4347,14.2881 C10.6617,14.0771 10.8457,13.9071 10.9827,13.7801 C10.6267,13.1411 10.3037,12.5641 9.9827,11.9921 C9.3797,12.2051 9.2817,12.5571 9.6307,13.0621 C9.8987,13.4501 10.1487,13.8511 10.4347,14.2881 L10.4347,14.2881 Z M47.0017,8.3681 C47.3327,8.2451 47.6557,8.0931 47.9957,8.0051 C49.0107,7.7441 49.0137,7.7541 48.7217,6.7151 C47.4817,6.5631 47.5547,7.7961 47.0017,8.3681 L47.0017,8.3681 Z M55.7457,28.4451 C55.3347,27.4841 54.9607,26.6131 54.5877,25.7421 C54.5387,25.7581 54.4907,25.7751 54.4417,25.7911 C54.5677,26.7651 54.6937,27.7381 54.8307,28.7931 C55.1697,28.6641 55.4217,28.5681 55.7457,28.4451 L55.7457,28.4451 Z M13.0397,10.0291 C12.5787,10.3091 12.2577,10.5051 11.9357,10.6991 C12.1307,11.3581 12.3067,11.9521 12.5017,12.6131 C13.4087,11.8841 12.8987,10.9841 13.0397,10.0291 L13.0397,10.0291 Z M59.7457,24.2621 L59.7457,21.7851 C59.6937,21.7541 59.6427,21.7221 59.5917,21.6911 C59.2697,21.9751 58.7307,22.2251 58.6807,22.5511 C58.6137,22.9751 58.9017,23.4761 59.1077,23.9111 C59.1797,24.0621 59.4607,24.1131 59.7457,24.2621 L59.7457,24.2621 Z M17.6937,22.7301 C18.3057,23.3061 18.8327,23.8041 19.3837,24.3231 C19.4757,24.2101 19.6637,23.9821 19.8837,23.7141 C19.3127,23.2131 18.7707,22.7371 18.2287,22.2601 C18.0107,22.4521 17.8347,22.6061 17.6937,22.7301 L17.6937,22.7301 Z M29.1487,14.3581 C29.0877,14.3431 29.0257,14.3281 28.9647,14.3141 C28.7887,14.4991 28.6397,14.7261 28.4307,14.8601 C27.8487,15.2341 27.8687,15.8351 28.0617,16.2961 C28.1707,16.5551 28.7527,16.6151 29.2777,16.8281 C29.2277,15.8751 29.1887,15.1161 29.1487,14.3581 L29.1487,14.3581 Z M55.6857,24.7141 C55.5187,25.0051 55.2167,25.2951 55.2727,25.4701 C55.5327,26.2791 55.8927,27.0561 56.2697,27.9721 C56.5857,27.4411 56.8137,27.0561 57.0207,26.7071 C56.0577,26.3871 56.2577,25.3941 55.6857,24.7141 L55.6857,24.7141 Z M15.0767,25.1231 C14.8577,25.3301 14.6827,25.4981 14.5107,25.6621 C14.9697,26.3611 15.3827,26.9891 15.8217,27.6581 C16.1437,27.4521 16.4487,27.2571 16.7497,27.0651 C16.1967,26.4231 15.6647,25.8051 15.0767,25.1231 L15.0767,25.1231 Z M11.8867,27.7141 C12.2407,29.1451 12.6227,29.3171 13.8597,28.5441 C13.5237,28.0371 13.1907,27.5321 12.8437,27.0061 C12.4657,27.2861 12.1727,27.5021 11.8867,27.7141 L11.8867,27.7141 Z M44.8447,16.8901 C44.8637,16.6191 44.8817,16.3731 44.8967,16.1401 C43.5957,16.1461 43.6937,14.9261 43.1177,14.2221 C42.8007,14.7581 42.5107,15.2461 42.2467,15.6911 C43.1417,16.1051 43.9557,16.4801 44.8447,16.8901 L44.8447,16.8901 Z M42.1257,26.3251 C41.4487,26.6731 40.8737,26.9701 40.2067,27.3141 C40.5747,27.5751 40.8317,27.7581 41.0887,27.9411 C40.7237,28.7281 40.3767,29.4921 39.3027,29.3491 C39.6267,30.1291 40.1257,30.1881 40.5817,29.4901 C41.1387,28.6371 41.6187,27.7341 42.1187,26.8441 C42.1697,26.7531 42.1257,26.6071 42.1257,26.3251 L42.1257,26.3251 Z M58.1417,17.3451 C57.6487,17.9331 57.1957,18.4751 56.7337,19.0261 C57.0587,19.4271 57.3287,19.7591 57.5997,20.0931 C58.6007,19.2301 58.8447,18.1631 58.1417,17.3451 L58.1417,17.3451 Z M18.1747,25.9411 C17.5377,25.2561 16.9597,24.6351 16.3597,23.9901 C16.0507,24.2761 15.8467,24.4641 15.5957,24.6961 C16.1747,25.3551 16.7377,25.9961 17.3227,26.6621 C17.6277,26.4041 17.8387,26.2251 18.1747,25.9411 L18.1747,25.9411 Z M56.3007,18.4991 C56.5627,18.1601 56.7537,17.8671 56.9917,17.6221 C57.2277,17.3781 57.5137,17.1801 57.7767,16.9631 C56.6577,15.8531 56.1547,16.0001 55.2827,17.6031 C55.6067,17.8881 55.9417,18.1831 56.3007,18.4991 L56.3007,18.4991 Z M49.1757,25.0701 C48.8797,25.9691 48.5297,26.8051 48.3407,27.6751 C48.1937,28.3481 48.4317,28.7681 49.1617,28.5711 C49.3857,27.5181 49.6117,26.4481 49.8457,25.3491 C49.6457,25.2661 49.4747,25.1951 49.1757,25.0701 L49.1757,25.0701 Z M45.3407,21.6561 C44.1317,21.2721 43.0487,21.3921 41.9687,21.6861 C41.0807,21.9261 41.0547,21.9761 41.3637,22.8211 C41.4117,22.9541 41.4957,23.0741 41.5507,23.1741 C42.7977,22.6751 43.9987,22.1941 45.3407,21.6561 L45.3407,21.6561 Z M53.7237,8.1321 C53.6427,8.1321 53.5617,8.1311 53.4817,8.1301 C53.4137,10.0001 53.3457,11.8681 53.2777,13.7371 L53.5507,13.8031 C53.8217,13.0921 54.1097,12.3871 54.3577,11.6681 C54.4857,11.2971 54.4417,10.9661 54.0317,10.7291 C53.6167,10.4891 53.5527,10.0701 53.8707,9.7351 C54.4667,9.1091 54.1617,8.6281 53.7237,8.1321 L53.7237,8.1321 Z M44.7617,18.6411 C44.8047,17.5941 43.4007,16.5341 41.8797,16.5121 C41.7617,16.8801 41.6407,17.2601 41.5177,17.6471 C42.6417,17.9911 43.7037,18.3171 44.7617,18.6411 L44.7617,18.6411 Z M45.3687,20.9291 C45.5037,20.2341 44.9407,20.3731 44.6407,20.2511 C43.5427,19.8051 42.3857,19.7931 41.1747,19.7681 L41.1747,21.2101 C42.5597,20.7841 43.9497,20.5251 45.3687,20.9291 L45.3687,20.9291 Z M49.8317,28.6281 C50.1837,28.6281 50.4427,28.6071 50.6977,28.6321 C51.1377,28.6771 51.3177,28.5171 51.3177,28.0591 C51.3187,27.6081 51.4067,27.1571 51.4567,26.7071 C51.5657,25.6981 51.7007,25.7201 50.4947,25.5821 C50.2817,26.5571 50.0677,27.5391 49.8317,28.6281 L49.8317,28.6281 Z M45.8917,22.3531 C45.8647,22.3001 45.8387,22.2481 45.8107,22.1951 C44.4977,22.7231 43.1847,23.2501 41.8017,23.8051 C42.2077,24.3631 42.5247,24.7981 42.8457,25.2381 C43.8817,24.2571 44.8867,23.3051 45.8917,22.3531 L45.8917,22.3531 Z M43.0787,32.0671 C44.4907,32.3941 45.9427,30.9041 46.0487,29.5041 C46.0557,29.4151 45.9847,29.2501 45.9267,29.2381 C45.5527,29.1621 45.0817,28.9561 44.8157,29.1041 C44.4317,29.3171 43.9397,29.6491 44.3407,30.3321 C44.7467,31.0251 44.4127,31.5471 43.6337,31.5251 C43.2247,31.5121 43.0947,31.6701 43.0787,32.0671 L43.0787,32.0671 Z M25.2147,12.5121 C24.6087,11.4851 24.7467,11.1201 25.7577,10.7041 C25.9327,10.6311 26.0187,10.2201 26.0407,9.9571 C26.0497,9.8461 25.8027,9.6711 25.6397,9.6001 C25.4907,9.5361 25.2967,9.5871 25.1247,9.5671 C24.4287,9.4841 24.0597,9.7831 23.9747,10.4831 C23.9087,11.0261 23.8187,11.5671 23.7257,12.2041 C24.1827,12.2991 24.6987,12.4051 25.2147,12.5121 L25.2147,12.5121 Z M47.4547,28.1561 C47.8357,26.9831 48.1927,25.8831 48.5627,24.7401 C48.4077,24.6531 48.2047,24.5411 47.9257,24.3851 C47.2327,25.4541 46.5667,26.4821 45.8797,27.5431 C46.5077,27.7871 47.0297,27.9901 47.4547,28.1561 L47.4547,28.1561 Z M46.5647,23.2331 C45.7647,24.4031 44.9987,25.5211 44.1957,26.6931 C44.5627,26.9211 44.8847,27.1211 45.2077,27.3221 C45.9447,26.1861 46.6487,25.1031 47.3157,24.0761 C47.0757,23.8071 46.8487,23.5501 46.5647,23.2331 L46.5647,23.2331 Z M49.2777,13.5021 C49.2537,13.1761 49.2307,12.8961 49.2117,12.6151 C49.1927,12.3441 49.1777,12.0731 49.1557,11.7241 C49.0007,11.8391 48.9137,11.8941 48.8377,11.9621 C47.8987,12.8051 47.0707,12.5941 46.7077,11.4181 C46.5657,10.9631 46.7457,10.7011 47.2027,10.6801 C47.8177,10.6531 48.4347,10.6731 49.0907,10.6731 C49.0717,10.2681 49.0527,9.8501 49.0297,9.3521 C48.6557,9.5461 48.3797,9.7141 48.0847,9.8371 C47.7907,9.9591 47.4607,10.1461 47.1807,10.1001 C46.9437,10.0611 46.7557,9.7291 46.5827,9.5611 C45.6967,11.5281 47.0137,13.6261 49.2777,13.5021 L49.2777,13.5021 Z M23.0347,29.7221 C22.5477,29.9081 22.0677,30.5851 21.6347,29.7431 C21.4747,29.4361 21.1357,29.1451 21.5407,28.7661 C22.1087,28.2361 22.5107,28.6711 22.8517,28.9951 C23.0807,28.6491 23.2787,28.3481 23.5357,27.9571 C23.4477,27.3041 23.6937,26.9991 24.4587,26.8171 C24.8497,26.7241 25.2077,26.5001 25.6207,26.3181 C24.9777,25.5921 24.2437,25.6761 23.5237,26.4111 C22.8697,27.0791 22.2087,27.7401 21.5387,28.3921 C21.2177,28.7051 20.8667,28.9881 20.5087,29.3041 C21.0067,29.7411 21.3507,30.1571 21.7907,30.4011 C22.3187,30.6951 22.7267,30.4371 23.0347,29.7221 L23.0347,29.7221 Z M52.2297,25.8441 C52.1327,26.7821 52.0397,27.6801 51.9427,28.6111 C52.7047,28.6731 53.4087,28.7321 54.1567,28.7931 C54.0187,27.7761 53.8907,26.8221 53.7577,25.8441 L52.2297,25.8441 Z M29.1917,24.5081 C30.2617,21.9031 30.6757,19.1991 31.0967,16.5001 C31.1387,16.2301 30.9687,15.9271 30.8967,15.6391 C30.8417,15.6451 30.7847,15.6501 30.7277,15.6541 C30.6597,15.9901 30.5767,16.3241 30.5277,16.6621 C30.4557,17.1551 30.4707,17.6691 30.3417,18.1451 C29.8867,19.8341 29.5487,21.5571 28.6287,23.0981 C28.1667,23.8721 28.3047,24.0591 29.1917,24.5081 L29.1917,24.5081 Z M47.1407,33.8071 C48.2937,36.8171 50.3897,37.8181 52.9317,36.5671 C51.8207,36.2831 52.0587,35.1931 51.6237,34.4381 C51.0787,35.4341 50.2347,35.3721 49.3757,35.1541 C48.1727,34.8491 48.3417,33.8431 48.3687,32.8011 C47.8807,33.2011 47.5037,33.5091 47.1407,33.8071 L47.1407,33.8071 Z M36.5567,16.6401 C36.6377,16.6571 36.7177,16.6731 36.7987,16.6901 C36.9277,16.3531 37.0417,16.0091 37.1867,15.6801 C37.9747,13.8971 39.1537,12.5071 41.1097,11.9741 C42.6797,11.5461 42.6977,11.5671 42.2217,10.0321 C42.1677,9.8591 41.8307,9.6151 41.7007,9.6541 C41.1337,9.8271 40.5097,9.9861 40.0607,10.3451 C38.8207,11.3361 37.7087,12.4771 37.1947,14.0331 C36.9147,14.8801 36.7647,15.7701 36.5567,16.6401 L36.5567,16.6401 Z M20.5097,9.9041 C20.0787,9.5891 19.1337,9.9021 19.1927,8.9101 C19.2207,8.4421 19.5947,8.3641 19.9447,8.3691 C20.2017,8.3731 20.4557,8.5011 20.6737,8.5641 L20.6737,5.4911 C20.2407,5.6961 19.8597,5.8761 19.5837,6.0071 C19.5297,6.6201 19.4857,7.1261 19.4367,7.6861 C18.8997,7.5321 18.4727,7.4101 18.0297,7.2841 C17.9747,7.5701 17.9217,7.8031 17.8867,8.0381 C17.6927,9.3471 17.3957,10.6511 17.7037,11.9861 C17.7737,12.2941 17.8647,12.4391 18.2227,12.3741 C18.7337,12.2801 19.2687,12.2961 19.7707,12.1721 C19.9787,12.1201 20.2327,11.8551 20.2827,11.6441 C20.4097,11.1001 20.4347,10.5331 20.5097,9.9041 L20.5097,9.9041 Z M13.0637,14.0451 C11.9777,14.9731 10.8617,15.8911 9.7887,16.8571 C9.1937,17.3921 8.6257,17.9711 8.1277,18.5961 C7.6497,19.1951 7.1057,19.8291 6.8977,20.5371 C6.4757,21.9721 6.9247,23.4131 7.1827,24.8431 C7.6727,22.0051 8.7357,19.4551 10.7747,17.3881 C11.5057,16.6481 12.3167,15.9861 13.1037,15.3031 C13.4917,14.9671 13.6577,14.6341 13.0637,14.0451 L13.0637,14.0451 Z M60.7247,25.1891 C60.7577,25.2041 60.7897,25.2191 60.8207,25.2341 C60.9047,25.0901 61.0047,24.9531 61.0697,24.8011 C61.9417,22.7881 62.2397,20.8051 61.6907,18.5581 C61.1407,16.3031 59.8207,14.9141 57.9937,13.7971 C57.8597,13.7151 57.5057,13.7771 57.4057,13.8981 C57.0687,14.3051 57.1487,14.8971 57.6117,15.1631 C58.9907,15.9551 59.6697,17.1741 60.0597,18.6741 C60.5127,20.4151 61.1657,22.1081 60.8297,23.9611 C60.7577,24.3631 60.7587,24.7791 60.7247,25.1891 L60.7247,25.1891 Z M37.6827,28.8241 C37.6287,28.8001 37.5727,28.7771 37.5177,28.7541 C37.4447,29.0481 37.3047,29.3441 37.3117,29.6361 C37.3337,30.4161 37.4037,31.1951 37.4887,31.9711 C37.5157,32.2181 37.5837,32.5271 37.7497,32.6801 C38.9387,33.7751 40.2987,34.4901 41.9457,34.7061 C43.0137,34.8451 43.9657,34.6931 44.7717,34.0441 C45.7337,33.2681 46.6407,32.4161 47.5047,31.5331 C47.8027,31.2291 47.9327,30.7421 48.0717,30.3161 C48.1077,30.2061 47.8677,29.8721 47.7927,29.8841 C47.6007,29.9141 47.2817,30.0741 47.2757,30.1941 C47.2127,31.6101 46.2087,32.3851 45.2567,33.1681 C44.4667,33.8171 43.5217,33.9231 42.5387,33.6591 C41.5717,33.4011 41.3237,32.9401 41.6957,32.0241 C41.9987,31.2801 42.3507,30.5561 42.6527,29.8121 C42.7197,29.6481 42.6667,29.4361 42.6687,29.2461 C42.5027,29.3401 42.2827,29.3941 42.1797,29.5351 C41.8297,30.0051 41.5137,30.5001 41.2017,30.9971 C40.8697,31.5251 40.3917,31.6911 39.8037,31.6071 C38.5127,31.4241 37.7547,30.4271 37.6827,28.8241 L37.6827,28.8241 Z M41.9697,13.1601 C41.7457,13.2571 41.5767,13.3401 41.4007,13.4061 C39.8997,13.9681 38.9707,15.1311 38.2867,16.4931 C37.9147,17.2341 37.5927,18.0471 37.4747,18.8601 C37.3107,19.9921 37.4187,21.1611 37.3007,22.3031 C37.1927,23.3441 37.7827,24.0391 38.2417,24.8301 C38.7307,24.3811 39.1257,23.8911 39.6337,23.5961 C40.0317,23.3641 40.1687,23.1871 40.0627,22.7461 C39.6337,20.9481 39.7417,19.1461 40.2917,17.4071 C40.7387,15.9911 41.3777,14.6361 41.9697,13.1601 L41.9697,13.1601 Z M48.8897,15.1851 C48.4967,15.1581 48.1747,15.1211 47.8507,15.1181 C46.5977,15.1081 45.9867,15.7761 46.0867,17.0391 C46.1227,17.4941 46.1707,17.9491 46.2067,18.4041 C46.4547,21.5031 47.6637,23.0791 50.6087,24.0121 C51.2387,24.2121 51.9377,24.1861 52.5997,24.3031 C53.3747,24.4421 54.0657,24.2341 54.7187,23.8511 C55.1617,23.5901 55.2747,23.1841 55.1867,22.7251 C55.1197,22.6891 55.1007,22.6721 55.0817,22.6701 C54.9947,22.6621 54.9077,22.6581 54.8207,22.6531 C52.2737,22.5251 50.2067,21.6911 49.2807,19.0411 C49.1287,18.6061 48.6707,18.2851 48.4017,17.8791 C48.1937,17.5651 47.9957,17.2151 47.9187,16.8551 C47.8717,16.6361 48.0327,16.1741 48.1567,16.1531 C48.7077,16.0611 48.7647,15.6621 48.8897,15.1851 L48.8897,15.1851 Z M25.5937,24.4571 C25.8427,24.6371 25.9487,24.7061 26.0467,24.7861 C27.3097,25.8141 27.2707,27.0761 26.0367,28.1241 C25.5207,28.5621 25.1387,29.1681 24.7387,29.7291 C24.4247,30.1691 24.2127,30.6831 23.8927,31.1181 C23.1077,32.1901 21.7657,32.3431 20.7507,31.5071 C20.4817,31.2861 20.2297,31.0451 19.9587,30.8281 C19.3507,30.3441 19.1447,30.3821 18.5197,31.2411 C19.5717,32.2211 20.6917,33.1861 21.7127,34.2461 C22.2817,34.8381 22.9017,35.2491 23.6787,35.4421 C24.1417,35.5571 24.6097,35.6781 25.0827,35.7211 C25.4727,35.7561 25.8877,35.7401 26.2627,35.6411 C27.4947,35.3151 28.1927,34.3901 28.7667,33.3261 C30.1987,30.6761 29.9997,27.9721 28.1827,25.8491 C27.5487,25.1061 26.7557,24.6321 25.5937,24.4571 L25.5937,24.4571 Z M51.8537,14.7571 C51.9287,13.4891 52.0437,12.3051 52.0567,11.1201 C52.0747,9.4831 52.1227,7.8581 52.7137,6.3031 C52.9617,5.6501 53.5907,5.3861 54.0357,5.8371 C54.5737,6.3821 55.1657,6.9891 55.4137,7.6841 C56.2587,10.0411 55.9617,12.3001 54.4707,14.3611 C54.2027,14.7311 53.9257,15.0991 53.7137,15.5011 C53.6177,15.6821 53.5677,16.0471 53.6727,16.1471 C54.0837,16.5421 54.5637,16.3931 54.9867,16.1261 C55.3407,15.9021 55.6027,15.6251 55.2307,15.1741 C54.9507,14.8331 54.9977,14.5561 55.4507,14.3671 C55.6257,14.2951 55.8277,14.1161 55.8797,13.9451 C56.4857,11.9141 57.3917,9.9381 57.0307,7.7241 C56.9507,7.2321 57.0107,6.7121 56.8917,6.2341 C56.7617,5.7051 56.6017,5.1291 56.2747,4.7151 C55.4277,3.6441 54.2177,3.1561 52.8807,3.2041 C51.1677,3.2661 49.4557,3.4341 47.7507,3.6281 C46.8537,3.7301 46.1257,4.2241 45.6047,4.9801 C45.1487,5.6431 44.7117,6.3181 44.2537,6.9801 C43.2257,8.4581 43.3047,9.9821 44.0097,11.5581 C44.1597,11.8961 44.2357,12.2981 44.2277,12.6681 C44.2127,13.4411 44.4597,14.0601 45.0517,14.5561 C45.7457,13.7411 45.8007,13.6021 45.5137,12.7171 C45.1277,11.5281 45.1087,10.3201 45.2897,9.1061 C45.6097,6.9431 47.1497,5.2921 49.1447,4.9281 C49.7667,4.8151 50.0837,5.0221 50.1237,5.6301 C50.2897,8.1901 50.4577,10.7501 50.5877,13.3111 C50.6407,14.3471 50.6257,14.3851 51.8537,14.7571 L51.8537,14.7571 Z M22.1857,12.0471 C22.3117,11.4311 22.3407,10.8631 22.5447,10.3671 C23.1887,8.8031 23.8747,7.2541 24.5997,5.7261 C24.8147,5.2731 25.1747,4.8631 25.5427,4.5141 C25.8477,4.2261 26.3137,4.2551 26.4937,4.6521 C26.9207,5.5951 27.5187,6.5651 27.5687,7.5491 C27.6407,8.9331 27.3287,10.3491 27.0747,11.7321 C26.9747,12.2831 26.5917,12.7831 26.3187,13.3411 C26.6067,13.5641 26.8887,13.7801 27.1297,13.9661 C27.3757,13.7721 27.5397,13.5451 27.7437,13.4991 C28.2787,13.3801 28.4897,13.0221 28.6027,12.5501 C28.9207,11.2211 29.2687,9.8981 29.5337,8.5581 C29.6067,8.1851 29.5167,7.7231 29.3547,7.3691 C28.9757,6.5421 28.5317,5.7411 28.0637,4.9591 C27.8597,4.6161 27.5767,4.2881 27.2567,4.0531 C25.9867,3.1221 24.5467,2.6681 22.9827,2.4311 C19.7717,1.9451 17.0407,2.7501 14.8497,5.1811 C14.5917,5.4691 14.3607,5.8911 14.3397,6.2631 C14.2527,7.8011 14.2407,9.3441 14.2346958,10.8851 C14.2337,11.0551 14.4097,11.2761 14.5657,11.3861 C15.2917,11.8961 15.3077,11.9211 14.9267,12.7461 C14.8457,12.9221 14.7346958,13.1091 14.7327,13.2921 C14.7287,13.6421 14.8367,13.8801 15.2937,13.7091 C16.1377,13.3911 16.3757,12.9741 16.3187,12.0651 C16.2557,11.0491 16.1227,10.0001 16.3047,9.0171 C16.5087,7.9101 16.7827,6.6471 17.4797,5.8451 C18.2477,4.9631 19.4897,4.4381 20.6027,3.9261 C21.5547,3.4891 22.1747,4.0191 22.1447,5.0611 C22.1057,6.4081 22.0687,7.7561 22.0127,9.1031 C21.9707,10.0801 21.8967,11.0551 21.8367,12.0471 L22.1857,12.0471 Z M12.8567,6.5961 C12.7247,6.6141 12.6417,6.5991 12.6057,6.6341 C11.6197,7.5641 10.0167,7.4841 9.2097,8.7091 C9.1677,8.7721 9.0627,8.8021 8.9807,8.8271 C8.3297,9.0291 8.0407,9.5261 7.8157,10.1291 C7.6527,10.5651 7.4427,11.0311 7.1217,11.3521 C6.0757,12.4011 5.2837,13.6271 5.0577,15.0601 C4.7187,17.2211 4.4547,19.4151 4.4217,21.5981 C4.3967,23.2091 4.8017,24.8241 4.9977,26.4391 C5.1807,27.9421 5.9977,29.0281 7.1437,29.9561 C8.8657,31.3491 10.8967,31.6721 13.0077,31.8051 C14.3667,31.8901 15.5477,31.5071 16.6867,30.7521 C19.5647,28.8461 21.9327,26.4241 24.2307,23.8711 C26.4277,21.4321 26.8597,18.6791 26.4367,15.6241 C26.3707,15.1491 26.1477,14.7801 25.6607,14.5831 C25.2067,14.4001 24.7887,14.1271 24.3387,13.9321 C23.8757,13.7311 23.4017,13.4751 22.9147,13.4271 C22.2747,13.3641 21.6177,13.5111 20.9677,13.5141 C19.1647,13.5211 17.4597,13.8001 16.0427,15.0501 C15.7517,15.3061 15.3857,15.4741 15.0577,15.6881 C12.6187,17.2721 10.6647,19.2981 9.3807,21.9311 C8.8057,23.1111 8.4947,24.3421 8.8087,25.6561 C9.1377,27.0281 10.1927,27.4041 11.3027,26.5441 C12.4537,25.6501 13.5997,24.7481 14.7277,23.8251 C16.5157,22.3621 18.0227,20.6341 19.4157,18.7861 C18.5577,19.2861 17.6937,19.7791 16.9257,20.3931 C15.4117,21.6001 13.9477,22.8691 12.4727,24.1231 C11.8987,24.6101 11.3137,25.0191 10.5397,24.5941 C9.9967,24.2961 9.8087,23.5141 10.0167,22.5801 C10.0347,22.4951 10.0747,22.4161 10.0997,22.3331 C10.5417,20.8341 11.3877,19.5851 12.7047,18.7771 C14.6657,17.5741 16.6987,16.4891 18.7137,15.3741 C20.0267,14.6471 21.4337,15.0181 22.8117,15.0921 C22.9247,15.0981 23.0697,15.1941 23.1337,15.2921 C23.4797,15.8311 23.9287,16.3461 24.1137,16.9401 C24.4467,18.0061 24.0237,19.0431 23.6827,20.0481 C23.1917,21.4941 22.1427,22.5961 21.3297,23.8481 C20.1147,25.7181 18.7477,27.3551 16.9317,28.6761 C15.0997,30.0091 13.1217,30.5971 10.9327,30.1921 C9.7247,29.9691 8.5807,29.4121 7.8197,28.3301 C7.4977,27.8711 7.1437,27.4301 6.8667,26.9451 C6.4827,26.2761 5.9987,25.6081 5.8377,24.8781 C5.4207,22.9841 5.2977,21.0521 5.4917,19.1071 C5.5627,18.3961 5.6117,17.6561 5.4917,16.9621 C5.3317,16.0451 5.4577,15.2391 5.9467,14.4701 C6.8907,12.9851 8.0227,11.6891 9.5217,10.7231 C10.0647,10.3731 10.5167,9.8831 11.0287,9.4801 C11.5027,9.1071 12.0037,8.7681 12.4847,8.4031 C12.5937,8.3201 12.7357,8.2031 12.7497,8.0881 C12.8077,7.6031 12.8237,7.1121 12.8567,6.5961 L12.8567,6.5961 Z M35.6377,22.6921 C35.6067,23.1581 35.5567,23.7651 35.5317,24.3721 C35.4517,26.3031 35.3857,28.2351 35.3057,30.1671 C35.2877,30.6011 35.2277,31.0321 35.2037,31.4661 C35.1697,32.0841 35.1197,32.7031 35.1307,33.3211 C35.1437,34.0801 35.2707,34.8391 35.2487,35.5951 C35.1387,39.2011 34.8957,42.8061 34.8937,46.4121 C34.8917,49.1941 34.2757,51.9271 34.4027,54.7091 C34.4167,55.0111 34.3747,55.3161 34.3517,55.6191 C34.2057,57.6111 34.0497,59.6041 33.9127,61.5971 C33.8197,62.9601 33.7387,64.3241 33.6817,65.6891 C33.6487,66.4541 33.6757,67.2221 33.6757,67.9701 C34.1677,68.0151 34.5117,68.0691 34.8547,68.0731 C35.9417,68.0861 37.0647,68.2581 38.1077,68.0451 C40.2097,67.6161 42.2917,67.0521 44.3377,66.4021 C47.1657,65.5031 49.9507,64.4151 52.0667,62.2311 C53.8947,60.3441 55.6097,58.3421 57.2937,56.3241 C58.0697,55.3921 58.5587,54.2831 58.7807,53.0371 C59.3537,49.8111 60.0197,46.6021 60.6457,43.3861 C60.7167,43.0241 60.7917,42.6591 60.8177,42.2921 C61.1237,38.1301 61.4067,33.9661 61.7277,29.8061 C61.8147,28.6841 62.0157,27.5711 62.1537,26.4521 C62.2067,26.0231 62.2317,25.5901 62.2697,25.1591 C62.0397,25.3071 61.9567,25.4771 61.8717,25.6451 C61.0797,27.2161 60.3427,28.8191 59.4677,30.3431 C59.1047,30.9741 58.5387,31.6111 57.9057,31.9351 C56.9017,32.4491 56.4127,33.1631 56.2277,34.2301 C55.9877,35.6201 55.4497,36.8401 54.1137,37.5731 C52.7497,38.3221 51.3077,38.6031 49.7737,38.4471 C48.9687,38.3661 48.2747,38.0671 47.7547,37.3941 C47.1587,36.6231 46.5157,35.8871 45.8657,35.1021 C45.3377,35.3451 44.8397,35.6131 44.3137,35.8051 C43.7897,35.9951 43.2227,36.2721 42.6997,36.2261 C40.7867,36.0571 38.9057,35.6851 37.2837,34.5561 C36.9927,34.3531 36.6647,34.0601 36.5687,33.7431 C36.2377,32.6471 35.9077,31.5341 35.7527,30.4031 C35.5637,29.0341 36.1757,27.8181 36.7777,26.6241 C36.9007,26.3801 36.9997,26.0241 36.9127,25.7921 C36.5087,24.7051 36.0357,23.6431 35.6377,22.6921 L35.6377,22.6921 Z M3.1847,20.3411 L3.0097,20.3341 C2.9667,21.2131 2.9077,22.0931 2.8857,22.9741 C2.8617,23.8801 2.8647,24.7871 2.8747,25.6931 C2.8777,25.9721 2.9407,26.2501 2.9727,26.5281 C3.0227,26.9711 3.0577,27.4171 3.1207,27.8581 C3.1867,28.3251 3.2737,28.7901 3.3597,29.2551 C3.3977,29.4631 3.4927,29.6691 3.4947,29.8771 C3.5027,30.7231 3.4147,31.5751 3.4877,32.4151 C3.7127,35.0081 4.0627,37.5911 4.2367,40.1881 C4.4507,43.3941 4.5447,46.6091 4.6737,49.8211 C4.7097,50.7241 4.8187,51.5881 5.3177,52.3771 C5.5697,52.7751 5.7307,53.2281 5.9457,53.6501 C6.2787,54.3011 6.5957,54.9631 6.9727,55.5881 C7.2527,56.0511 7.6537,56.4401 7.9417,56.8991 C9.7897,59.8421 11.9347,62.5561 14.4927,64.8991 C15.5487,65.8641 16.8057,66.7201 18.1207,67.2641 C19.8777,67.9911 21.6467,68.8661 23.6417,68.8091 C24.6987,68.7781 25.7547,68.7121 26.8107,68.6701 C27.4737,68.6441 28.1427,68.5711 28.7987,68.6331 C29.6147,68.7111 30.7607,67.8021 30.7247,67.0461 C30.5887,64.1131 30.4067,61.1811 30.3617,58.2461 C30.3237,55.7521 30.4757,53.2551 30.4917,50.7591 C30.5007,49.3691 30.3937,47.9781 30.3537,46.5871 C30.3297,45.7201 30.2897,44.8511 30.3297,43.9851 C30.4557,41.2291 30.5437,38.4681 30.7787,35.7191 C31.1327,31.5841 31.5927,27.4571 32.0207,23.3281 C32.1167,22.4081 32.3197,21.4921 31.8597,20.5831 C31.7417,20.8261 31.7087,21.0781 31.6657,21.3291 C31.6027,21.6851 31.5717,22.0521 31.4557,22.3901 C31.3317,22.7511 31.1057,23.0751 30.9577,23.4281 C30.7157,24.0071 30.4747,24.5891 30.2847,25.1861 C30.2077,25.4301 30.2137,25.7301 30.2737,25.9811 C30.4727,26.8071 30.7957,27.6091 30.9227,28.4431 C31.2667,30.6881 30.6137,32.7351 29.4727,34.6371 C28.1747,36.7971 25.1767,37.6911 22.8847,36.6451 C21.6647,36.0881 20.5587,35.3791 19.7087,34.3171 C18.9937,33.4261 17.7197,33.0021 17.6097,31.5791 C17.2857,31.7551 17.0877,31.8831 16.8737,31.9761 C16.1807,32.2791 15.5057,32.6991 14.7777,32.8381 C12.9687,33.1841 11.1477,33.2371 9.4087,32.4301 C8.9827,32.2321 8.5197,32.0671 8.1227,32.4261 C7.6907,32.8161 7.2467,32.7931 6.7357,32.6531 C6.7917,32.4421 6.8397,32.2571 6.8957,32.0381 C6.7077,31.9701 6.5417,31.9111 6.3587,31.8451 C6.4767,31.6051 6.5717,31.4121 6.6917,31.1681 C6.2177,30.7681 5.6957,30.4031 5.2687,29.9481 C4.8787,29.5311 4.4227,29.0591 4.2897,28.5371 C3.8497,26.8141 3.4767,25.0671 3.2117,23.3091 C3.0647,22.3401 3.1847,21.3321 3.1847,20.3411 L3.1847,20.3411 Z M3.5837,50.5591 C3.5287,50.5321 3.4747,50.5061 3.4197,50.4801 C3.1307,50.8081 2.7247,51.0891 2.5737,51.4711 C1.8397,53.3381 1.0527,55.2041 1.4327,57.3031 C1.5037,57.6971 1.3657,58.1251 1.3797,58.5351 C1.3917,58.9211 1.3997,59.3381 1.5497,59.6801 C1.8417,60.3451 2.3627,60.9381 1.9677,61.7411 C1.9407,61.7951 2.0277,61.8991 2.0497,61.9821 C2.1687,62.4431 2.3227,62.9001 2.3917,63.3691 C2.6337,65.0191 2.8117,66.6781 3.0777,68.3231 C3.3407,69.9521 3.6927,71.5671 3.9837,73.1921 C4.7327,77.3831 5.4707,81.5771 6.2127,85.7701 C6.5257,87.5441 6.8437,89.3171 7.1527,91.0921 C7.5497,93.3591 7.9687,95.6211 8.3227,97.8941 C8.5627,99.4371 8.6567,101.0021 8.9137,102.5411 C9.1727,104.0951 9.5907,105.6211 9.8597,107.1731 C9.9877,107.9121 10.2887,108.4321 10.9727,108.7261 C11.8087,109.0881 12.6447,109.4541 13.4867,109.8051 C15.5177,110.6531 17.4627,111.7891 19.7827,111.6781 C19.9897,111.6681 20.2047,111.7731 20.4127,111.8361 C22.8637,112.5771 25.3807,112.8731 27.9317,112.9551 C28.5587,112.9751 29.2147,112.9681 29.8077,113.1441 C31.5357,113.6561 33.3307,113.6511 35.0517,113.5011 C37.8577,113.2551 40.6347,112.6571 43.4197,112.1881 C43.6217,112.1531 43.8487,112.0001 43.9747,111.8341 C44.4397,111.2251 44.9897,111.1541 45.6567,111.5701 C46.0267,111.8011 46.4757,112.0541 46.8857,112.0471 C48.3127,112.0201 49.7597,112.0051 51.1577,111.7551 C52.4217,111.5271 53.6437,111.0311 54.8597,110.5881 C55.4867,110.3591 55.8537,109.8481 55.9277,109.1461 C55.9887,108.5631 56.0907,107.9831 56.1927,107.4051 C56.7057,104.5181 57.3097,101.6441 57.7147,98.7421 C58.0557,96.2951 58.1317,93.8111 58.3827,91.3491 C58.9347,85.9231 59.9777,80.5541 60.2707,75.0951 C60.3557,73.5141 60.6807,71.9481 60.8177,70.3681 C61.0387,67.8551 61.1117,65.3271 61.3987,62.8231 C61.8057,59.2881 61.5757,55.8361 60.4857,52.4461 C60.4287,52.2671 60.3497,52.0941 60.2427,51.8201 C60.2427,52.7631 60.2207,53.5671 60.2507,54.3681 C60.2737,54.9681 60.0907,55.4021 59.5637,55.7341 C59.1837,55.9731 58.8287,56.2821 58.5387,56.6241 C57.1887,58.2151 55.8567,59.8211 54.5367,61.4371 C52.2327,64.2581 49.3667,66.2271 45.8787,67.3171 C44.4507,67.7641 43.0777,68.3801 41.6667,68.8801 C39.7157,69.5701 37.6557,69.5701 35.6327,69.8271 C33.4667,70.1021 31.3107,70.2961 29.1297,70.2211 C27.6957,70.1721 26.2447,70.0281 24.8297,70.1801 C22.4677,70.4341 20.3677,69.8551 18.2057,68.9451 C15.5377,67.8231 13.3507,66.1021 11.2747,64.1991 C10.0767,63.1011 9.0497,61.8151 7.9417,60.6161 C6.9687,59.5621 5.9357,58.5561 5.0277,57.4481 C4.0487,56.2551 3.2807,54.9651 3.5577,53.2681 C3.7017,52.3871 3.5837,51.4631 3.5837,50.5591 L3.5837,50.5591 Z M33.9257,38.1971 C33.9257,34.9591 33.8837,31.7211 33.9407,28.4841 C33.9787,26.3571 34.0697,24.2231 34.3077,22.1111 C34.5057,20.3541 34.9427,18.6241 35.2907,16.8841 C35.5267,15.6991 35.6157,14.4461 36.0757,13.3521 C37.1427,10.8171 38.9377,8.9141 41.6297,8.0411 C42.2607,7.8371 42.6027,7.5011 42.7867,6.8831 C43.1577,5.6371 43.8377,4.5851 44.7377,3.6251 C45.3507,2.9701 45.8287,2.1991 46.8087,2.1021 C49.1097,1.8731 51.3987,1.1511 53.7187,1.6511 C54.7937,1.8831 55.8437,2.3911 56.8057,2.9461 C57.7077,3.4681 58.1237,4.4151 58.2097,5.4661 C58.3427,7.0881 58.4837,8.7111 58.5787,10.3351 C58.6007,10.7311 58.5157,11.1601 58.3747,11.5331 C58.1927,12.0131 58.3377,12.3051 58.7607,12.4701 C59.7657,12.8591 60.3977,13.7121 61.1007,14.4331 C61.9637,15.3171 62.3827,16.4941 62.8857,17.6341 C63.6417,19.3501 63.6327,21.0931 63.5447,22.8521 C63.4057,25.6231 63.1287,28.3861 62.9347,31.1551 C62.9037,31.6001 63.0677,32.0601 63.0337,32.5051 C62.9237,33.9281 62.7607,35.3481 62.6237,36.7691 C62.5927,37.0931 62.5387,37.4251 62.5777,37.7441 C62.7817,39.3921 62.3957,40.9711 62.0847,42.5661 C61.6857,44.6021 61.2677,46.6381 60.9817,48.6911 C60.8857,49.3801 61.1017,50.1391 61.2877,50.8371 C61.6077,52.0421 62.0367,53.2181 62.3797,54.4191 C62.5197,54.9131 62.6187,55.4371 62.6267,55.9481 C62.6557,57.6441 62.6817,59.3431 62.6197,61.0371 C62.5477,63.0551 62.4147,65.0731 62.2537,67.0871 C62.1017,68.9671 61.8807,70.8421 61.6887,72.7191 C61.5317,74.2521 61.3767,75.7851 61.2157,77.3171 C60.9667,79.6901 60.7127,82.0621 60.4627,84.4341 C60.2767,86.2021 60.1027,87.9711 59.9087,89.7391 C59.7357,91.3111 59.5447,92.8811 59.3587,94.4521 C59.1987,95.8091 58.9387,97.1621 58.8987,98.5221 C58.8487,100.2901 58.5537,102.0051 58.2247,103.7331 C57.8127,105.9011 57.5107,108.0891 57.1747,110.2701 C57.0537,111.0521 56.5967,111.5241 55.9207,111.8891 C53.2527,113.3311 50.3377,113.7521 47.4097,113.5291 C44.5807,113.3141 41.9027,113.9761 39.1647,114.3191 C37.2967,114.5521 35.4337,114.9301 33.5597,114.9931 C31.9447,115.0481 30.3167,114.7511 28.6947,114.6091 C27.5707,114.5101 26.4417,114.4461 25.3227,114.3031 C23.7177,114.0971 22.1107,113.8801 20.5197,113.5841 C18.4407,113.1971 16.3447,112.8391 14.3157,112.2581 C12.7537,111.8111 11.2847,111.0401 9.7737,110.4111 C9.6757,110.3701 9.5807,110.3151 9.4877,110.2601 C8.8407,109.8761 8.5337,109.2851 8.4357,108.5561 C8.2497,107.1621 8.0397,105.7711 7.8587,104.3761 C7.6047,102.4131 7.3987,100.4431 7.1167,98.4851 C6.8077,96.3441 6.4407,94.2121 6.0887,92.0781 C5.7007,89.7321 5.2887,87.3901 4.9077,85.0431 C4.4607,82.2871 4.0907,79.5181 3.5857,76.7741 C2.8227,72.6291 1.9697,68.5021 1.1637,64.3651 C1.0597,63.8351 1.0537,63.2821 0.9177,62.7611 C0.7177,61.9951 0.2977,61.2621 0.2267,60.4911 C0.0657,58.7231 0.0327,56.9421 0.0007,55.1641 C-0.0283,53.5351 0.5897,52.1061 1.3597,50.6861 C1.8657,49.7541 2.1807,48.7351 3.1187,48.1051 C3.2167,48.0401 3.2747,47.8381 3.2657,47.7061 C3.0427,44.4371 2.8057,41.1691 2.5747,37.9011 C2.4757,36.4931 2.3987,35.0841 2.2877,33.6771 C2.1187,31.5361 2.0707,29.3721 1.7107,27.2621 C1.2007,24.2721 1.4317,21.3801 2.0547,18.4371 C2.6347,15.6961 3.7877,13.2071 4.9197,10.6921 C4.9987,10.5181 5.1087,10.2841 5.2597,10.2301 C5.9887,9.9701 6.2157,9.2821 6.6297,8.7471 C6.9067,8.3891 7.2117,8.0091 7.5887,7.7771 C9.3037,6.7261 11.0517,5.7281 12.7797,4.6991 C13.1637,4.4701 13.6317,4.2671 13.8647,3.9201 C14.9777,2.2631 16.7287,1.7481 18.4787,1.2391 C21.5107,0.3591 24.4207,0.9471 27.1977,2.2061 C27.9297,2.5371 28.4807,3.3281 29.0297,3.9801 C29.4447,4.4711 29.6767,5.1131 30.0727,5.6241 C30.8467,6.6221 31.0877,7.7031 30.8217,8.9291 C30.7907,9.0711 30.9437,9.2841 31.0617,9.4211 C31.3227,9.7231 31.6937,9.9551 31.8797,10.2931 C32.2947,11.0481 32.5827,11.8741 32.9977,12.6301 C33.6427,13.8051 33.8077,15.0681 33.9307,16.3761 C34.0297,17.4371 33.9757,18.4201 33.5817,19.4221 C33.4097,19.8591 33.5527,20.4121 33.5127,20.9091 C33.3917,22.4101 33.2557,23.9091 33.1177,25.4081 C33.0957,25.6451 33.0167,25.8771 32.9967,26.1141 C32.8107,28.2251 32.7947,30.3661 32.4097,32.4401 C31.9767,34.7741 32.1677,37.1151 31.9537,39.4441 C31.9027,40.0041 31.9687,40.5731 31.9397,41.1361 C31.9187,41.5581 32.0987,41.7131 32.4977,41.7391 C33.3737,41.7971 33.7027,41.5471 33.7347,40.6761 C33.7657,39.8511 33.7417,39.0241 33.7417,38.1971 L33.9257,38.1971 Z" id="Fill-4" fill="#B02524" mask="url(#mask-4)"></path>
                </g>
                <path d="M3.5836,50.7398 C3.5836,51.6448 3.7016,52.5678 3.5586,53.4488 C3.2806,55.1458 4.0486,56.4358 5.0276,57.6298 C5.9366,58.7368 6.9686,59.7428 7.9416,60.7968 C9.0496,61.9958 10.0766,63.2818 11.2746,64.3808 C13.3516,66.2828 15.5376,68.0038 18.2056,69.1258 C20.3676,70.0358 22.4676,70.6148 24.8296,70.3608 C26.2446,70.2088 27.6956,70.3528 29.1296,70.4018 C31.3116,70.4768 33.4666,70.2828 35.6326,70.0078 C37.6556,69.7508 39.7156,69.7518 41.6666,69.0608 C43.0776,68.5608 44.4506,67.9448 45.8786,67.4988 C49.3666,66.4078 52.2326,64.4398 54.5366,61.6178 C55.8566,60.0018 57.1886,58.3968 58.5386,56.8048 C58.8286,56.4628 59.1846,56.1538 59.5636,55.9148 C60.0906,55.5828 60.2736,55.1498 60.2506,54.5498 C60.2206,53.7478 60.2426,52.9448 60.2426,52.0018 C60.3506,52.2748 60.4286,52.4478 60.4856,52.6278 C61.5756,56.0168 61.8056,59.4688 61.3986,63.0038 C61.1116,65.5088 61.0386,68.0358 60.8176,70.5498 C60.6806,72.1288 60.3556,73.6958 60.2716,75.2768 C59.9786,80.7358 58.9356,86.1038 58.3826,91.5308 C58.1316,93.9918 58.0556,96.4758 57.7146,98.9238 C57.3106,101.8248 56.7056,104.6988 56.1926,107.5868 C56.0906,108.1638 55.9886,108.7438 55.9276,109.3268 C55.8546,110.0298 55.4866,110.5398 54.8596,110.7688 C53.6446,111.2118 52.4216,111.7088 51.1576,111.9358 C49.7596,112.1858 48.3126,112.2008 46.8856,112.2278 C46.4766,112.2358 46.0266,111.9818 45.6566,111.7518 C44.9896,111.3358 44.4396,111.4068 43.9746,112.0148 C43.8486,112.1808 43.6216,112.3348 43.4196,112.3688 C40.6346,112.8378 37.8576,113.4358 35.0516,113.6818 C33.3306,113.8328 31.5356,113.8378 29.8076,113.3248 C29.2146,113.1498 28.5596,113.1558 27.9316,113.1358 C25.3806,113.0538 22.8636,112.7578 20.4126,112.0168 C20.2046,111.9538 19.9896,111.8488 19.7826,111.8588 C17.4626,111.9698 15.5186,110.8338 13.4866,109.9868 C12.6456,109.6358 11.8096,109.2688 10.9726,108.9068 C10.2886,108.6128 9.9876,108.0938 9.8596,107.3548 C9.5906,105.8028 9.1726,104.2758 8.9136,102.7218 C8.6566,101.1828 8.5626,99.6178 8.3226,98.0748 C7.9686,95.8028 7.5496,93.5398 7.1526,91.2738 C6.8436,89.4988 6.5256,87.7248 6.2126,85.9508 C5.4706,81.7588 4.7326,77.5648 3.9836,73.3728 C3.6926,71.7478 3.3406,70.1338 3.0776,68.5038 C2.8126,66.8588 2.6336,65.1998 2.3926,63.5498 C2.3226,63.0808 2.1686,62.6248 2.0496,62.1628 C2.0276,62.0798 1.9406,61.9758 1.9676,61.9218 C2.3626,61.1188 1.8416,60.5268 1.5496,59.8618 C1.3996,59.5188 1.3926,59.1018 1.3796,58.7158 C1.3656,58.3058 1.5036,57.8778 1.4326,57.4838 C1.0526,55.3848 1.8396,53.5198 2.5736,51.6528 C2.7246,51.2698 3.1306,50.9888 3.4196,50.6608 C3.4746,50.6878 3.5286,50.7138 3.5836,50.7398" id="Fill-7" fill="#FEFEFE"></path>
                <path d="M18.8815,39.6631 C19.0855,39.3261 19.3855,39.0321 19.4265,38.7051 C19.4655,38.3981 19.2755,38.0301 19.0965,37.7441 C19.0275,37.6321 18.6785,37.5861 18.5215,37.6551 C17.7065,38.0121 17.6495,38.7811 18.3705,39.2981 C18.5245,39.4081 18.6785,39.5171 18.8815,39.6631 L18.8815,39.6631 Z M8.9825,39.4011 C7.6605,40.4721 7.6565,40.5711 8.8745,41.5931 C10.0805,40.6591 10.0905,40.5131 8.9825,39.4011 L8.9825,39.4011 Z M25.3255,45.4141 C25.0275,45.0461 24.7825,44.6041 24.4115,44.3381 C24.1855,44.1761 23.5155,45.0021 23.5025,45.4341 C23.4885,45.9061 23.8785,46.3341 24.3335,46.3471 C24.7675,46.3591 25.1705,45.9701 25.3255,45.4141 L25.3255,45.4141 Z M11.2025,35.7061 C11.2205,35.0711 10.9525,34.7131 10.4495,34.7001 C9.9615,34.6861 9.5945,35.0451 9.5775,35.5511 C9.5625,36.0451 10.0295,36.7731 10.3605,36.7691164 C10.8185,36.7641 11.1865,36.2991 11.2025,35.7061 L11.2025,35.7061 Z M24.1175,56.4391 C23.9695,56.3041 23.8605,56.2011 23.7475,56.1031 C23.2055,55.6311 22.8665,55.6241 22.4635,56.0721 C22.0695,56.5081 22.1045,57.2301 22.5575,57.5891 C22.8805,57.8451 23.2045,57.9551 23.4665,57.4791 C23.6545,57.1371 23.8795,56.8151 24.1175,56.4391 L24.1175,56.4391 Z M17.0675,48.0911 C17.3135,47.8051 17.5325,47.5701 17.7295,47.3171 C18.1235,46.8081 18.0675,46.4601 17.5705,45.9601 C17.1745,45.5591 16.7855,45.7621 16.4755,46.0151 C16.0385,46.3701 16.0515,46.8471 16.3725,47.2911 C16.5625,47.5521 16.7955,47.7811 17.0675,48.0911 L17.0675,48.0911 Z M18.3015,59.9241 C18.9045,59.3221 18.9625,58.6221 18.7355,57.9071 C18.6685,57.6931 18.3825,57.4911 18.1515,57.4041 C18.0045,57.3501 17.6685,57.4631 17.6005,57.5961 C17.0895,58.5791 17.1665,59.4731 18.3015,59.9241 L18.3015,59.9241 Z M23.7005,65.3751 C23.6545,64.7041 23.6925,64.0341 23.5385,63.4121 C23.4145,62.9051 22.8795,62.7871 22.5815,63.1251 C22.1745,63.5911 22.0245,64.1531 22.2465,64.7551 C22.4605,65.3371 22.9205,65.5001 23.7005,65.3751 L23.7005,65.3751 Z M10.7585,52.1971044 C11.1665,52.1991 11.8765,51.5131 11.8915,51.1021 C11.9045,50.7071 11.3325,50.2161 10.8405,50.1991 C10.2945,50.1801 9.7265,50.7721 9.7385,51.3471 C9.7505,51.8631 10.1475,52.1951 10.7585,52.1971044 L10.7585,52.1971044 Z M3.1855,20.5221 C3.1855,21.5131 3.0655,22.5211 3.2115,23.4901 C3.4775,25.2471 3.8495,26.9951 4.2895,28.7181 C4.4225,29.2401 4.8785,29.7121 5.2695,30.1291 C5.6955,30.5841 6.2175,30.9491 6.6925,31.3491 C6.5715,31.5931 6.4775,31.7861 6.3595,32.0261 C6.5415,32.0921 6.7075,32.1511 6.8965,32.2191 C6.8395,32.4381 6.7915,32.6221 6.7355,32.8341 C7.2465,32.9741 7.6915,32.9961 8.1225,32.6071 C8.5205,32.2481 8.9835,32.4131 9.4085,32.6111 C11.1485,33.4181 12.9685,33.3651 14.7775,33.0191 C15.5055,32.8801 16.1805,32.4601 16.8735,32.1571 C17.0875,32.0641 17.2855,31.9361 17.6105,31.7601 C17.7195,33.1831 18.9935,33.6071 19.7085,34.4981 C20.5595,35.5591 21.6645,36.2691 22.8845,36.8261 C25.1765,37.8711 28.1745,36.9781 29.4725,34.8181 C30.6135,32.9161 31.2665,30.8691 30.9225,28.6241 C30.7955,27.7901 30.4725,26.9881 30.2745,26.1621 C30.2135,25.9111 30.2075,25.6111 30.2845,25.3671 C30.4745,24.7701 30.7155,24.1881 30.9575,23.6091 C31.1065,23.2561 31.3315,22.9321 31.4555,22.5711 C31.5715,22.2331 31.6035,21.8661 31.6655,21.5101 C31.7085,21.2591 31.7415,21.0071 31.8605,20.7641 C32.3195,21.6731 32.1165,22.5891 32.0215,23.5091 C31.5925,27.6381 31.1325,31.7651 30.7785,35.9001 C30.5435,38.6491 30.4555,41.4101 30.3295,44.1661 C30.2895,45.0321 30.3295,45.9011 30.3545,46.7671 C30.3945,48.1591 30.5005,49.5501 30.4915,50.9401 C30.4765,53.4361 30.3235,55.9331 30.3615,58.4271 C30.4065,61.3621 30.5885,64.2941 30.7255,67.2271 C30.7605,67.9831 29.6145,68.8921 28.7985,68.8141 C28.1435,68.7521 27.4735,68.8251 26.8115,68.8511 C25.7545,68.8921 24.6985,68.9591 23.6425,68.9901 C21.6475,69.0471 19.8775,68.1721 18.1205,67.4451 C16.8055,66.9011 15.5485,66.0451 14.4925,65.0801 C11.9355,62.7371 9.7895,60.0231 7.9425,57.0801 C7.6535,56.6211 7.2525,56.2321 6.9725,55.7691 C6.5955,55.1441 6.2785,54.4821 5.9455,53.8301 C5.7315,53.4091 5.5695,52.9551 5.3185,52.5581 C4.8185,51.7691 4.7095,50.9051 4.6735,50.0021 C4.5445,46.7901 4.4505,43.5751 4.2365,40.3691 C4.0635,37.7721 3.7125,35.1891 3.4875,32.5961 C3.4145,31.7561 3.5025,30.9041 3.4945,30.0581 C3.4925,29.8501 3.3985,29.6441 3.3605,29.4351 C3.2745,28.9711 3.1875,28.5061 3.1205,28.0391 C3.0585,27.5981 3.0235,27.1521 2.9725,26.7091 C2.9415,26.4311 2.8775,26.1531 2.8745,25.8741 C2.8645,24.9681 2.8615,24.0611 2.8855,23.1551 C2.9075,22.2741 2.9665,21.3941 3.0095,20.5151 L3.1855,20.5221 Z" id="Fill-9" fill="#FEFEFE"></path>
                <path d="M43.9283,49.8096 L43.2953,48.7316 C43.0023,48.9416 42.6563,49.1086 42.4423,49.3806 C42.3353,49.5166 42.4463,49.8506 42.5073,50.0826 C42.5923,50.4096 42.6543,50.7816 43.1573,50.7066 C43.6513,50.6336 43.7833,50.3106 43.9283,49.8096 M41.5823,47.1686 C41.8933,46.6826 42.2013,46.1996 42.5073,45.7216 C41.6663,45.0226 41.3243,45.0056 40.8573,45.6066 C40.4723,46.1036 40.6423,46.4856 41.5823,47.1686 M52.0913,56.1216 C51.6403,56.0866 51.2783,56.0326 50.9183,56.0446 C50.7943,56.0486 50.5653,56.2246 50.5723,56.3066 C50.6083,56.7316 50.6593,57.1676 50.8013,57.5656 C50.8603,57.7286 51.1643,57.9046 51.3463,57.8936 C51.5143,57.8836 51.7503,57.6596 51.8113,57.4796 C51.9463,57.0796 51.9903,56.6486 52.0913,56.1216 M41.0233,61.0866 C41.2743,60.8116 41.5563,60.5886 41.7173,60.2986 C41.8313,60.0926 41.9003,59.6706 41.7863,59.5656 C41.5103,59.3116 41.1273,59.1486 40.7603,59.0456 C40.6863,59.0246 40.4673,59.4206 40.3593,59.6456 C40.0463,60.2886 40.5033,60.6336 41.0233,61.0866 M44.1343,40.4906 C44.4843,40.2116 44.7863,39.9686 45.0893,39.7266 C45.1233,39.6996 45.1843,39.6796 45.1903,39.6486 C45.2313,39.4236 45.3533,39.1556 45.2753,38.9776 C45.1283,38.6456 44.1863,38.5656 43.8583,38.8156 C43.4433,39.1326 43.3763,39.5046 43.7073,39.9276 C43.8393,40.0966 43.9663,40.2686 44.1343,40.4906 M37.9873,39.0336 C37.9913,38.3166 37.6053,37.7856 37.1583,37.7936 C36.8033,37.8006 36.3893,38.4216 36.3953,38.9396 C36.4013,39.4836 36.7683,39.8806 37.2743,39.8436 C37.8243,39.8036 37.9513,39.3976 37.9873,39.0336 M58.3393,34.2786 C58.4613,33.5466 58.1093,33.2676 57.6443,33.2226 C57.1413,33.1746 56.8663,33.5456 56.7933,34.0206 C56.7153,34.5286 57.3133,35.2486 57.8203,35.2406 C58.7303,35.2256 58.3703,34.5886 58.3393,34.2786 M41.5303,39.0536 C41.4743,38.7216 41.3623,38.3676 41.3663,38.0146 C41.3743,37.4956 41.1613,37.2296 40.6553,37.2256 C40.1633,37.2206 39.6263,37.8196 39.6463,38.3166 C39.6643,38.7946 40.0013,39.0406 40.5373,39.0146 C40.8703,38.9976 41.2063,39.0386 41.5303,39.0536 M50.3643,45.0246 C50.3883,44.1836 49.8453,43.3806 49.3883,43.3556 C48.9443,43.3306 48.5613,43.6946 48.5473,44.1556 C48.5293,44.7536 49.1233,45.3956 49.7493,45.3606 C49.9943,45.3466 50.2263,45.1046 50.3643,45.0246 M55.3133,48.4106 C55.4223,48.9006 55.4293,49.3436 55.6243,49.6766 C55.7823,49.9446 56.1533,50.1086 56.4613,50.2426 C56.5153,50.2666 56.7473,49.9176 56.8703,49.7246 C56.9493,49.6006 56.9863,49.4466 57.0303,49.3036 C57.2653,48.5406 56.8643,48.0596 56.0763,48.1826 C55.8283,48.2206 55.5913,48.3256 55.3133,48.4106 M54.3063,40.8536 C54.1523,41.2896 53.9923,41.6676 53.8863,42.0606 C53.7803,42.4496 53.6083,42.8776 53.6883,43.2406 C53.7483,43.5186 54.1203,43.8466 54.4163,43.9256 C54.8223,44.0356 54.9423,43.6456 55.0483,43.2826 C55.3223,42.3466 55.0823,41.5816 54.3063,40.8536 M35.6373,22.8726 C36.0353,23.8246 36.5083,24.8866 36.9123,25.9736 C36.9993,26.2056 36.9013,26.5616 36.7783,26.8056 C36.1753,27.9996 35.5643,29.2146 35.7523,30.5836 C35.9073,31.7146 36.2383,32.8276 36.5693,33.9246 C36.6643,34.2406 36.9923,34.5336 37.2833,34.7366 C38.9063,35.8666 40.7863,36.2376 42.6993,36.4066 C43.2223,36.4536 43.7893,36.1766 44.3143,35.9856 C44.8393,35.7946 45.3373,35.5256 45.8653,35.2826 C46.5163,36.0676 47.1583,36.8036 47.7543,37.5756 C48.2753,38.2476 48.9683,38.5466 49.7743,38.6286 C51.3083,38.7846 52.7493,38.5036 54.1143,37.7546 C55.4493,37.0216 55.9883,35.8016 56.2283,34.4106 C56.4123,33.3446 56.9023,32.6296 57.9063,32.1156 C58.5383,31.7916 59.1053,31.1546 59.4673,30.5236 C60.3423,28.9996 61.0793,27.3976 61.8713,25.8266 C61.9563,25.6576 62.0393,25.4876 62.2703,25.3406 C62.2323,25.7716 62.2063,26.2046 62.1543,26.6336 C62.0153,27.7516 61.8153,28.8646 61.7283,29.9866 C61.4073,34.1466 61.1233,38.3106 60.8183,42.4726 C60.7913,42.8396 60.7163,43.2046 60.6463,43.5666 C60.0203,46.7836 59.3543,49.9926 58.7813,53.2176 C58.5593,54.4646 58.0703,55.5736 57.2933,56.5046 C55.6103,58.5236 53.8953,60.5256 52.0673,62.4126 C49.9503,64.5966 47.1653,65.6836 44.3373,66.5826 C42.2913,67.2336 40.2093,67.7976 38.1083,68.2266 C37.0653,68.4386 35.9423,68.2676 34.8553,68.2536 C34.5113,68.2496 34.1673,68.1956 33.6753,68.1506 C33.6753,67.4036 33.6493,66.6356 33.6813,65.8696 C33.7393,64.5046 33.8203,63.1406 33.9123,61.7776 C34.0493,59.7846 34.2053,57.7926 34.3523,55.8006 C34.3743,55.4966 34.4163,55.1916 34.4033,54.8906 C34.2763,52.1086 34.8923,49.3756 34.8943,46.5926 C34.8963,42.9876 35.1383,39.3826 35.2483,35.7756 C35.2713,35.0196 35.1443,34.2606 35.1303,33.5026 C35.1193,32.8846 35.1693,32.2656 35.2033,31.6476 C35.2283,31.2136 35.2873,30.7816 35.3053,30.3476 C35.3853,28.4166 35.4513,26.4846 35.5323,24.5536 C35.5563,23.9456 35.6073,23.3396 35.6373,22.8726" id="Fill-11" fill="#FEFEFE"></path>
                <path d="M12.857,6.7774 C12.824,7.2934 12.808,7.7844 12.75,8.2694 C12.736,8.3844 12.593,8.5014 12.485,8.5844 C12.003,8.9484 11.503,9.2874 11.029,9.6614 C10.517,10.0644 10.065,10.5534 9.522,10.9034 C8.023,11.8694 6.89,13.1664 5.947,14.6514 C5.458,15.4204 5.332,16.2264 5.492,17.1424 C5.612,17.8374 5.563,18.5774 5.492,19.2874 C5.297,21.2334 5.42,23.1654 5.837,25.0584 C5.999,25.7894 6.483,26.4574 6.867,27.1264 C7.144,27.6104 7.498,28.0524 7.82,28.5104 C8.581,29.5924 9.725,30.1504 10.933,30.3734 C13.122,30.7784 15.1,30.1904 16.931,28.8574 C18.748,27.5354 20.115,25.8994 21.33,24.0284 C22.143,22.7774 23.192,21.6754 23.682,20.2294 C24.024,19.2244 24.447,18.1874 24.114,17.1204 C23.928,16.5274 23.48,16.0124 23.133,15.4734 C23.07,15.3754 22.924,15.2794 22.812,15.2734 C21.434,15.1994 20.027,14.8284 18.713,15.5554 C16.699,16.6704 14.666,17.7554 12.705,18.9584 C11.387,19.7654 10.542,21.0154 10.099,22.5134 C10.075,22.5964 10.035,22.6764 10.016,22.7604 C9.809,23.6954 9.997,24.4774 10.54,24.7754 C11.314,25.2004 11.899,24.7914 12.472,24.3044 C13.948,23.0504 15.412,21.7814 16.925,20.5734 C17.694,19.9604 18.557,19.4664 19.416,18.9674 C18.023,20.8154 16.515,22.5434 14.728,24.0064 C13.6,24.9284 12.454,25.8304 11.302,26.7244 C10.193,27.5854 9.137,27.2094 8.809,25.8374 C8.495,24.5234 8.805,23.2924 9.38,22.1114 C10.665,19.4794 12.619,17.4524 15.057,15.8684 C15.385,15.6554 15.752,15.4864 16.043,15.2314 C17.46,13.9814 19.165,13.7024 20.967,13.6954 C21.618,13.6924 22.275,13.5454 22.915,13.6084 C23.402,13.6564 23.876,13.9124 24.338,14.1124 C24.789,14.3074 25.207,14.5804 25.661,14.7634 C26.148,14.9614 26.371,15.3304 26.437,15.8044 C26.86,18.8604 26.427,21.6124 24.231,24.0524 C21.932,26.6054 19.565,29.0274 16.687,30.9334 C15.547,31.6884 14.367,32.0714 13.007,31.9854 C10.897,31.8524 8.866,31.5304 7.144,30.1364 C5.998,29.2094 5.18,28.1234 4.998,26.6194 C4.801,25.0054 4.397,23.3894 4.421,21.7794 C4.455,19.5954 4.718,17.4024 5.058,15.2404 C5.284,13.8084 6.076,12.5824 7.122,11.5334 C7.443,11.2124 7.653,10.7464 7.816,10.3104 C8.041,9.7074 8.33,9.2104 8.981,9.0084 C9.063,8.9834 9.168,8.9534 9.21,8.8904 C10.016,7.6654 11.62,7.7444 12.606,6.8154 C12.642,6.7804 12.725,6.7954 12.857,6.7774" id="Fill-13" fill="#FEFEFE"></path>
                <path d="M22.1861,12.2286 L21.8361,12.2286 C21.8971,11.2356 21.9701,10.2606 22.0121,9.2836 C22.0691,7.9366 22.1061,6.5896 22.1451,5.2426 C22.1741,4.1996 21.5541,3.6696 20.6031,4.1066 C19.4901,4.6186 18.2481,5.1436 17.4801,6.0266 C16.7831,6.8276 16.5081,8.0916 16.3041,9.1986 C16.1231,10.1806 16.2551,11.2296 16.3191,12.2456 C16.3751,13.1546 16.1371,13.5726 15.2931,13.8896 C14.8361,14.0616 14.7291,13.8236 14.7331,13.4736 C14.7350958,13.2906 14.8451,13.1026 14.9261,12.9266 C15.3071,12.1026 15.2911,12.0766 14.5661,11.5666 C14.4101,11.4576 14.2341,11.2356 14.2350958,11.0666 C14.2411,9.5256 14.2521,7.9816 14.3391,6.4436 C14.3611,6.0716 14.5911,5.6496 14.8501,5.3626 C17.0401,2.9306 19.7721,2.1266 22.9831,2.6126 C24.5461,2.8486 25.9871,3.3036 27.2561,4.2346 C27.5771,4.4696 27.8601,4.7976 28.0641,5.1396 C28.5321,5.9216 28.9761,6.7226 29.3551,7.5506 C29.5171,7.9046 29.6071,8.3656 29.5341,8.7396 C29.2691,10.0796 28.9201,11.4026 28.6031,12.7316 C28.4901,13.2036 28.2791,13.5606 27.7441,13.6806 C27.5401,13.7266 27.3751,13.9526 27.1291,14.1466 C26.8881,13.9606 26.6071,13.7446 26.3191,13.5226 C26.5911,12.9636 26.9741,12.4636 27.0751,11.9126 C27.3291,10.5296 27.6401,9.1146 27.5691,7.7296 C27.5191,6.7466 26.9201,5.7766 26.4941,4.8326 C26.3141,4.4356 25.8471,4.4066 25.5421,4.6956 C25.1741,5.0446 24.8151,5.4536 24.6001,5.9066 C23.8741,7.4356 23.1891,8.9846 22.5441,10.5486 C22.3401,11.0436 22.3121,11.6116 22.1861,12.2286" id="Fill-15" fill="#FEFEFE"></path>
                <path d="M51.8541,14.938 C50.6251,14.566 50.6401,14.528 50.5871,13.492 C50.4581,10.931 50.2901,8.371 50.1241,5.811 C50.0831,5.203 49.7671,4.996 49.1451,5.109 C47.1501,5.473 45.6101,7.125 45.2901,9.287 C45.1091,10.501 45.1271,11.709 45.5131,12.898 C45.8001,13.783 45.7461,13.922 45.0511,14.737 C44.4591,14.241 44.2121,13.622 44.2281,12.849 C44.2361,12.479 44.1601,12.077 44.0091,11.739 C43.3041,10.163 43.2261,8.639 44.2531,7.161 C44.7111,6.5 45.1491,5.824 45.6051,5.161 C46.1251,4.405 46.8541,3.911 47.7501,3.809 C49.4561,3.615 51.1671,3.447 52.8801,3.385 C54.2171,3.337 55.4271,3.825 56.2751,4.896 C56.6021,5.31 56.7611,5.886 56.8921,6.415 C57.0101,6.893 56.9511,7.413 57.0311,7.905 C57.3921,10.119 56.4861,12.095 55.8791,14.126 C55.8281,14.297 55.6251,14.476 55.4511,14.548 C54.9981,14.737 54.9511,15.014 55.2311,15.355 C55.6031,15.806 55.3401,16.084 54.9871,16.307 C54.5641,16.574 54.0831,16.723 53.6721,16.328 C53.5681,16.228 53.6181,15.863 53.7131,15.682 C53.9251,15.28 54.2031,14.912 54.4701,14.542 C55.9611,12.481 56.2581,10.222 55.4141,7.865 C55.1661,7.17 54.5741,6.563 54.0361,6.018 C53.5901,5.567 52.9611,5.831 52.7131,6.484 C52.1231,8.039 52.0751,9.664 52.0561,11.301 C52.0431,12.486 51.9281,13.67 51.8541,14.938" id="Fill-17" fill="#FEFEFE"></path>
                <path d="M26.4635,33.9742 C27.5825,33.9442 27.9535,33.6462 28.4405,32.6012 C29.0325,31.3272 28.7225,30.1132 28.2965,28.9022 C28.1355,28.4442 27.3315,28.1082 26.8655,28.2382 C26.4465,28.3552 26.1865,28.6562 26.3695,29.0622 C26.6515,29.6872 26.4345,30.1712 26.1245,30.6852 C25.7685,31.2792 25.4455,31.8922 25.1095,32.4982 C24.7335,33.1732 24.8995,33.6042 25.6395,33.8232 C25.9055,33.9012 26.1885,33.9252 26.4635,33.9742 M25.5935,24.6382 C26.7555,24.8132 27.5485,25.2862 28.1835,26.0302 C29.9995,28.1532 30.1985,30.8572 28.7675,33.5072 C28.1925,34.5712 27.4945,35.4952 26.2625,35.8222 C25.8875,35.9212 25.4725,35.9372 25.0825,35.9022 C24.6095,35.8592 24.1415,35.7382 23.6785,35.6232 C22.9015,35.4302 22.2815,35.0192 21.7125,34.4272 C20.6925,33.3672 19.5715,32.4022 18.5205,31.4222 C19.1455,30.5632 19.3515,30.5252 19.9585,31.0092 C20.2305,31.2252 20.4825,31.4672 20.7505,31.6882 C21.7655,32.5242 23.1085,32.3702 23.8935,31.2992 C24.2125,30.8642 24.4245,30.3502 24.7385,29.9102 C25.1385,29.3492 25.5215,28.7432 26.0365,28.3052 C27.2715,27.2572 27.3105,25.9952 26.0465,24.9672 C25.9485,24.8872 25.8425,24.8182 25.5935,24.6382" id="Fill-19" fill="#FEFEFE"></path>
                <path d="M48.8893,15.3663 C48.7643,15.8433 48.7073,16.2423 48.1573,16.3343 C48.0333,16.3553 47.8713,16.8173 47.9183,17.0363 C47.9953,17.3963 48.1943,17.7463 48.4023,18.0603 C48.6703,18.4663 49.1283,18.7863 49.2813,19.2223 C50.2063,21.8713 52.2743,22.7053 54.8213,22.8343 C54.9083,22.8393 54.9943,22.8433 55.0813,22.8513 C55.1013,22.8533 55.1193,22.8703 55.1873,22.9063 C55.2753,23.3653 55.1613,23.7713 54.7183,24.0323 C54.0663,24.4153 53.3743,24.6233 52.5993,24.4843 C51.9383,24.3663 51.2393,24.3923 50.6093,24.1933 C47.6633,23.2603 46.4543,21.6843 46.2063,18.5853 C46.1703,18.1303 46.1223,17.6753 46.0863,17.2203 C45.9873,15.9573 46.5973,15.2893 47.8513,15.2993 C48.1743,15.3023 48.4963,15.3393 48.8893,15.3663" id="Fill-21" fill="#FEFEFE"></path>
                <path d="M41.9693,13.3409 C41.3773,14.8169 40.7393,16.1729 40.2913,17.5889 C39.7413,19.3269 39.6333,21.1289 40.0633,22.9269 C40.1683,23.3679 40.0323,23.5459 39.6333,23.7779 C39.1253,24.0719 38.7313,24.5619 38.2413,25.0109 C37.7823,24.2199 37.1933,23.5259 37.3003,22.4839 C37.4183,21.3419 37.3113,20.1739 37.4743,19.0409 C37.5923,18.2279 37.9143,17.4159 38.2863,16.6739 C38.9703,15.3129 39.9003,14.1489 41.4013,13.5869 C41.5763,13.5209 41.7453,13.4379 41.9693,13.3409" id="Fill-23" fill="#FEFEFE"></path>
                <path d="M37.6832,29.0049 C37.7542,30.6079 38.5122,31.6059 39.8032,31.7879 C40.3922,31.8719 40.8702,31.7059 41.2022,31.1779 C41.5132,30.6809 41.8292,30.1859 42.1792,29.7159 C42.2832,29.5749 42.5022,29.5209 42.6682,29.4269 C42.6662,29.6169 42.7192,29.8289 42.6532,29.9929 C42.3512,30.7369 41.9982,31.4609 41.6962,32.2049 C41.3242,33.1209 41.5722,33.5819 42.5382,33.8399 C43.5222,34.1039 44.4662,33.9989 45.2562,33.3489 C46.2082,32.5659 47.2122,31.7919 47.2762,30.3759 C47.2822,30.2549 47.6012,30.0949 47.7922,30.0649 C47.8682,30.0529 48.1082,30.3869 48.0722,30.4969 C47.9322,30.9229 47.8022,31.4099 47.5042,31.7139 C46.6402,32.5969 45.7342,33.4489 44.7722,34.2249 C43.9652,34.8749 43.0132,35.0259 41.9462,34.8869 C40.2982,34.6709 38.9392,33.9559 37.7492,32.8609 C37.5832,32.7089 37.5162,32.3989 37.4892,32.1519 C37.4042,31.3769 37.3332,30.5969 37.3122,29.8169 C37.3042,29.5259 37.4452,29.2289 37.5182,28.9349 C37.5732,28.9589 37.6282,28.9819 37.6832,29.0049" id="Fill-25" fill="#FEFEFE"></path>
                <path d="M60.7252,25.3702 C60.7582,24.9602 60.7572,24.5442 60.8292,24.1412 C61.1652,22.2882 60.5122,20.5962 60.0602,18.8552 C59.6692,17.3552 58.9912,16.1362 57.6122,15.3442 C57.1492,15.0782 57.0692,14.4862 57.4062,14.0792 C57.5052,13.9582 57.8602,13.8962 57.9942,13.9782 C59.8212,15.0952 61.1402,16.4842 61.6912,18.7392 C62.2402,20.9862 61.9422,22.9692 61.0702,24.9822 C61.0042,25.1342 60.9052,25.2712 60.8212,25.4152 C60.7892,25.4002 60.7572,25.3852 60.7252,25.3702" id="Fill-27" fill="#FEFEFE"></path>
                <path d="M13.0641,14.2261 C13.6581,14.8151 13.4921,15.1481 13.1041,15.4841 C12.3171,16.1671 11.5051,16.8291 10.7751,17.5691 C8.7361,19.6361 7.6721,22.1851 7.1831,25.0241 C6.9241,23.5941 6.4761,22.1531 6.8981,20.7181 C7.1061,20.0101 7.6501,19.3761 8.1271,18.7771 C8.6261,18.1521 9.1941,17.5731 9.7891,17.0381 C10.8621,16.0721 11.9781,15.1541 13.0641,14.2261" id="Fill-29" fill="#FEFEFE"></path>
                <path d="M18.8766,10.1568 C18.7326,10.6758 18.6006,11.1548 18.4616,11.6538 C19.0516,11.7718 19.6186,12.1678 19.8876,11.3598 C20.0466,10.8818 19.6326,10.3728 18.8766,10.1568 M20.5096,10.0848 C20.4356,10.7138 20.4096,11.2818 20.2826,11.8248 C20.2326,12.0358 19.9796,12.3018 19.7716,12.3528 C19.2696,12.4768 18.7336,12.4618 18.2226,12.5548 C17.8646,12.6198 17.7736,12.4748 17.7036,12.1678 C17.3966,10.8318 17.6926,9.5288 17.8866,8.2198 C17.9216,7.9838 17.9756,7.7518 18.0296,7.4648 C18.4726,7.5918 18.8996,7.7138 19.4376,7.8668 C19.4856,7.3068 19.5296,6.8018 19.5836,6.1878 C19.8596,6.0568 20.2406,5.8768 20.6736,5.6718 L20.6736,8.7448 C20.4556,8.6818 20.2016,8.5538 19.9446,8.5498 C19.5946,8.5448 19.2206,8.6238 19.1926,9.0918 C19.1336,10.0838 20.0786,9.7698 20.5096,10.0848" id="Fill-31" fill="#FEFEFE"></path>
                <path d="M36.5563,16.8214 C36.7643,15.9504 36.9143,15.0614 37.1953,14.2144 C37.7083,12.6584 38.8213,11.5174 40.0613,10.5264 C40.5093,10.1674 41.1333,10.0084 41.7013,9.8354 C41.8303,9.7964 42.1673,10.0404 42.2213,10.2134 C42.6983,11.7484 42.6793,11.7264 41.1103,12.1544 C39.1543,12.6884 37.9753,14.0784 37.1873,15.8614 C37.0413,16.1904 36.9273,16.5334 36.7983,16.8704 C36.7173,16.8544 36.6373,16.8384 36.5563,16.8214" id="Fill-33" fill="#FEFEFE"></path>
                <path d="M47.1402,33.9883 C47.5032,33.6903 47.8802,33.3823 48.3692,32.9823 C48.3412,34.0243 48.1722,35.0303 49.3752,35.3353 C50.2352,35.5533 51.0782,35.6153 51.6232,34.6183 C52.0592,35.3743 51.8212,36.4643 52.9312,36.7483 C50.3892,37.9993 48.2932,36.9973 47.1402,33.9883" id="Fill-35" fill="#FEFEFE"></path>
                <path d="M29.192,24.6895 C28.304,24.2405 28.167,24.0525 28.629,23.2795 C29.548,21.7375 29.886,20.0145 30.341,18.3265 C30.47,17.8505 30.456,17.3365 30.528,16.8435 C30.577,16.5045 30.66,16.1715 30.728,15.8355 C30.785,15.8305 30.841,15.8255 30.897,15.8205 C30.968,16.1075 31.138,16.4115 31.096,16.6815 C30.675,19.3805 30.261,22.0845 29.192,24.6895" id="Fill-37" fill="#FEFEFE"></path>
                <path d="M52.2301,26.0255 L53.7571,26.0255 C53.8901,27.0035 54.0191,27.9575 54.1571,28.9735 C53.4091,28.9125 52.7051,28.8545 51.9431,28.7925 C52.0401,27.8615 52.1321,26.9635 52.2301,26.0255" id="Fill-39" fill="#FEFEFE"></path>
                <path d="M23.0348,29.9029 C22.7268,30.6179 22.3188,30.8769 21.7908,30.5829 C21.3508,30.3379 21.0068,29.9229 20.5088,29.4849 C20.8668,29.1699 21.2178,28.8859 21.5388,28.5729 C22.2088,27.9219 22.8698,27.2599 23.5238,26.5919 C24.2438,25.8579 24.9778,25.7739 25.6208,26.4989 C25.2078,26.6809 24.8488,26.9049 24.4588,26.9989 C23.6938,27.1799 23.4478,27.4849 23.5358,28.1379 C23.2788,28.5289 23.0808,28.8299 22.8518,29.1759 C22.5108,28.8519 22.1088,28.4179 21.5408,28.9469 C21.1358,29.3259 21.4748,29.6169 21.6348,29.9239 C22.0678,30.7659 22.5478,30.0889 23.0348,29.9029" id="Fill-41" fill="#FEFEFE"></path>
                <path d="M49.2779,13.6832 C47.0129,13.8072 45.6969,11.7092 46.5829,9.7422 C46.7559,9.9102 46.9439,10.2422 47.1799,10.2812 C47.4609,10.3272 47.7909,10.1402 48.0849,10.0182 C48.3799,9.8952 48.6559,9.7272 49.0299,9.5332 C49.0519,10.0312 49.0719,10.4492 49.0909,10.8542 C48.4349,10.8542 47.8179,10.8342 47.2029,10.8612 C46.7459,10.8822 46.5659,11.1432 46.7079,11.5992 C47.0709,12.7752 47.8989,12.9862 48.8379,12.1432 C48.9139,12.0752 49.0009,12.0202 49.1559,11.9052 C49.1769,12.2542 49.1929,12.5252 49.2119,12.7962 C49.2309,13.0772 49.2539,13.3572 49.2779,13.6832" id="Fill-43" fill="#FEFEFE"></path>
                <path d="M46.565,23.4136 C46.848,23.7316 47.076,23.9876 47.316,24.2566 C46.649,25.2846 45.945,26.3676 45.208,27.5026 C44.884,27.3016 44.563,27.1026 44.196,26.8746 C44.999,25.7026 45.764,24.5846 46.565,23.4136" id="Fill-45" fill="#FEFEFE"></path>
                <path d="M47.4547,28.337 C47.0297,28.171 46.5077,27.968 45.8797,27.724 C46.5667,26.663 47.2327,25.635 47.9257,24.566 C48.2047,24.722 48.4077,24.835 48.5627,24.921 C48.1927,26.064 47.8357,27.164 47.4547,28.337" id="Fill-47" fill="#FEFEFE"></path>
                <path d="M25.2145,12.6934 C24.6985,12.5864 24.1825,12.4804 23.7265,12.3854 C23.8185,11.7474 23.9085,11.2074 23.9745,10.6644 C24.0605,9.9644 24.4285,9.6654 25.1245,9.7474 C25.2965,9.7684 25.4905,9.7174 25.6395,9.7814 C25.8025,9.8514 26.0495,10.0264 26.0405,10.1384 C26.0195,10.4014 25.9325,10.8124 25.7575,10.8844 C24.7465,11.3004 24.6095,11.6664 25.2145,12.6934" id="Fill-49" fill="#FEFEFE"></path>
                <path d="M43.0787,32.2481 C43.0947,31.8511 43.2247,31.6931 43.6337,31.7061 C44.4127,31.7281 44.7467,31.2061 44.3407,30.5131 C43.9397,29.8301 44.4317,29.4981 44.8157,29.2851 C45.0817,29.1371 45.5527,29.3431 45.9267,29.4191 C45.9847,29.4311 46.0557,29.5961 46.0487,29.6851 C45.9427,31.0851 44.4907,32.5751 43.0787,32.2481" id="Fill-51" fill="#FEFEFE"></path>
                <path d="M45.8922,22.5338 C44.8862,23.4868 43.8812,24.4388 42.8452,25.4198 C42.5252,24.9798 42.2072,24.5438 41.8012,23.9868 C43.1852,23.4308 44.4972,22.9038 45.8112,22.3768 C45.8382,22.4298 45.8652,22.4818 45.8922,22.5338" id="Fill-53" fill="#FEFEFE"></path>
                <path d="M49.8316,28.8091 C50.0676,27.7201 50.2816,26.7381 50.4946,25.7631 C51.7006,25.9011 51.5656,25.8791 51.4566,26.8881 C51.4066,27.3381 51.3186,27.7891 51.3176,28.2401 C51.3176,28.6981 51.1376,28.8581 50.6976,28.8131 C50.4426,28.7881 50.1846,28.8091 49.8316,28.8091" id="Fill-55" fill="#FEFEFE"></path>
                <path d="M45.3688,21.1099 C43.9498,20.7059 42.5598,20.9649 41.1748,21.3909 L41.1748,19.9489 C42.3858,19.9739 43.5428,19.9859 44.6398,20.4319 C44.9408,20.5539 45.5038,20.4149 45.3688,21.1099" id="Fill-57" fill="#FEFEFE"></path>
                <path d="M44.7613,18.8223 C43.7033,18.4983 42.6423,18.1723 41.5183,17.8273 C41.6413,17.4413 41.7613,17.0613 41.8793,16.6933 C43.4013,16.7153 44.8043,17.7753 44.7613,18.8223" id="Fill-59" fill="#FEFEFE"></path>
                <path d="M53.7233,8.3135 C54.1613,8.8085 54.4663,9.2895 53.8703,9.9165 C53.5523,10.2505 53.6173,10.6705 54.0323,10.9105 C54.4423,11.1465 54.4863,11.4785 54.3583,11.8495 C54.1103,12.5685 53.8223,13.2735 53.5503,13.9845 L53.2783,13.9185 C53.3453,12.0495 53.4133,10.1805 53.4823,8.3115 C53.5623,8.3125 53.6433,8.3135 53.7233,8.3135" id="Fill-61" fill="#FEFEFE"></path>
                <path d="M45.3404,21.8375 C43.9984,22.3755 42.7974,22.8565 41.5504,23.3555 C41.4954,23.2545 41.4114,23.1355 41.3634,23.0025 C41.0544,22.1575 41.0804,22.1075 41.9684,21.8665 C43.0484,21.5735 44.1314,21.4535 45.3404,21.8375" id="Fill-63" fill="#FEFEFE"></path>
                <path d="M49.1754,25.251 C49.4754,25.376 49.6464,25.447 49.8454,25.53 C49.6124,26.629 49.3854,27.699 49.1614,28.752 C48.4314,28.949 48.1944,28.529 48.3404,27.856 C48.5294,26.986 48.8794,26.15 49.1754,25.251" id="Fill-65" fill="#FEFEFE"></path>
                <path d="M56.3004,18.6802 C55.9424,18.3642 55.6074,18.0692 55.2824,17.7842 C56.1544,16.1802 56.6574,16.0342 57.7774,17.1442 C57.5134,17.3612 57.2284,17.5582 56.9914,17.8032 C56.7534,18.0482 56.5634,18.3412 56.3004,18.6802" id="Fill-67" fill="#FEFEFE"></path>
                <path d="M18.1744,26.1216 C17.8384,26.4066 17.6274,26.5856 17.3224,26.8436 C16.7374,26.1776 16.1744,25.5366 15.5954,24.8776 C15.8464,24.6456 16.0504,24.4566 16.3604,24.1706 C16.9594,24.8156 17.5374,25.4366 18.1744,26.1216" id="Fill-69" fill="#FEFEFE"></path>
                <path d="M58.1412,17.5259 C58.8442,18.3439 58.6012,19.4109 57.6002,20.2739 C57.3292,19.9409 57.0592,19.6079 56.7342,19.2079 C57.1962,18.6559 57.6492,18.1139 58.1412,17.5259" id="Fill-71" fill="#FEFEFE"></path>
                <path d="M42.1256,26.5064 C42.1256,26.7874 42.1696,26.9334 42.1186,27.0254 C41.6186,27.9144 41.1386,28.8184 40.5816,29.6714 C40.1256,30.3694 39.6266,30.3104 39.3026,29.5304 C40.3766,29.6734 40.7236,28.9094 41.0886,28.1224 C40.8316,27.9394 40.5746,27.7564 40.2066,27.4944 C40.8736,27.1514 41.4486,26.8544 42.1256,26.5064" id="Fill-73" fill="#FEFEFE"></path>
                <path d="M44.8443,17.0709 C43.9553,16.6609 43.1423,16.2859 42.2463,15.8719 C42.5103,15.4269 42.8003,14.9399 43.1173,14.4039 C43.6943,15.1069 43.5953,16.3269 44.8973,16.3209 C44.8813,16.5539 44.8643,16.7999 44.8443,17.0709" id="Fill-75" fill="#FEFEFE"></path>
                <path d="M11.8863,27.8951 C12.1723,27.6831 12.4653,27.4671 12.8433,27.1871 C13.1913,27.7131 13.5243,28.2181 13.8603,28.7251 C12.6223,29.4981 12.2403,29.3261 11.8863,27.8951" id="Fill-77" fill="#FEFEFE"></path>
                <path d="M15.0768,25.3038 C15.6648,25.9858 16.1968,26.6048 16.7498,27.2458 C16.4488,27.4388 16.1438,27.6328 15.8218,27.8388 C15.3828,27.1708 14.9698,26.5418 14.5108,25.8428 C14.6818,25.6788 14.8578,25.5118 15.0768,25.3038" id="Fill-79" fill="#FEFEFE"></path>
                <path d="M55.6861,24.8951 C56.2571,25.5751 56.0581,26.5681 57.0211,26.8881 C56.8141,27.2371 56.5851,27.6221 56.2701,28.1531 C55.8931,27.2371 55.5331,26.4601 55.2731,25.6511 C55.2161,25.4761 55.5191,25.1861 55.6861,24.8951" id="Fill-81" fill="#FEFEFE"></path>
                <path d="M29.149,14.5386 C29.189,15.2966 29.228,16.0556 29.278,17.0086 C28.753,16.7956 28.17,16.7356 28.062,16.4776 C27.869,16.0166 27.848,15.4146 28.43,15.0416 C28.639,14.9076 28.789,14.6796 28.964,14.4956 C29.026,14.5096 29.087,14.5236 29.149,14.5386" id="Fill-83" fill="#FEFEFE"></path>
                <path d="M17.694,22.9107 C17.835,22.7867 18.01,22.6327 18.229,22.4407 C18.771,22.9177 19.313,23.3947 19.883,23.8957 C19.664,24.1627 19.476,24.3907 19.383,24.5037 C18.833,23.9847 18.305,23.4867 17.694,22.9107" id="Fill-85" fill="#FEFEFE"></path>
                <path d="M59.7457,24.4434 C59.4607,24.2944 59.1797,24.2424 59.1077,24.0924 C58.9017,23.6574 58.6137,23.1564 58.6807,22.7324 C58.7307,22.4054 59.2697,22.1554 59.5917,21.8714 C59.6427,21.9034 59.6937,21.9344 59.7457,21.9664 L59.7457,24.4434 Z" id="Fill-87" fill="#FEFEFE"></path>
                <path d="M13.0397,10.2105 C12.8987,11.1655 13.4087,12.0655 12.5017,12.7945 C12.3067,12.1325 12.1307,11.5385 11.9357,10.8805 C12.2577,10.6855 12.5787,10.4905 13.0397,10.2105" id="Fill-89" fill="#FEFEFE"></path>
                <path d="M55.7457,28.6265 C55.4217,28.7495 55.1697,28.8455 54.8307,28.9735 C54.6937,27.9185 54.5677,26.9455 54.4417,25.9725 C54.4907,25.9555 54.5387,25.9385 54.5877,25.9225 C54.9607,26.7935 55.3347,27.6655 55.7457,28.6265" id="Fill-91" fill="#FEFEFE"></path>
                <path d="M47.0016,8.5489 C47.5546,7.9779 47.4816,6.7439 48.7216,6.8969 C49.0136,7.9349 49.0106,7.9249 47.9956,8.1869 C47.6556,8.2749 47.3326,8.4259 47.0016,8.5489" id="Fill-93" fill="#FEFEFE"></path>
                <path d="M10.4352,14.4688 C10.1492,14.0318 9.8992,13.6308 9.6302,13.2428 C9.2822,12.7388 9.3792,12.3858 9.9832,12.1728 C10.3032,12.7448 10.6262,13.3228 10.9832,13.9608 C10.8452,14.0888 10.6622,14.2588 10.4352,14.4688" id="Fill-95" fill="#FEFEFE"></path>
                <path d="M13.3766,26.7335 C13.5796,26.5805 13.7476,26.4525 13.9806,26.2765 C14.3886,26.9025 14.7736,27.4925 15.2046,28.1525 C14.9536,28.2855 14.7556,28.3915 14.5336,28.5085 C14.1466,27.9135 13.7816,27.3545 13.3766,26.7335" id="Fill-97" fill="#FEFEFE"></path>
                <path d="M58.9977,19.8145 C59.1887,20.2665 59.3697,20.6935 59.5717,21.1685 C59.2047,21.3835 58.8757,21.5765 58.5467,21.7685 C57.9617,21.0005 57.9617,21.0005 58.9977,19.8145" id="Fill-99" fill="#FEFEFE"></path>
                <path d="M8.2496,13.9214 C8.4696,13.6744 8.6396,13.4854 8.8376,13.2644 C9.2116,13.8414 9.5586,14.3784 9.9316,14.9554 C9.7646,15.1074 9.5936,15.2614 9.3706,15.4644 C8.9916,14.9434 8.6386,14.4574 8.2496,13.9214" id="Fill-101" fill="#FEFEFE"></path>
                <path d="M41.2399,19.2256 C41.2729,18.9916 41.2979,18.8076 41.3429,18.4846 C42.4409,18.8206 43.4769,19.1386 44.5139,19.4556 L44.4759,19.5866 C43.4149,19.4676 42.3519,19.3496 41.2399,19.2256" id="Fill-103" fill="#FEFEFE"></path>
                <path d="M11.3893,11.3423 C11.4353,12.0383 12.0113,12.6543 11.7163,13.4023 C11.6333,13.4343 11.5503,13.4663 11.4673,13.4983 C11.1913,12.9613 10.8703,12.4393 10.6713,11.8743 C10.6233,11.7403 10.9853,11.4633 11.1583,11.2523 C11.2353,11.2813 11.3123,11.3123 11.3893,11.3423" id="Fill-105" fill="#FEFEFE"></path>
                <path d="M20.4645,19.7906 C20.9815,18.9976 21.1375,19.0106 22.4445,19.9536 C22.3605,20.1306 22.2725,20.3156 22.1615,20.5456 C21.5655,20.2806 21.0175,20.0366 20.4645,19.7906" id="Fill-107" fill="#FEFEFE"></path>
                <path d="M22.7711,19.2745 C22.2301,18.9945 21.8561,18.8015 21.4781,18.6065 C21.8111,18.2165 22.1111,17.8655 22.4111,17.5155 C22.4931,17.5415 22.5761,17.5675 22.6591,17.5935 C22.6941,18.1115 22.7281,18.6285 22.7711,19.2745" id="Fill-109" fill="#FEFEFE"></path>
                <path d="M29.0543,18.8228 C27.8913,18.3508 27.8773,18.3298 28.0803,17.3388 C28.4473,17.4428 28.8103,17.5468 29.2373,17.6678 C29.1733,18.0708 29.1153,18.4408 29.0543,18.8228" id="Fill-111" fill="#FEFEFE"></path>
                <path d="M52.2516,20.5611 C51.9776,20.3291 51.7546,20.1411 51.5166,19.9381 C51.8766,19.4671 52.2016,19.0431 52.5226,18.6241 C53.1336,18.8461 52.8176,19.1741 52.6796,19.4901 C52.5406,19.8041 52.4236,20.1281 52.2516,20.5611" id="Fill-113" fill="#FEFEFE"></path>
                <path d="M53.901,33.5372 C53.695,34.0252 53.49,34.5122 53.284,34.9982 L53.093,34.9852 C52.998,34.3322 52.901,33.6782 52.796,32.9592 C53.209,33.1752 53.522,33.3392 53.901,33.5372" id="Fill-115" fill="#FEFEFE"></path>
                <path d="M53.1041,30.4781 C54.1411,30.5531 54.3451,30.8671 54.0591,31.9991 C53.8381,31.9821 53.6101,31.9661 53.3331,31.9451 C53.3501,31.6661 53.4071,31.4151 53.3681,31.1781 C53.3291,30.9381 53.1971,30.7131 53.1041,30.4781" id="Fill-117" fill="#FEFEFE"></path>
                <path d="M21.3658,21.9219 C21.0508,22.3589 21.0508,22.3589 19.2778,21.3529 C19.3938,21.0059 19.5568,20.8769 19.9248,21.1039 C20.3448,21.3639 20.7968,21.5729 21.2338,21.8059 C21.2698,21.8249 21.2978,21.8609 21.3658,21.9219" id="Fill-119" fill="#FEFEFE"></path>
                <path d="M40.9537,25.1089 C40.3167,25.7169 39.7247,26.2829 39.1237,26.8569 C39.0017,25.9119 40.0657,24.8489 40.9537,25.1089" id="Fill-121" fill="#FEFEFE"></path>
                <path d="M7.7916,16.8731 C7.4796,17.1491 7.2376,17.3611 6.8406,17.7111 C6.8806,16.9221 6.9126,16.3001 6.9436,15.6781 C7.0066,15.6621 7.0676,15.6461 7.1306,15.6301 C7.3466,16.0371 7.5626,16.4421 7.7916,16.8731" id="Fill-123" fill="#FEFEFE"></path>
                <path d="M7.7965,14.4761 C8.1365,14.9401 8.4765,15.4051 8.8745,15.9491 C8.7315,16.0631 8.5875,16.1791 8.3445,16.3731 C8.0895,15.9291 7.8385,15.5421 7.6445,15.1291 C7.5585,14.9451 7.5845,14.7081 7.5605,14.4951 C7.6395,14.4891 7.7175,14.4821 7.7965,14.4761" id="Fill-125" fill="#FEFEFE"></path>
                <path d="M16.9986,23.5753 C17.2426,23.7053 17.5316,23.7893 17.7216,23.9753 C18.1596,24.4063 18.7556,24.7703 18.6976,25.6553 C18.0386,24.9543 17.4766,24.3563 16.9136,23.7593 C16.9416,23.6983 16.9706,23.6363 16.9986,23.5753" id="Fill-127" fill="#FEFEFE"></path>
                <path d="M28.7936,19.5211 C28.6286,19.9601 28.4886,20.3341 28.3486,20.7081 C27.6886,20.4661 27.6886,20.4661 28.0156,19.1201 C28.2656,19.2491 28.4976,19.3691 28.7936,19.5211" id="Fill-129" fill="#FEFEFE"></path>
                <path d="M26.1754,8.6368 C25.6204,8.4788 25.3144,8.3908 24.9334,8.2828 C25.1544,7.8778 25.3654,7.4888 25.5764,7.0998 C25.6414,7.0948 25.7044,7.0898 25.7684,7.0848 C25.8914,7.5508 26.0134,8.0168 26.1754,8.6368" id="Fill-131" fill="#FEFEFE"></path>
                <path d="M27.2965,22.9273 C26.4075,22.1473 27.5245,21.7513 27.3215,21.0923 C27.6415,21.2143 27.8115,21.2793 28.0535,21.3713 C27.8055,21.8813 27.5735,22.3563 27.2965,22.9273" id="Fill-133" fill="#FEFEFE"></path>
                <path d="M57.565,24.462 C56.513,23.769 56.485,23.675 56.919,22.314 C57.12,22.983 57.321,23.65 57.565,24.462" id="Fill-135" fill="#FEFEFE"></path>
                <path d="M57.6402,29.7505 C57.4662,29.4715 57.3172,29.2345 57.1412,28.9535 C57.3772,28.6675 57.6202,28.3725 57.9432,27.9805 C58.0352,28.6665 58.2662,29.2425 57.6402,29.7505" id="Fill-137" fill="#FEFEFE"></path>
                <path d="M56.4332,30.9171 C55.9192,30.1221 55.9192,30.1221 56.6262,29.5591 C57.2252,30.2161 57.2202,30.2491 56.4332,30.9171" id="Fill-139" fill="#FEFEFE"></path>
                <path d="M18.7906,22.0406 C19.0616,22.0686 19.1316,22.0586 19.1836,22.0846 C19.6806,22.3346 20.1746,22.5906 20.7166,22.8686 C20.5946,23.0396 20.4906,23.1836 20.3476,23.3856 C19.8496,22.9556 19.3846,22.5536 18.7906,22.0406" id="Fill-141" fill="#FEFEFE"></path>
                <path d="M49.6774,32.8062 C49.7604,32.9722 49.8424,33.1372 49.9374,33.3282 C50.2124,33.1442 50.4584,32.9792 50.7754,32.7672 C50.6804,33.2852 50.7724,33.9322 50.1354,33.8972 C49.5534,33.8642 49.6084,33.2462 49.6774,32.8062" id="Fill-143" fill="#FEFEFE"></path>
                <path d="M45.0895,24.379 C44.5895,25.094 44.1685,25.695 43.7405,26.308 C43.2885,25.832 43.7675,25.148 45.0895,24.379" id="Fill-145" fill="#FEFEFE"></path>
                <path d="M12.6315,22.4581 C12.2985,22.7241 11.9855,22.9751 11.6725,23.2251 C11.6065,23.1891 11.5395,23.1521 11.4745,23.1161 C11.6665,22.6551 11.8605,22.1931 12.0915,21.6411 C12.3085,21.9701 12.4565,22.1941 12.6315,22.4581" id="Fill-147" fill="#FEFEFE"></path>
                <path d="M52.0416,18.0787 C51.8976,18.2887 51.7716,18.4857 51.6326,18.6737 C51.5076,18.8447 51.3676,19.0057 51.2306,19.1757 C50.8026,18.8257 50.9076,18.5017 51.2296,18.1937 C51.4446,17.9887 51.6346,17.6077 52.0416,18.0787" id="Fill-149" fill="#FEFEFE"></path>
                <path d="M57.1256,26.4727 C56.8566,25.7707 56.6306,25.1807 56.3856,24.5417 C57.2886,25.1287 57.5046,25.6397 57.1256,26.4727" id="Fill-151" fill="#FEFEFE"></path>
                <path d="M53.3971,19.4444 C53.6801,19.9694 53.8701,20.3194 54.1061,20.7564 C53.6721,20.7294 53.3581,20.7094 52.9541,20.6844 C53.0961,20.2864 53.2131,19.9584 53.3971,19.4444" id="Fill-153" fill="#FEFEFE"></path>
                <path d="M13.0309,20.6124 C13.1969,20.9264 13.3639,21.1804 13.4609,21.4594 C13.4999,21.5714 13.3849,21.7374 13.3399,21.8774 C13.2169,21.8344 13.0339,21.8264 12.9809,21.7404 C12.7649,21.3854 12.3689,21.0034 13.0309,20.6124" id="Fill-155" fill="#FEFEFE"></path>
                <path d="M58.6774,27.8482 C58.0404,27.3332 58.5464,26.8492 58.6414,26.3482 C59.0634,26.9382 59.0634,26.9382 58.6774,27.8482" id="Fill-157" fill="#FEFEFE"></path>
                <path d="M11.5758,29.149 C11.0288,28.951 10.6458,28.812 10.2628,28.672 C10.2678,28.627 10.2738,28.581 10.2798,28.536 C10.5768,28.444 10.8748,28.353 11.2248,28.245 C11.3278,28.509 11.4178,28.742 11.5758,29.149" id="Fill-159" fill="#FEFEFE"></path>
                <path d="M14.0973,21.1397 C13.9133,20.7567 13.7303,20.3727 13.5473,19.9907 C13.6433,19.9517 13.7393,19.9127 13.8353,19.8747 C13.9433,20.2997 14.5613,20.5197 14.3733,21.0627 C14.2813,21.0887 14.1893,21.1137 14.0973,21.1397" id="Fill-161" fill="#FEFEFE"></path>
                <path d="M15.2193,19.0611 C15.6293,18.8091 16.1933,19.0021 16.2523,19.3611 C16.2663,19.4401 16.1983,19.5691 16.1293,19.6131 C16.0633,19.6551 15.9193,19.6521 15.8563,19.6061 C15.6503,19.4561 15.4653,19.2761 15.2193,19.0611" id="Fill-163" fill="#FEFEFE"></path>
                <path d="M50.8131,31.5513 C49.9881,31.5123 49.9341,31.3513 50.4421,30.3463 C50.5841,30.8053 50.6881,31.1443 50.8131,31.5513" id="Fill-165" fill="#FEFEFE"></path>
                <path d="M29.9,12.6866 C30.056,13.1786 30.165,13.5176 30.295,13.9266 C29.993,13.8816 29.752,13.8456 29.423,13.7956 C29.57,13.4536 29.706,13.1396 29.9,12.6866" id="Fill-167" fill="#FEFEFE"></path>
                <path d="M16.4352,18.3824 C16.8442,17.8824 17.0802,18.4604 17.4512,18.5784 C17.2532,18.7264 17.1002,18.8404 16.8782,19.0074 C16.7372,18.8074 16.6022,18.6174 16.4352,18.3824" id="Fill-169" fill="#FEFEFE"></path>
                <path d="M58.9791,24.8482 C59.1531,24.9232 59.3281,24.9982 59.5501,25.0932 C59.4991,25.3182 59.4471,25.5392 59.3951,25.7612 C59.3451,25.7792 59.2961,25.7972 59.2481,25.8152 C59.0921,25.5292 58.9381,25.2432 58.7831,24.9562 L58.9791,24.8482 Z" id="Fill-171" fill="#FEFEFE"></path>
                <path d="M15.4537,20.1651 C14.9387,20.4091 14.7717,20.2751 14.5357,19.3961 C14.8217,19.6361 15.1077,19.8751 15.4537,20.1651" id="Fill-173" fill="#FEFEFE"></path>
                <path d="M10.7584,52.1968044 C10.1474,52.1948 9.7504,51.8638 9.7384,51.3468 C9.7264,50.7718 10.2944,50.1798 10.8404,50.1988 C11.3324,50.2158 11.9044,50.7078 11.8914,51.1018 C11.8764,51.5128 11.1664,52.1988 10.7584,52.1968044" id="Fill-175" fill="#B02524"></path>
                <path d="M23.7008,65.3755 C22.9208,65.5005 22.4608,65.3375 22.2468,64.7555 C22.0238,64.1535 22.1748,63.5915 22.5818,63.1255 C22.8798,62.7865 23.4148,62.9055 23.5388,63.4125 C23.6918,64.0345 23.6548,64.7035 23.7008,65.3755" id="Fill-177" fill="#B02524"></path>
                <path d="M18.3014,59.9244 C17.1664,59.4734 17.0894,58.5794 17.6004,57.5954 C17.6684,57.4634 18.0044,57.3494 18.1514,57.4044 C18.3824,57.4914 18.6684,57.6934 18.7364,57.9074 C18.9624,58.6224 18.9054,59.3214 18.3014,59.9244" id="Fill-179" fill="#B02524"></path>
                <path d="M17.067,48.0909 C16.796,47.7809 16.562,47.5519 16.373,47.2909 C16.051,46.8469 16.039,46.3699 16.475,46.0149 C16.786,45.7619 17.174,45.5599 17.571,45.9599 C18.067,46.4599 18.124,46.8079 17.729,47.3169 C17.533,47.5699 17.313,47.8049 17.067,48.0909" id="Fill-181" fill="#B02524"></path>
                <path d="M24.1178,56.439 C23.8798,56.815 23.6548,57.137 23.4668,57.479 C23.2048,57.955 22.8808,57.845 22.5568,57.589 C22.1038,57.23 22.0698,56.508 22.4638,56.072 C22.8668,55.624 23.2058,55.631 23.7478,56.103 C23.8608,56.201 23.9698,56.304 24.1178,56.439" id="Fill-183" fill="#B02524"></path>
                <path d="M11.2027,35.7066 C11.1857,36.2986 10.8177,36.7646 10.3607,36.7696092 C10.0297,36.7726 9.5617,36.0446 9.5777,35.5506 C9.5947,35.0456 9.9617,34.6866 10.4497,34.6996 C10.9527,34.7126 11.2207,35.0716 11.2027,35.7066" id="Fill-185" fill="#B02524"></path>
                <path d="M25.3258,45.4141 C25.1708,45.9701 24.7668,46.3591 24.3338,46.3471 C23.8788,46.3341 23.4888,45.9061 23.5028,45.4341 C23.5148,45.0021 24.1848,44.1761 24.4118,44.3381 C24.7828,44.6041 25.0278,45.0461 25.3258,45.4141" id="Fill-187" fill="#B02524"></path>
                <path d="M8.982,39.4009 C10.09,40.5129 10.081,40.6589 8.875,41.5929 C7.657,40.5709 7.661,40.4719 8.982,39.4009" id="Fill-189" fill="#B02524"></path>
                <path d="M18.8815,39.6631 C18.6785,39.5171 18.5245,39.4081 18.3705,39.2981 C17.6495,38.7811 17.7065,38.0121 18.5215,37.6551 C18.6785,37.5861 19.0275,37.6321 19.0965,37.7441 C19.2755,38.0301 19.4655,38.3981 19.4265,38.7051 C19.3855,39.0321 19.0855,39.3261 18.8815,39.6631" id="Fill-191" fill="#B02524"></path>
                <path d="M54.3063,40.8541 C55.0823,41.5821 55.3223,42.3471 55.0483,43.2831 C54.9423,43.6461 54.8223,44.0351 54.4163,43.9261 C54.1203,43.8461 53.7483,43.5191 53.6883,43.2401 C53.6083,42.8781 53.7803,42.4491 53.8863,42.0611 C53.9933,41.6681 54.1523,41.2901 54.3063,40.8541" id="Fill-193" fill="#B02524"></path>
                <path d="M55.3131,48.4107 C55.5911,48.3257 55.8291,48.2207 56.0771,48.1817 C56.8641,48.0597 57.2651,48.5407 57.0301,49.3037 C56.9861,49.4467 56.9501,49.5997 56.8711,49.7237 C56.7481,49.9177 56.5151,50.2657 56.4611,50.2427 C56.1531,50.1087 55.7821,49.9447 55.6251,49.6767 C55.4291,49.3437 55.4221,48.9007 55.3131,48.4107" id="Fill-195" fill="#B02524"></path>
                <path d="M50.3639,45.025 C50.2259,45.105 49.9949,45.346 49.7499,45.36 C49.1239,45.396 48.5289,44.754 48.5479,44.155 C48.5609,43.695 48.9439,43.331 49.3879,43.356 C49.8449,43.381 50.3879,44.184 50.3639,45.025" id="Fill-197" fill="#B02524"></path>
                <path d="M41.5299,39.0533 C41.2069,39.0383 40.8709,38.9983 40.5379,39.0143 C40.0019,39.0413 39.6649,38.7943 39.6459,38.3163 C39.6269,37.8193 40.1639,37.2203 40.6549,37.2253 C41.1619,37.2303 41.3749,37.4953 41.3669,38.0143 C41.3619,38.3673 41.4739,38.7213 41.5299,39.0533" id="Fill-199" fill="#B02524"></path>
                <path d="M58.3395,34.2784 C58.3705,34.5894 58.7305,35.2254 57.8195,35.2404 C57.3135,35.2484 56.7155,34.5284 56.7935,34.0214 C56.8665,33.5454 57.1415,33.1744 57.6445,33.2224 C58.1095,33.2684 58.4615,33.5474 58.3395,34.2784" id="Fill-201" fill="#B02524"></path>
                <path d="M37.9869,39.0338 C37.9519,39.3978 37.8239,39.8038 37.2739,39.8438 C36.7679,39.8808 36.4009,39.4838 36.3949,38.9398 C36.3889,38.4218 36.8029,37.8008 37.1589,37.7938 C37.6049,37.7848 37.9909,38.3168 37.9869,39.0338" id="Fill-203" fill="#B02524"></path>
                <path d="M44.1344,40.4908 C43.9664,40.2688 43.8394,40.0958 43.7074,39.9278 C43.3764,39.5048 43.4434,39.1328 43.8584,38.8158 C44.1864,38.5658 45.1284,38.6458 45.2754,38.9778 C45.3534,39.1558 45.2314,39.4238 45.1904,39.6488 C45.1844,39.6798 45.1234,39.6998 45.0894,39.7268 C44.7864,39.9688 44.4844,40.2118 44.1344,40.4908" id="Fill-205" fill="#B02524"></path>
                <path d="M41.0231,61.0865 C40.5031,60.6335 40.0461,60.2885 40.3591,59.6455 C40.4671,59.4205 40.6861,59.0245 40.7601,59.0455 C41.1271,59.1485 41.5101,59.3125 41.7871,59.5655 C41.9001,59.6705 41.8321,60.0925 41.7171,60.2985 C41.5561,60.5885 41.2741,60.8115 41.0231,61.0865" id="Fill-207" fill="#B02524"></path>
                <path d="M52.0914,56.1216 C51.9894,56.6486 51.9454,57.0796 51.8114,57.4796 C51.7504,57.6596 51.5144,57.8836 51.3464,57.8936 C51.1644,57.9046 50.8604,57.7286 50.8014,57.5656 C50.6594,57.1676 50.6084,56.7316 50.5714,56.3066 C50.5654,56.2246 50.7944,56.0486 50.9184,56.0446 C51.2784,56.0326 51.6404,56.0866 52.0914,56.1216" id="Fill-209" fill="#B02524"></path>
                <path d="M41.5826,47.1685 C40.6426,46.4855 40.4726,46.1035 40.8566,45.6065 C41.3236,45.0055 41.6666,45.0225 42.5076,45.7215 C42.2016,46.1995 41.8936,46.6825 41.5826,47.1685" id="Fill-211" fill="#B02524"></path>
                <path d="M43.9283,49.8096 C43.7833,50.3106 43.6513,50.6336 43.1573,50.7066 C42.6543,50.7816 42.5923,50.4096 42.5073,50.0826 C42.4463,49.8506 42.3353,49.5166 42.4423,49.3806 C42.6563,49.1086 43.0023,48.9416 43.2953,48.7316 L43.9283,49.8096 Z" id="Fill-213" fill="#B02524"></path>
                <path d="M26.4635,33.9742 C26.1885,33.9252 25.9055,33.9012 25.6395,33.8232 C24.8995,33.6042 24.7335,33.1732 25.1095,32.4982 C25.4455,31.8922 25.7685,31.2792 26.1245,30.6852 C26.4345,30.1712 26.6515,29.6872 26.3695,29.0622 C26.1865,28.6562 26.4465,28.3552 26.8655,28.2382 C27.3315,28.1082 28.1355,28.4442 28.2965,28.9022 C28.7225,30.1132 29.0325,31.3272 28.4405,32.6012 C27.9535,33.6462 27.5825,33.9442 26.4635,33.9742" id="Fill-215" fill="#B02524"></path>
                <path d="M18.8766,10.1568 C19.6326,10.3728 20.0466,10.8818 19.8876,11.3598 C19.6186,12.1678 19.0516,11.7718 18.4616,11.6538 C18.6006,11.1548 18.7326,10.6758 18.8766,10.1568" id="Fill-217" fill="#B02524"></path>
            </g>
        </g>
    </g>
</svg>