<?xml version="1.0" encoding="UTF-8"?>
<svg width="113px" height="64px" viewBox="0 0 113 64" version="1.1" xmlns="http://www.w3.org/2000/svg" xmlns:xlink="http://www.w3.org/1999/xlink">
    <!-- Generator: Sketch 64 (93537) - https://sketch.com -->
    <title>Group 151</title>
    <desc>Created with Sketch.</desc>
    <defs>
        <polygon id="path-1" points="0.000407021078 0.46 112.045745 0.46 112.045745 64 0.000407021078 64"></polygon>
        <polygon id="path-3" points="0.000407021078 0.46 112.045745 0.46 112.045745 64 0.000407021078 64"></polygon>
    </defs>
    <g id="Page-1" stroke="none" stroke-width="1" fill="none" fill-rule="evenodd">
        <g id="illustration" transform="translate(-139.000000, -208.000000)">
            <g id="Group-151" transform="translate(139.000000, 207.000000)">
                <g id="Group-3" transform="translate(0.000000, 0.540500)">
                    <mask id="mask-2" fill="white">
                        <use xlink:href="#path-1"></use>
                    </mask>
                    <g id="Clip-2"></g>
                    <path d="M77.8602,2.4774 C77.4272,2.2864 76.9072,2.0254 76.3632,1.8234 C75.2562,1.4114 74.1912,1.4474 73.1312,2.0664 C72.7262,2.3034 72.1892,2.3834 71.7052,2.4094 C70.8672,2.4514 70.0242,2.3604 69.1872,2.3864 C65.5872,2.4944 61.9882,2.6684 58.3872,2.7304 C56.0302,2.7714 53.6692,2.6114 51.3102,2.6424 C50.1972,2.6564 49.1282,2.7294 48.1762,2.0194 C47.9982,1.8874 47.7512,1.8284 47.5252,1.7754 C44.0182,0.9594 40.5742,0.8944 37.2792,2.6154 C36.8942,2.8154 36.5072,3.1074 36.0992,3.1514 C35.2742,3.2404 34.4332,3.1854 33.5992,3.1964 C31.2622,3.2274 28.9212,3.1774 26.5912,3.3124 C22.9992,3.5214 19.4112,3.8284 15.8272,4.1564 C14.6492,4.2654 13.4302,4.4164 12.3392,4.8284 C11.1072,5.2914 9.9412,5.9914 8.8482,6.7374 C7.7032,7.5204 6.4812,8.3274 5.6452,9.3954 C4.1012,11.3644 2.7592,13.4964 1.4522,15.6324 C0.9082,16.5204 0.4492,17.5674 0.3362,18.5854 C0.0892,20.7904 0.0812,23.0214 0.000407021078,25.2444 C-0.0108,25.5574 0.1162,25.8764 0.1922,26.1914 C0.4382,27.2024 0.7842,28.2004 0.9202,29.2244 C1.1542,30.9774 1.7392,32.5774 2.6082,34.1144 C3.7592,36.1514 4.8402,38.2284 5.9282,40.3004 C6.7422,41.8524 7.6172,43.3474 9.0932,44.3964 C9.2402,44.5004 9.3402,44.6704 9.4612,44.8114 C10.0902,45.5564 10.6882,46.3304 11.3542,47.0424 C14.0172,49.8944 16.8692,52.5524 19.8912,55.0294 C20.0702,55.1754 20.2702,55.3134 20.4832,55.3974 C22.9952,56.3944 25.5062,57.3954 28.0292,58.3654 C29.8772,59.0754 31.7922,59.6364 33.5842,60.4614 C34.8322,61.0354 36.0912,61.4334 37.4232,61.7084 C39.5692,62.1514 41.7622,62.4694 43.8322,63.1494 C47.1012,64.2234 50.3842,64.1074 53.7042,63.7384 C54.6492,63.6334 55.5672,63.3024 56.5092,63.1774 C58.1072,62.9624 59.7132,62.7624 61.3222,62.6754 C65.6362,62.4414 69.9202,62.0584 74.0632,60.7404 C74.3642,60.6444 74.7062,60.6894 75.0252,60.6444 C75.2012,60.6214 75.3752,60.5604 75.5412,60.4974 C75.9532,60.3404 76.3532,60.1494 76.7712,60.0184 C77.6612,59.7354 78.5662,59.5034 79.4532,59.2134 C80.8812,58.7454 82.2652,58.1684 83.2472,56.9764 C84.1912,55.8314 85.6282,55.4914 86.8312,54.7814 C87.5822,54.3364 88.5852,54.3294 89.4022,53.9654 C90.7142,53.3814 91.9252,52.5634 93.2552,52.0264 C95.3292,51.1864 96.9182,49.6394 98.7962,48.5214 C99.3572,48.1874 99.8702,47.7434 100.4682,47.5114 C102.0772,46.8894 103.2952,45.7354 104.5662,44.6684 C105.1922,44.1434 105.6562,43.4294 106.1942,42.8034 C106.4212,42.5414 106.6082,42.2144 106.8912,42.0384 C107.7832,41.4814 108.2892,40.6514 108.5352,39.7004 C108.9622,38.0554 109.2542,36.3774 109.6722,34.7314 C109.8342,34.1014 110.0852,33.5084 109.9692,32.8394 C109.9492,32.7184 110.0482,32.5774 110.0922,32.4464 C110.3352,31.7254 110.5902,31.0094 110.8122,30.2844 C111.0082,29.6454 111.6512,29.1774 111.5292,28.4174 C111.5232,28.3754 111.6162,28.3154 111.6682,28.2684 C112.1022,27.8644 112.0732,27.4404 111.7792,26.9574 C111.6702,26.7794 111.5892,26.4464 111.6822,26.3054 C112.2662,25.4274 112.0642,24.6034 111.6532,23.7394 C111.4562,23.3264 111.3952,22.8494 111.2422,22.4134 C111.1782,22.2334 111.0552,22.0574 110.9152,21.9244 C110.7352,21.7524 110.5112,21.6254 110.2542,21.4414 C110.8642,20.7234 110.6412,20.0074 110.3992,19.2544 C110.1102,18.3554 109.8392,17.4404 109.6862,16.5124 C109.3622,14.5354 108.7432,12.6874 107.3982,11.1634 C106.5482,10.1984 105.8612,9.0994 104.6512,8.4354 C103.5722,7.8444 102.7292,6.7624 101.6112,6.3314 C99.9202,5.6774 98.1632,5.2004 96.5722,4.2974 C96.4342,4.2174 96.2652,4.1834 96.1072,4.1464 C94.8792,3.8604 93.6632,3.4834 92.4182,3.3184 C90.6382,3.0814 88.8392,2.9794 87.0452,2.8644 C86.1732,2.8084 85.2952,2.8544 84.6092,2.8544 C83.5552,2.1044 82.6162,1.3524 81.5902,0.7404 C80.8382,0.2904 79.9612,0.4034 79.2712,0.9254 C78.7572,1.3154 78.3832,1.8874 77.8602,2.4774" id="Fill-1" fill="#FEFEFE" mask="url(#mask-2)"></path>
                </g>
                <g id="Group-6" transform="translate(0.000000, 0.540500)">
                    <mask id="mask-4" fill="white">
                        <use xlink:href="#path-3"></use>
                    </mask>
                    <g id="Clip-5"></g>
                    <path d="M77.8602,2.4774 C78.3832,1.8874 78.7572,1.3154 79.2712,0.9254 C79.9612,0.4034 80.8382,0.2904 81.5902,0.7404 C82.6162,1.3524 83.5552,2.1044 84.6092,2.8544 C85.2952,2.8544 86.1732,2.8084 87.0452,2.8644 C88.8392,2.9794 90.6382,3.0814 92.4182,3.3184 C93.6632,3.4834 94.8792,3.8604 96.1072,4.1464 C96.2652,4.1834 96.4342,4.2174 96.5722,4.2974 C98.1632,5.2004 99.9202,5.6774 101.6112,6.3314 C102.7292,6.7624 103.5722,7.8444 104.6512,8.4354 C105.8612,9.0994 106.5482,10.1984 107.3982,11.1634 C108.7432,12.6874 109.3622,14.5354 109.6862,16.5124 C109.8392,17.4404 110.1102,18.3554 110.3992,19.2544 C110.6412,20.0074 110.8642,20.7234 110.2542,21.4414 C110.5112,21.6254 110.7352,21.7524 110.9152,21.9244 C111.0552,22.0574 111.1782,22.2334 111.2422,22.4134 C111.3952,22.8494 111.4562,23.3264 111.6532,23.7394 C112.0642,24.6034 112.2662,25.4274 111.6822,26.3054 C111.5892,26.4464 111.6702,26.7794 111.7792,26.9574 C112.0732,27.4404 112.1022,27.8644 111.6682,28.2684 C111.6162,28.3154 111.5232,28.3754 111.5292,28.4174 C111.6512,29.1774 111.0082,29.6454 110.8122,30.2844 C110.5902,31.0094 110.3352,31.7254 110.0922,32.4464 C110.0482,32.5774 109.9492,32.7184 109.9692,32.8394 C110.0852,33.5084 109.8342,34.1014 109.6722,34.7314 C109.2542,36.3774 108.9622,38.0554 108.5352,39.7004 C108.2892,40.6514 107.7832,41.4814 106.8912,42.0384 C106.6082,42.2144 106.4212,42.5414 106.1942,42.8034 C105.6562,43.4294 105.1922,44.1434 104.5662,44.6684 C103.2952,45.7354 102.0772,46.8894 100.4682,47.5114 C99.8702,47.7434 99.3572,48.1874 98.7962,48.5214 C96.9182,49.6394 95.3292,51.1864 93.2552,52.0264 C91.9252,52.5634 90.7142,53.3814 89.4022,53.9654 C88.5852,54.3294 87.5822,54.3364 86.8312,54.7814 C85.6282,55.4914 84.1912,55.8314 83.2472,56.9764 C82.2652,58.1684 80.8812,58.7454 79.4532,59.2134 C78.5662,59.5034 77.6612,59.7354 76.7712,60.0184 C76.3532,60.1494 75.9532,60.3404 75.5412,60.4974 C75.3752,60.5604 75.2012,60.6214 75.0252,60.6444 C74.7062,60.6894 74.3642,60.6444 74.0632,60.7404 C69.9202,62.0584 65.6362,62.4414 61.3222,62.6754 C59.7132,62.7624 58.1072,62.9624 56.5092,63.1774 C55.5672,63.3024 54.6492,63.6334 53.7042,63.7384 C50.3842,64.1074 47.1012,64.2234 43.8322,63.1494 C41.7622,62.4694 39.5692,62.1514 37.4232,61.7084 C36.0912,61.4334 34.8322,61.0354 33.5842,60.4614 C31.7922,59.6364 29.8772,59.0754 28.0292,58.3654 C25.5062,57.3954 22.9952,56.3944 20.4832,55.3974 C20.2702,55.3134 20.0702,55.1754 19.8912,55.0294 C16.8692,52.5524 14.0172,49.8944 11.3542,47.0424 C10.6882,46.3304 10.0902,45.5564 9.4612,44.8114 C9.3402,44.6704 9.2402,44.5004 9.0932,44.3964 C7.6172,43.3474 6.7422,41.8524 5.9282,40.3004 C4.8402,38.2284 3.7592,36.1514 2.6082,34.1144 C1.7392,32.5774 1.1542,30.9774 0.9202,29.2244 C0.7842,28.2004 0.4382,27.2024 0.1922,26.1914 C0.1162,25.8764 -0.0108,25.5574 0.000407021078,25.2444 C0.0812,23.0214 0.0892,20.7904 0.3362,18.5854 C0.4492,17.5674 0.9082,16.5204 1.4522,15.6324 C2.7592,13.4964 4.1012,11.3644 5.6452,9.3954 C6.4812,8.3274 7.7032,7.5204 8.8482,6.7374 C9.9412,5.9914 11.1072,5.2914 12.3392,4.8284 C13.4302,4.4164 14.6492,4.2654 15.8272,4.1564 C19.4112,3.8284 22.9992,3.5214 26.5912,3.3124 C28.9212,3.1774 31.2622,3.2274 33.5992,3.1964 C34.4332,3.1854 35.2742,3.2404 36.0992,3.1514 C36.5072,3.1074 36.8942,2.8154 37.2792,2.6154 C40.5742,0.8944 44.0182,0.9594 47.5252,1.7754 C47.7512,1.8284 47.9982,1.8874 48.1762,2.0194 C49.1282,2.7294 50.1972,2.6564 51.3102,2.6424 C53.6692,2.6114 56.0302,2.7714 58.3872,2.7304 C61.9882,2.6684 65.5872,2.4944 69.1872,2.3864 C70.0242,2.3604 70.8672,2.4514 71.7052,2.4094 C72.1892,2.3834 72.7262,2.3034 73.1312,2.0664 C74.1912,1.4474 75.2562,1.4114 76.3632,1.8234 C76.9072,2.0254 77.4272,2.2864 77.8602,2.4774 L77.8602,2.4774 Z M63.4032,18.4964 C60.2682,17.9834 57.2792,17.9374 54.2892,18.3954 C54.2072,18.4064 54.1182,18.4614 54.0602,18.5214 C53.3462,19.2624 52.9422,20.2844 51.9452,20.7674 C51.8862,20.7964 51.8722,20.9334 51.8532,21.0234 C51.7502,21.5344 51.3792,21.6824 50.9162,21.8214 C49.8742,22.1344 48.8422,22.4924 47.8322,22.8914 C47.1812,23.1474 46.5942,23.1454 45.9352,22.9064 C45.2482,22.6574 44.5152,22.4264 43.7932,22.3944 C42.3932,22.3334 41.5012,21.7304 40.9022,20.4764 C40.6452,19.9364 40.0642,19.5434 39.6152,19.1004 C39.4042,18.8924 39.0502,18.7694 38.9452,18.5284 C38.7092,17.9854 38.4132,18.1064 38.0032,18.2744 C37.4702,18.4934 36.9202,18.7104 36.3562,18.8034 C34.9042,19.0404 33.4462,19.2504 31.9822,19.3944 C30.6412,19.5284 29.2912,19.5814 27.9432,19.6334 C26.4142,19.6914 24.8422,19.5114 23.3672,19.8094 C22.2622,20.0314 21.2802,20.8464 20.2462,21.4024 C20.1902,21.4334 20.1332,21.5054 20.1222,21.5654 C19.9472,22.4974 19.2052,22.5704 18.4692,22.6214 C17.1642,22.7114 15.9592,23.0794 14.8222,23.7314 C14.5572,23.8834 14.1292,23.9224 13.8332,23.8314 C12.4292,23.4024 11.0492,22.9004 9.6522,22.4504 C9.4642,22.3914 9.1722,22.4114 9.0182,22.5194 C7.7932,23.3754 6.8672,24.4844 6.2302,25.9144 C6.5782,26.0494 6.8892,26.1964 7.2162,26.2954 C9.2682,26.9134 11.3132,27.5554 13.3832,28.1074 C13.8692,28.2364 14.1622,28.3784 14.3522,28.8424 C14.8782,30.1244 15.4042,31.4094 16.0082,32.6564 C16.5192,33.7094 16.4062,34.2004 15.3962,34.8574 C14.9782,35.1294 14.6112,35.4944 14.2632,35.8564 C13.8502,36.2884 13.5152,36.7984 13.0882,37.2134 C12.2922,37.9854 11.4532,38.7124 10.5332,39.5464 C10.9332,40.2804 11.3632,41.0664 11.8372,41.9334 C12.3502,40.7624 12.7912,40.5454 13.7792,40.8754 C14.6542,41.1674 15.1732,41.8814 15.0172,42.5744 C14.8462,43.3334 14.2012,43.5204 12.5782,43.2424 C13.6502,45.0924 14.7192,46.8634 16.2162,48.5004 C16.4182,46.8714 16.4222,46.8774 17.7832,46.0554 C18.1802,45.8144 18.5462,45.5204 18.9332,45.2624 C19.5722,44.8374 20.2182,44.4234 20.8592,43.9994 C21.3222,43.6944 21.7522,43.3204 22.2512,43.0914 C22.6362,42.9144 23.1602,42.7484 23.5292,42.8644 C25.6342,43.5234 27.7192,44.2534 29.7942,45.0044 C30.1272,45.1244 30.5642,45.4384 30.6262,45.7304 C30.7812,46.4564 30.8332,47.2274 30.7652,47.9664 C30.6882,48.8174 30.5262,49.6274 30.8162,50.4954 C30.9692,50.9524 30.7782,51.5224 30.7312,52.0394 C30.7142,52.2344 30.6042,52.4404 30.6442,52.6184 C30.8722,53.6474 30.7622,53.7844 29.8512,54.3224 C28.7822,54.9554 27.7762,55.6874 26.7422,56.3764 C26.7522,56.4564 26.7632,56.5364 26.7732,56.6164 C28.3882,57.1434 30.0082,57.6554 31.6152,58.2054 C32.2282,58.4154 32.8132,58.7074 33.4042,58.9784 C34.0552,59.2764 34.6682,59.7044 35.3492,59.8804 C38.3532,60.6594 41.3752,61.3764 44.3942,62.0944 C45.4582,62.3484 46.5272,62.6904 47.6062,62.7374 C49.3862,62.8154 51.1762,62.8734 52.9582,62.5454 C54.6052,62.2434 56.2712,62.0404 57.9282,61.7844 C58.0812,61.7604 58.2222,61.6644 58.3542,61.6084 C58.2672,60.4934 58.1952,59.4124 58.0902,58.3344 C57.9882,57.2594 58.3432,56.6304 59.2982,56.1404 C60.9342,55.2994 62.5622,54.4394 64.1802,53.5664 C64.7602,53.2534 65.4322,53.0604 65.7602,52.3744 C65.8322,52.2234 66.2222,52.1214 66.4412,52.1574 C67.0242,52.2504 67.8462,52.0574 67.8342,53.0784 C67.8332,53.1704 68.0222,53.2684 68.1292,53.3574 C68.7892,53.9114 69.4112,54.5224 70.1242,55.0004 C71.3002,55.7904 72.1902,56.9914 73.6332,57.4114 C73.7472,57.4434 73.8582,57.7634 73.8322,57.9264 C73.7762,58.2644 73.6172,58.5814 73.5142,58.9114 C73.4332,59.1754 73.3722,59.4434 73.2722,59.8184 C75.0242,59.3474 76.6192,58.9144 78.2152,58.4884 C79.7392,58.0814 81.0522,57.3344 82.1522,56.2004 C82.6642,55.6734 83.2512,55.2174 83.9542,54.5964 C83.6982,53.5674 83.4412,52.3584 83.0922,51.1774 C82.8252,50.2694 82.9532,49.9024 83.8162,49.4364 C84.9222,48.8384 86.0172,48.2154 87.0992,47.5744 C88.0222,47.0284 88.8822,46.3654 89.8422,45.8994 C90.4132,45.6224 91.2252,45.3534 91.7532,45.5484 C93.5742,46.2224 95.3162,47.1034 97.1332,47.9244 C97.7602,47.5464 98.4652,47.0324 99.2422,46.6694 C101.5572,45.5904 103.4012,43.9424 105.0532,42.0604 C105.7772,41.2374 105.7462,41.2134 104.9582,40.4544 C104.5162,40.0294 104.2392,39.6004 104.5332,38.9244 C105.1392,37.5294 105.7592,36.1284 106.2112,34.6824 C106.7132,33.0694 106.8412,32.8814 108.5262,32.9144 C108.5892,32.7324 108.6692,32.5414 108.7222,32.3434 C109.1562,30.7404 109.5982,29.1404 110.0062,27.5324 C110.1952,26.7894 109.9772,26.0934 109.5202,25.5014 C108.9662,24.7864 108.3722,24.0994 107.7612,23.4284 C107.6452,23.2994 107.3032,23.1954 107.1862,23.2694 C106.3852,23.7784 105.5222,24.2474 104.8642,24.9074 C104.1832,25.5894 103.5772,25.5374 102.7832,25.2544 C101.8462,24.9224 100.8712,24.7014 99.9092,24.4434 C99.4812,24.3294 99.0452,24.2524 98.6162,24.1444 C97.5822,23.8824 96.5392,23.6494 95.5242,23.3274 C95.0352,23.1724 94.4482,22.9524 94.1782,22.5704 C93.6732,21.8624 93.3672,21.0144 92.9692,20.2054 L90.9792,20.2054 C91.0212,20.3554 91.0382,20.4414 91.0682,20.5224 C91.5572,21.8024 91.1282,22.3614 89.7482,22.2384 C89.6312,22.2284 89.4992,22.2614 89.4012,22.2164 C88.9372,21.9994 88.3352,21.8614 88.0832,21.4934 C87.9412,21.2884 88.3852,20.6884 88.5632,20.2674 C88.5782,20.2314 88.5712,20.1884 88.5892,19.9624 C87.7752,19.9624 86.9742,20.0114 86.1822,19.9504 C85.2052,19.8754 84.2312,19.7264 83.2622,19.5764 C82.7602,19.4984 82.3562,19.4674 82.1992,20.1014 C82.1362,20.3504 81.9222,20.5904 81.7222,20.7754 C81.0532,21.3914 80.4622,22.0284 80.5822,23.0334 C80.5942,23.1364 80.5422,23.2834 80.4642,23.3514 C79.8152,23.9254 79.7582,24.7264 79.5892,25.4904 C79.4502,26.1254 79.0492,26.4574 78.3792,26.5594 C77.6422,26.6684 76.9202,26.8704 76.1952,27.0444 C74.6542,27.4134 73.1172,27.7964 71.5742,28.1594 C70.9332,28.3094 70.4102,28.1904 70.0032,27.5754 C69.7292,27.1604 69.3202,26.8074 68.9082,26.5124 C66.9392,25.1004 64.9672,23.6904 62.9592,22.3344 C61.4632,21.3274 61.4352,21.3524 62.4442,19.8944 C62.7622,19.4344 63.0782,18.9724 63.4032,18.4964 L63.4032,18.4964 Z M33.4772,8.4654 L33.6472,8.2674 C32.8672,7.5614 32.1192,6.8124 31.2892,6.1684 C30.9472,5.90431223 30.3782,5.7304 30.0112,6.1864 C29.6722,6.6114 29.3192,7.0984 29.2032,7.6084 C29.0322,8.3534 28.5762,8.5784 27.9252,8.6644 C27.3222,8.7444 27.0792,8.3354 26.7972,7.9114 C26.4832,7.4354 26.1602,6.9164 25.7142,6.5814 C24.7532,5.8614 23.6832,5.9854 22.6722,6.5184 C21.7592,7.0004 21.6492,7.7944 21.8472,8.7314 C21.8952,8.9534 21.6512,9.3514 21.4292,9.4894 C20.7612,9.9004 20.2012,9.6384 19.9192,8.8634 C19.5202,7.7644 18.3902,7.1004 17.3922,7.4774 C16.1492,7.9454 15.6592,9.1234 15.1792,10.1944 C14.4852,11.7484 14.6722,13.4674 14.5192,15.1194 C14.4722,15.6234 14.7602,15.8584 15.2422,15.8214 C17.3552,15.6664 19.4362,15.9914 21.5312,16.1734 C22.7642,16.2814 24.0212,16.1234 25.4522,16.0784 C24.5232,15.1954 24.3962,14.6924 24.8512,14.1024 C25.1732,13.6884 25.6012,13.4564 26.1382,13.6874 C26.6432,13.9044 26.7572,14.6544 26.4412,15.6754 C27.1472,15.5754 27.8282,15.4794 28.4492,15.3924 C28.3582,14.7104 28.2072,14.0944 28.2242,13.4834 C28.2332,13.1674 28.4632,12.7354 28.7292,12.5724 C29.9512,11.8244 31.1322,10.9804 32.6892,10.9704 C33.6612,10.9644 34.6312,10.7724 35.6052,10.6874 C36.0152,10.6524 36.4322,10.6894 36.8442,10.6684 C37.8662,10.6184 38.8852,10.5364 39.9092,10.4984 C40.6972,10.4714 41.4882,10.4944 42.4062,10.4944 C42.2312,10.0704 42.1992,9.7234 42.0092,9.5904 C41.6522,9.3364 41.2182,9.1544 40.7902,9.0614 C40.6712,9.0364 40.4222,9.4124 40.2972,9.6384 C39.9252,10.3114 38.8722,10.4334 38.4152,9.8224 C38.1932,9.5254 38.0422,9.1764 37.8102,8.8884 C37.5272,8.5374 37.2412,8.1534 36.8702,7.9144 C36.2872,7.5394 35.8752,7.7694 35.6572,8.4274 C35.5622,8.7174 35.4202,9.0764 35.1852,9.2174 C34.8702,9.4094 34.4432,9.4234 34.0362,9.5194 C34.1232,10.0584 34.1572,10.6104 33.3682,10.6614 C32.7392,10.7034 32.1732,10.1004 32.1472,9.3894 C32.1242,8.7424 32.4792,8.4954 33.4772,8.4654 L33.4772,8.4654 Z M94.1722,10.6944 C94.2582,10.6554 94.3422,10.6154 94.4292,10.5764 C94.2222,9.7904 94.0602,8.9894 93.8002,8.2224 C93.5032,7.3424 92.0192,6.8744 91.1992,7.3284 C90.7902,7.5554 90.3482,7.7264 89.7362,8.0074 C89.7512,8.2294 89.7422,8.6194 89.8062,8.9984 C89.8802,9.4304 89.7772,9.7234 89.3412,9.8704 C88.7162,10.0814 88.0772,9.7614 87.8942,9.1444 C87.6062,8.1694 87.9932,7.5864 89.2422,7.2334 C88.9542,6.1144 88.4072,5.2024 87.3342,4.6714 C86.4642,4.2424 86.2292,4.3324 85.7792,5.1674 C85.1232,6.3854 84.1972,6.4654 83.3942,5.3494 C82.8942,5.6644 82.4172,5.6884 82.0852,5.1224 C81.9252,4.8494 81.7092,4.5194 81.7472,4.2444 C81.8062,3.8034 82.0552,3.3874 82.2552,2.8854 C82.0032,2.6914 81.6922,2.4054 81.3382,2.1924 C80.6112,1.7554 80.0062,1.9474 79.7122,2.7234 C79.5682,3.1034 79.5012,3.5224 79.4682,3.9294 C79.4092,4.6634 78.8472,4.8314 78.2992,4.9014 C78.0272,4.9354 77.6642,4.7354 77.4362,4.5364 C77.0902,4.2324 76.8812,3.7634 76.5182,3.4954 C75.6862,2.8844 74.7302,2.8994 74.0492,3.4374 C73.1822,4.1244 73.1312,4.4084 73.6662,5.7774 C73.9182,5.7324 74.1812,5.6854 74.4552,5.6384 C74.3682,4.9474 74.6712,4.5234 75.2482,4.3694 C75.4932,4.3034 75.9062,4.3734 76.0552,4.5414 C76.5542,5.1054 76.4782,5.7484 76.0522,6.3364 C76.1322,6.3924 76.1672,6.4324 76.2092,6.4424 C76.3222,6.4714 76.4352,6.4944 76.5522,6.5084 C77.8652,6.6644 78.8662,7.2804 79.5752,8.4054 C79.7862,8.7444 80.1632,8.9784 80.4492,9.2734 C80.5682,9.3954 80.7182,9.5434 80.7382,9.6934 C80.8062,10.2394 80.8252,10.7914 80.8662,11.4024 C84.9662,11.1404 88.9332,10.8864 92.8982,10.6334 C91.8322,9.8614 91.3912,9.1494 91.7452,8.6464 C91.9702,8.3274 92.8072,8.1564 93.0802,8.4434 C93.4062,8.7904 93.7332,9.1964 93.8722,9.6344 C93.9442,9.8644 93.6142,10.2194 93.4522,10.5454 C93.6812,10.5924 93.9272,10.6434 94.1722,10.6944 L94.1722,10.6944 Z M107.9012,21.6684 C107.9962,21.5724 108.0912,21.4744 108.1862,21.3784 C107.8372,21.1454 107.5072,20.8764 107.1352,20.6824 C105.7752,19.9754 104.4582,19.1284 103.0202,18.6334 C99.3422,17.3654 95.4652,17.6334 91.6532,17.4424 C91.5612,17.4374 91.4682,17.4854 91.3772,17.4894 C90.6572,17.5194 89.9352,17.5944 89.2182,17.5624 C87.4992,17.4874 85.7832,17.3294 84.0632,17.2634 C82.1512,17.1904 80.2352,17.2034 78.3212,17.1384 C75.9162,17.0554 73.5122,16.8994 71.1052,16.8414 C69.6352,16.8054 68.1282,17.0954 66.6992,16.8644 C65.2292,16.6264 63.7812,17.0264 62.3112,16.6504 C61.0152,16.3194 59.6302,16.3204 58.2802,16.2204 C55.5512,16.0194 52.8222,15.8224 50.0892,15.6734 C47.9052,15.5524 45.7302,15.6374 43.5542,16.3224 C44.3222,16.3674 45.0272,16.3654 45.7172,16.4574 C49.5892,16.9744 53.4372,17.4934 57.3792,16.9674 C59.2532,16.7174 61.2032,16.9524 63.1142,17.0574 C66.3582,17.2344 69.5982,17.4824 72.8412,17.7034 C74.2612,17.7994 75.6792,17.9124 77.0992,17.9934 C78.0012,18.0444 78.9052,18.0304 79.8062,18.0844 C80.3862,18.1204 80.9632,18.2494 81.5432,18.2954 C83.8732,18.4774 86.2082,18.6284 88.5372,18.8214 C90.4982,18.9814 92.4462,19.1194 94.4102,18.7654 C95.5072,18.5684 96.6482,18.4324 97.7562,18.4954 C101.3962,18.7034 104.8552,19.5574 107.9012,21.6684 L107.9012,21.6684 Z M12.4852,45.9904 C12.5262,45.9614 12.5682,45.9334 12.6082,45.9044 C12.5762,45.8284 12.5522,45.7464 12.5102,45.6764 C11.7052,44.3254 10.8832,42.9834 10.0942,41.6224 C9.6312,40.8284 9.2232,40.0014 8.7812,39.1944 C7.9362,37.6504 7.0652,36.1204 6.2512,34.5614 C6.0672,34.2094 5.9612,33.7484 6.0062,33.3604 C6.1152,32.4154 5.7612,31.6034 5.4992,30.7364 C5.1892,29.7114 5.0662,28.6324 4.8632,27.5764 C4.8202,27.3574 4.7642,27.1384 4.7532,26.9164 C4.7272,26.4484 4.5942,25.9334 4.7402,25.5174 C5.3312,23.8324 6.6052,22.5844 8.0052,21.6344 C9.6492,20.5184 11.5232,19.7244 13.3312,18.8564 C15.0862,18.0154 16.8972,17.8604 18.7712,18.5674 C19.2412,18.7454 19.8222,18.7004 20.3432,18.6604 C20.9642,18.6114 21.5722,18.3974 22.1912,18.3594 C25.9942,18.1324 29.8022,17.9804 33.6012,17.7064 C35.2322,17.5864 36.8472,17.2314 38.4672,16.9834 C38.4592,16.8974 38.4492,16.8114 38.4382,16.7254 C38.1902,16.7254 37.9402,16.7234 37.6922,16.7254 C35.4732,16.7374 33.2552,16.7284 31.0352,16.7734 C29.7822,16.7984 28.5242,16.8644 27.2782,16.9994 C25.8442,17.1574 24.4252,17.4284 22.9962,17.6104 C22.5602,17.6664 22.1092,17.6004 21.6662,17.5804 C19.9882,17.5004 18.3042,17.3034 16.6332,17.3654 C14.7152,17.4354 12.8412,17.8364 11.1422,18.8264 C9.9552,19.5174 8.7802,20.2584 7.5202,20.7904 C5.6332,21.5874 4.3022,22.7024 3.9252,24.8354 C3.7062,26.0674 3.4962,27.2544 3.9182,28.4544 C4.2922,29.5204 4.7542,30.5574 5.1222,31.6264 C5.2752,32.0714 5.4162,32.5904 5.3302,33.0314 C5.0892,34.2484 5.3552,35.3254 5.9872,36.3494 C7.4612,38.7384 8.9032,41.1474 10.4312,43.5014 C11.0112,44.3974 11.7952,45.1644 12.4852,45.9904 L12.4852,45.9904 Z M66.5492,15.3474 C66.6042,14.5224 66.7362,13.7204 66.6902,12.9274 C66.6312,11.8564 66.9202,10.9084 67.6762,10.2074 C68.5032,9.4424 69.4472,8.7844 70.4022,8.1784 C70.6342,8.0314 71.1862,8.1694 71.4592,8.3614 C71.6652,8.5074 71.7102,8.9404 71.7382,9.2534 C71.7722,9.6364 71.7162,10.0264 71.6932,10.4114 C71.6662,10.8894 71.6532,11.3694 71.5962,11.8434 C71.4522,13.0514 71.2862,14.2574 71.1222,15.5114 C71.4752,15.5464 71.7392,15.5714 72.0062,15.5984 C72.3032,13.9744 72.5822,12.4104 72.8882,10.8524 C72.9232,10.6724 73.0892,10.4834 73.2452,10.3684 C74.0242,9.7904 74.7942,9.7624 75.4432,10.4874 C76.3842,11.5374 77.2382,12.6734 78.0452,13.8304 C78.3002,14.1954 78.3492,14.7414 78.3812,15.2114 C78.4022,15.5474 78.3712,15.8964 78.7972,15.7844 C79.1022,15.7064 79.5652,15.3964 79.5732,15.1764 C79.6132,14.1764 79.6162,13.1534 79.4442,12.1704 C79.1942,10.7424 78.6202,9.3404 77.3512,8.5604 C74.3612,6.7214 71.2442,6.9604 68.2352,8.5394 C67.3142,9.0234 66.6362,9.9414 65.7722,10.5574 C64.4922,11.4694 64.4802,12.8564 64.3382,14.1564 C64.2202,15.2094 64.4552,15.3454 65.5302,15.3474 C65.9002,15.3494 66.2712,15.3474 66.5492,15.3474 L66.5492,15.3474 Z M50.0212,10.2604 C50.4042,10.3384 50.7932,10.4234 50.9212,9.7604 C51.4292,7.1344 49.5762,3.9474 47.0192,3.1964 C44.2922,2.3944 41.5742,2.3854 38.9392,3.5654 C37.9172,4.0244 37.2042,4.8194 36.7482,5.8614 C37.1262,6.0554 37.4272,6.2094 37.7592,6.3794 C37.9812,6.0684 38.1942,5.7954 38.3812,5.5044 C39.2792,4.1174 40.6172,3.3554 42.1832,2.9794 C42.6142,2.8754 43.3292,2.8674 43.5212,3.1144 C43.7722,3.4394 43.6482,4.0594 43.6562,4.5534 C43.6572,4.6774 43.5252,4.7964 43.4872,4.9284 C43.0942,6.2724 41.8882,7.6144 43.4652,8.9774 C43.5892,9.0844 43.6402,9.2764 43.7252,9.4284 C43.7902,9.4284 43.8552,9.4274 43.9202,9.4274 C44.1212,7.9054 44.3212,6.3814 44.5302,4.8594 C44.5512,4.7064 44.5892,4.5334 44.6812,4.4144 C45.0982,3.8854 46.5472,3.6314 47.0582,4.1024 C47.9912,4.9594 48.8382,5.9104 49.7072,6.8344 C49.8072,6.9404 49.8642,7.1194 49.8742,7.2694 C49.9322,8.2334 49.9712,9.2004 50.0212,10.2604 L50.0212,10.2604 Z M51.2222,4.2404 C51.7062,5.0284 52.2552,5.4704 53.1652,5.2514 C53.4352,5.1864 53.7222,5.1854 54.0022,5.1794 C59.0052,5.0474 64.0072,4.9244 69.0102,4.7854 C69.7342,4.7654 70.4542,4.6594 71.1772,4.6104 C71.6352,4.5784 71.7842,4.3494 71.7052,3.9334 C69.9002,3.5834 68.1202,3.6374 66.3172,3.7474 C63.1442,3.9394 59.9642,4.0034 56.7872,4.0904 C55.2692,4.1314 53.7502,4.0954 52.2312,4.1104 C51.9152,4.1144 51.5992,4.1894 51.2222,4.2404 L51.2222,4.2404 Z M104.2182,12.0654 C101.8142,9.2974 98.8112,7.6354 95.0452,7.1644 C95.2072,7.7274 95.2232,8.3044 95.5122,8.6754 C96.0472,9.3654 96.2792,10.0614 96.0482,10.9344 C97.4862,10.9344 98.8802,10.7884 100.2282,10.9744 C101.5652,11.1594 102.8552,11.6794 104.2182,12.0654 L104.2182,12.0654 Z M22.6162,4.9294 C21.6702,4.9774 20.6282,5.0274 19.5872,5.0844 C19.4022,5.0944 19.2152,5.1244 19.0322,5.1504 C18.1562,5.2744 17.2772,5.3784 16.4052,5.5294 C15.4442,5.6954 14.4612,5.8194 13.5412,6.1224 C12.6882,6.4004 11.8882,6.8604 11.0962,7.2954 C9.4652,8.1904 7.7622,9.0124 6.6882,10.6224 C5.5182,12.3724 4.3572,14.1284 3.2512,15.9174 C2.8412,16.5794 2.5432,17.3244 2.2982,18.0654 C2.1222,18.6024 2.1182,19.1944 2.0182,19.9074 C3.2112,18.5254 3.0322,16.6984 4.2302,15.5244 C4.2742,15.4814 4.2582,15.3864 4.2902,15.3274 C4.5812,14.7814 4.8212,14.2004 5.1782,13.7014 C6.0422,12.5014 6.9572,11.3374 7.8572,10.1634 C8.0102,9.9614 8.1572,9.7064 8.3702,9.6024 C9.9562,8.8334 11.5502,8.0824 13.1572,7.3584 C13.8692,7.0384 14.6452,6.8524 15.3372,6.4984 C16.1402,6.0874 16.9252,5.7514 17.8602,5.8084 C19.5522,5.9064 21.2182,5.8044 22.6162,4.9294 L22.6162,4.9294 Z M95.1152,16.2564 C94.8432,15.8284 94.4272,15.4704 94.4562,15.1524 C94.5072,14.5624 94.9642,14.1364 95.5892,13.9724 C95.6112,13.9664 95.6322,13.9594 95.6562,13.9534 C96.3552,13.7734 97.0522,13.5804 97.7562,13.4174 C100.0472,12.8874 102.1032,13.3404 103.8902,14.8854 C104.2342,15.1844 104.5812,15.4794 105.0272,15.8604 C104.7452,14.4874 103.7702,13.8784 102.8032,13.3144 C101.8592,12.7664 100.8252,12.5334 99.6982,12.4434 C98.1982,12.3214 96.7722,12.3224 95.3202,12.7904 C94.1202,13.1764 93.1432,13.8444 92.2792,14.6944 C91.9362,15.0324 91.7522,15.5274 91.4292,16.0584 C92.7802,16.1304 93.9582,16.1944 95.1152,16.2564 L95.1152,16.2564 Z M13.7872,8.7074 C13.7352,8.7074 13.6002,8.6674 13.5132,8.7134 C12.1222,9.4464 10.7352,10.1884 9.3532,10.9354 C9.2772,10.9754 9.1932,11.0714 9.1832,11.1504 C9.0592,12.1404 8.2272,12.6374 7.6632,13.3214 C7.5442,13.4654 7.4482,13.6304 7.3212,13.8164 C9.1212,13.5724 10.8502,13.3384 12.4492,13.1224 C12.9042,11.6184 13.3432,10.1704 13.7872,8.7074 L13.7872,8.7074 Z M55.1842,14.6364 C56.1332,14.7174 57.2262,14.8104 58.3292,14.9044 C58.2982,14.6684 58.2802,14.4844 58.2512,14.3024 C57.9772,12.6404 58.4462,12.0884 60.1502,12.0654 C60.9272,12.0544 61.2142,12.3584 61.0282,13.0794 C60.8572,13.7434 60.6132,14.3894 60.3952,15.0624 C61.1022,15.1194 61.8052,15.1764 62.4222,15.2274 C62.5052,14.1914 62.5852,13.2144 62.6722,12.1264 C60.2262,11.9584 57.8562,11.7984 55.6302,11.6454 C55.4662,12.7464 55.3232,13.7024 55.1842,14.6364 L55.1842,14.6364 Z M58.6272,10.6264 C60.0872,10.2134 61.5262,10.3944 62.9572,10.8054 C63.0902,10.8434 63.3342,10.6964 63.4522,10.5674 C63.9692,10.0044 64.4602,9.4154 64.9622,8.8374 C65.1622,8.6054 64.9472,6.6444 64.6952,6.4794 C64.6382,6.4434 64.5612,6.4224 64.4962,6.4264 C63.8952,6.4574 63.2962,6.4984 62.6952,6.5354 C62.6692,6.5964 62.6412,6.6554 62.6152,6.7164 C63.1332,6.7734 63.7132,6.7874 63.6542,7.4564 C63.5952,8.1424 63.5432,8.8364 63.3892,9.5054 C63.2532,10.1034 62.6872,10.3594 61.9322,10.2924 C61.3642,10.2414 60.7402,10.0984 60.7702,9.4434 C60.8152,8.4654 60.1762,7.3454 61.3922,6.5594 L58.6752,6.5594 C58.8842,6.8824 59.3622,7.2814 59.3242,7.6234 C59.2162,8.5904 58.8972,9.5364 58.6272,10.6264 L58.6272,10.6264 Z M53.0432,11.7144 L49.5612,11.7144 C49.6372,12.6734 49.5922,13.5414 48.7142,14.2854 C50.1592,14.3684 51.3882,14.4384 52.6832,14.5124 C52.1972,13.2064 52.2522,12.7764 53.0432,11.7144 L53.0432,11.7144 Z M42.9672,14.8244 C42.8992,13.8104 42.8362,12.8894 42.7682,11.9034 L40.4642,11.9034 C41.1972,12.9984 40.7982,14.1004 40.5532,15.2904 C41.4712,15.1134 42.2642,14.9594 42.9672,14.8244 L42.9672,14.8244 Z M35.3422,15.3844 L36.4882,15.3844 L37.7342,15.3844 C37.3692,13.5784 37.3692,13.5784 37.8992,11.9654 C37.1892,12.0554 36.5042,12.1414 36.0132,12.2024 C35.7842,13.2934 35.5712,14.2964 35.3422,15.3844 L35.3422,15.3844 Z M32.6862,12.3634 C32.0202,12.6374 31.3402,12.8734 30.7052,13.1974 C30.4332,13.3354 30.0882,13.6484 30.0772,13.8944 C30.0642,14.2234 30.2672,14.6404 30.5132,14.8874 C31.1622,15.5394 31.9472,15.1454 32.6862,15.0734 L32.6862,12.3634 Z M31.8082,4.6684 C32.8222,5.5224 33.6942,6.2564 34.6042,7.0214 C34.7622,6.2764 34.9272,5.5034 35.1062,4.6684 L31.8082,4.6684 Z M8.3792,15.1624 C8.5192,16.1144 8.6192,16.9734 8.7972,17.8164 C8.8282,17.9704 9.1632,18.1354 9.3722,18.1574 C9.5372,18.1734 9.7242,17.9774 9.7922,17.9374 L9.7922,15.1624 L8.3792,15.1624 Z M46.6552,14.3624 C46.0422,13.1854 46.4982,12.3604 47.5832,11.6194 C46.7942,11.6674 46.2232,11.7014 45.4992,11.7464 L45.4992,14.4574 C45.7942,14.4344 46.1722,14.4024 46.6552,14.3624 L46.6552,14.3624 Z M89.5872,12.3884 C89.8382,13.1444 90.0472,13.7724 90.1872,14.1914 C90.9362,13.5224 91.6742,12.8654 92.4632,12.1614 C91.5222,12.2364 90.6242,12.3074 89.5872,12.3884 L89.5872,12.3884 Z M82.3042,15.9184 L83.6582,15.9184 L83.6582,12.9124 C82.8892,12.8704 82.7922,12.9704 82.6832,13.7774 C82.5902,14.4664 82.4432,15.1484 82.3042,15.9184 L82.3042,15.9184 Z M56.4312,6.7274 C55.6612,6.6404 55.6152,6.6734 55.5592,7.5134 C55.5472,7.7184 55.5872,7.9264 55.5892,8.1344 C55.5912,8.8294 55.5892,9.5234 55.5892,10.2364 L56.4312,10.2364 L56.4312,6.7274 Z M94.7292,5.4944 C94.7532,5.4214 94.7752,5.3494 94.7972,5.2754 C93.1152,5.0144 91.4322,4.7534 89.6922,4.4834 C90.1862,6.1104 91.0892,6.0054 92.1482,5.1464 C93.0292,5.2654 93.8802,5.3794 94.7292,5.4944 L94.7292,5.4944 Z M86.6172,12.6564 C86.4102,13.8594 87.3622,15.0914 85.9832,16.0944 C86.5962,16.0644 87.0522,16.0444 87.5852,16.0194 C87.4012,14.8434 87.2302,13.7484 87.0522,12.6074 C86.9272,12.6214 86.7552,12.6404 86.6172,12.6564 L86.6172,12.6564 Z M25.6572,4.7954 C26.5042,5.3424 27.1972,5.7914 27.9002,6.2464 C28.2102,5.8094 28.5422,5.3404 28.9262,4.7954 L25.6572,4.7954 Z M101.1692,16.5524 C101.5062,16.2244 101.8582,15.8844 102.2902,15.4664 C101.6292,15.1944 100.9102,14.8974 100.1922,14.6024 C100.1692,14.6534 100.1432,14.7054 100.1192,14.7554 C100.3872,14.9914 100.6562,15.2274 101.0472,15.5704 C100.7922,15.7034 100.5872,15.8104 100.4302,15.8914 C100.7622,16.1874 101.0082,16.4084 101.1692,16.5524 L101.1692,16.5524 Z M68.5402,12.2224 C68.9372,12.5504 69.2952,12.8464 69.6532,13.1424 C69.7152,13.0754 69.7792,13.0084 69.8422,12.9404 C69.7172,12.8194 69.5702,12.7124 69.4762,12.5714 C69.3202,12.3324 69.0932,12.0674 69.0982,11.8194 C69.1022,11.6304 69.3892,11.3594 69.6082,11.2824 C70.2282,11.0614 70.3472,10.6304 70.3422,9.9654 C69.3642,10.4894 68.9512,11.3034 68.5402,12.2224 L68.5402,12.2224 Z M3.5672,21.4694 C4.3262,20.9384 4.9572,20.4964 5.5912,20.0524 C5.0372,19.9194 4.5252,19.7994 3.9652,19.6664 C3.8382,20.2434 3.7162,20.7944 3.5672,21.4694 L3.5672,21.4694 Z M4.9092,17.6634 C5.3902,18.0534 5.7622,18.5984 6.4722,18.2344 C6.4172,17.8564 6.3612,17.4774 6.3022,17.0914 L5.1992,17.0914 C5.1102,17.2674 5.0172,17.4484 4.9092,17.6634 L4.9092,17.6634 Z M70.0302,6.1914 C70.0192,6.1434 70.0092,6.0954 70.0002,6.0474 C69.1662,6.0904 68.3332,6.1344 67.4862,6.1804 C67.5162,6.5414 67.5382,6.7874 67.5672,7.1164 C68.4252,6.7934 69.2272,6.4934 70.0302,6.1914 L70.0302,6.1914 Z M12.8332,16.6224 C12.8332,16.1144 12.8382,15.7064 12.8322,15.2964 C12.8242,14.8684 12.7572,14.8234 12.3122,14.8044 C12.2752,15.4694 12.2372,16.1334 12.1982,16.8254 C12.4022,16.7594 12.6372,16.6844 12.8332,16.6224 L12.8332,16.6224 Z M74.0862,13.6084 C74.8212,13.7174 75.4222,13.8064 76.0212,13.8954 C76.0392,13.8424 76.0582,13.7874 76.0772,13.7334 C75.7882,13.4074 75.4992,13.0814 75.2942,12.8514 C74.8672,13.1184 74.4942,13.3524 74.0862,13.6084 L74.0862,13.6084 Z M74.3442,15.2094 C74.3302,15.3024 74.3142,15.3944 74.2982,15.4864 C74.8492,15.9104 75.5702,15.5544 76.1822,15.6984 C76.2872,15.7244 76.4342,15.5734 76.5622,15.5034 C76.5412,15.4574 76.5182,15.4114 76.4972,15.3654 C75.7792,15.3134 75.0622,15.2614 74.3442,15.2094 L74.3442,15.2094 Z M97.2172,14.9884 C98.5132,15.5304 98.6072,15.5134 99.4152,14.5794 C98.6362,14.7244 97.9982,14.8444 97.2172,14.9884 L97.2172,14.9884 Z M107.9732,19.3574 C107.8062,18.6844 107.6822,18.1834 107.5162,17.5134 C107.3322,18.1384 107.2072,18.5644 107.0712,19.0234 C107.3132,19.1134 107.5452,19.1984 107.9732,19.3574 L107.9732,19.3574 Z M40.2552,5.7474 C41.1492,6.0534 41.5192,5.7584 41.6312,4.7334 C41.1902,5.0594 40.7522,5.3804 40.2552,5.7474 L40.2552,5.7474 Z M52.4112,10.2324 C52.6942,10.2894 52.9372,10.3354 53.1772,10.3834 C53.0612,9.9504 52.9642,9.5904 52.8232,9.0654 C52.6672,9.5094 52.5642,9.7984 52.4112,10.2324 L52.4112,10.2324 Z" id="Fill-4" fill="#B02524" mask="url(#mask-4)"></path>
                </g>
                <path d="M63.4031,19.0369 C63.0771,19.5119 62.7611,19.9739 62.4441,20.4339 C61.4351,21.8929 61.4651,21.8679 62.9581,22.8769 C64.9661,24.2309 66.9381,25.6419 68.9081,27.0519 C69.3201,27.3479 69.7291,27.7009 70.0031,28.1169 C70.4101,28.7309 70.9331,28.8499 71.5761,28.6999 C73.1181,28.3379 74.6541,27.9539 76.1941,27.5859 C76.9201,27.4119 77.6411,27.2089 78.3781,27.0989 C79.0491,26.9989 79.4511,26.6669 79.5911,26.0309 C79.7581,25.2659 79.8161,24.4659 80.4641,23.8909 C80.5411,23.8249 80.5941,23.6759 80.5821,23.5739 C80.4631,22.5689 81.0541,21.9309 81.7221,21.3149 C81.9231,21.1299 82.1361,20.8919 82.1991,20.6419 C82.3561,20.0079 82.7601,20.0399 83.2621,20.1169 C84.2311,20.2659 85.2051,20.4149 86.1811,20.4909 C86.9731,20.5509 87.7741,20.5029 88.5891,20.5029 C88.5701,20.7289 88.5781,20.7719 88.5631,20.8069 C88.3851,21.2299 87.9421,21.8289 88.0831,22.0349 C88.3351,22.4029 88.9361,22.5389 89.4001,22.7559 C89.4981,22.8019 89.6321,22.7689 89.7481,22.7789 C91.1291,22.9019 91.5571,22.3449 91.0681,21.0629 C91.0381,20.9819 91.0211,20.8959 90.9791,20.7459 L92.9701,20.7459 C93.3671,21.5549 93.6741,22.4029 94.1781,23.1109 C94.4481,23.4929 95.0361,23.7129 95.5251,23.8689 C96.5391,24.1889 97.5821,24.4229 98.6161,24.6849 C99.0451,24.7929 99.4811,24.8699 99.9091,24.9839 C100.8701,25.2409 101.8471,25.4629 102.7831,25.7949 C103.5771,26.0779 104.1821,26.1299 104.8631,25.4489 C105.5221,24.7869 106.3851,24.3189 107.1871,23.8089 C107.3021,23.7359 107.6451,23.8399 107.7611,23.9689 C108.3731,24.6399 108.9661,25.3259 109.5201,26.0429 C109.9761,26.6339 110.1951,27.3289 110.0061,28.0719 C109.5971,29.6819 109.1551,31.2819 108.7221,32.8849 C108.6691,33.0819 108.5891,33.2729 108.5271,33.4539 C106.8411,33.4229 106.7131,33.6099 106.2111,35.2219 C105.7591,36.6699 105.1411,38.0709 104.5331,39.4649 C104.2391,40.1409 104.5161,40.5699 104.9591,40.9949 C105.7451,41.7529 105.7771,41.7779 105.0531,42.6019 C103.4011,44.4829 101.5571,46.1299 99.2421,47.2099 C98.4651,47.5729 97.7601,48.0869 97.1341,48.4649 C95.3161,47.6429 93.5741,46.7629 91.7531,46.0889 C91.2251,45.8929 90.4141,46.1619 89.8421,46.4399 C88.8831,46.9059 88.0211,47.5689 87.0991,48.1149 C86.0171,48.7559 84.9221,49.3779 83.8161,49.9759 C82.9531,50.4429 82.8251,50.8099 83.0921,51.7179 C83.4401,52.8999 83.6981,54.1079 83.9541,55.1369 C83.2521,55.7579 82.6641,56.2139 82.1521,56.7429 C81.0511,57.8749 79.7391,58.6209 78.2161,59.0279 C76.6191,59.4549 75.0231,59.8879 73.2721,60.3599 C73.3711,59.9839 73.4331,59.7149 73.5141,59.4519 C73.6171,59.1219 73.7751,58.8039 73.8311,58.4679 C73.8581,58.3039 73.7461,57.9839 73.6331,57.9509 C72.1901,57.5329 71.3001,56.3299 70.1231,55.5409 C69.4111,55.0629 68.7901,54.4509 68.1291,53.8989 C68.0221,53.8079 67.8321,53.7109 67.8341,53.6189 C67.8461,52.5989 67.0251,52.7909 66.4401,52.6969 C66.2221,52.6619 65.8331,52.7649 65.7601,52.9149 C65.4331,53.6009 64.7601,53.7929 64.1791,54.1059 C62.5611,54.9789 60.9341,55.8399 59.2991,56.6819 C58.3421,57.1719 57.9881,57.7989 58.0911,58.8749 C58.1951,59.9519 58.2671,61.0329 58.3551,62.1479 C58.2221,62.2039 58.0821,62.3009 57.9281,62.3249 C56.2711,62.5819 54.6041,62.7829 52.9571,63.0869 C51.1761,63.4139 49.3861,63.3559 47.6051,63.2779 C46.5271,63.2309 45.4581,62.8899 44.3941,62.6359 C41.3751,61.9159 38.3531,61.1989 35.3481,60.4209 C34.6671,60.2449 34.0551,59.8169 33.4041,59.5189 C32.8131,59.2489 32.2271,58.9559 31.6141,58.7469 C30.0081,58.1959 28.3871,57.6839 26.7731,57.1579 C26.7631,57.0779 26.7521,56.9979 26.7421,56.9179 C27.7761,56.2289 28.7831,55.4949 29.8511,54.8629 C30.7621,54.3249 30.8721,54.1869 30.6451,53.1589 C30.6041,52.9809 30.7151,52.7759 30.7321,52.5809 C30.7781,52.0619 30.9691,51.4919 30.8171,51.0369 C30.5261,50.1689 30.6881,49.3579 30.7651,48.5069 C30.8331,47.7679 30.7821,46.9959 30.6271,46.2719 C30.5641,45.9779 30.1271,45.6669 29.7941,45.5449 C27.7181,44.7929 25.6351,44.0649 23.5311,43.4049 C23.1591,43.2879 22.6371,43.4539 22.2511,43.6309 C21.7521,43.8609 21.3221,44.2349 20.8591,44.5399 C20.2191,44.9629 19.5721,45.3779 18.9331,45.8019 C18.5461,46.0609 18.1801,46.3549 17.7821,46.5959 C16.4221,47.4179 16.4181,47.4119 16.2151,49.0419 C14.7191,47.4049 13.6501,45.6319 12.5781,43.7819 C14.2021,44.0609 14.8461,43.8729 15.0171,43.1149 C15.1731,42.4209 14.6531,41.7089 13.7791,41.4159 C12.7921,41.0859 12.3511,41.3019 11.8371,42.4739 C11.3641,41.6059 10.9331,40.8209 10.5321,40.0869 C11.4531,39.2529 12.2921,38.5259 13.0881,37.7549 C13.5151,37.3399 13.8501,36.8289 14.2631,36.3969 C14.6101,36.0349 14.9781,35.6709 15.3961,35.3979 C16.4061,34.7409 16.5201,34.2499 16.0081,33.1969 C15.4041,31.9499 14.8781,30.6649 14.3521,29.3829 C14.1621,28.9189 13.8691,28.7769 13.3831,28.6479 C11.3131,28.0949 9.2671,27.4539 7.2161,26.8349 C6.8891,26.7369 6.5771,26.5899 6.2311,26.4539 C6.8661,25.0249 7.7931,23.9169 9.0181,23.0589 C9.1721,22.9519 9.4631,22.9309 9.6521,22.9909 C11.0491,23.4399 12.4291,23.9419 13.8331,24.3719 C14.1291,24.4629 14.5571,24.4249 14.8221,24.2719 C15.9591,23.6189 17.1641,23.2529 18.4691,23.1629 C19.2041,23.1119 19.9471,23.0369 20.1221,22.1059 C20.1331,22.0449 20.1901,21.9729 20.2461,21.9429 C21.2801,21.3859 22.2631,20.5729 23.3671,20.3499 C24.8431,20.0519 26.4151,20.2319 27.9431,20.1739 C29.2921,20.1209 30.6411,20.0679 31.9821,19.9349 C33.4451,19.7909 34.9041,19.5819 36.3561,19.3439 C36.9211,19.2509 37.4701,19.0329 38.0031,18.8149 C38.4141,18.6459 38.7101,18.5259 38.9471,19.0689 C39.0501,19.3089 39.4051,19.4329 39.6141,19.6399 C40.0641,20.0829 40.6441,20.4759 40.9021,21.0159 C41.5001,22.2719 42.3931,22.8749 43.7931,22.9359 C44.5141,22.9669 45.2491,23.1969 45.9351,23.4469 C46.5941,23.6879 47.1811,23.6879 47.8311,23.4319 C48.8421,23.0329 49.8741,22.6769 50.9171,22.3619 C51.3801,22.2239 51.7501,22.0749 51.8531,21.5639 C51.8711,21.4739 51.8861,21.3369 51.9451,21.3079 C52.9421,20.8249 53.3461,19.8019 54.0591,19.0619 C54.1181,19.0009 54.2071,18.9479 54.2891,18.9349 C57.2781,18.4789 60.2681,18.5249 63.4031,19.0369 M42.8641,57.1569 C43.3071,57.8839 43.5901,57.9729 44.3891,57.4809 C44.8791,57.1799 45.3031,57.0299 45.8581,57.3669 C46.3821,57.6859 46.8931,57.5249 47.2931,57.0599 C47.4431,56.8839 47.5651,56.6749 47.7441,56.5359 C49.4471,55.2109 51.1721,53.9119 52.8571,52.5649 C53.0751,52.3909 53.2231,51.9809 53.2021,51.6959 C53.1501,50.9939 52.9611,50.3049 52.8591,49.6049 C52.7721,48.9919 52.9261,48.2439 52.6211,47.7859 C52.1651,47.0989 51.4561,46.5269 50.7471,46.0669 C50.1571,45.6839 49.4211,45.5109 48.7331,45.2879 C47.9161,45.0219 47.0801,44.8149 46.2611,44.5569 C45.9051,44.4439 45.5741,44.2579 45.2251,44.1169 C44.9911,44.0229 44.7051,43.8279 44.5131,43.8909 C43.3881,44.2659 42.2881,44.7119 41.1721,45.1139 C40.8951,45.2129 40.5911,45.2929 40.3011,45.2879 C38.6681,45.2609 36.5741,47.1919 36.4971,48.8229 C36.4891,48.9629 36.4831,49.1019 36.4951,49.2399 C36.5611,50.0459 36.7081,50.8529 36.6841,51.6559 C36.6571,52.5949 37.3481,53.4989 36.8011,54.4589 C36.7571,54.5349 36.8491,54.7319 36.9331,54.8249 C37.1951,55.1179 37.4341,55.4789 37.7691,55.6489 C39.3541,56.4539 41.0431,56.9519 42.8641,57.1569 M80.3981,40.6049 C80.2651,39.7199 80.1941,38.8199 79.9811,37.9529 C79.7771,37.1239 79.3731,36.9779 78.5601,37.2239 C78.3271,37.2949 78.0461,37.3759 77.8311,37.3099 C76.3381,36.8569 74.8511,36.3839 73.3781,35.8769 C72.8071,35.6809 72.3361,35.7119 71.8971,36.1319 C70.2311,37.7199 68.5431,39.2849 66.9031,40.8979 C66.1411,41.6469 65.4711,42.4859 64.7611,43.2859 C64.3821,43.7139 64.3191,44.1989 64.7461,44.5869 C66.0351,45.7569 67.2631,47.0299 68.7041,47.9829 C69.7501,48.6759 70.5781,49.6099 71.6511,50.2419 C71.7871,50.3209 71.8831,50.4679 71.9911,50.5899 C72.5431,51.2109 72.9901,51.3069 73.7061,50.8769 C74.3481,50.4919 74.9481,50.0379 75.5841,49.6419 C76.6281,48.9909 77.6701,48.3309 78.7471,47.7339 C79.4571,47.3389 80.2381,47.0749 80.9641,46.7039 C81.6811,46.3369 81.7991,45.8269 81.4131,45.1519 C80.6131,43.7479 80.1081,42.2679 80.3981,40.6049 M60.2881,34.1089 C60.2241,33.7319 60.0701,33.3169 60.0991,32.9139 C60.2151,31.3229 59.4821,30.5579 57.9281,30.1529 C56.7821,29.8539 55.7471,29.1239 54.6721,28.5679 C54.0281,28.2359 53.3691,27.9839 52.6631,28.2929 C50.7861,29.1139 48.9071,29.9339 47.0601,30.8169 C46.1261,31.2649 45.9391,31.8629 46.1401,32.8639 C46.2071,33.1949 46.1441,33.5509 46.1301,33.8949 C46.1091,34.3559 46.1001,34.8189 46.0471,35.2769 C45.9661,35.9749 45.9111,36.6839 45.7301,37.3589 C45.5361,38.0789 45.8031,38.7199 46.4891,38.9879 C47.4831,39.3769 48.4521,39.8249 49.4421,40.2219 C50.3921,40.5999 51.3341,41.0259 52.3181,41.2869 C53.4511,41.5859 54.6471,41.7779 55.6601,40.9129 C56.8921,39.8609 58.2401,39.0169 59.7391,38.3799 C60.6191,38.0059 60.8071,37.0359 60.3651,36.2049 C60.1881,35.8719 60.1801,35.4329 60.1621,35.0389 C60.1471,34.7469 60.2391,34.4479 60.2881,34.1089 M33.2051,36.9389 L33.2051,37.0439 C33.6491,37.0439 34.0941,37.0609 34.5371,37.0399 C35.1421,37.0129 35.4581,36.6969 35.5181,36.0819 C35.5641,35.6309 35.6271,35.1609 35.7981,34.7469 C36.4271,33.2149 37.0761,31.6889 37.7791,30.1899 C38.0881,29.5359 38.0751,28.9109 37.6161,28.4479 C36.9261,27.7479 36.1641,27.0839 35.3291,26.5679 C34.2621,25.9119 33.0971,25.4129 31.9701,24.8559 C30.7111,24.2309 29.6021,24.0649 28.1821,24.8599 C26.1991,25.9689 24.5911,27.5149 22.7481,28.7689 C22.2771,29.0899 22.1821,29.5219 22.6091,30.0109 C22.7981,30.2289 22.8931,30.5349 23.0061,30.8109 C23.7501,32.6279 24.4681,34.4559 25.2481,36.2599 C25.3561,36.5109 25.7371,36.7719 26.0171,36.8019 C26.9591,36.9019 27.9121,36.9209 28.8601,36.9339 C30.3091,36.9519 31.7571,36.9389 33.2051,36.9389 M94.6061,41.5789 C94.6091,41.6049 94.6111,41.6329 94.6141,41.6599 C95.6201,41.6599 96.6251,41.6569 97.6321,41.6599 C98.3521,41.6619 98.8281,41.3779 98.9811,40.6279 C99.0411,40.3419 99.1991,40.0669 99.3511,39.8109 C100.0931,38.5599 101.0091,37.4339 101.2091,35.8749 C101.3121,35.0619 101.6301,34.3619 101.4491,33.4399 C101.2341,32.3429 100.5801,31.8269 99.7391,31.5129 C97.5641,30.7019 95.3411,30.0199 93.1481,29.2599 C92.4781,29.0279 91.9051,29.2049 91.3471,29.5219 C90.7091,29.8859 90.0851,30.2789 89.4661,30.6729 C89.0511,30.9349 88.6591,31.2249 88.2541,31.4969 C87.7971,31.8039 87.3431,32.1209 86.8711,32.4019 C86.4241,32.6669 86.3411,33.0339 86.5241,33.4699 C87.2871,35.3049 88.0871,37.1249 88.8171,38.9719 C89.0421,39.5409 89.1531,40.1729 89.2001,40.7849 C89.2611,41.5889 89.6321,41.9489 90.4361,41.8809 C91.8251,41.7649 93.2161,41.6779 94.6061,41.5789 M20.8971,40.0149 C21.8921,40.0139 22.5631,39.4859 22.4801,38.7729 C22.3751,37.8769 21.6851,37.1189 20.7921,36.9699 C20.1151,36.8549 19.5261,37.0709 19.1421,37.6389 C18.8681,38.0429 18.6331,38.5509 19.0071,38.9879 C19.4881,39.5549 20.0631,40.0409 20.8971,40.0149 M59.8551,24.1199 C59.8231,24.0669 59.7921,24.0139 59.7601,23.9599 C59.3921,24.1729 58.8181,24.3109 58.7021,24.6179 C58.5271,25.0839 58.4771,25.7809 58.7161,26.1779 C59.2991,27.1469 61.1301,27.1399 61.7581,26.1899 C61.9851,25.8469 61.9981,25.2779 61.9211,24.8449 C61.8281,24.3339 61.3601,24.1629 60.8331,24.1809 C60.5071,24.1919 60.1801,24.1419 59.8551,24.1199 M39.3861,42.5109158 C40.7201,42.5069 41.4141,41.9729 41.4221276,40.9449 C41.4271,40.2349 40.7511,39.6819 39.8851,39.6879 C38.6831,39.6949 37.9641,40.2849 37.9851,41.2459 C38.0041,42.0889 38.4731,42.5139 39.3861,42.5109158 M86.3131,40.2709 C85.2491,40.2539 84.5001,40.8369 84.503091,41.6789 C84.5041,42.4889 85.2601,43.1579 86.1971,43.1789 C86.9821,43.1969 87.7801,42.4249 87.7861,41.6409 C87.7931,40.9299 87.0961,40.2819 86.3131,40.2709 M59.7571,47.8299 C59.7901,47.8749 59.8221,47.9209 59.8551,47.9669 C60.2991,47.7349 60.9571,47.6029 61.1301,47.2429 C61.3141,46.8599 61.2141,46.0979 60.9231,45.7969 C60.5551,45.4159 59.8871,45.2419 59.3201,45.1429 C58.5671,45.0119 58.1031,45.3949 57.9331,46.0949 C57.7841,46.7039 58.1121,47.3689 58.7401,47.6149 C59.0571,47.7389 59.4171,47.7619 59.7571,47.8299 M19.4581,28.8569 C19.7691,28.8109 19.9321,28.7919 20.0921,28.7619 C21.0481,28.5789 21.2721,28.1529 20.8621,27.2829 C20.4981,26.5119 19.8361,26.1659 19.0181,26.0889 C18.4031,26.0309 17.8521,26.4159 17.6921,26.9999 C17.5211,27.6249 17.6561,28.1829 18.2631,28.4849 C18.6721,28.6869 19.1421,28.7629 19.4581,28.8569 M106.5501,28.8349 C106.5561,28.3419 106.2781,28.0359 105.3521,27.4609 C104.7691,27.0999 104.2351,27.2279 103.5821,27.8859 C103.1451,28.3259 103.0601,28.9929 103.4131,29.4659 C103.8601,30.0699 104.5521,30.0519 105.1911,30.0439 C105.7581,30.0369 106.2061,29.7249 106.4401,29.1829 C106.4941,29.0569 106.5231,28.9209 106.5501,28.8349 M43.7841,29.7269116 C44.8151,29.7239 45.4871,29.2239 45.4741,28.4679 C45.4631,27.7609 44.6331,27.1159 43.7161,27.0989 C42.8561,27.0839 42.0481,27.7869 42.0440921,28.5509 C42.0411,29.1519 42.8951,29.7299 43.7841,29.7269116 M80.7061,33.1719 C81.7431,33.1819 82.5611,32.1189 82.0731,31.4559 C81.7361,30.9979 81.2161,30.6139 80.6961,30.3619 C80.1001,30.0749 79.5851,30.4879 79.2781,30.9549 C79.0801,31.2559 78.9401,31.7759 79.0721,32.0689 C79.3821,32.7599 80.0651,33.0599 80.7061,33.1719 M50.9601,61.6649 C51.7811,61.6779 52.2881,61.2449 52.3181,60.5049 C52.3501,59.7379 51.6661,59.0549 50.8511,59.0369 C50.0021,59.0189 48.9421,59.7899 48.9021,60.4529 C48.8671,61.0219 49.9341,61.6499 50.9601,61.6649 M67.8641,33.5359 C68.6581,33.5569 69.6141,32.7899 69.6251,32.1249 C69.6361,31.4409 68.8641,30.7199 68.0781,30.6799 C67.3801,30.6449 66.4401,31.4989 66.4061,32.1999 C66.3761,32.8179 67.1361,33.5149 67.8641,33.5359 M32.5331,40.8309 C32.5541,40.1249 31.9281,39.5739 31.0781,39.5519 C29.9271,39.5229 29.4031,39.9549 29.3451,40.9789 C29.3111,41.5859 30.0751,42.1739 30.9401,42.2069 C31.6851,42.2349 32.5101,41.5209 32.5331,40.8309 M35.6321,20.6119 C34.6161,20.6349 34.2351,20.9479 34.2401,21.7549 C34.2461,22.6899 34.9421,23.3239 35.9251,23.2949 C36.7741,23.2679 37.3461,22.8159 37.3441052,22.1689 C37.3431,21.3229 36.5381,20.5909 35.6321,20.6119 M77.3221,54.6229 C77.3411,55.2239 78.0861,55.8209 79.0411,56.0059 C79.6801,56.1289 80.2621,55.8289 80.5131,55.2449 C80.8041,54.5649 79.8341,53.4009 78.9421,53.3629 C78.0421,53.3229 77.2991,53.9019 77.3221,54.6229 M52.2531,23.8478919 C51.6241,23.8499 50.6891,24.7529 50.7091,25.3389 C50.7291,25.8849 51.7171,26.6139 52.4481,26.6199 C53.1611,26.6249 53.8401,26.0069 53.8611,25.3309 C53.8811,24.6789 52.9771,23.8449 52.2531,23.8478919 M36.1061,59.6869 C36.9001,59.6869 37.4471,59.3699 37.4921,58.6649 C37.5181,58.2459 37.2371,57.7039 36.9181,57.3999 C36.6661,57.1609 36.1351,57.1159 35.7401,57.1429 C35.3931,57.1669 34.8971,57.3249 34.7631,57.5779 C34.5721,57.9329 34.5111,58.4849 34.6521,58.8589 C34.8821,59.4679 35.5061,59.6559 36.1061,59.6869 M86.9431,27.1199 C86.9331,26.3789 86.2931,25.6979 85.5941,25.6849 C84.8301,25.6719 84.0601,26.4519 84.0811,27.2199 C84.1011,27.9589 84.7121,28.4639 85.5671,28.4449 C86.4281,28.4259 86.9551,27.9199 86.9431,27.1199 M59.1601,53.7919 C59.1761,53.8299 59.1941,53.8669 59.2111,53.9049 C59.6221,53.7229 60.1211,53.6249 60.4151,53.3289 C60.6361,53.1029 60.7821,52.4689 60.6321,52.2889 C60.3051,51.8989 59.8011,51.5539 59.3071,51.4249 C58.5141,51.2169 57.4711,51.9579 57.4331,52.6139 C57.3991,53.1899 58.1331,53.7329 59.0191,53.7849 C59.0661,53.7869 59.1131,53.7889 59.1601,53.7919 M99.8021,43.1619 C98.9231,43.1679 97.9431,43.9089 97.9661,44.5499 C97.9861,45.1549 98.7921,45.6839 99.6751,45.6729 C100.7071,45.6609 101.0891,45.2879 101.0801,44.3059 C101.0731,43.5759 100.6031,43.1549 99.8021,43.1619 M64.4931,37.9629 C63.9051,38.0209 63.2381,38.0959 62.9511,38.7499 C62.8341,39.0149 62.8661,39.4639 63.0241,39.7019 C63.4191,40.2919 64.0381,40.4409 64.7461,40.3039 C65.6001,40.1379 65.9821,39.7899 65.9411,39.1409 C65.8991,38.4699 65.3131,37.9759 64.4931,37.9629" id="Fill-7" fill="#FEFEFE"></path>
                <path d="M33.4774,9.0062 C32.4784,9.0362 32.1244,9.2822 32.1474,9.9302 C32.1734,10.6412 32.7394,11.2432 33.3694,11.2022 C34.1564,11.1522 34.1224,10.5992 34.0374,10.0592 C34.4434,9.9632 34.8694,9.9502 35.1864,9.7592 C35.4204,9.6152 35.5614,9.2582 35.6574,8.9682 C35.8734,8.3102 36.2864,8.0802 36.8704,8.4552 C37.2424,8.6932 37.5264,9.0782 37.8104,9.4292 C38.0424,9.7152 38.1934,10.0662 38.4144,10.3622 C38.8734,10.9732 39.9244,10.8522 40.2964,10.1782 C40.4204,9.9532 40.6704,9.5772 40.7894,9.6032 C41.2184,9.6942 41.6534,9.8782 42.0104,10.1302 C42.1984,10.2632 42.2324,10.6112 42.4074,11.0332 C41.4884,11.0332 40.6974,11.0122 39.9094,11.0402 C38.8864,11.0752 37.8664,11.1592 36.8444,11.2102 C36.4314,11.2302 36.0164,11.1932 35.6054,11.2292 C34.6324,11.3142 33.6624,11.5042 32.6884,11.5102 C31.1334,11.5222 29.9514,12.3652 28.7284,13.1132 C28.4634,13.2752 28.2324,13.7092 28.2234,14.0242 C28.2074,14.6352 28.3584,15.2512 28.4494,15.9312 C27.8274,16.0202 27.1484,16.1162 26.4424,16.2162 C26.7574,15.1952 26.6434,14.4432 26.1394,14.2282 C25.6004,13.9982 25.1734,14.2282 24.8514,14.6442 C24.3954,15.2322 24.5234,15.7352 25.4524,16.6202 C24.0214,16.6642 22.7644,16.8212 21.5314,16.7142 C19.4364,16.5312 17.3564,16.2062 15.2424,16.3622 C14.7604,16.3982 14.4714,16.1632 14.5184,15.6592 C14.6714,14.0082 14.4844,12.2882 15.1804,10.7352 C15.6594,9.6652 16.1494,8.4852 17.3914,8.0182 C18.3914,7.6402 19.5194,8.3052 19.9184,9.4042 C20.2004,10.1782 20.7604,10.4422 21.4284,10.0282 C21.6524,9.8922 21.8954,9.4922 21.8484,9.2722 C21.6494,8.3342 21.7584,7.5402 22.6704,7.0582 C23.6824,6.5262 24.7524,6.4012 25.7144,7.1222 C26.1614,7.4562 26.4824,7.9762 26.7984,8.4522 C27.0784,8.8772 27.3234,9.2832 27.9254,9.2052 C28.5764,9.1192 29.0324,8.8952 29.2034,8.1492 C29.3204,7.6392 29.6704,7.1522 30.0114,6.7282 C30.3774,6.2702 30.9474,6.4432 31.2894,6.7102 C32.1194,7.3542 32.8674,8.1022 33.6474,8.8082 C33.5904,8.8742 33.5354,8.9402 33.4774,9.0062 M20.6734,15.6652 C21.4274,15.6792 21.8434,15.1812 21.7344,14.4552 C21.6924,14.1712 21.8194,13.8612 21.7714,13.5782 C21.7114,13.2262 21.6444,12.7092 21.4114,12.5912 C21.1004,12.4352 20.5804,12.4952 20.2414,12.6542 C20.0234,12.7572 19.9234,13.1952 19.8604,13.5022 C19.7934,13.8282 19.8984,14.1922 19.8144,14.5082 C19.6194,15.2382 19.8994,15.6502 20.6734,15.6652 M16.8534,12.8142 C18.0264,12.7892 18.0844,12.7182 17.9794,11.5482 C17.9624,11.3682 17.9954,11.1772 18.0414,11.0012 C18.1654,10.5342 18.2154,10.1132 17.5854,9.9852 C16.9794,9.8612 16.5474,10.1602 16.4094,10.7562 C16.3364,11.0642 16.2244,11.3712 16.0874,11.6572 C15.7454,12.3732 16.0404,12.8312 16.8534,12.8142 M24.4674,12.2792 C25.0794,12.2882 25.3864,11.9752 25.4294,11.3542 C25.4554,10.9922 25.4984,10.6222 25.6044,10.2762 C25.7534,9.7832 25.5364,9.5842 25.0914,9.5152 C24.3874,9.4092 23.7774,9.8182 23.6314,10.4952 C23.5884,10.6962 23.5894,10.9072 23.5414,11.1072 C23.3434,11.9162 23.6174,12.2652 24.4674,12.2792 M17.9114,16.2122 C18.5444,16.2252 18.8974,15.9382 18.9014052,15.4052 C18.9034,14.8792 18.3234,14.2772 17.7834,14.2512 C17.1654,14.2192 16.7024,14.6402 16.6844,15.2512 C16.6644,15.9352 16.9914,16.1912 17.9114,16.2122 M31.0134,9.8372 C31.0654,9.2002 30.8744,8.8322 30.2744,8.8132 C29.6154,8.7912 29.1004,9.2322 29.0754,9.8112 C29.0474,10.4642 29.4254,10.9122 30.0244,10.9362 C30.6994,10.9642 30.9764,10.6292 31.0134,9.8372" id="Fill-9" fill="#FEFEFE"></path>
                <path d="M94.1727,11.2342 C93.9277,11.1832 93.6817,11.1332 93.4517,11.0862 C93.6147,10.7592 93.9437,10.4052 93.8717,10.1752 C93.7327,9.7372 93.4067,9.3312 93.0797,8.9852 C92.8077,8.6962 91.9697,8.8672 91.7457,9.1862 C91.3917,9.6912 91.8317,10.4012 92.8987,11.1742 C88.9327,11.4282 84.9667,11.6812 80.8657,11.9442 C80.8237,11.3322 80.8067,10.7792 80.7377,10.2332 C80.7197,10.0842 80.5687,9.9352 80.4487,9.8142 C80.1617,9.5202 79.7867,9.2842 79.5737,8.9472 C78.8657,7.8212 77.8647,7.2042 76.5517,7.0482 C76.4367,7.0342 76.3197,7.0122 76.2087,6.9842 C76.1667,6.9722 76.1327,6.9332 76.0517,6.8762 C76.4797,6.2882 76.5557,5.6462 76.0557,5.0832 C75.9057,4.9132 75.4917,4.8452 75.2487,4.9092 C74.6697,5.0642 74.3677,5.4872 74.4547,6.1782 C74.1807,6.2262 73.9177,6.2732 73.6657,6.3172 C73.1327,4.9482 73.1817,4.6652 74.0487,3.9792 C74.7297,3.4412 75.6877,3.4242 76.5177,4.0362 C76.8817,4.3032 77.0907,4.7732 77.4377,5.0772 C77.6637,5.2772 78.0267,5.4762 78.2997,5.4422 C78.8477,5.3722 79.4087,5.2052 79.4687,4.4692 C79.4997,4.0632 79.5677,3.6432 79.7117,3.2642 C80.0057,2.4872 80.6107,2.2952 81.3377,2.7322 C81.6927,2.9452 82.0017,3.2322 82.2547,3.4252 C82.0567,3.9272 81.8067,4.3432 81.7457,4.7852 C81.7087,5.0592 81.9257,5.3902 82.0847,5.6622 C82.4167,6.2292 82.8957,6.2042 83.3937,5.8892 C84.1957,7.0052 85.1217,6.9252 85.7787,5.7082 C86.2297,4.8742 86.4637,4.7832 87.3327,5.2122 C88.4067,5.7422 88.9537,6.6542 89.2427,7.7752 C87.9927,8.1282 87.6067,8.7102 87.8947,9.6842 C88.0767,10.3012 88.7167,10.6222 89.3417,10.4102 C89.7767,10.2632 89.8797,9.9712 89.8067,9.5392 C89.7407,9.1612 89.7497,8.7712 89.7357,8.5492 C90.3477,8.2662 90.7887,8.0952 91.1987,7.8682 C92.0197,7.4152 93.5027,7.8832 93.8007,8.7622 C94.0607,9.5312 94.2227,10.3312 94.4297,11.1172 C94.3437,11.1552 94.2587,11.1952 94.1727,11.2342 M82.0627,10.3792 C82.1097,10.3372 82.1587,10.2942 82.2067,10.2522 C82.4097,10.2052 82.6247,10.1882 82.8117,10.1042 C83.1907,9.9332 83.5727,9.6562 83.3377,9.2122 C83.0787,8.7242 82.6807,8.3022 82.3087,7.8832 C82.2387,7.8062 81.9877,7.8422 81.8407,7.8872 C81.4287,8.0172 80.9717,9.0342 81.1977,9.5752 C81.3367,9.9052 81.7647,10.1152 82.0627,10.3792 M80.6027,6.9132 C80.5337,5.8552 80.4107,5.6882 79.7337,5.7282 C79.0667,5.7672 78.7507,6.1742 78.8057,6.9222 C78.8677,7.7732 79.2437,8.1902 79.9077,8.1432 C80.5227,8.1022 80.6637,7.8522 80.6027,6.9132 M86.6537,9.6352 C86.6377,8.8432 86.1777,8.3892 85.5147,8.4182 C84.9277,8.4432 84.6937,8.7842 84.6937,9.6202 C84.6937,10.1992 85.2077,10.6442 85.8867,10.5882 C86.5167,10.5352 86.6337,10.0572 86.6537,9.6352" id="Fill-11" fill="#FEFEFE"></path>
                <path d="M107.9012,22.2083 C104.8552,20.0973 101.3962,19.2433 97.7562,19.0353 C96.6492,18.9723 95.5072,19.1083 94.4102,19.3063 C92.4452,19.6583 90.4982,19.5233 88.5362,19.3603 C86.2072,19.1693 83.8742,19.0173 81.5422,18.8343 C80.9622,18.7913 80.3872,18.6603 79.8062,18.6253 C78.9052,18.5713 78.0012,18.5853 77.0992,18.5333 C75.6782,18.4523 74.2602,18.3393 72.8412,18.2433 C69.5992,18.0233 66.3582,17.7753 63.1142,17.5973 C61.2032,17.4933 59.2532,17.2583 57.3792,17.5083 C53.4372,18.0333 49.5882,17.5143 45.7182,16.9973 C45.0272,16.9053 44.3222,16.9083 43.5552,16.8633 C45.7302,16.1793 47.9042,16.0923 50.0892,16.2133 C52.8212,16.3623 55.5512,16.5593 58.2792,16.7603 C59.6292,16.8603 61.0152,16.8593 62.3102,17.1913 C63.7812,17.5673 65.2292,17.1673 66.6992,17.4043 C68.1272,17.6353 69.6352,17.3443 71.1062,17.3813 C73.5112,17.4413 75.9162,17.5973 78.3212,17.6783 C80.2342,17.7443 82.1502,17.7293 84.0622,17.8033 C85.7822,17.8703 87.5002,18.0273 89.2172,18.1043 C89.9352,18.1353 90.6572,18.0613 91.3762,18.0293 C91.4682,18.0253 91.5612,17.9783 91.6522,17.9823 C95.4652,18.1733 99.3412,17.9063 103.0192,19.1733 C104.4582,19.6703 105.7742,20.5153 107.1352,21.2243 C107.5062,21.4163 107.8382,21.6853 108.1862,21.9193 C108.0902,22.0163 107.9962,22.1123 107.9012,22.2083" id="Fill-13" fill="#FEFEFE"></path>
                <path d="M12.4852,46.5311 C11.7952,45.7061 11.0112,44.9381 10.4312,44.0421 C8.9032,41.6891 7.4612,39.2791 5.9872,36.8891 C5.3552,35.8651 5.0892,34.7881 5.3302,33.5721 C5.4162,33.1311 5.2752,32.6121 5.1222,32.1671 C4.7542,31.0981 4.2922,30.0621 3.9182,28.9951 C3.4962,27.7951 3.7062,26.6071 3.9252,25.3761 C4.3022,23.2431 5.6332,22.1281 7.5202,21.3301 C8.7802,20.7981 9.9552,20.0571 11.1422,19.3661 C12.8412,18.3781 14.7152,17.9771 16.6332,17.9061 C18.3042,17.8441 19.9882,18.0421 21.6662,18.1201 C22.1092,18.1421 22.5602,18.2071 22.9962,18.1511 C24.4252,17.9691 25.8442,17.6981 27.2782,17.5411 C28.5242,17.4051 29.7822,17.3391 31.0352,17.3131 C33.2552,17.2691 35.4732,17.2781 37.6922,17.2651 C37.9402,17.2641 38.1902,17.2651 38.4382,17.2651 C38.4492,17.3511 38.4592,17.4381 38.4672,17.5241 C36.8472,17.7721 35.2322,18.1271 33.6012,18.2461 C29.8022,18.5211 25.9942,18.6731 22.1912,18.9001 C21.5722,18.9381 20.9642,19.1521 20.3432,19.2001 C19.8222,19.2411 19.2412,19.2851 18.7712,19.1081 C16.8972,18.4011 15.0862,18.5551 13.3312,19.3981 C11.5232,20.2651 9.6492,21.0581 8.0062,22.1751 C6.6052,23.1251 5.3312,24.3741 4.7402,26.0571 C4.5942,26.4731 4.7272,26.9891 4.7532,27.4581 C4.7642,27.6781 4.8202,27.8971 4.8632,28.1161 C5.0662,29.1741 5.1892,30.2531 5.4992,31.2771 C5.7612,32.1441 6.1152,32.9561 6.0062,33.9021 C5.9612,34.2901 6.0672,34.7491 6.2512,35.1011 C7.0652,36.6611 7.9362,38.1911 8.7812,39.7351 C9.2232,40.5421 9.6312,41.3681 10.0942,42.1641 C10.8832,43.5241 11.7052,44.8651 12.5102,46.2171 C12.5522,46.2871 12.5772,46.3681 12.6082,46.4451 C12.5682,46.4741 12.5262,46.5021 12.4852,46.5311" id="Fill-15" fill="#FEFEFE"></path>
                <path d="M66.5496,15.888 C66.2716,15.888 65.8996,15.889 65.5286,15.888 C64.4546,15.886 64.2206,15.75 64.3366,14.697 C64.4806,13.397 64.4916,12.011 65.7716,11.098 C66.6356,10.481 67.3146,9.565 68.2356,9.08 C71.2436,7.502 74.3616,7.262 77.3516,9.101 C78.6196,9.882 79.1946,11.282 79.4446,12.711 C79.6156,13.693 79.6136,14.717 79.5736,15.717 C79.5656,15.938 79.1016,16.245 78.7976,16.325 C78.3706,16.437 78.4026,16.089 78.3806,15.753 C78.3486,15.281 78.3006,14.736 78.0446,14.371 C77.2376,13.214 76.3846,12.077 75.4436,11.028 C74.7926,10.304 74.0246,10.331 73.2456,10.908 C73.0886,11.025 72.9236,11.213 72.8886,11.393 C72.5816,12.951 72.3026,14.514 72.0046,16.139 C71.7386,16.113 71.4756,16.087 71.1216,16.052 C71.2846,14.797 71.4506,13.592 71.5976,12.384 C71.6536,11.909 71.6656,11.43 71.6936,10.952 C71.7166,10.566 71.7726,10.176 71.7376,9.794 C71.7096,9.481 71.6636,9.046 71.4586,8.902 C71.1866,8.711 70.6356,8.571 70.4026,8.718 C69.4456,9.325 68.5026,9.982 67.6766,10.748 C66.9196,11.449 66.6306,12.397 66.6906,13.468 C66.7366,14.26 66.6046,15.063 66.5496,15.888" id="Fill-17" fill="#FEFEFE"></path>
                <path d="M50.0213,10.8011 C49.9713,9.7401 49.9313,8.7751 49.8743,7.8091 C49.8653,7.6591 49.8063,7.4811 49.7083,7.3741 C48.8363,6.4501 47.9923,5.5001 47.0593,4.6431 C46.5463,4.1721 45.0983,4.4261 44.6813,4.9561 C44.5883,5.0731 44.5513,5.2471 44.5293,5.4011 C44.3223,6.9221 44.1223,8.4451 43.9183,9.9671 C43.8543,9.9681 43.7903,9.9681 43.7243,9.9681 C43.6393,9.8161 43.5903,9.6251 43.4663,9.5171 C41.8883,8.1551 43.0933,6.8141 43.4863,5.4681 C43.5263,5.3381 43.6583,5.2181 43.6553,5.0931 C43.6493,4.6001 43.7733,3.9791 43.5213,3.6551 C43.3303,3.4081 42.6133,3.4151 42.1823,3.5191 C40.6183,3.8961 39.2793,4.6571 38.3803,6.0451 C38.1933,6.3351 37.9803,6.6101 37.7583,6.9191 C37.4263,6.7501 37.1253,6.5951 36.7483,6.4031 C37.2043,5.3611 37.9173,4.5651 38.9393,4.1061 C41.5743,2.9251 44.2913,2.9341 47.0193,3.7361 C49.5773,4.4881 51.4293,7.6751 50.9203,10.3011 C50.7923,10.9651 50.4043,10.8781 50.0213,10.8011" id="Fill-19" fill="#FEFEFE"></path>
                <path d="M51.2225,4.7806 C51.5995,4.7316 51.9145,4.6556 52.2305,4.6526 C53.7495,4.6356 55.2695,4.6716 56.7865,4.6316 C59.9645,4.5436 63.1455,4.4806 66.3175,4.2876 C68.1195,4.1786 69.9015,4.1246 71.7045,4.4736 C71.7845,4.8896 71.6355,5.1186 71.1785,5.1506 C70.4545,5.1996 69.7335,5.3056 69.0095,5.3256 C64.0075,5.4656 59.0045,5.5876 54.0015,5.7196 C53.7215,5.7276 53.4345,5.7276 53.1655,5.7916 C52.2555,6.0106 51.7055,5.5686 51.2225,4.7806" id="Fill-21" fill="#FEFEFE"></path>
                <path d="M104.2186,12.6063 C102.8546,12.2183 101.5646,11.7003 100.2296,11.5153 C98.8806,11.3293 97.4856,11.4753 96.0486,11.4753 C96.2796,10.6033 96.0466,9.9043 95.5126,9.2153 C95.2246,8.8453 95.2066,8.2693 95.0446,7.7063 C98.8116,8.1753 101.8156,9.8373 104.2186,12.6063" id="Fill-23" fill="#FEFEFE"></path>
                <path d="M22.6151,5.4695 C21.2191,6.3455 19.5521,6.4485 17.8591,6.3475 C16.9261,6.2925 16.1391,6.6285 15.3371,7.0385 C14.6451,7.3925 13.8691,7.5785 13.1581,7.8995 C11.5501,8.6225 9.9561,9.3755 8.3691,10.1435 C8.1571,10.2475 8.0111,10.5015 7.8571,10.7035 C6.9581,11.8785 6.0411,13.0415 5.1791,14.2425 C4.8211,14.7405 4.5811,15.3225 4.2911,15.8675 C4.2591,15.9275 4.2741,16.0225 4.2311,16.0655 C3.0311,17.2405 3.2121,19.0655 2.0171,20.4475 C2.1191,19.7355 2.1221,19.1415 2.2981,18.6055 C2.5421,17.8645 2.8421,17.1205 3.2511,16.4575 C4.3571,14.6685 5.5191,12.9125 6.6871,11.1625 C7.7621,9.5525 9.4661,8.7305 11.0961,7.8355 C11.8891,7.4015 12.6891,6.9425 13.5421,6.6625 C14.4621,6.3595 15.4441,6.2365 16.4061,6.0695 C17.2761,5.9185 18.1561,5.8145 19.0321,5.6915 C19.2171,5.6645 19.4021,5.6345 19.5881,5.6245 C20.6291,5.5685 21.6691,5.5175 22.6151,5.4695" id="Fill-25" fill="#FEFEFE"></path>
                <path d="M95.1141,16.7962 C93.9581,16.7342 92.7811,16.6712 91.4291,16.5982 C91.7511,16.0672 91.9361,15.5732 92.2781,15.2342 C93.1421,14.3852 94.1201,13.7162 95.3211,13.3302 C96.7731,12.8642 98.1981,12.8622 99.6991,12.9832 C100.8261,13.0742 101.8581,13.3062 102.8021,13.8562 C103.7691,14.4192 104.7461,15.0282 105.0271,16.4022 C104.5811,16.0192 104.2351,15.7242 103.8901,15.4262 C102.1031,13.8802 100.0471,13.4292 97.7561,13.9572 C97.0511,14.1212 96.3561,14.3152 95.6571,14.4952 C95.6341,14.5002 95.6111,14.5062 95.5891,14.5122 C94.9641,14.6772 94.5091,15.1032 94.4561,15.6922 C94.4271,16.0112 94.8431,16.3692 95.1141,16.7962" id="Fill-27" fill="#FEFEFE"></path>
                <path d="M13.7859,9.2483 C13.3429,10.7103 12.9039,12.1593 12.4479,13.6633 C10.8509,13.8783 9.1219,14.1133 7.3209,14.3563 C7.4479,14.1713 7.5429,14.0063 7.6629,13.8613 C8.2269,13.1783 9.0589,12.6803 9.1829,11.6903 C9.1939,11.6113 9.2769,11.5163 9.3519,11.4763 C10.7359,10.7283 12.1229,9.9873 13.5139,9.2543 C13.6009,9.2073 13.7339,9.2483 13.7859,9.2483" id="Fill-29" fill="#FEFEFE"></path>
                <path d="M55.1834,15.1775 C55.3234,14.2415 55.4654,13.2855 55.6304,12.1865 C57.8564,12.3385 60.2254,12.4995 62.6724,12.6665 C62.5834,13.7555 62.5054,14.7315 62.4204,15.7675 C61.8044,15.7175 61.1024,15.6595 60.3944,15.6035 C60.6124,14.9295 60.8574,14.2835 61.0294,13.6195 C61.2154,12.8985 60.9264,12.5945 60.1504,12.6045 C58.4454,12.6285 57.9764,13.1815 58.2494,14.8415 C58.2814,15.0235 58.2984,15.2085 58.3294,15.4445 C57.2264,15.3505 56.1324,15.2585 55.1834,15.1775" id="Fill-31" fill="#FEFEFE"></path>
                <path d="M58.6268,11.1668 C58.8978,10.0758 59.2168,9.1318 59.3238,8.1648 C59.3618,7.8218 58.8848,7.4238 58.6738,7.1008 L61.3928,7.1008 C60.1778,7.8848 60.8158,9.0048 60.7708,9.9828 C60.7398,10.6388 61.3638,10.7828 61.9328,10.8338 C62.6878,10.8998 63.2528,10.6438 63.3898,10.0468 C63.5428,9.3778 63.5968,8.6838 63.6538,7.9968 C63.7128,7.3288 63.1338,7.3128 62.6148,7.2558 C62.6418,7.1968 62.6688,7.1358 62.6948,7.0748 C63.2958,7.0388 63.8958,6.9988 64.4958,6.9658 C64.5608,6.9618 64.6398,6.9838 64.6948,7.0208 C64.9458,7.1858 65.1618,9.1468 64.9618,9.3778 C64.4608,9.9558 63.9698,10.5448 63.4518,11.1088 C63.3338,11.2368 63.0908,11.3848 62.9578,11.3468 C61.5268,10.9338 60.0858,10.7538 58.6268,11.1668" id="Fill-33" fill="#FEFEFE"></path>
                <path d="M53.0418,12.2557 C52.2528,13.3177 52.1968,13.7457 52.6838,15.0537 C51.3888,14.9787 50.1588,14.9087 48.7148,14.8267 C49.5938,14.0827 49.6368,13.2137 49.5628,12.2557 L53.0418,12.2557 Z" id="Fill-35" fill="#FEFEFE"></path>
                <path d="M42.9676,15.3641 C42.2646,15.5001 41.4716,15.6551 40.5536,15.8321 C40.7986,14.6421 41.1966,13.5381 40.4626,12.4451 L42.7686,12.4451 C42.8356,13.4291 42.8986,14.3521 42.9676,15.3641" id="Fill-37" fill="#FEFEFE"></path>
                <path d="M35.3426,15.9246 C35.5716,14.8376 35.7826,13.8336 36.0126,12.7426 C36.5026,12.6816 37.1906,12.5946 37.8996,12.5056 C37.3686,14.1186 37.3686,14.1186 37.7356,15.9246 L36.4886,15.9246 L35.3426,15.9246 Z" id="Fill-39" fill="#FEFEFE"></path>
                <path d="M32.6873,12.9041 L32.6873,15.6141 C31.9473,15.6871 31.1633,16.0801 30.5123,15.4271 C30.2663,15.1811 30.0643,14.7641 30.0783,14.4341 C30.0863,14.1891 30.4333,13.8761 30.7053,13.7381 C31.3393,13.4131 32.0203,13.1781 32.6873,12.9041" id="Fill-41" fill="#FEFEFE"></path>
                <path d="M31.8084,5.2093 L35.1054,5.2093 C34.9264,6.0443 34.7634,6.8173 34.6044,7.5633 C33.6944,6.7963 32.8224,6.0623 31.8084,5.2093" id="Fill-43" fill="#FEFEFE"></path>
                <path d="M8.3787,15.7029 L9.7907,15.7029 L9.7907,18.4779 C9.7237,18.5159 9.5367,18.7139 9.3717,18.6979 C9.1627,18.6759 8.8287,18.5099 8.7957,18.3569 C8.6197,17.5139 8.5197,16.6549 8.3787,15.7029" id="Fill-45" fill="#FEFEFE"></path>
                <path d="M46.6551,14.9031 C46.1741,14.9441 45.7931,14.9741 45.4991,14.9981 L45.4991,12.2871 C46.2221,12.2431 46.7931,12.2081 47.5841,12.1591 C46.4981,12.9011 46.0421,13.7261 46.6551,14.9031" id="Fill-47" fill="#FEFEFE"></path>
                <path d="M89.5867,12.9295 C90.6247,12.8475 91.5217,12.7765 92.4617,12.7025 C91.6737,13.4045 90.9377,14.0625 90.1877,14.7315 C90.0477,14.3125 89.8387,13.6845 89.5867,12.9295" id="Fill-49" fill="#FEFEFE"></path>
                <path d="M82.3045,16.4593 C82.4425,15.6883 82.5905,15.0073 82.6835,14.3173 C82.7915,13.5103 82.8895,13.4103 83.6585,13.4523 L83.6585,16.4593 L82.3045,16.4593 Z" id="Fill-51" fill="#FEFEFE"></path>
                <path d="M56.4305,7.2684 L56.4305,10.7774 L55.5885,10.7774 C55.5885,10.0634 55.5915,9.3694 55.5875,8.6734 C55.5865,8.4674 55.5455,8.2594 55.5585,8.0544 C55.6145,7.2144 55.6605,7.1814 56.4305,7.2684" id="Fill-53" fill="#FEFEFE"></path>
                <path d="M94.7303,6.035 C93.8793,5.92 93.0283,5.806 92.1483,5.687 C91.0893,6.546 90.1873,6.652 89.6933,5.024 C91.4323,5.294 93.1163,5.555 94.7983,5.816 C94.7753,5.889 94.7523,5.962 94.7303,6.035" id="Fill-55" fill="#FEFEFE"></path>
                <path d="M86.617,13.1961 C86.755,13.1811 86.928,13.1621 87.053,13.1491 C87.23,14.2881 87.401,15.3841 87.585,16.5591 C87.053,16.5851 86.596,16.6061 85.982,16.6341 C87.361,15.6321 86.41,14.4001 86.617,13.1961" id="Fill-57" fill="#FEFEFE"></path>
                <path d="M25.658,5.3362 L28.926,5.3362 C28.541,5.8802 28.209,6.3502 27.901,6.7862 C27.196,6.3312 26.505,5.8832 25.658,5.3362" id="Fill-59" fill="#FEFEFE"></path>
                <path d="M101.1688,17.0926 C101.0078,16.9476 100.7618,16.7286 100.4318,16.4316 C100.5858,16.3496 100.7908,16.2436 101.0468,16.1106 C100.6548,15.7676 100.3868,15.5326 100.1178,15.2976 C100.1438,15.2446 100.1688,15.1946 100.1928,15.1426 C100.9098,15.4386 101.6278,15.7346 102.2888,16.0066 C101.8578,16.4256 101.5068,16.7646 101.1688,17.0926" id="Fill-61" fill="#FEFEFE"></path>
                <path d="M68.5399,12.763 C68.9509,11.845 69.3649,11.03 70.3429,10.506 C70.3479,11.172 70.2269,11.602 69.6079,11.823 C69.3899,11.9 69.1019,12.171 69.0989,12.359 C69.0939,12.609 69.3199,12.873 69.4769,13.112 C69.5679,13.254 69.7189,13.36 69.8409,13.482 C69.7789,13.549 69.7159,13.616 69.6529,13.683 C69.2949,13.387 68.9369,13.092 68.5399,12.763" id="Fill-63" fill="#FEFEFE"></path>
                <path d="M3.5662,22.0096 C3.7152,21.3356 3.8372,20.7836 3.9652,20.2066 C4.5242,20.3396 5.0362,20.4606 5.5922,20.5926 C4.9582,21.0366 4.3252,21.4786 3.5662,22.0096" id="Fill-65" fill="#FEFEFE"></path>
                <path d="M4.909,18.2034 C5.018,17.9894 5.111,17.8074 5.199,17.6314 L6.304,17.6314 C6.36,18.0184 6.417,18.3974 6.473,18.7744 C5.763,19.1384 5.39,18.5934 4.909,18.2034" id="Fill-67" fill="#FEFEFE"></path>
                <path d="M70.0301,6.7327 C69.2271,7.0347 68.4261,7.3347 67.5671,7.6567 C67.5381,7.3267 67.5161,7.0817 67.4861,6.7197 C68.3331,6.6757 69.1661,6.6307 70.0001,6.5867 C70.0091,6.6347 70.0191,6.6847 70.0301,6.7327" id="Fill-69" fill="#FEFEFE"></path>
                <path d="M12.8328,17.1634 C12.6388,17.2254 12.4028,17.3004 12.1968,17.3664 C12.2368,16.6724 12.2748,16.0104 12.3128,15.3434 C12.7578,15.3624 12.8238,15.4094 12.8308,15.8374 C12.8378,16.2464 12.8328,16.6554 12.8328,17.1634" id="Fill-71" fill="#FEFEFE"></path>
                <path d="M74.0858,14.1492 C74.4938,13.8932 74.8668,13.6592 75.2938,13.3912 C75.4988,13.6222 75.7878,13.9482 76.0768,14.2742 C76.0588,14.3282 76.0388,14.3822 76.0218,14.4362 C75.4208,14.3472 74.8208,14.2582 74.0858,14.1492" id="Fill-73" fill="#FEFEFE"></path>
                <path d="M74.3446,15.7498 C75.0626,15.8018 75.7796,15.8538 76.4966,15.9058 C76.5186,15.9528 76.5406,15.9978 76.5626,16.0448 C76.4346,16.1128 76.2876,16.2638 76.1816,16.2388 C75.5706,16.0938 74.8496,16.4518 74.2996,16.0268 C74.3146,15.9348 74.3296,15.8418 74.3446,15.7498" id="Fill-75" fill="#FEFEFE"></path>
                <path d="M97.2176,15.5301 C97.9976,15.3841 98.6366,15.2651 99.4146,15.1191 C98.6076,16.0541 98.5136,16.0711 97.2176,15.5301" id="Fill-77" fill="#FEFEFE"></path>
                <path d="M107.9725,19.8973 C107.5445,19.7393 107.3145,19.6543 107.0705,19.5643 C107.2055,19.1053 107.3315,18.6783 107.5155,18.0533 C107.6825,18.7243 107.8055,19.2243 107.9725,19.8973" id="Fill-79" fill="#FEFEFE"></path>
                <path d="M40.2547,6.2869 C40.7517,5.9219 41.1907,5.5999 41.6327,5.2739 C41.5197,6.2979 41.1497,6.5939 40.2547,6.2869" id="Fill-81" fill="#FEFEFE"></path>
                <path d="M52.4109,10.7732 C52.5639,10.3382 52.6669,10.0492 52.8239,9.6062 C52.9649,10.1312 53.0599,10.4902 53.1779,10.9232 C52.9379,10.8772 52.6929,10.8292 52.4109,10.7732" id="Fill-83" fill="#FEFEFE"></path>
                <path d="M42.8631,57.1565 C41.0431,56.9515 39.3551,56.4545 37.7681,55.6485 C37.4351,55.4795 37.1941,55.1175 36.9331,54.8245 C36.8501,54.7325 36.7581,54.5345 36.8011,54.4585 C37.3491,53.4995 36.6571,52.5945 36.6841,51.6555 C36.7081,50.8535 36.5611,50.0465 36.4951,49.2395 C36.4821,49.1015 36.4901,48.9625 36.4961,48.8235 C36.5741,47.1925 38.6671,45.2605 40.3001,45.2875 C40.5911,45.2925 40.8961,45.2125 41.1731,45.1145 C42.2881,44.7125 43.3881,44.2655 44.5141,43.8905 C44.7041,43.8275 44.9911,44.0225 45.2251,44.1165 C45.5741,44.2575 45.9061,44.4435 46.2611,44.5565 C47.0801,44.8145 47.9171,45.0215 48.7331,45.2875 C49.4201,45.5105 50.1561,45.6845 50.7481,46.0665 C51.4561,46.5275 52.1651,47.0985 52.6221,47.7865 C52.9261,48.2435 52.7731,48.9915 52.8601,49.6055 C52.9611,50.3045 53.1491,50.9935 53.2021,51.6965 C53.2241,51.9815 53.0741,52.3915 52.8561,52.5655 C51.1711,53.9105 49.4481,55.2115 47.7431,56.5355 C47.5641,56.6755 47.4431,56.8845 47.2941,57.0605 C46.8921,57.5255 46.3821,57.6865 45.8571,57.3665 C45.3021,57.0295 44.8791,57.1795 44.3901,57.4805 C43.5911,57.9735 43.3061,57.8845 42.8631,57.1565" id="Fill-85" fill="#B02524"></path>
                <path d="M80.3983,40.6053 C80.1083,42.2683 80.6133,43.7483 81.4143,45.1523 C81.7983,45.8273 81.6813,46.3363 80.9633,46.7033 C80.2393,47.0743 79.4573,47.3393 78.7463,47.7343 C77.6693,48.3313 76.6283,48.9903 75.5833,49.6423 C74.9473,50.0383 74.3473,50.4923 73.7063,50.8773 C72.9903,51.3073 72.5423,51.2103 71.9903,50.5893 C71.8823,50.4683 71.7863,50.3213 71.6523,50.2413 C70.5773,49.6103 69.7503,48.6763 68.7053,47.9843 C67.2633,47.0303 66.0363,45.7563 64.7473,44.5863 C64.3183,44.1993 64.3813,43.7133 64.7603,43.2853 C65.4703,42.4853 66.1423,41.6473 66.9023,40.8973 C68.5443,39.2843 70.2313,37.7193 71.8963,36.1313 C72.3363,35.7123 72.8073,35.6803 73.3773,35.8773 C74.8513,36.3853 76.3383,36.8563 77.8303,37.3103 C78.0453,37.3763 78.3283,37.2953 78.5613,37.2253 C79.3743,36.9793 79.7763,37.1253 79.9803,37.9543 C80.1933,38.8193 80.2653,39.7193 80.3983,40.6053" id="Fill-87" fill="#B02524"></path>
                <path d="M60.2889,34.1092 C60.2379,34.4472 60.1459,34.7462 60.1619,35.0392 C60.1819,35.4332 60.1879,35.8722 60.3659,36.2052 C60.8089,37.0362 60.6179,38.0052 59.7399,38.3802 C58.2409,39.0172 56.8929,39.8612 55.6609,40.9132 C54.6469,41.7782 53.4519,41.5862 52.3189,41.2872 C51.3349,41.0272 50.3919,40.6002 49.4419,40.2212 C48.4509,39.8242 47.4819,39.3772 46.4899,38.9892 C45.8029,38.7202 45.5369,38.0792 45.7299,37.3582 C45.9119,36.6842 45.9649,35.9742 46.0479,35.2762 C46.1009,34.8182 46.1089,34.3562 46.1299,33.8952 C46.1429,33.5512 46.2069,33.1942 46.1409,32.8632 C45.9389,31.8622 46.1259,31.2642 47.0609,30.8172 C48.9079,29.9332 50.7869,29.1132 52.6639,28.2922 C53.3699,27.9842 54.0279,28.2352 54.6709,28.5682 C55.7469,29.1242 56.7809,29.8542 57.9299,30.1522 C59.4829,30.5582 60.2159,31.3222 60.0999,32.9152 C60.0709,33.3172 60.2249,33.7312 60.2889,34.1092" id="Fill-89" fill="#B02524"></path>
                <path d="M33.2049,36.9388 C31.7579,36.9388 30.3089,36.9528 28.8609,36.9338 C27.9129,36.9218 26.9599,36.9018 26.0169,36.8018 C25.7379,36.7718 25.3559,36.5108 25.2479,36.2598 C24.4699,34.4568 23.7499,32.6288 23.0059,30.8108 C22.8929,30.5358 22.7999,30.2298 22.6089,30.0118 C22.1829,29.5218 22.2769,29.0898 22.7489,28.7688 C24.5929,27.5148 26.1989,25.9698 28.1829,24.8588 C29.6009,24.0648 30.7109,24.2308 31.9709,24.8558 C33.0969,25.4138 34.2629,25.9118 35.3279,26.5688 C36.1639,27.0838 36.9269,27.7478 37.6169,28.4468 C38.0739,28.9108 38.0869,29.5358 37.7799,30.1908 C37.0759,31.6898 36.4269,33.2158 35.7979,34.7468 C35.6259,35.1618 35.5639,35.6318 35.5189,36.0838 C35.4579,36.6968 35.1419,37.0138 34.5379,37.0408 C34.0949,37.0608 33.6489,37.0438 33.2049,37.0438 L33.2049,36.9388" id="Fill-91" fill="#B02524"></path>
                <path d="M94.6063,41.5779 C93.2153,41.6769 91.8243,41.7649 90.4363,41.8809 C89.6303,41.9479 89.2603,41.5879 89.2003,40.7849 C89.1533,40.1739 89.0423,39.5399 88.8173,38.9729 C88.0873,37.1249 87.2863,35.3059 86.5233,33.4709 C86.3423,33.0329 86.4243,32.6679 86.8713,32.4019 C87.3443,32.1209 87.7953,31.8039 88.2533,31.4969 C88.6593,31.2259 89.0523,30.9339 89.4643,30.6719 C90.0853,30.2779 90.7083,29.8849 91.3463,29.5229 C91.9043,29.2059 92.4783,29.0269 93.1473,29.2589 C95.3403,30.0199 97.5633,30.7029 99.7383,31.5129 C100.5803,31.8269 101.2333,32.3429 101.4493,33.4409 C101.6283,34.3609 101.3133,35.0629 101.2103,35.8749 C101.0093,37.4339 100.0933,38.5589 99.3503,39.8099 C99.1983,40.0679 99.0403,40.3429 98.9823,40.6279 C98.8273,41.3779 98.3533,41.6619 97.6303,41.6609 C96.6263,41.6579 95.6203,41.6589 94.6153,41.6589 C94.6123,41.6329 94.6083,41.6049 94.6063,41.5779" id="Fill-93" fill="#B02524"></path>
                <path d="M20.8973,40.014 C20.0633,40.042 19.4883,39.554 19.0063,38.988 C18.6343,38.55 18.8693,38.043 19.1423,37.638 C19.5263,37.072 20.1153,36.856 20.7913,36.969 C21.6853,37.118 22.3753,37.877 22.4803,38.772 C22.5643,39.486 21.8923,40.013 20.8973,40.014" id="Fill-95" fill="#B02524"></path>
                <path d="M59.8553,24.1194 C60.1803,24.1414 60.5073,24.1914 60.8333,24.1804 C61.3603,24.1624 61.8283,24.3334 61.9193,24.8454 C61.9983,25.2774 61.9853,25.8464 61.7583,26.1904 C61.1293,27.1394 59.2993,27.1464 58.7153,26.1774 C58.4773,25.7804 58.5273,25.0834 58.7023,24.6184 C58.8183,24.3104 59.3923,24.1734 59.7613,23.9594 C59.7923,24.0134 59.8233,24.0664 59.8553,24.1194" id="Fill-97" fill="#B02524"></path>
                <path d="M39.3865,42.511007 C38.4745,42.513 38.0025,42.089 37.9855,41.246 C37.9635,40.284 38.6825,39.695 39.8855,39.687 C40.7515,39.681 41.4265,40.235 41.4215276,40.945 C41.4135,41.973 40.7195,42.507 39.3865,42.511007" id="Fill-99" fill="#B02524"></path>
                <path d="M86.3133,40.2703 C87.0963,40.2813 87.7923,40.9293 87.7873268,41.6413 C87.7803,42.4253 86.9823,43.1973 86.1983,43.1783 C85.2593,43.1573 84.5043,42.4873 84.501299,41.6783 C84.5003,40.8363 85.2503,40.2553 86.3133,40.2703" id="Fill-101" fill="#B02524"></path>
                <path d="M59.7576,47.8304 C59.4166,47.7614 59.0576,47.7374 58.7396,47.6134 C58.1116,47.3694 57.7846,46.7034 57.9336,46.0944 C58.1036,45.3954 58.5676,45.0104 59.3206,45.1424 C59.8876,45.2424 60.5556,45.4154 60.9226,45.7964 C61.2136,46.0984 61.3146,46.8594 61.1296,47.2434 C60.9566,47.6034 60.2996,47.7334 59.8556,47.9674 C59.8216,47.9214 59.7896,47.8754 59.7576,47.8304" id="Fill-103" fill="#B02524"></path>
                <path d="M19.4568,28.8572 C19.1418,28.7632 18.6718,28.6872 18.2648,28.4842 C17.6548,28.1832 17.5208,27.6242 17.6918,27.0012 C17.8528,26.4162 18.4028,26.0312 19.0178,26.0892 C19.8348,26.1672 20.4978,26.5132 20.8608,27.2832 C21.2718,28.1522 21.0478,28.5782 20.0928,28.7612 C19.9328,28.7922 19.7698,28.8102 19.4568,28.8572" id="Fill-105" fill="#B02524"></path>
                <path d="M106.5506,28.8348 C106.5246,28.9208 106.4946,29.0568 106.4406,29.1828 C106.2056,29.7248 105.7576,30.0368 105.1926,30.0438 C104.5536,30.0518 103.8596,30.0688 103.4126,29.4658 C103.0606,28.9918 103.1456,28.3258 103.5816,27.8858 C104.2356,27.2288 104.7696,27.0998 105.3516,27.4608 C106.2786,28.0358 106.5576,28.3418 106.5506,28.8348" id="Fill-107" fill="#B02524"></path>
                <path d="M43.784,29.7269052 C42.895,29.7289 42.041,29.1519 42.0439921,28.5519 C42.048,27.7869 42.856,27.0829 43.716,27.0989 C44.634,27.1149 45.463,27.7599 45.474,28.4689 C45.487,29.2239 44.815,29.7249 43.784,29.7269052" id="Fill-109" fill="#B02524"></path>
                <path d="M80.7059,33.1712 C80.0649,33.0612 79.3829,32.7602 79.0719,32.0682 C78.9399,31.7772 79.0799,31.2552 79.2779,30.9552 C79.5849,30.4872 80.1009,30.0752 80.6959,30.3632 C81.2159,30.6132 81.7359,30.9982 82.0729,31.4552 C82.5609,32.1192 81.7429,33.1812 80.7059,33.1712" id="Fill-111" fill="#B02524"></path>
                <path d="M50.9608,61.6653 C49.9348,61.6503 48.8668,61.0213 48.9008,60.4543 C48.9418,59.7903 50.0008,59.0193 50.8508,59.0373 C51.6668,59.0553 52.3508,59.7383 52.3188,60.5043 C52.2888,61.2443 51.7798,61.6783 50.9608,61.6653" id="Fill-113" fill="#B02524"></path>
                <path d="M67.8641,33.535 C67.1361,33.514 66.3761,32.818 66.4061,32.199 C66.4401,31.498 67.3801,30.644 68.0781,30.68 C68.8631,30.719 69.6361,31.441 69.6251,32.124 C69.6141,32.791 68.6581,33.556 67.8641,33.535" id="Fill-115" fill="#B02524"></path>
                <path d="M32.532,40.8304 C32.51,41.5224 31.684,42.2354 30.941,42.2064 C30.074,42.1734 29.311,41.5854 29.345,40.9784 C29.404,39.9544 29.928,39.5224 31.078,39.5534 C31.929,39.5744 32.555,40.1244 32.532,40.8304" id="Fill-117" fill="#B02524"></path>
                <path d="M35.6317,20.6116 C36.5377,20.5906 37.3437,21.3236 37.3457013,22.1696 C37.3467,22.8156 36.7757,23.2676 35.9257,23.2946 C34.9417,23.3246 34.2467,22.6896 34.2397,21.7566 C34.2357,20.9476 34.6147,20.6346 35.6317,20.6116" id="Fill-119" fill="#B02524"></path>
                <path d="M77.3221,54.6233 C77.2991,53.9023 78.0421,53.3233 78.9421,53.3623 C79.8341,53.4003 80.8041,54.5653 80.5131,55.2453 C80.2621,55.8283 79.6801,56.1283 79.0421,56.0053 C78.0851,55.8223 77.3431,55.2243 77.3221,54.6233" id="Fill-121" fill="#B02524"></path>
                <path d="M52.2537,23.8474964 C52.9767,23.8455 53.8817,24.6795 53.8607,25.3315 C53.8397,26.0055 53.1607,26.6255 52.4477,26.6185 C51.7177,26.6125 50.7287,25.8855 50.7097,25.3395 C50.6887,24.7535 51.6237,23.8495 52.2537,23.8474964" id="Fill-123" fill="#B02524"></path>
                <path d="M36.1063,59.6878 C35.5063,59.6558 34.8813,59.4668 34.6513,58.8578 C34.5103,58.4848 34.5733,57.9338 34.7623,57.5778 C34.8983,57.3248 35.3923,57.1658 35.7403,57.1438 C36.1353,57.1158 36.6653,57.1608 36.9173,57.4008 C37.2383,57.7038 37.5183,58.2458 37.4913,58.6658 C37.4473,59.3698 36.8993,59.6878 36.1063,59.6878" id="Fill-125" fill="#B02524"></path>
                <path d="M86.9442,27.1204 C86.9552,27.9194 86.4282,28.4254 85.5662,28.4444 C84.7132,28.4634 84.1012,27.9594 84.0812,27.2194 C84.0592,26.4514 84.8302,25.6714 85.5952,25.6844 C86.2932,25.6974 86.9332,26.3784 86.9442,27.1204" id="Fill-127" fill="#B02524"></path>
                <path d="M59.16,53.7923 L59.019,53.7853 C58.134,53.7323 57.399,53.1903 57.432,52.6123 C57.471,51.9593 58.514,51.2173 59.308,51.4253 C59.801,51.5543 60.306,51.8993 60.633,52.2893 C60.783,52.4693 60.637,53.1033 60.414,53.3283 C60.122,53.6253 59.622,53.7213 59.212,53.9053 C59.194,53.8673 59.177,53.8303 59.16,53.7923" id="Fill-129" fill="#B02524"></path>
                <path d="M99.8016,43.1609 C100.6026,43.1549 101.0726,43.5759 101.0786,44.3059 C101.0896,45.2869 100.7066,45.6599 99.6746,45.6729 C98.7916,45.6839 97.9866,45.1549 97.9656,44.5499 C97.9446,43.9089 98.9236,43.1689 99.8016,43.1609" id="Fill-131" fill="#B02524"></path>
                <path d="M64.493,37.9627 C65.311,37.9767 65.9,38.4707 65.941,39.1397 C65.981,39.7897 65.599,40.1387 64.747,40.3027 C64.038,40.4397 63.419,40.2917 63.024,39.7007 C62.866,39.4627 62.835,39.0147 62.951,38.7497 C63.239,38.0957 63.905,38.0207 64.493,37.9627" id="Fill-133" fill="#B02524"></path>
                <path d="M20.6736,15.6648 C19.8986,15.6498 19.6196,15.2378 19.8136,14.5098 C19.8986,14.1908 19.7926,13.8278 19.8606,13.5018 C19.9236,13.1968 20.0246,12.7578 20.2416,12.6558 C20.5796,12.4958 21.1016,12.4348 21.4106,12.5918 C21.6446,12.7088 21.7116,13.2258 21.7716,13.5778 C21.8196,13.8608 21.6916,14.1708 21.7346,14.4548 C21.8436,15.1808 21.4276,15.6788 20.6736,15.6648" id="Fill-135" fill="#B02524"></path>
                <path d="M16.8524,12.8138 C16.0404,12.8318 15.7464,12.3728 16.0864,11.6568 C16.2244,11.3708 16.3364,11.0648 16.4094,10.7558 C16.5474,10.1608 16.9794,9.8608 17.5844,9.9858 C18.2144,10.1148 18.1654,10.5338 18.0404,11.0018 C17.9944,11.1778 17.9624,11.3698 17.9794,11.5478 C18.0844,12.7178 18.0264,12.7888 16.8524,12.8138" id="Fill-137" fill="#B02524"></path>
                <path d="M24.4676,12.2791 C23.6166,12.2651 23.3446,11.9151 23.5406,11.1071 C23.5886,10.9071 23.5886,10.6961 23.6326,10.4951 C23.7776,9.8181 24.3886,9.4091 25.0906,9.5171 C25.5356,9.5841 25.7536,9.7831 25.6046,10.2761 C25.4996,10.6231 25.4546,10.9911 25.4296,11.3541 C25.3866,11.9751 25.0796,12.2891 24.4676,12.2791" id="Fill-139" fill="#B02524"></path>
                <path d="M17.9109,16.2112 C16.9919,16.1912 16.6639,15.9352 16.6829,15.2512 C16.7029,14.6402 17.1639,14.2192 17.7819,14.2512 C18.3219,14.2782 18.9039,14.8782 18.8999205,15.4052 C18.8969,15.9392 18.5459,16.2252 17.9109,16.2112" id="Fill-141" fill="#B02524"></path>
                <path d="M31.0135,9.8382 C30.9765,10.6302 30.6995,10.9642 30.0245,10.9372 C29.4255,10.9112 29.0475,10.4642 29.0765,9.8112 C29.1005,9.2322 29.6155,8.7912 30.2735,8.8132 C30.8745,8.8332 31.0655,9.2002 31.0135,9.8382" id="Fill-143" fill="#B02524"></path>
                <path d="M82.0623,10.3792 C81.7643,10.1152 81.3363,9.9052 81.1993,9.5752 C80.9723,9.0342 81.4283,8.0152 81.8413,7.8872 C81.9883,7.8422 82.2393,7.8062 82.3073,7.8832 C82.6813,8.3022 83.0783,8.7232 83.3373,9.2122 C83.5743,9.6552 83.1913,9.9332 82.8113,10.1042 C82.6253,10.1882 82.4093,10.2052 82.2083,10.2522 C82.1583,10.2942 82.1103,10.3372 82.0623,10.3792" id="Fill-145" fill="#B02524"></path>
                <path d="M80.6024,6.9134 C80.6644,7.8524 80.5224,8.1004 79.9084,8.1434 C79.2444,8.1894 78.8684,7.7724 78.8054,6.9224 C78.7504,6.1744 79.0684,5.7674 79.7334,5.7284 C80.4114,5.6874 80.5344,5.8534 80.6024,6.9134" id="Fill-147" fill="#B02524"></path>
                <path d="M86.6532,9.6346 C86.6322,10.0576 86.5162,10.5356 85.8872,10.5876 C85.2072,10.6436 84.6942,10.1986 84.6942,9.6206 C84.6952,8.7856 84.9272,8.4436 85.5132,8.4176 C86.1762,8.3896 86.6362,8.8426 86.6532,9.6346" id="Fill-149" fill="#B02524"></path>
            </g>
        </g>
    </g>
</svg>