<?xml version="1.0" encoding="UTF-8"?>
<svg width="89px" height="70px" viewBox="0 0 89 70" version="1.1" xmlns="http://www.w3.org/2000/svg" xmlns:xlink="http://www.w3.org/1999/xlink">
    <!-- Generator: Sketch 64 (93537) - https://sketch.com -->
    <title>Group 93</title>
    <desc>Created with Sketch.</desc>
    <g id="Page-1" stroke="none" stroke-width="1" fill="none" fill-rule="evenodd">
        <g id="illustration" transform="translate(-457.000000, -397.000000)">
            <g id="Group-93" transform="translate(457.000000, 398.000000)">
                <path d="M1.9873,50.6648 C1.9453,50.6568 1.9043,50.6488 1.8623,50.6418 C1.8163,50.7608 1.7593,50.8768 1.7243,50.9998 C1.2663,52.6128 1.1153,54.2288 1.2573,55.9238 C1.3763,57.3668 1.7043,58.7218 2.1953,60.0508 C2.5983,61.1398 3.2963,62.0488 4.1423,62.8458 C4.6913,63.3618 5.2063,63.9128 5.7553,64.4288 C6.1233,64.7758 6.4923,65.1358 6.9143,65.4078 C9.5263,67.0858 12.4303,67.6928 15.4903,67.5898 C18.2963,67.4948 20.9113,66.6638 23.3813,65.3418 C24.1583,64.9258 24.9583,64.5508 25.7593,64.1848 C28.2393,63.0548 30.7443,61.9778 33.1993,60.7988 C34.3103,60.2648 35.3243,59.5288 36.3903,58.8998 C36.9953,58.5438 37.6343,58.2448 38.2293,57.8728 C40.2133,56.6368 42.1803,55.3758 44.1573,54.1298 C47.2273,52.1958 50.4163,50.4488 53.3433,48.2908 C53.6443,48.0698 53.9933,47.9148 54.3183,47.7268 C54.9823,47.3438 55.6653,46.9898 56.3043,46.5698 C58.0943,45.3958 59.8693,44.1978 61.6433,43.0008 C62.0503,42.7268 62.4333,42.4198 62.8293,42.1288 C63.2903,41.7898 63.7263,41.4098 64.2163,41.1208 C67.6403,39.1068 70.8493,36.8028 73.8233,34.1658 C75.9903,32.2458 78.1813,30.3538 80.3863,28.4778 C81.3933,27.6208 82.4593,26.8328 83.4933,26.0088 C83.6313,25.8988 83.7623,25.7668 83.8543,25.6188 C84.3073,24.8818 84.7653,24.1458 85.1853,23.3888 C85.4533,22.9068 85.7263,22.4088 85.8783,21.8828 C86.3493,20.2408 86.7643,18.5818 87.1983668,16.9298 C87.2003,16.9228 87.1573,16.9038 87.0853,16.8628 C86.8773,17.3808 86.6933,17.9018 86.4623,18.4018 C85.8803,19.6598 85.3503,20.9498 84.6593,22.1458 C84.0603,23.1798 83.2693,24.1028 82.5583,25.0698 C82.4623,25.2008 82.3453,25.3208 82.2213,25.4268 C80.4623,26.9378 78.7343,28.4878 76.9273,29.9398 C75.3863,31.1798 73.7543,32.3058 72.1613,33.4798 C69.9223,35.1308 67.6873,36.7888 65.4383,38.4238 C64.8453,38.8548 64.2083,39.2268 63.5803,39.6078 C62.9523,39.9878 62.2813,40.3038 61.6763,40.7178 C58.7793,42.7078 55.8583,44.6678 53.0193,46.7408 C49.5033,49.3098 45.9483,51.8138 42.2023,54.0388 C41.7553,54.3038 41.2773,54.5208 40.8413,54.8008 C39.8383,55.4458 38.8813,56.1658 37.8523,56.7658 C35.8613,57.9238 33.8573,59.0628 31.8163,60.1298 C29.9813,61.0898 28.0983,61.9588 26.2213,62.8348 C25.0403,63.3868 23.8373,63.8938 22.6323,64.3948 C21.6403,64.8078 20.6373,65.1958 19.6313,65.5688 C19.1003,65.7658 18.5383,65.8788 18.0113,66.0818 C17.2943,66.3588 16.5623,66.5148 15.8043,66.3768 C14.8433,66.2028 13.8703,66.0458 12.9403,65.7578 C12.0303,65.4768 11.1703,65.0338 10.2843,64.6708 C8.7423,64.0398 7.3003,63.2528 6.1463,62.0158 C6.0033,61.8608 5.8323,61.7288 5.6633,61.5998 C2.8233,59.4238 1.8323,56.4618 1.9823,53.0028 C2.0153,52.2258 1.9873,51.4448 1.9873,50.6648 L1.9873,50.6648 Z M2.9983,52.7628 C2.9983,53.2318 2.9873,53.8698 3.0013,54.5078 C3.0333,55.9748 3.4053,57.3218 4.2183,58.5788 C5.1853,60.0708 6.5953,61.0968 7.8903,62.2328 C8.8583,63.0828 12.5033,64.5558 13.7493,64.8368 C14.4953,65.0048 15.2303,65.2228 15.9773,65.3838 C16.2213,65.4368 16.4963,65.4146137 16.7453,65.3678 C18.9243,64.9528 20.9663,64.1558 22.9663,63.2058 C24.1123,62.6598 25.3473,62.3028 26.4993,61.7658 C27.9913,61.0708 29.4633,60.3218 30.9043,59.5248 C33.6773,57.9918 36.4333,56.4258 39.1753,54.8378 C40.3203,54.1738 41.3963,53.3928 42.5303,52.7078 C44.9663,51.2368 47.3433,49.6828 49.6383,47.9998 C51.1673,46.8788 52.7273,45.8018 54.2803,44.7138 C54.8153,44.3388 55.4073,44.0358 55.9083,43.6218 C58.2403,41.6968 60.7763,40.0858 63.4063,38.6088 C64.0893,38.2258 64.7443,37.7848 65.3743,37.3178 C68.6763,34.8758 72.0053,32.4648 75.2513,29.9488 C77.9943,27.8228 80.8933,25.8618 82.9343,22.9388 C83.9893,21.4278 84.9353,19.8808 85.5623,18.1438 C85.7573,17.6088 85.9623,17.0738 86.2163,16.5648 C87.2373,14.5248 87.1233,12.4298 86.2313,10.4508 C85.5153,8.8628 84.2823,7.5818 82.8073,6.6028 C81.6693,5.8468 80.5333,5.0648 79.3173,4.4498 C78.0043,3.7838 76.6053,3.2818 75.2303,2.7408 C74.6113,2.4978 73.9703,2.2948 73.3233,2.1418 C71.9593,1.8188 70.6893,1.0598 69.1563,1.5908 C67.9383,2.0128 66.6213,1.9818 65.4833,2.8478 C64.2343,3.7998 62.7563,4.4488 61.3973,5.2618 C60.7253,5.6648 60.0933,6.1358 59.4503,6.5838 C58.2693,7.4068 57.1333,8.2988 55.9073,9.0478 C52.3643,11.2148 48.7593,13.2678 45.4293,15.7848 C42.1423,18.2688 38.6853,20.5268 35.3103,22.8948 C33.9473,23.8518 32.6653,24.9358 31.0323,25.4398 C30.8173,25.5068 30.6223,25.6428 30.4243,25.7568 C29.1423,26.4978 27.8413,27.2068 26.5873,27.9908 C24.7573,29.1348 22.9203,30.2758 21.1583,31.5208 C18.3923,33.4758 15.6603,35.4788 12.9663,37.5308 C10.9363,39.0778 8.9843,40.7278 7.0073,42.3448 C6.7053,42.5918 6.4133,42.8738 6.1943,43.1938 C5.4463,44.2868 4.6553,45.3618 4.0283,46.5228 C3.2633,47.9388 2.7883,49.4678 2.9153,51.1228 C2.9533,51.6118 2.9663,52.1018 2.9983,52.7628 L2.9983,52.7628 Z M88.6373,15.0948 C88.5703,15.3108 88.4853,15.5218 88.4393,15.7418 C87.9403,18.1458 87.3753,20.5458 86.5453,22.8458 C86.0573,24.1978 85.0893,25.3778 84.3143,26.6208 C84.2113,26.7858 83.9903,26.9338 83.7993,26.9768 C83.1723,27.1168 82.8393,27.6218 82.3943,27.9978 C79.7893,30.2108 77.4583,32.7448 74.6103,34.6748 C74.5023,34.7478 74.3983,34.8318 74.3083,34.9258 C72.2583,37.0488 69.7903,38.6438 67.4103,40.3458 C66.5363,40.9698 65.5273,41.4008 64.6263,41.9908 C63.0663,43.0098 61.5543,44.1018 60.0023,45.1308 C57.6833,46.6678 55.3603,48.1988 53.0153,49.6948 C50.6043,51.2338 48.1573,52.7178 45.7393,54.2478 C44.2353,55.2008 42.7723,56.2178 41.2653,57.1648 C39.9663,57.9808 38.6293,58.7388 37.3093,59.5228 C36.5403,59.9798 35.7713,60.4358 35.0033,60.8928 C33.7103,61.6608 32.4173,62.4108 30.9853,62.9248 C29.9143,63.3098 28.9113,63.8828 27.8753,64.3688 C26.4833,65.0198 25.0913,65.6678 23.6983,66.3168 C23.5353,66.3928 23.3603,66.4498 23.2093,66.5448 C21.1973,67.8038 18.9003,68.1828 16.6413,68.6788 C16.5493,68.6988 16.4623,68.7438 16.3733,68.7768 L13.8163,68.7768 C13.7393,68.7518 13.6643,68.7138 13.5853,68.7028 C11.4233,68.3808 9.3003,67.9358 7.3083,66.9728 C6.5163,66.5898 5.7423,66.2388 5.2703,65.4478 C5.2153,65.3548 5.1083,65.2898 5.0203,65.2168 C3.7163,64.1398 2.5373,62.9448 1.6193,61.5168 C1.3933,61.1648 1.2103,60.7638 1.1093,60.3598 C0.8363,59.2688 0.6213,58.1618 0.3733,57.0638 C0.3213,56.8338 0.2253,56.6138 0.1503,56.3888 L0.1503,54.2258 C0.2963,53.2408 0.4113,52.2498 0.5943,51.2718 C0.8793,49.7618 1.5333,48.3878 2.2383,47.0358 C2.5703,46.3988 2.8953,45.7578 3.1873,45.1028 C3.4263,44.5658 3.7833,44.2208 4.3303,43.9688 C4.6763,43.8088 5.0223,43.4388 5.1633,43.0818 C5.5283,42.1588 6.1853,41.6028 6.9873,41.0578 C8.2553,40.1948 9.3843,39.1328 10.6093,38.2028 C12.8753,36.4818 15.1673,34.7928 17.4503,33.0958 C18.0543,32.6468 18.6793,32.2268 19.2763,31.7688 C22.1003,29.6058 25.0263,27.6058 28.2253,26.0298 C28.3863,25.9508 28.5743,25.8918 28.6963,25.7698 C29.5263,24.9538 30.6133,24.6118 31.6243,24.1178 C32.3253,23.7738 32.9873,23.3358 33.6243,22.8818 C36.0223,21.1708 38.3673,19.3838 40.7983,17.7218 C44.4703,15.2098 48.1833,12.7568 51.9103,10.3258 C53.4293,9.3348 55.0503,8.5008 56.5823,7.5278 C57.4633,6.9678 58.2343,6.2398 59.0973,5.6498 C60.0393,5.0068 61.0283,4.4328 62.0013,3.8358 C62.8353,3.3238 63.6813,2.8298 64.5093,2.3088 C64.6163,2.2418 64.6973,2.0598 64.7073,1.9248 C64.7523,1.3418 65.0043,1.0998 65.5703,1.1318 C65.6993,1.1388 65.8353,1.1438 65.9613,1.1168 C67.3333,0.8258 68.7043,0.5278 70.0753,0.2298 C70.1363,0.2168 70.1923,0.1778 70.2523,0.1498 L71.1363,0.1498 C71.5663,0.3418 71.9853,0.5678 72.4283,0.7208 C74.2193,1.3368 76.0703,1.7948 77.7403,2.7338 C77.8223,2.7798 77.9263,2.7828 78.0193,2.8108 C78.5003,2.9568 79.0343,3.0168 79.4503,3.2698 C81.0523,4.2428 82.7183,5.1238 84.1553,6.3518 C85.4373,7.4498 86.5513,8.6918 87.2083,10.2648 C87.7353,11.5258 88.1653,12.8278 88.6373,14.1118 L88.6373,15.0948 Z" id="Fill-1" fill="#B02524"></path>
                <path d="M1.9873,50.6648 C1.9453,50.6568 1.9043,50.6488 1.8623,50.6418 C1.8163,50.7608 1.7593,50.8768 1.7243,50.9998 C1.2663,52.6128 1.1153,54.2288 1.2573,55.9238 C1.3763,57.3668 1.7043,58.7218 2.1953,60.0508 C2.5983,61.1398 3.2963,62.0488 4.1423,62.8458 C4.6913,63.3618 5.2063,63.9128 5.7553,64.4288 C6.1233,64.7758 6.4923,65.1358 6.9143,65.4078 C9.5263,67.0858 12.4303,67.6928 15.4903,67.5898 C18.2963,67.4948 20.9113,66.6638 23.3813,65.3418 C24.1583,64.9258 24.9583,64.5508 25.7593,64.1848 C28.2393,63.0548 30.7443,61.9778 33.1993,60.7988 C34.3103,60.2648 35.3243,59.5288 36.3903,58.8998 C36.9953,58.5438 37.6343,58.2448 38.2293,57.8728 C40.2133,56.6368 42.1803,55.3758 44.1573,54.1298 C47.2273,52.1958 50.4163,50.4488 53.3433,48.2908 C53.6443,48.0698 53.9933,47.9148 54.3183,47.7268 C54.9823,47.3438 55.6653,46.9898 56.3043,46.5698 C58.0943,45.3958 59.8693,44.1978 61.6433,43.0008 C62.0503,42.7268 62.4333,42.4198 62.8293,42.1288 C63.2903,41.7898 63.7263,41.4098 64.2163,41.1208 C67.6403,39.1068 70.8493,36.8028 73.8233,34.1658 C75.9903,32.2458 78.1813,30.3538 80.3863,28.4778 C81.3933,27.6208 82.4593,26.8328 83.4933,26.0088 C83.6313,25.8988 83.7623,25.7668 83.8543,25.6188 C84.3073,24.8818 84.7653,24.1458 85.1853,23.3888 C85.4533,22.9068 85.7263,22.4088 85.8783,21.8828 C86.3493,20.2408 86.7643,18.5818 87.1983668,16.9298 C87.2003,16.9228 87.1573,16.9038 87.0853,16.8628 C86.8773,17.3808 86.6933,17.9018 86.4623,18.4018 C85.8803,19.6598 85.3503,20.9498 84.6593,22.1458 C84.0603,23.1798 83.2693,24.1028 82.5583,25.0698 C82.4623,25.2008 82.3453,25.3208 82.2213,25.4268 C80.4623,26.9378 78.7343,28.4878 76.9273,29.9398 C75.3863,31.1798 73.7543,32.3058 72.1613,33.4798 C69.9223,35.1308 67.6873,36.7888 65.4383,38.4238 C64.8453,38.8548 64.2083,39.2268 63.5803,39.6078 C62.9523,39.9878 62.2813,40.3038 61.6763,40.7178 C58.7793,42.7078 55.8583,44.6678 53.0193,46.7408 C49.5033,49.3098 45.9483,51.8138 42.2023,54.0388 C41.7553,54.3038 41.2773,54.5208 40.8413,54.8008 C39.8383,55.4458 38.8813,56.1658 37.8523,56.7658 C35.8613,57.9238 33.8573,59.0628 31.8163,60.1298 C29.9813,61.0898 28.0983,61.9588 26.2213,62.8348 C25.0403,63.3868 23.8373,63.8938 22.6323,64.3948 C21.6403,64.8078 20.6373,65.1958 19.6313,65.5688 C19.1003,65.7658 18.5383,65.8788 18.0113,66.0818 C17.2943,66.3588 16.5623,66.5148 15.8043,66.3768 C14.8433,66.2028 13.8703,66.0458 12.9403,65.7578 C12.0303,65.4768 11.1703,65.0338 10.2843,64.6708 C8.7423,64.0398 7.3003,63.2528 6.1463,62.0158 C6.0033,61.8608 5.8323,61.7288 5.6633,61.5998 C2.8233,59.4238 1.8323,56.4618 1.9823,53.0028 C2.0153,52.2258 1.9873,51.4448 1.9873,50.6648 Z M2.9983,52.7628 C2.9983,53.2318 2.9873,53.8698 3.0013,54.5078 C3.0333,55.9748 3.4053,57.3218 4.2183,58.5788 C5.1853,60.0708 6.5953,61.0968 7.8903,62.2328 C8.8583,63.0828 12.5033,64.5558 13.7493,64.8368 C14.4953,65.0048 15.2303,65.2228 15.9773,65.3838 C16.2213,65.4368 16.4963,65.4146137 16.7453,65.3678 C18.9243,64.9528 20.9663,64.1558 22.9663,63.2058 C24.1123,62.6598 25.3473,62.3028 26.4993,61.7658 C27.9913,61.0708 29.4633,60.3218 30.9043,59.5248 C33.6773,57.9918 36.4333,56.4258 39.1753,54.8378 C40.3203,54.1738 41.3963,53.3928 42.5303,52.7078 C44.9663,51.2368 47.3433,49.6828 49.6383,47.9998 C51.1673,46.8788 52.7273,45.8018 54.2803,44.7138 C54.8153,44.3388 55.4073,44.0358 55.9083,43.6218 C58.2403,41.6968 60.7763,40.0858 63.4063,38.6088 C64.0893,38.2258 64.7443,37.7848 65.3743,37.3178 C68.6763,34.8758 72.0053,32.4648 75.2513,29.9488 C77.9943,27.8228 80.8933,25.8618 82.9343,22.9388 C83.9893,21.4278 84.9353,19.8808 85.5623,18.1438 C85.7573,17.6088 85.9623,17.0738 86.2163,16.5648 C87.2373,14.5248 87.1233,12.4298 86.2313,10.4508 C85.5153,8.8628 84.2823,7.5818 82.8073,6.6028 C81.6693,5.8468 80.5333,5.0648 79.3173,4.4498 C78.0043,3.7838 76.6053,3.2818 75.2303,2.7408 C74.6113,2.4978 73.9703,2.2948 73.3233,2.1418 C71.9593,1.8188 70.6893,1.0598 69.1563,1.5908 C67.9383,2.0128 66.6213,1.9818 65.4833,2.8478 C64.2343,3.7998 62.7563,4.4488 61.3973,5.2618 C60.7253,5.6648 60.0933,6.1358 59.4503,6.5838 C58.2693,7.4068 57.1333,8.2988 55.9073,9.0478 C52.3643,11.2148 48.7593,13.2678 45.4293,15.7848 C42.1423,18.2688 38.6853,20.5268 35.3103,22.8948 C33.9473,23.8518 32.6653,24.9358 31.0323,25.4398 C30.8173,25.5068 30.6223,25.6428 30.4243,25.7568 C29.1423,26.4978 27.8413,27.2068 26.5873,27.9908 C24.7573,29.1348 22.9203,30.2758 21.1583,31.5208 C18.3923,33.4758 15.6603,35.4788 12.9663,37.5308 C10.9363,39.0778 8.9843,40.7278 7.0073,42.3448 C6.7053,42.5918 6.4133,42.8738 6.1943,43.1938 C5.4463,44.2868 4.6553,45.3618 4.0283,46.5228 C3.2633,47.9388 2.7883,49.4678 2.9153,51.1228 C2.9533,51.6118 2.9663,52.1018 2.9983,52.7628 Z M88.6373,15.0948 C88.5703,15.3108 88.4853,15.5218 88.4393,15.7418 C87.9403,18.1458 87.3753,20.5458 86.5453,22.8458 C86.0573,24.1978 85.0893,25.3778 84.3143,26.6208 C84.2113,26.7858 83.9903,26.9338 83.7993,26.9768 C83.1723,27.1168 82.8393,27.6218 82.3943,27.9978 C79.7893,30.2108 77.4583,32.7448 74.6103,34.6748 C74.5023,34.7478 74.3983,34.8318 74.3083,34.9258 C72.2583,37.0488 69.7903,38.6438 67.4103,40.3458 C66.5363,40.9698 65.5273,41.4008 64.6263,41.9908 C63.0663,43.0098 61.5543,44.1018 60.0023,45.1308 C57.6833,46.6678 55.3603,48.1988 53.0153,49.6948 C50.6043,51.2338 48.1573,52.7178 45.7393,54.2478 C44.2353,55.2008 42.7723,56.2178 41.2653,57.1648 C39.9663,57.9808 38.6293,58.7388 37.3093,59.5228 C36.5403,59.9798 35.7713,60.4358 35.0033,60.8928 C33.7103,61.6608 32.4173,62.4108 30.9853,62.9248 C29.9143,63.3098 28.9113,63.8828 27.8753,64.3688 C26.4833,65.0198 25.0913,65.6678 23.6983,66.3168 C23.5353,66.3928 23.3603,66.4498 23.2093,66.5448 C21.1973,67.8038 18.9003,68.1828 16.6413,68.6788 C16.5493,68.6988 16.4623,68.7438 16.3733,68.7768 L13.8163,68.7768 C13.7393,68.7518 13.6643,68.7138 13.5853,68.7028 C11.4233,68.3808 9.3003,67.9358 7.3083,66.9728 C6.5163,66.5898 5.7423,66.2388 5.2703,65.4478 C5.2153,65.3548 5.1083,65.2898 5.0203,65.2168 C3.7163,64.1398 2.5373,62.9448 1.6193,61.5168 C1.3933,61.1648 1.2103,60.7638 1.1093,60.3598 C0.8363,59.2688 0.6213,58.1618 0.3733,57.0638 C0.3213,56.8338 0.2253,56.6138 0.1503,56.3888 L0.1503,54.2258 C0.2963,53.2408 0.4113,52.2498 0.5943,51.2718 C0.8793,49.7618 1.5333,48.3878 2.2383,47.0358 C2.5703,46.3988 2.8953,45.7578 3.1873,45.1028 C3.4263,44.5658 3.7833,44.2208 4.3303,43.9688 C4.6763,43.8088 5.0223,43.4388 5.1633,43.0818 C5.5283,42.1588 6.1853,41.6028 6.9873,41.0578 C8.2553,40.1948 9.3843,39.1328 10.6093,38.2028 C12.8753,36.4818 15.1673,34.7928 17.4503,33.0958 C18.0543,32.6468 18.6793,32.2268 19.2763,31.7688 C22.1003,29.6058 25.0263,27.6058 28.2253,26.0298 C28.3863,25.9508 28.5743,25.8918 28.6963,25.7698 C29.5263,24.9538 30.6133,24.6118 31.6243,24.1178 C32.3253,23.7738 32.9873,23.3358 33.6243,22.8818 C36.0223,21.1708 38.3673,19.3838 40.7983,17.7218 C44.4703,15.2098 48.1833,12.7568 51.9103,10.3258 C53.4293,9.3348 55.0503,8.5008 56.5823,7.5278 C57.4633,6.9678 58.2343,6.2398 59.0973,5.6498 C60.0393,5.0068 61.0283,4.4328 62.0013,3.8358 C62.8353,3.3238 63.6813,2.8298 64.5093,2.3088 C64.6163,2.2418 64.6973,2.0598 64.7073,1.9248 C64.7523,1.3418 65.0043,1.0998 65.5703,1.1318 C65.6993,1.1388 65.8353,1.1438 65.9613,1.1168 C67.3333,0.8258 68.7043,0.5278 70.0753,0.2298 C70.1363,0.2168 70.1923,0.1778 70.2523,0.1498 L71.1363,0.1498 C71.5663,0.3418 71.9853,0.5678 72.4283,0.7208 C74.2193,1.3368 76.0703,1.7948 77.7403,2.7338 C77.8223,2.7798 77.9263,2.7828 78.0193,2.8108 C78.5003,2.9568 79.0343,3.0168 79.4503,3.2698 C81.0523,4.2428 82.7183,5.1238 84.1553,6.3518 C85.4373,7.4498 86.5513,8.6918 87.2083,10.2648 C87.7353,11.5258 88.1653,12.8278 88.6373,14.1118 L88.6373,15.0948 Z" id="Stroke-3" stroke="#B02524" stroke-width="0.3"></path>
                <path d="M12.4101,44.0042 C12.1601,43.8302 12.0091,43.6472 11.9041,43.6702 C11.7501,43.7052 11.6291,43.8872 11.4931,44.0062 C11.6221,44.1282 11.7401,44.3292 11.8831,44.3472 C12.0091,44.3632 12.1601,44.1762 12.4101,44.0042 M84.4031,14.3182 C84.3921,14.2262 84.3921,14.1762 84.3801,14.1302 C84.0671,13.0322 83.7701,11.9292 83.4301,10.8402 C83.3201,10.4902 83.1401,10.1402 82.9111,9.8562 C82.6081,9.4802 82.2501,9.5762 82.1391,10.0482 C82.0561,10.4112 81.9811,10.7992 82.0191,11.1642 C82.1321,12.2352 82.2691,13.3072 82.4671,14.3662 C82.5411,14.7692 82.7561,15.1712 82.9931,15.5122 C83.3371,16.0072 83.9911,15.8982 84.1821,15.3312 C84.2971,14.9932 84.3381,14.6302 84.4031,14.3182 M6.1621,52.2942 C6.2111,52.2702 6.2611,52.2462 6.3091,52.2232 C6.1121,51.8812 5.9461,51.5122 5.6971,51.2142 C5.6271,51.1302 5.3101,51.2572 5.1051,51.2792 C5.0431,51.2852 4.9781,51.2632 4.9141,51.2542 C4.3771,51.1742 4.1691,51.3252 4.1901,51.8612 C4.2391,53.0502 4.3071,54.2392 4.3941,55.4272 C4.4281,55.8832 4.7441,56.1672 5.1591,56.2892 C5.5841,56.4132 5.8351,56.1182 6.0171,55.7952 C6.5561,54.8422 6.5521,53.8322 6.3021,52.8012 C6.2601,52.6312 6.2091,52.4632 6.1621,52.2942 M11.6631,60.8842 C11.6371,60.6082 11.6281,60.3622 11.5871,60.1212 C11.3301,58.6242 11.0641,57.1282 10.8051,55.6302 C10.5251,54.0212 10.1991,52.4172 9.9871,50.7982 C9.7781,49.2042 9.4761,47.6412 8.8891,46.1442 C8.7791,45.8642 8.6031,45.5472 8.3641,45.4002 C8.1061,45.2412 7.6901,45.1382 7.4331,45.2392 C7.2061,45.3282 7.0691,45.7182 6.9551,46.0012 C6.8801,46.1882 6.9911,46.4692 6.8891,46.6232 C6.5201,47.1782 6.6981,47.7092 6.8671,48.2552 C6.9051,48.3792 6.9251,48.5102 6.9481,48.6382 C7.2111,50.0992 7.4801,51.5592 7.7301,53.0232 C7.8431,53.6802 7.9641,54.3422 7.9961,55.0062 C8.0961,57.0842 8.4631,59.1012 9.3521,60.9912 C9.5601,61.4322 9.9001,61.8562 10.2811,62.1602 C10.8211,62.5902 11.4161,62.3122 11.5651,61.6322 C11.6211,61.3792 11.6341,61.1152 11.6631,60.8842 M75.3281,4.4492 C75.0051,4.1742 74.7901,4.3702 74.5611,4.6312 C74.3401,4.8842 74.3161,5.1032 74.5241,5.3722 C74.5981,5.4672 74.6161,5.6132 74.6421,5.7392 C75.2651,8.6642 75.8931,11.5872 76.5021,14.5142 C76.6811,15.3772 76.8141,16.2502 76.9531,17.1212 C77.1771,18.5312 77.5051,19.9152 78.1801,21.1802 C78.5481,21.8692 79.4161,21.8702 79.8031,21.1892 C80.0641,20.7302 80.3361,20.1972 80.3481,19.6922 C80.3691,18.7532 80.2531,17.8032 80.1031,16.8722 C79.9361,15.8232 79.6431,14.7952 79.4531,13.7502 C79.1861,12.2902 78.9751,10.8192 78.7191,9.3582 C78.4131,7.6202 77.5191,6.1152 76.7461,4.5692 C76.4731,4.0222 75.9791,3.7242 75.3281,4.4492 M72.3821,25.5692 C72.3191,25.1022 72.2931,24.4902 72.1471,23.9082 C71.8721,22.8002 71.4831,21.7202 71.2211,20.6092 C70.6721,18.2872 70.2031,15.9462 69.6481,13.6262 C69.1811,11.6732 68.6701,9.7292 68.1161,7.7992 C67.9391,7.1832 67.6111,6.5962 67.2711,6.0462 C66.9001,5.4422 66.2941,5.3722 65.6961,5.7552 C65.5871,5.8262 65.4371,5.8982 65.3191,5.8812 C64.7741,5.8082 64.4561,6.0972 64.4851,6.6472 C64.6321,9.3562 65.2071,11.9882 65.8661,14.6082 C66.0311,15.2642 66.1141,15.9412 66.2341,16.6082 C66.2981,16.9572 66.3441,17.3102 66.4281,17.6532 C66.4971,17.9382 66.6381,18.2062 66.6991,18.4922 C67.0151,19.9622 67.3101,21.4362 67.6231,22.9072 C67.9651,24.5082 68.3901,26.0862 69.0981,27.5712 C69.2741,27.9392 69.4291,28.3422 69.6961,28.6342 C69.9311,28.8912 70.2911,29.0752 70.6301,29.1832 C70.9731,29.2922 71.0691,28.9402 71.2061,28.7022 C71.2531,28.6222 71.3681,28.5812 71.4161,28.5002 C71.6851,28.0452 72.0141,27.6072 72.1841,27.1162 C72.3381,26.6792 72.3121,26.1812 72.3821,25.5692 M62.1561,31.8682 C62.1101,31.8662 62.0641,31.8652 62.0181,31.8632 C62.0871,28.3542 61.1641,24.9952 60.4381,21.6152 C60.0791,19.9412 59.5101,18.2962 58.8741,16.7022 C58.3021,15.2672 57.5331,13.9082 56.8021,12.5412 C56.4471,11.8782 55.9211,11.7642 55.3341,12.2322 C54.9841,12.5092 54.6571,12.9212 54.5191,13.3382 C54.2401,14.1812 54.1881,15.0752 54.3981,15.9552 C54.8261,17.7502 55.2951,19.5352 55.6991,21.3342 C56.1891,23.5162 56.7231,25.6942 57.0651,27.9002 C57.4351,30.2732 58.0281,32.5702 58.8341,34.8222 C59.0871,35.5262 59.4731,35.8092 60.1831,35.8062236 C61.0011,35.8022 61.5141,35.5222 61.6751,34.8112 C61.8931,33.8432 62.0011,32.8502 62.1561,31.8682 M13.6121,41.0252 C13.7021,41.6632 13.8241,42.6372 13.9801,43.6062 C14.3501,45.8982 14.7331,48.1892 15.1201,50.4782 C15.5501,53.0252 15.8711,55.5952 16.7571,58.0432 C16.9951,58.7022 17.2311,59.3632 17.4601,60.0262 C17.5491,60.2842 17.5351,60.6412 17.7081,60.7932 C18.2551,61.2742 18.8391,61.7302 19.4701,62.0872 C19.7001,62.2172 20.2221,62.1662 20.4011,61.9862 C20.8731,61.5182 21.2411,60.9362 21.2791,60.2282 C21.3381,59.1692 21.3521,58.1272 21.0951,57.0672 C20.7971,55.8412 20.6841,54.5692 20.4941,53.3172 C20.4071,52.7532 20.2761,52.1902 20.2491,51.6222 C20.1681,49.9412 19.6481,48.3562 19.2371,46.7482 C19.0871,46.1622 18.9031,45.5862 18.7241,45.0082 C18.4211,44.0252 18.1111,43.0432 17.7961,42.0632 C17.7321,41.8672 17.6071,41.6902 17.5521,41.4932 C17.3911,40.9312 17.3161,40.3372 17.0911,39.8052 C16.7111,38.9062 16.0541,38.6212 15.1431,38.8432 C13.9331,39.1392 13.5571,39.5882 13.6121,41.0252 M32.5121,27.7442 C32.5601,28.1482 32.5641,28.5642 32.6661,28.9542 C32.9581,30.0762 33.3311,31.1782 33.5971,32.3062 C34.0981,34.4382 34.5461,36.5822 35.0211,38.7202 C35.4531,40.6672 35.9511,42.6012 36.3101,44.5612 C36.6811,46.5782 37.1431,48.5622 37.9211,50.4602 C38.0881,50.8672 38.3731,51.2522 38.6841,51.5672 C38.9601,51.8472 39.4211,51.9412 39.7211,51.6572 C40.3651,51.0462 41.0711,50.4742 41.3301,49.5422 C41.7691,47.9612 41.6791,46.3782 41.3701,44.8052 C41.1891,43.8822 40.8401,42.9952 40.6341,42.0762 C40.4311,41.1712 39.8331,40.3392 40.0971,39.3382 C40.1181,39.2582 40.0391,39.1552 40.0161,39.0612 C39.9581,38.8092 39.9041,38.5572 39.8501,38.3052 C39.7661,37.9082 39.7011,37.5062 39.5951,37.1152 C39.4881,36.7222 39.2971,36.3482 39.2181,35.9502 C38.8241,33.9802 38.4611,32.0052 37.8041,30.0972 C37.3721,28.8462 37.0151,27.5702 36.5941,26.3172 C36.3931,25.7232 35.9931,25.2152 35.3181,25.2832 C34.4821,25.3672 33.5761,25.4892 33.2091,26.4382 C33.0311,26.8972 32.2181,27.0322 32.5121,27.7442 M48.1691,21.2832 C48.2021,21.2752 48.2341,21.2672 48.2661,21.2592 C48.2011,21.0162 48.1521,20.7662 48.0641,20.5312 C47.9691,20.2782 47.7931,20.0492 47.7271,19.7912 C47.5061,18.9162 46.9781,18.2682 46.2571,17.7752 C46.0701,17.6472 45.7941,17.5892 45.5621,17.5992 C44.7451,17.6342 43.9071,18.3062 43.7721,19.1102 C43.6811,19.6552 43.6941,20.1942 43.2471,20.6192 C43.1321,20.7282 43.1241,20.9922 43.1331,21.1812 C43.1541,21.6052 43.1811,22.0342 43.2711,22.4472 C43.4041,23.0512 43.6221,23.6362 43.7511,24.2402 C43.8631,24.7702 43.8501,25.3282 43.9811,25.8522 C44.3611,27.3732 44.8271,28.8732 45.1831,30.3992 C45.9951,33.8702 46.7431,37.3562 47.5561,40.8262 C47.8161,41.9392 48.1831,43.0272 48.5291,44.1182 C48.8361,45.0862 49.6051,45.3472 50.3791,44.7132 C50.7031,44.4482 50.9941,44.0642 51.1381,43.6742 C51.3551,43.0822 51.4861,42.4442 51.5561,41.8152 C51.7001,40.5182 51.7171,39.2262 51.4471,37.9242 C51.2411,36.9272 51.2811,35.8812 51.1001,34.8772 C50.7901,33.1422 50.4001,31.4212 50.0281,29.6972 C49.7411,28.3712 49.4301,27.0512 49.1311,25.7282 C48.8641,24.5502 48.5981,23.3742 48.3391,22.1952 C48.2721,21.8942 48.2251,21.5872 48.1691,21.2832 M30.4251,53.9972 C30.0621,51.9962 30.0341,50.1232 29.5771,48.2762 C28.9521,45.7472 28.6031,43.1502 28.1281,40.5842 C27.9341,39.5422 27.6921,38.5082 27.5211,37.4632 C27.2801,35.9932 26.5141,34.7462 25.8771,33.4442 C25.7861,33.2602 25.6151,33.1092 25.4651,32.9612 C24.2091,31.7192 22.4511,32.6632 22.1131,33.8652 C22.0081,34.2372 21.9941,34.6342 21.5491,34.8052 C21.4721,34.8352 21.3951,35.0002 21.4031,35.0952 C21.4441,35.5592 21.4921,36.0242 21.5811,36.4802 C21.6501,36.8312 21.8081,37.1632 21.8851,37.5132 C22.6111,40.8502 23.2991,44.1972 24.0571,47.5262 C24.6601,50.1712 25.3171,52.8032 26.0181,55.4222 C26.2181,56.1662 26.6071,56.8742 26.9981,57.5472 C27.3771,58.2012 27.7641,58.2632 28.4491,57.9722 C29.1921,57.6562 29.6931,57.0932 29.9151,56.3472 C30.1541,55.5392 30.2781,54.6962 30.4251,53.9972 M2.9981,52.7632 C2.9661,52.1022 2.9531,51.6112 2.9151,51.1222 C2.7881,49.4682 3.2641,47.9392 4.0281,46.5232 C4.6551,45.3612 5.4461,44.2872 6.1941,43.1942 C6.4131,42.8742 6.7051,42.5912 7.0071,42.3452 C8.9841,40.7282 10.9361,39.0782 12.9671,37.5312 C15.6601,35.4792 18.3921,33.4752 21.1581,31.5212 C22.9201,30.2762 24.7571,29.1342 26.5871,27.9902 C27.8421,27.2062 29.1421,26.4972 30.4251,25.7572 C30.6221,25.6422 30.8171,25.5062 31.0321,25.4402 C32.6651,24.9362 33.9471,23.8522 35.3101,22.8952 C38.6851,20.5262 42.1421,18.2692 45.4301,15.7842 C48.7601,13.2682 52.3641,11.2142 55.9071,9.0482 C57.1331,8.2992 58.2691,7.4062 59.4501,6.5842 C60.0941,6.1362 60.7251,5.6642 61.3971,5.2622 C62.7561,4.4482 64.2341,3.8002 65.4831,2.8482 C66.6211,1.9822 67.9381,2.0122 69.1561,1.5902 C70.6891,1.0592 71.9591,1.8192 73.3231,2.1422 C73.9711,2.2952 74.6111,2.4972 75.2301,2.7412 C76.6051,3.2812 78.0041,3.7842 79.3171,4.4492 C80.5331,5.0652 81.6691,5.8462 82.8071,6.6032 C84.2821,7.5822 85.5151,8.8622 86.2311,10.4512 C87.1231,12.4302 87.2371,14.5252 86.2171,16.5652 C85.9621,17.0732 85.7571,17.6082 85.5621,18.1442 C84.9351,19.8802 83.9891,21.4282 82.9341,22.9392 C80.8931,25.8612 77.9941,27.8232 75.2511,29.9492 C72.0051,32.4652 68.6771,34.8762 65.3741,37.3182 C64.7441,37.7842 64.0891,38.2252 63.4061,38.6092 C60.7761,40.0862 58.2401,41.6972 55.9081,43.6212 C55.4071,44.0352 54.8151,44.3392 54.2801,44.7142 C52.7271,45.8022 51.1671,46.8792 49.6391,48.0002 C47.3441,49.6832 44.9661,51.2362 42.5301,52.7082 C41.3961,53.3932 40.3201,54.1742 39.1751,54.8372 C36.4331,56.4262 33.6781,57.9912 30.9041,59.5252 C29.4631,60.3222 27.9911,61.0712 26.4991,61.7662 C25.3481,62.3022 24.1121,62.6602 22.9661,63.2052 C20.9671,64.1552 18.9241,64.9532 16.7451,65.3672 C16.4961,65.4149456 16.2221,65.4372 15.9771,65.3842 C15.2301,65.2232 14.4951,65.0042 13.7491,64.8372 C12.5031,64.5562 8.8581,63.0832 7.8901,62.2332 C6.5961,61.0962 5.1851,60.0702 4.2191,58.5782 C3.4051,57.3222 3.0331,55.9752 3.0011,54.5072 C2.9871,53.8702 2.9981,53.2322 2.9981,52.7632" id="Fill-5" fill="#FEFEFE"></path>
                <path d="M12.4101,44.0042 C12.1601,43.8302 12.0091,43.6472 11.9041,43.6702 C11.7501,43.7052 11.6291,43.8872 11.4931,44.0062 C11.6221,44.1282 11.7401,44.3292 11.8831,44.3472 C12.0091,44.3632 12.1601,44.1762 12.4101,44.0042 Z M84.4031,14.3182 C84.3921,14.2262 84.3921,14.1762 84.3801,14.1302 C84.0671,13.0322 83.7701,11.9292 83.4301,10.8402 C83.3201,10.4902 83.1401,10.1402 82.9111,9.8562 C82.6081,9.4802 82.2501,9.5762 82.1391,10.0482 C82.0561,10.4112 81.9811,10.7992 82.0191,11.1642 C82.1321,12.2352 82.2691,13.3072 82.4671,14.3662 C82.5411,14.7692 82.7561,15.1712 82.9931,15.5122 C83.3371,16.0072 83.9911,15.8982 84.1821,15.3312 C84.2971,14.9932 84.3381,14.6302 84.4031,14.3182 Z M6.1621,52.2942 C6.2111,52.2702 6.2611,52.2462 6.3091,52.2232 C6.1121,51.8812 5.9461,51.5122 5.6971,51.2142 C5.6271,51.1302 5.3101,51.2572 5.1051,51.2792 C5.0431,51.2852 4.9781,51.2632 4.9141,51.2542 C4.3771,51.1742 4.1691,51.3252 4.1901,51.8612 C4.2391,53.0502 4.3071,54.2392 4.3941,55.4272 C4.4281,55.8832 4.7441,56.1672 5.1591,56.2892 C5.5841,56.4132 5.8351,56.1182 6.0171,55.7952 C6.5561,54.8422 6.5521,53.8322 6.3021,52.8012 C6.2601,52.6312 6.2091,52.4632 6.1621,52.2942 Z M11.6631,60.8842 C11.6371,60.6082 11.6281,60.3622 11.5871,60.1212 C11.3301,58.6242 11.0641,57.1282 10.8051,55.6302 C10.5251,54.0212 10.1991,52.4172 9.9871,50.7982 C9.7781,49.2042 9.4761,47.6412 8.8891,46.1442 C8.7791,45.8642 8.6031,45.5472 8.3641,45.4002 C8.1061,45.2412 7.6901,45.1382 7.4331,45.2392 C7.2061,45.3282 7.0691,45.7182 6.9551,46.0012 C6.8801,46.1882 6.9911,46.4692 6.8891,46.6232 C6.5201,47.1782 6.6981,47.7092 6.8671,48.2552 C6.9051,48.3792 6.9251,48.5102 6.9481,48.6382 C7.2111,50.0992 7.4801,51.5592 7.7301,53.0232 C7.8431,53.6802 7.9641,54.3422 7.9961,55.0062 C8.0961,57.0842 8.4631,59.1012 9.3521,60.9912 C9.5601,61.4322 9.9001,61.8562 10.2811,62.1602 C10.8211,62.5902 11.4161,62.3122 11.5651,61.6322 C11.6211,61.3792 11.6341,61.1152 11.6631,60.8842 Z M75.3281,4.4492 C75.0051,4.1742 74.7901,4.3702 74.5611,4.6312 C74.3401,4.8842 74.3161,5.1032 74.5241,5.3722 C74.5981,5.4672 74.6161,5.6132 74.6421,5.7392 C75.2651,8.6642 75.8931,11.5872 76.5021,14.5142 C76.6811,15.3772 76.8141,16.2502 76.9531,17.1212 C77.1771,18.5312 77.5051,19.9152 78.1801,21.1802 C78.5481,21.8692 79.4161,21.8702 79.8031,21.1892 C80.0641,20.7302 80.3361,20.1972 80.3481,19.6922 C80.3691,18.7532 80.2531,17.8032 80.1031,16.8722 C79.9361,15.8232 79.6431,14.7952 79.4531,13.7502 C79.1861,12.2902 78.9751,10.8192 78.7191,9.3582 C78.4131,7.6202 77.5191,6.1152 76.7461,4.5692 C76.4731,4.0222 75.9791,3.7242 75.3281,4.4492 Z M72.3821,25.5692 C72.3191,25.1022 72.2931,24.4902 72.1471,23.9082 C71.8721,22.8002 71.4831,21.7202 71.2211,20.6092 C70.6721,18.2872 70.2031,15.9462 69.6481,13.6262 C69.1811,11.6732 68.6701,9.7292 68.1161,7.7992 C67.9391,7.1832 67.6111,6.5962 67.2711,6.0462 C66.9001,5.4422 66.2941,5.3722 65.6961,5.7552 C65.5871,5.8262 65.4371,5.8982 65.3191,5.8812 C64.7741,5.8082 64.4561,6.0972 64.4851,6.6472 C64.6321,9.3562 65.2071,11.9882 65.8661,14.6082 C66.0311,15.2642 66.1141,15.9412 66.2341,16.6082 C66.2981,16.9572 66.3441,17.3102 66.4281,17.6532 C66.4971,17.9382 66.6381,18.2062 66.6991,18.4922 C67.0151,19.9622 67.3101,21.4362 67.6231,22.9072 C67.9651,24.5082 68.3901,26.0862 69.0981,27.5712 C69.2741,27.9392 69.4291,28.3422 69.6961,28.6342 C69.9311,28.8912 70.2911,29.0752 70.6301,29.1832 C70.9731,29.2922 71.0691,28.9402 71.2061,28.7022 C71.2531,28.6222 71.3681,28.5812 71.4161,28.5002 C71.6851,28.0452 72.0141,27.6072 72.1841,27.1162 C72.3381,26.6792 72.3121,26.1812 72.3821,25.5692 Z M62.1561,31.8682 C62.1101,31.8662 62.0641,31.8652 62.0181,31.8632 C62.0871,28.3542 61.1641,24.9952 60.4381,21.6152 C60.0791,19.9412 59.5101,18.2962 58.8741,16.7022 C58.3021,15.2672 57.5331,13.9082 56.8021,12.5412 C56.4471,11.8782 55.9211,11.7642 55.3341,12.2322 C54.9841,12.5092 54.6571,12.9212 54.5191,13.3382 C54.2401,14.1812 54.1881,15.0752 54.3981,15.9552 C54.8261,17.7502 55.2951,19.5352 55.6991,21.3342 C56.1891,23.5162 56.7231,25.6942 57.0651,27.9002 C57.4351,30.2732 58.0281,32.5702 58.8341,34.8222 C59.0871,35.5262 59.4731,35.8092 60.1831,35.8062236 C61.0011,35.8022 61.5141,35.5222 61.6751,34.8112 C61.8931,33.8432 62.0011,32.8502 62.1561,31.8682 Z M13.6121,41.0252 C13.7021,41.6632 13.8241,42.6372 13.9801,43.6062 C14.3501,45.8982 14.7331,48.1892 15.1201,50.4782 C15.5501,53.0252 15.8711,55.5952 16.7571,58.0432 C16.9951,58.7022 17.2311,59.3632 17.4601,60.0262 C17.5491,60.2842 17.5351,60.6412 17.7081,60.7932 C18.2551,61.2742 18.8391,61.7302 19.4701,62.0872 C19.7001,62.2172 20.2221,62.1662 20.4011,61.9862 C20.8731,61.5182 21.2411,60.9362 21.2791,60.2282 C21.3381,59.1692 21.3521,58.1272 21.0951,57.0672 C20.7971,55.8412 20.6841,54.5692 20.4941,53.3172 C20.4071,52.7532 20.2761,52.1902 20.2491,51.6222 C20.1681,49.9412 19.6481,48.3562 19.2371,46.7482 C19.0871,46.1622 18.9031,45.5862 18.7241,45.0082 C18.4211,44.0252 18.1111,43.0432 17.7961,42.0632 C17.7321,41.8672 17.6071,41.6902 17.5521,41.4932 C17.3911,40.9312 17.3161,40.3372 17.0911,39.8052 C16.7111,38.9062 16.0541,38.6212 15.1431,38.8432 C13.9331,39.1392 13.5571,39.5882 13.6121,41.0252 Z M32.5121,27.7442 C32.5601,28.1482 32.5641,28.5642 32.6661,28.9542 C32.9581,30.0762 33.3311,31.1782 33.5971,32.3062 C34.0981,34.4382 34.5461,36.5822 35.0211,38.7202 C35.4531,40.6672 35.9511,42.6012 36.3101,44.5612 C36.6811,46.5782 37.1431,48.5622 37.9211,50.4602 C38.0881,50.8672 38.3731,51.2522 38.6841,51.5672 C38.9601,51.8472 39.4211,51.9412 39.7211,51.6572 C40.3651,51.0462 41.0711,50.4742 41.3301,49.5422 C41.7691,47.9612 41.6791,46.3782 41.3701,44.8052 C41.1891,43.8822 40.8401,42.9952 40.6341,42.0762 C40.4311,41.1712 39.8331,40.3392 40.0971,39.3382 C40.1181,39.2582 40.0391,39.1552 40.0161,39.0612 C39.9581,38.8092 39.9041,38.5572 39.8501,38.3052 C39.7661,37.9082 39.7011,37.5062 39.5951,37.1152 C39.4881,36.7222 39.2971,36.3482 39.2181,35.9502 C38.8241,33.9802 38.4611,32.0052 37.8041,30.0972 C37.3721,28.8462 37.0151,27.5702 36.5941,26.3172 C36.3931,25.7232 35.9931,25.2152 35.3181,25.2832 C34.4821,25.3672 33.5761,25.4892 33.2091,26.4382 C33.0311,26.8972 32.2181,27.0322 32.5121,27.7442 Z M48.1691,21.2832 C48.2021,21.2752 48.2341,21.2672 48.2661,21.2592 C48.2011,21.0162 48.1521,20.7662 48.0641,20.5312 C47.9691,20.2782 47.7931,20.0492 47.7271,19.7912 C47.5061,18.9162 46.9781,18.2682 46.2571,17.7752 C46.0701,17.6472 45.7941,17.5892 45.5621,17.5992 C44.7451,17.6342 43.9071,18.3062 43.7721,19.1102 C43.6811,19.6552 43.6941,20.1942 43.2471,20.6192 C43.1321,20.7282 43.1241,20.9922 43.1331,21.1812 C43.1541,21.6052 43.1811,22.0342 43.2711,22.4472 C43.4041,23.0512 43.6221,23.6362 43.7511,24.2402 C43.8631,24.7702 43.8501,25.3282 43.9811,25.8522 C44.3611,27.3732 44.8271,28.8732 45.1831,30.3992 C45.9951,33.8702 46.7431,37.3562 47.5561,40.8262 C47.8161,41.9392 48.1831,43.0272 48.5291,44.1182 C48.8361,45.0862 49.6051,45.3472 50.3791,44.7132 C50.7031,44.4482 50.9941,44.0642 51.1381,43.6742 C51.3551,43.0822 51.4861,42.4442 51.5561,41.8152 C51.7001,40.5182 51.7171,39.2262 51.4471,37.9242 C51.2411,36.9272 51.2811,35.8812 51.1001,34.8772 C50.7901,33.1422 50.4001,31.4212 50.0281,29.6972 C49.7411,28.3712 49.4301,27.0512 49.1311,25.7282 C48.8641,24.5502 48.5981,23.3742 48.3391,22.1952 C48.2721,21.8942 48.2251,21.5872 48.1691,21.2832 Z M30.4251,53.9972 C30.0621,51.9962 30.0341,50.1232 29.5771,48.2762 C28.9521,45.7472 28.6031,43.1502 28.1281,40.5842 C27.9341,39.5422 27.6921,38.5082 27.5211,37.4632 C27.2801,35.9932 26.5141,34.7462 25.8771,33.4442 C25.7861,33.2602 25.6151,33.1092 25.4651,32.9612 C24.2091,31.7192 22.4511,32.6632 22.1131,33.8652 C22.0081,34.2372 21.9941,34.6342 21.5491,34.8052 C21.4721,34.8352 21.3951,35.0002 21.4031,35.0952 C21.4441,35.5592 21.4921,36.0242 21.5811,36.4802 C21.6501,36.8312 21.8081,37.1632 21.8851,37.5132 C22.6111,40.8502 23.2991,44.1972 24.0571,47.5262 C24.6601,50.1712 25.3171,52.8032 26.0181,55.4222 C26.2181,56.1662 26.6071,56.8742 26.9981,57.5472 C27.3771,58.2012 27.7641,58.2632 28.4491,57.9722 C29.1921,57.6562 29.6931,57.0932 29.9151,56.3472 C30.1541,55.5392 30.2781,54.6962 30.4251,53.9972 Z M2.9981,52.7632 C2.9661,52.1022 2.9531,51.6112 2.9151,51.1222 C2.7881,49.4682 3.2641,47.9392 4.0281,46.5232 C4.6551,45.3612 5.4461,44.2872 6.1941,43.1942 C6.4131,42.8742 6.7051,42.5912 7.0071,42.3452 C8.9841,40.7282 10.9361,39.0782 12.9671,37.5312 C15.6601,35.4792 18.3921,33.4752 21.1581,31.5212 C22.9201,30.2762 24.7571,29.1342 26.5871,27.9902 C27.8421,27.2062 29.1421,26.4972 30.4251,25.7572 C30.6221,25.6422 30.8171,25.5062 31.0321,25.4402 C32.6651,24.9362 33.9471,23.8522 35.3101,22.8952 C38.6851,20.5262 42.1421,18.2692 45.4301,15.7842 C48.7601,13.2682 52.3641,11.2142 55.9071,9.0482 C57.1331,8.2992 58.2691,7.4062 59.4501,6.5842 C60.0941,6.1362 60.7251,5.6642 61.3971,5.2622 C62.7561,4.4482 64.2341,3.8002 65.4831,2.8482 C66.6211,1.9822 67.9381,2.0122 69.1561,1.5902 C70.6891,1.0592 71.9591,1.8192 73.3231,2.1422 C73.9711,2.2952 74.6111,2.4972 75.2301,2.7412 C76.6051,3.2812 78.0041,3.7842 79.3171,4.4492 C80.5331,5.0652 81.6691,5.8462 82.8071,6.6032 C84.2821,7.5822 85.5151,8.8622 86.2311,10.4512 C87.1231,12.4302 87.2371,14.5252 86.2171,16.5652 C85.9621,17.0732 85.7571,17.6082 85.5621,18.1442 C84.9351,19.8802 83.9891,21.4282 82.9341,22.9392 C80.8931,25.8612 77.9941,27.8232 75.2511,29.9492 C72.0051,32.4652 68.6771,34.8762 65.3741,37.3182 C64.7441,37.7842 64.0891,38.2252 63.4061,38.6092 C60.7761,40.0862 58.2401,41.6972 55.9081,43.6212 C55.4071,44.0352 54.8151,44.3392 54.2801,44.7142 C52.7271,45.8022 51.1671,46.8792 49.6391,48.0002 C47.3441,49.6832 44.9661,51.2362 42.5301,52.7082 C41.3961,53.3932 40.3201,54.1742 39.1751,54.8372 C36.4331,56.4262 33.6781,57.9912 30.9041,59.5252 C29.4631,60.3222 27.9911,61.0712 26.4991,61.7662 C25.3481,62.3022 24.1121,62.6602 22.9661,63.2052 C20.9671,64.1552 18.9241,64.9532 16.7451,65.3672 C16.4961,65.4149456 16.2221,65.4372 15.9771,65.3842 C15.2301,65.2232 14.4951,65.0042 13.7491,64.8372 C12.5031,64.5562 8.8581,63.0832 7.8901,62.2332 C6.5961,61.0962 5.1851,60.0702 4.2191,58.5782 C3.4051,57.3222 3.0331,55.9752 3.0011,54.5072 C2.9871,53.8702 2.9981,53.2322 2.9981,52.7632 Z" id="Stroke-7" stroke="#B02524" stroke-width="0.3"></path>
                <path d="M1.9873,50.6648 C1.9873,51.4448 2.0153,52.2258 1.9823,53.0028 C1.8323,56.4618 2.8233,59.4238 5.6633,61.5998 C5.8323,61.7288 6.0033,61.8608 6.1463,62.0158 C7.3003,63.2528 8.7423,64.0398 10.2843,64.6708 C11.1703,65.0338 12.0303,65.4768 12.9403,65.7578 C13.8703,66.0458 14.8433,66.2028 15.8043,66.3768 C16.5623,66.5148 17.2943,66.3588 18.0113,66.0818 C18.5383,65.8788 19.1003,65.7658 19.6313,65.5688 C20.6373,65.1958 21.6403,64.8078 22.6323,64.3948 C23.8373,63.8938 25.0403,63.3868 26.2213,62.8348 C28.0983,61.9588 29.9813,61.0898 31.8163,60.1298 C33.8573,59.0628 35.8613,57.9238 37.8523,56.7658 C38.8813,56.1658 39.8383,55.4458 40.8413,54.8008 C41.2773,54.5208 41.7553,54.3038 42.2023,54.0388 C45.9483,51.8138 49.5033,49.3098 53.0193,46.7408 C55.8583,44.6678 58.7793,42.7078 61.6763,40.7178 C62.2813,40.3038 62.9523,39.9878 63.5803,39.6078 C64.2083,39.2268 64.8453,38.8548 65.4383,38.4238 C67.6873,36.7888 69.9223,35.1308 72.1613,33.4798 C73.7543,32.3058 75.3863,31.1798 76.9273,29.9398 C78.7343,28.4878 80.4623,26.9378 82.2213,25.4268 C82.3453,25.3208 82.4623,25.2008 82.5583,25.0698 C83.2693,24.1028 84.0603,23.1798 84.6593,22.1458 C85.3503,20.9498 85.8803,19.6598 86.4623,18.4018 C86.6933,17.9018 86.8773,17.3808 87.0853,16.8628 C87.1573,16.9038 87.2003,16.9228 87.1983668,16.9298 C86.7643,18.5818 86.3493,20.2408 85.8783,21.8828 C85.7263,22.4088 85.4533,22.9068 85.1853,23.3888 C84.7653,24.1458 84.3073,24.8818 83.8543,25.6188 C83.7623,25.7668 83.6313,25.8988 83.4933,26.0088 C82.4593,26.8328 81.3933,27.6208 80.3863,28.4778 C78.1813,30.3538 75.9903,32.2458 73.8233,34.1658 C70.8493,36.8028 67.6403,39.1068 64.2163,41.1208 C63.7263,41.4098 63.2903,41.7898 62.8293,42.1288 C62.4333,42.4198 62.0503,42.7268 61.6433,43.0008 C59.8693,44.1978 58.0943,45.3958 56.3043,46.5698 C55.6653,46.9898 54.9823,47.3438 54.3183,47.7268 C53.9933,47.9148 53.6443,48.0698 53.3433,48.2908 C50.4163,50.4488 47.2273,52.1958 44.1573,54.1298 C42.1803,55.3758 40.2133,56.6368 38.2293,57.8728 C37.6343,58.2448 36.9953,58.5438 36.3903,58.8998 C35.3243,59.5288 34.3103,60.2648 33.1993,60.7988 C30.7443,61.9778 28.2393,63.0548 25.7593,64.1848 C24.9583,64.5508 24.1583,64.9258 23.3813,65.3418 C20.9113,66.6638 18.2963,67.4948 15.4903,67.5898 C12.4303,67.6928 9.5263,67.0858 6.9143,65.4078 C6.4923,65.1358 6.1233,64.7758 5.7553,64.4288 C5.2063,63.9128 4.6913,63.3618 4.1423,62.8458 C3.2963,62.0488 2.5983,61.1398 2.1953,60.0508 C1.7043,58.7218 1.3763,57.3668 1.2573,55.9238 C1.1153,54.2288 1.2663,52.6128 1.7243,50.9998 C1.7593,50.8768 1.8163,50.7608 1.8623,50.6418 C1.9043,50.6488 1.9453,50.6568 1.9873,50.6648" id="Fill-9" fill="#FEFEFE"></path>
                <path d="M1.9873,50.6648 C1.9873,51.4448 2.0153,52.2258 1.9823,53.0028 C1.8323,56.4618 2.8233,59.4238 5.6633,61.5998 C5.8323,61.7288 6.0033,61.8608 6.1463,62.0158 C7.3003,63.2528 8.7423,64.0398 10.2843,64.6708 C11.1703,65.0338 12.0303,65.4768 12.9403,65.7578 C13.8703,66.0458 14.8433,66.2028 15.8043,66.3768 C16.5623,66.5148 17.2943,66.3588 18.0113,66.0818 C18.5383,65.8788 19.1003,65.7658 19.6313,65.5688 C20.6373,65.1958 21.6403,64.8078 22.6323,64.3948 C23.8373,63.8938 25.0403,63.3868 26.2213,62.8348 C28.0983,61.9588 29.9813,61.0898 31.8163,60.1298 C33.8573,59.0628 35.8613,57.9238 37.8523,56.7658 C38.8813,56.1658 39.8383,55.4458 40.8413,54.8008 C41.2773,54.5208 41.7553,54.3038 42.2023,54.0388 C45.9483,51.8138 49.5033,49.3098 53.0193,46.7408 C55.8583,44.6678 58.7793,42.7078 61.6763,40.7178 C62.2813,40.3038 62.9523,39.9878 63.5803,39.6078 C64.2083,39.2268 64.8453,38.8548 65.4383,38.4238 C67.6873,36.7888 69.9223,35.1308 72.1613,33.4798 C73.7543,32.3058 75.3863,31.1798 76.9273,29.9398 C78.7343,28.4878 80.4623,26.9378 82.2213,25.4268 C82.3453,25.3208 82.4623,25.2008 82.5583,25.0698 C83.2693,24.1028 84.0603,23.1798 84.6593,22.1458 C85.3503,20.9498 85.8803,19.6598 86.4623,18.4018 C86.6933,17.9018 86.8773,17.3808 87.0853,16.8628 C87.1573,16.9038 87.2003,16.9228 87.1983668,16.9298 C86.7643,18.5818 86.3493,20.2408 85.8783,21.8828 C85.7263,22.4088 85.4533,22.9068 85.1853,23.3888 C84.7653,24.1458 84.3073,24.8818 83.8543,25.6188 C83.7623,25.7668 83.6313,25.8988 83.4933,26.0088 C82.4593,26.8328 81.3933,27.6208 80.3863,28.4778 C78.1813,30.3538 75.9903,32.2458 73.8233,34.1658 C70.8493,36.8028 67.6403,39.1068 64.2163,41.1208 C63.7263,41.4098 63.2903,41.7898 62.8293,42.1288 C62.4333,42.4198 62.0503,42.7268 61.6433,43.0008 C59.8693,44.1978 58.0943,45.3958 56.3043,46.5698 C55.6653,46.9898 54.9823,47.3438 54.3183,47.7268 C53.9933,47.9148 53.6443,48.0698 53.3433,48.2908 C50.4163,50.4488 47.2273,52.1958 44.1573,54.1298 C42.1803,55.3758 40.2133,56.6368 38.2293,57.8728 C37.6343,58.2448 36.9953,58.5438 36.3903,58.8998 C35.3243,59.5288 34.3103,60.2648 33.1993,60.7988 C30.7443,61.9778 28.2393,63.0548 25.7593,64.1848 C24.9583,64.5508 24.1583,64.9258 23.3813,65.3418 C20.9113,66.6638 18.2963,67.4948 15.4903,67.5898 C12.4303,67.6928 9.5263,67.0858 6.9143,65.4078 C6.4923,65.1358 6.1233,64.7758 5.7553,64.4288 C5.2063,63.9128 4.6913,63.3618 4.1423,62.8458 C3.2963,62.0488 2.5983,61.1398 2.1953,60.0508 C1.7043,58.7218 1.3763,57.3668 1.2573,55.9238 C1.1153,54.2288 1.2663,52.6128 1.7243,50.9998 C1.7593,50.8768 1.8163,50.7608 1.8623,50.6418 C1.9043,50.6488 1.9453,50.6568 1.9873,50.6648 Z" id="Stroke-11" stroke="#B02524" stroke-width="0.3"></path>
                <path d="M27.3701,42.2146 C27.3231,42.2146 27.2761,42.2146 27.2291,42.2146 L27.6601,44.5636 C27.7011,44.5556 27.7431,44.5486 27.7841,44.5416 C27.6461,43.7656 27.5091,42.9896 27.3701,42.2146 M24.0511,43.6466 C24.2191,44.3686 24.3751,45.0386 24.5311,45.7076 C24.5681,45.7006 24.6061,45.6936 24.6441,45.6856 C24.5981,44.9926 24.5511,44.3006 24.5021,43.5736 C24.3541,43.5976 24.2471,43.6146 24.0511,43.6466 M30.4251,53.9966 C30.2781,54.6956 30.1541,55.5386 29.9151,56.3476 C29.6931,57.0936 29.1921,57.6566 28.4491,57.9726 C27.7651,58.2636 27.3771,58.2016 26.9981,57.5476 C26.6071,56.8736 26.2181,56.1666 26.0181,55.4226 C25.3171,52.8026 24.6601,50.1706 24.0571,47.5266 C23.2991,44.1966 22.6111,40.8506 21.8851,37.5126 C21.8081,37.1636 21.6501,36.8306 21.5811,36.4796 C21.4921,36.0246 21.4441,35.5586 21.4031,35.0956 C21.3951,35.0006 21.4721,34.8346 21.5491,34.8046 C21.9941,34.6336 22.0081,34.2376 22.1131,33.8646 C22.4511,32.6636 24.2091,31.7196 25.4651,32.9616 C25.6151,33.1096 25.7861,33.2596 25.8771,33.4446 C26.5151,34.7466 27.2801,35.9926 27.5211,37.4636 C27.6921,38.5086 27.9341,39.5416 28.1281,40.5836 C28.6031,43.1506 28.9521,45.7476 29.5771,48.2766 C30.0341,50.1236 30.0621,51.9966 30.4251,53.9966" id="Fill-13" fill="#B02524"></path>
                <path d="M27.3701,42.2146 C27.3231,42.2146 27.2761,42.2146 27.2291,42.2146 L27.6601,44.5636 C27.7011,44.5556 27.7431,44.5486 27.7841,44.5416 C27.6461,43.7656 27.5091,42.9896 27.3701,42.2146 Z M24.0511,43.6466 C24.2191,44.3686 24.3751,45.0386 24.5311,45.7076 C24.5681,45.7006 24.6061,45.6936 24.6441,45.6856 C24.5981,44.9926 24.5511,44.3006 24.5021,43.5736 C24.3541,43.5976 24.2471,43.6146 24.0511,43.6466 Z M30.4251,53.9966 C30.2781,54.6956 30.1541,55.5386 29.9151,56.3476 C29.6931,57.0936 29.1921,57.6566 28.4491,57.9726 C27.7651,58.2636 27.3771,58.2016 26.9981,57.5476 C26.6071,56.8736 26.2181,56.1666 26.0181,55.4226 C25.3171,52.8026 24.6601,50.1706 24.0571,47.5266 C23.2991,44.1966 22.6111,40.8506 21.8851,37.5126 C21.8081,37.1636 21.6501,36.8306 21.5811,36.4796 C21.4921,36.0246 21.4441,35.5586 21.4031,35.0956 C21.3951,35.0006 21.4721,34.8346 21.5491,34.8046 C21.9941,34.6336 22.0081,34.2376 22.1131,33.8646 C22.4511,32.6636 24.2091,31.7196 25.4651,32.9616 C25.6151,33.1096 25.7861,33.2596 25.8771,33.4446 C26.5151,34.7466 27.2801,35.9926 27.5211,37.4636 C27.6921,38.5086 27.9341,39.5416 28.1281,40.5836 C28.6031,43.1506 28.9521,45.7476 29.5771,48.2766 C30.0341,50.1236 30.0621,51.9966 30.4251,53.9966 Z" id="Stroke-15" stroke="#B02524" stroke-width="0.3"></path>
                <path d="M48.1689,21.2835 C48.2259,21.5875 48.2729,21.8935 48.3389,22.1955 C48.5989,23.3735 48.8639,24.5505 49.1309,25.7275 C49.4299,27.0515 49.7409,28.3715 50.0279,29.6975 C50.3999,31.4215 50.7899,33.1425 51.1009,34.8775 C51.2809,35.8815 51.2409,36.9275 51.4469,37.9245 C51.7169,39.2265 51.6999,40.5175 51.5569,41.8155 C51.4859,42.4445 51.3559,43.0825 51.1379,43.6745 C50.9939,44.0635 50.7029,44.4485 50.3789,44.7135 C49.6059,45.3465 48.8359,45.0865 48.5289,44.1185 C48.1839,43.0275 47.8159,41.9385 47.5559,40.8265 C46.7429,37.3555 45.9949,33.8695 45.1839,30.3985 C44.8269,28.8725 44.3609,27.3725 43.9819,25.8525 C43.8509,25.3285 43.8629,24.7705 43.7509,24.2405 C43.6219,23.6365 43.4039,23.0515 43.2719,22.4475 C43.1819,22.0345 43.1539,21.6045 43.1329,21.1805 C43.1239,20.9915 43.1319,20.7285 43.2469,20.6195 C43.6939,20.1945 43.6819,19.6555 43.7729,19.1105 C43.9069,18.3055 44.7449,17.6345 45.5629,17.5995 C45.7939,17.5895 46.0699,17.6465 46.2569,17.7745 C46.9789,18.2685 47.5059,18.9165 47.7279,19.7915 C47.7929,20.0495 47.9689,20.2785 48.0649,20.5315 C48.1519,20.7665 48.2009,21.0165 48.2669,21.2595 C48.2339,21.2675 48.2019,21.2755 48.1689,21.2835" id="Fill-17" fill="#B02524"></path>
                <path d="M48.1689,21.2835 C48.2259,21.5875 48.2729,21.8935 48.3389,22.1955 C48.5989,23.3735 48.8639,24.5505 49.1309,25.7275 C49.4299,27.0515 49.7409,28.3715 50.0279,29.6975 C50.3999,31.4215 50.7899,33.1425 51.1009,34.8775 C51.2809,35.8815 51.2409,36.9275 51.4469,37.9245 C51.7169,39.2265 51.6999,40.5175 51.5569,41.8155 C51.4859,42.4445 51.3559,43.0825 51.1379,43.6745 C50.9939,44.0635 50.7029,44.4485 50.3789,44.7135 C49.6059,45.3465 48.8359,45.0865 48.5289,44.1185 C48.1839,43.0275 47.8159,41.9385 47.5559,40.8265 C46.7429,37.3555 45.9949,33.8695 45.1839,30.3985 C44.8269,28.8725 44.3609,27.3725 43.9819,25.8525 C43.8509,25.3285 43.8629,24.7705 43.7509,24.2405 C43.6219,23.6365 43.4039,23.0515 43.2719,22.4475 C43.1819,22.0345 43.1539,21.6045 43.1329,21.1805 C43.1239,20.9915 43.1319,20.7285 43.2469,20.6195 C43.6939,20.1945 43.6819,19.6555 43.7729,19.1105 C43.9069,18.3055 44.7449,17.6345 45.5629,17.5995 C45.7939,17.5895 46.0699,17.6465 46.2569,17.7745 C46.9789,18.2685 47.5059,18.9165 47.7279,19.7915 C47.7929,20.0495 47.9689,20.2785 48.0649,20.5315 C48.1519,20.7665 48.2009,21.0165 48.2669,21.2595 C48.2339,21.2675 48.2019,21.2755 48.1689,21.2835 Z" id="Stroke-19" stroke="#B02524" stroke-width="0.3"></path>
                <path d="M34.2373,31.4202 C34.3063,30.3612 34.2053,30.1032 33.8203,30.2532 C33.9433,30.5972 34.0663,30.9412 34.2373,31.4202 L34.2373,31.4202 Z M37.7063,45.5792 C37.6503,45.5892 37.5943,45.5992 37.5383,45.6082 C37.6333,46.0922 37.7273,46.5752 37.8223,47.0592 C37.8873,47.0452 37.9543,47.0312 38.0193,47.0182 L37.7063,45.5792 Z M35.8263,37.9982 C36.0913,39.2952 36.3733,40.6722 36.6543,42.0492 C36.7143,41.8302 36.7023,41.6222 36.6723,41.4162 C36.5613,40.6742 36.4063,39.9422 36.6973,39.1942 C36.7603,39.0312 36.6543,38.7352 36.5273,38.5812 C36.3363,38.3472 36.0583,38.1842 35.8263,37.9982 L35.8263,37.9982 Z M32.5113,27.7442 C32.2173,27.0322 33.0313,26.8972 33.2093,26.4382 C33.5763,25.4892 34.4823,25.3672 35.3183,25.2832 C35.9933,25.2152 36.3933,25.7232 36.5933,26.3172 C37.0153,27.5702 37.3723,28.8462 37.8033,30.0972 C38.4613,32.0052 38.8243,33.9802 39.2173,35.9502 C39.2973,36.3482 39.4883,36.7222 39.5943,37.1152 C39.7013,37.5062 39.7663,37.9082 39.8503,38.3052 C39.9043,38.5572 39.9583,38.8092 40.0163,39.0612 C40.0393,39.1552 40.1183,39.2582 40.0973,39.3382 C39.8333,40.3392 40.4313,41.1702 40.6333,42.0762 C40.8403,42.9952 41.1893,43.8822 41.3703,44.8052 C41.6783,46.3782 41.7693,47.9612 41.3303,49.5422 C41.0713,50.4742 40.3653,51.0452 39.7203,51.6572 C39.4213,51.9412 38.9603,51.8472 38.6843,51.5672 C38.3733,51.2522 38.0883,50.8672 37.9213,50.4602 C37.1433,48.5622 36.6803,46.5782 36.3103,44.5612 C35.9513,42.6012 35.4533,40.6672 35.0213,38.7202 C34.5463,36.5822 34.0983,34.4382 33.5963,32.3062 C33.3313,31.1782 32.9583,30.0762 32.6663,28.9542 C32.5643,28.5642 32.5603,28.1482 32.5113,27.7442 L32.5113,27.7442 Z" id="Fill-21" fill="#B02524"></path>
                <path d="M34.2373,31.4202 C34.3063,30.3612 34.2053,30.1032 33.8203,30.2532 C33.9433,30.5972 34.0663,30.9412 34.2373,31.4202 Z M37.7063,45.5792 C37.6503,45.5892 37.5943,45.5992 37.5383,45.6082 C37.6333,46.0922 37.7273,46.5752 37.8223,47.0592 C37.8873,47.0452 37.9543,47.0312 38.0193,47.0182 L37.7063,45.5792 Z M35.8263,37.9982 C36.0913,39.2952 36.3733,40.6722 36.6543,42.0492 C36.7143,41.8302 36.7023,41.6222 36.6723,41.4162 C36.5613,40.6742 36.4063,39.9422 36.6973,39.1942 C36.7603,39.0312 36.6543,38.7352 36.5273,38.5812 C36.3363,38.3472 36.0583,38.1842 35.8263,37.9982 Z M32.5113,27.7442 C32.2173,27.0322 33.0313,26.8972 33.2093,26.4382 C33.5763,25.4892 34.4823,25.3672 35.3183,25.2832 C35.9933,25.2152 36.3933,25.7232 36.5933,26.3172 C37.0153,27.5702 37.3723,28.8462 37.8033,30.0972 C38.4613,32.0052 38.8243,33.9802 39.2173,35.9502 C39.2973,36.3482 39.4883,36.7222 39.5943,37.1152 C39.7013,37.5062 39.7663,37.9082 39.8503,38.3052 C39.9043,38.5572 39.9583,38.8092 40.0163,39.0612 C40.0393,39.1552 40.1183,39.2582 40.0973,39.3382 C39.8333,40.3392 40.4313,41.1702 40.6333,42.0762 C40.8403,42.9952 41.1893,43.8822 41.3703,44.8052 C41.6783,46.3782 41.7693,47.9612 41.3303,49.5422 C41.0713,50.4742 40.3653,51.0452 39.7203,51.6572 C39.4213,51.9412 38.9603,51.8472 38.6843,51.5672 C38.3733,51.2522 38.0883,50.8672 37.9213,50.4602 C37.1433,48.5622 36.6803,46.5782 36.3103,44.5612 C35.9513,42.6012 35.4533,40.6672 35.0213,38.7202 C34.5463,36.5822 34.0983,34.4382 33.5963,32.3062 C33.3313,31.1782 32.9583,30.0762 32.6663,28.9542 C32.5643,28.5642 32.5603,28.1482 32.5113,27.7442 Z" id="Stroke-23" stroke="#B02524" stroke-width="0.3"></path>
                <path d="M14.8457,43.0369 C14.8707,43.3469 14.8947,43.6329 14.9177,43.9189 L15.0407,43.9499 C15.2537,43.6999 15.4667,43.4499 15.6747,43.2059 C15.3907,43.1479 15.1667,43.1029 14.8457,43.0369 M13.6127,41.0259 C13.5577,39.5889 13.9337,39.1389 15.1437,38.8439 C16.0537,38.6209 16.7107,38.9069 17.0907,39.8059 C17.3167,40.3379 17.3917,40.9319 17.5517,41.4929 C17.6077,41.6899 17.7327,41.8669 17.7957,42.0629 C18.1117,43.0429 18.4207,44.0249 18.7247,45.0079 C18.9037,45.5859 19.0867,46.1619 19.2377,46.7479 C19.6487,48.3559 20.1677,49.9419 20.2487,51.6219 C20.2767,52.1899 20.4077,52.7529 20.4937,53.3169 C20.6847,54.5699 20.7967,55.8409 21.0947,57.0679 C21.3527,58.1269 21.3377,59.1689 21.2797,60.2279 C21.2417,60.9359 20.8727,61.5179 20.4017,61.9869 C20.2217,62.1659 19.6997,62.2179 19.4697,62.0869 C18.8387,61.7299 18.2547,61.2739 17.7077,60.7929 C17.5347,60.6409 17.5487,60.2839 17.4597,60.0269 C17.2317,59.3639 16.9947,58.7029 16.7567,58.0429 C15.8707,55.5949 15.5497,53.0249 15.1197,50.4779 C14.7337,48.1889 14.3507,45.8979 13.9807,43.6059 C13.8247,42.6379 13.7017,41.6629 13.6127,41.0259" id="Fill-25" fill="#B02524"></path>
                <path d="M14.8457,43.0369 C14.8707,43.3469 14.8947,43.6329 14.9177,43.9189 L15.0407,43.9499 C15.2537,43.6999 15.4667,43.4499 15.6747,43.2059 C15.3907,43.1479 15.1667,43.1029 14.8457,43.0369 Z M13.6127,41.0259 C13.5577,39.5889 13.9337,39.1389 15.1437,38.8439 C16.0537,38.6209 16.7107,38.9069 17.0907,39.8059 C17.3167,40.3379 17.3917,40.9319 17.5517,41.4929 C17.6077,41.6899 17.7327,41.8669 17.7957,42.0629 C18.1117,43.0429 18.4207,44.0249 18.7247,45.0079 C18.9037,45.5859 19.0867,46.1619 19.2377,46.7479 C19.6487,48.3559 20.1677,49.9419 20.2487,51.6219 C20.2767,52.1899 20.4077,52.7529 20.4937,53.3169 C20.6847,54.5699 20.7967,55.8409 21.0947,57.0679 C21.3527,58.1269 21.3377,59.1689 21.2797,60.2279 C21.2417,60.9359 20.8727,61.5179 20.4017,61.9869 C20.2217,62.1659 19.6997,62.2179 19.4697,62.0869 C18.8387,61.7299 18.2547,61.2739 17.7077,60.7929 C17.5347,60.6409 17.5487,60.2839 17.4597,60.0269 C17.2317,59.3639 16.9947,58.7029 16.7567,58.0429 C15.8707,55.5949 15.5497,53.0249 15.1197,50.4779 C14.7337,48.1889 14.3507,45.8979 13.9807,43.6059 C13.8247,42.6379 13.7017,41.6629 13.6127,41.0259 Z" id="Stroke-27" stroke="#B02524" stroke-width="0.3"></path>
                <path d="M57.2461,23.5823 C57.4541,22.9023 57.2061,22.0683 56.6561,21.8783 C56.8661,22.4843 57.0411,22.9893 57.2461,23.5823 M62.1561,31.8683 C62.0011,32.8503 61.8931,33.8433 61.6751,34.8113 C61.5141,35.5223 61.0011,35.8023 60.1841,35.8063236 C59.4731,35.8093 59.0871,35.5263 58.8341,34.8223 C58.0281,32.5703 57.4351,30.2733 57.0651,27.9003 C56.7231,25.6943 56.1891,23.5163 55.6991,21.3343 C55.2951,19.5353 54.8261,17.7493 54.3981,15.9553 C54.1881,15.0753 54.2401,14.1813 54.5191,13.3383 C54.6571,12.9213 54.9841,12.5093 55.3341,12.2313 C55.9211,11.7643 56.4471,11.8773 56.8021,12.5413 C57.5331,13.9083 58.3021,15.2673 58.8741,16.7023 C59.5101,18.2953 60.0791,19.9413 60.4381,21.6153 C61.1641,24.9953 62.0871,28.3533 62.0181,31.8633 C62.0641,31.8653 62.1101,31.8663 62.1561,31.8683" id="Fill-29" fill="#B02524"></path>
                <path d="M57.2461,23.5823 C57.4541,22.9023 57.2061,22.0683 56.6561,21.8783 C56.8661,22.4843 57.0411,22.9893 57.2461,23.5823 Z M62.1561,31.8683 C62.0011,32.8503 61.8931,33.8433 61.6751,34.8113 C61.5141,35.5223 61.0011,35.8023 60.1841,35.8063236 C59.4731,35.8093 59.0871,35.5263 58.8341,34.8223 C58.0281,32.5703 57.4351,30.2733 57.0651,27.9003 C56.7231,25.6943 56.1891,23.5163 55.6991,21.3343 C55.2951,19.5353 54.8261,17.7493 54.3981,15.9553 C54.1881,15.0753 54.2401,14.1813 54.5191,13.3383 C54.6571,12.9213 54.9841,12.5093 55.3341,12.2313 C55.9211,11.7643 56.4471,11.8773 56.8021,12.5413 C57.5331,13.9083 58.3021,15.2673 58.8741,16.7023 C59.5101,18.2953 60.0791,19.9413 60.4381,21.6153 C61.1641,24.9953 62.0871,28.3533 62.0181,31.8633 C62.0641,31.8653 62.1101,31.8663 62.1561,31.8683 Z" id="Stroke-31" stroke="#B02524" stroke-width="0.3"></path>
                <path d="M67.7344,17.8831 C67.6554,17.9111 67.5764,17.9401 67.4964,17.9691 C67.5904,18.2371 67.6844,18.5051 67.7784,18.7731 C67.8504,18.7491 67.9224,18.7241 67.9954,18.7001 L67.7344,17.8831 Z M65.9224,10.8621 C66.0004,10.8651 66.0774,10.8691 66.1544,10.8731 C66.1834,10.4201 66.2124,9.9661 66.2414,9.5121 C66.1644,9.5081 66.0874,9.5041 66.0084,9.5001 C65.9804,9.9531 65.9514,10.4071 65.9224,10.8621 L65.9224,10.8621 Z M72.3814,25.5691 C72.3124,26.1811 72.3384,26.6791 72.1844,27.1161 C72.0134,27.6071 71.6854,28.0451 71.4164,28.5001 C71.3684,28.5811 71.2534,28.6221 71.2064,28.7021 C71.0694,28.9401 70.9724,29.2921 70.6304,29.1831 C70.2914,29.0751 69.9304,28.8911 69.6964,28.6341 C69.4284,28.3421 69.2744,27.9391 69.0984,27.5711 C68.3904,26.0861 67.9644,24.5081 67.6234,22.9071 C67.3104,21.4361 67.0154,19.9621 66.6994,18.4921 C66.6374,18.2061 66.4974,17.9381 66.4274,17.6541 C66.3434,17.3101 66.2974,16.9571 66.2344,16.6091 C66.1144,15.9411 66.0314,15.2641 65.8664,14.6091 C65.2074,11.9881 64.6314,9.3561 64.4854,6.6471 C64.4564,6.0971 64.7744,5.8081 65.3194,5.8821 C65.4374,5.8981 65.5874,5.8261 65.6964,5.7561 C66.2944,5.3721 66.9004,5.4431 67.2714,6.0461 C67.6114,6.5961 67.9394,7.1831 68.1164,7.7991 C68.6704,9.7291 69.1814,11.6731 69.6484,13.6261 C70.2034,15.9461 70.6724,18.2871 71.2204,20.6091 C71.4834,21.7201 71.8724,22.8001 72.1474,23.9081 C72.2934,24.4901 72.3194,25.1021 72.3814,25.5691 L72.3814,25.5691 Z" id="Fill-33" fill="#B02524"></path>
                <path d="M67.7344,17.8831 C67.6554,17.9111 67.5764,17.9401 67.4964,17.9691 C67.5904,18.2371 67.6844,18.5051 67.7784,18.7731 C67.8504,18.7491 67.9224,18.7241 67.9954,18.7001 L67.7344,17.8831 Z M65.9224,10.8621 C66.0004,10.8651 66.0774,10.8691 66.1544,10.8731 C66.1834,10.4201 66.2124,9.9661 66.2414,9.5121 C66.1644,9.5081 66.0874,9.5041 66.0084,9.5001 C65.9804,9.9531 65.9514,10.4071 65.9224,10.8621 Z M72.3814,25.5691 C72.3124,26.1811 72.3384,26.6791 72.1844,27.1161 C72.0134,27.6071 71.6854,28.0451 71.4164,28.5001 C71.3684,28.5811 71.2534,28.6221 71.2064,28.7021 C71.0694,28.9401 70.9724,29.2921 70.6304,29.1831 C70.2914,29.0751 69.9304,28.8911 69.6964,28.6341 C69.4284,28.3421 69.2744,27.9391 69.0984,27.5711 C68.3904,26.0861 67.9644,24.5081 67.6234,22.9071 C67.3104,21.4361 67.0154,19.9621 66.6994,18.4921 C66.6374,18.2061 66.4974,17.9381 66.4274,17.6541 C66.3434,17.3101 66.2974,16.9571 66.2344,16.6091 C66.1144,15.9411 66.0314,15.2641 65.8664,14.6091 C65.2074,11.9881 64.6314,9.3561 64.4854,6.6471 C64.4564,6.0971 64.7744,5.8081 65.3194,5.8821 C65.4374,5.8981 65.5874,5.8261 65.6964,5.7561 C66.2944,5.3721 66.9004,5.4431 67.2714,6.0461 C67.6114,6.5961 67.9394,7.1831 68.1164,7.7991 C68.6704,9.7291 69.1814,11.6731 69.6484,13.6261 C70.2034,15.9461 70.6724,18.2871 71.2204,20.6091 C71.4834,21.7201 71.8724,22.8001 72.1474,23.9081 C72.2934,24.4901 72.3194,25.1021 72.3814,25.5691 Z" id="Stroke-35" stroke="#B02524" stroke-width="0.3"></path>
                <path d="M75.3281,4.4495 C75.9791,3.7245 76.4731,4.0225 76.7461,4.5695 C77.5191,6.1155 78.4131,7.6195 78.7191,9.3575 C78.9751,10.8195 79.1861,12.2895 79.4531,13.7495 C79.6431,14.7955 79.9361,15.8235 80.1031,16.8715 C80.2531,17.8035 80.3691,18.7535 80.3481,19.6915 C80.3361,20.1975 80.0641,20.7295 79.8031,21.1895 C79.4161,21.8705 78.5481,21.8695 78.1801,21.1795 C77.5051,19.9145 77.1771,18.5315 76.9531,17.1205 C76.8141,16.2495 76.6811,15.3765 76.5021,14.5135 C75.8931,11.5865 75.2661,8.6635 74.6421,5.7395 C74.6161,5.6135 74.5991,5.4675 74.5241,5.3715 C74.3161,5.1025 74.3401,4.8845 74.5611,4.6315 C74.7901,4.3705 75.0051,4.1745 75.3281,4.4495" id="Fill-37" fill="#B02524"></path>
                <path d="M75.3281,4.4495 C75.9791,3.7245 76.4731,4.0225 76.7461,4.5695 C77.5191,6.1155 78.4131,7.6195 78.7191,9.3575 C78.9751,10.8195 79.1861,12.2895 79.4531,13.7495 C79.6431,14.7955 79.9361,15.8235 80.1031,16.8715 C80.2531,17.8035 80.3691,18.7535 80.3481,19.6915 C80.3361,20.1975 80.0641,20.7295 79.8031,21.1895 C79.4161,21.8705 78.5481,21.8695 78.1801,21.1795 C77.5051,19.9145 77.1771,18.5315 76.9531,17.1205 C76.8141,16.2495 76.6811,15.3765 76.5021,14.5135 C75.8931,11.5865 75.2661,8.6635 74.6421,5.7395 C74.6161,5.6135 74.5991,5.4675 74.5241,5.3715 C74.3161,5.1025 74.3401,4.8845 74.5611,4.6315 C74.7901,4.3705 75.0051,4.1745 75.3281,4.4495 Z" id="Stroke-39" stroke="#B02524" stroke-width="0.3"></path>
                <path d="M11.6631,60.884 C11.6341,61.115 11.6211,61.379 11.5651,61.633 C11.4161,62.312 10.8211,62.59 10.2811,62.16 C9.9001,61.856 9.5601,61.432 9.3521,60.991 C8.4631,59.101 8.0961,57.084 7.9961,55.006 C7.9641,54.342 7.8431,53.68 7.7301,53.023 C7.4801,51.559 7.2111,50.099 6.9481,48.638 C6.9251,48.51 6.9051,48.38 6.8671,48.255 C6.6981,47.709 6.5201,47.178 6.8901,46.623 C6.9911,46.469 6.8801,46.188 6.9551,46.001 C7.0691,45.718 7.2061,45.328 7.4341,45.239 C7.6901,45.138 8.1061,45.241 8.3641,45.4 C8.6031,45.548 8.7791,45.864 8.8891,46.144 C9.4761,47.641 9.7781,49.204 9.9871,50.799 C10.1991,52.417 10.5251,54.021 10.8051,55.63 C11.0641,57.128 11.3301,58.624 11.5871,60.121 C11.6281,60.362 11.6371,60.609 11.6631,60.884" id="Fill-41" fill="#B02524"></path>
                <path d="M11.6631,60.884 C11.6341,61.115 11.6211,61.379 11.5651,61.633 C11.4161,62.312 10.8211,62.59 10.2811,62.16 C9.9001,61.856 9.5601,61.432 9.3521,60.991 C8.4631,59.101 8.0961,57.084 7.9961,55.006 C7.9641,54.342 7.8431,53.68 7.7301,53.023 C7.4801,51.559 7.2111,50.099 6.9481,48.638 C6.9251,48.51 6.9051,48.38 6.8671,48.255 C6.6981,47.709 6.5201,47.178 6.8901,46.623 C6.9911,46.469 6.8801,46.188 6.9551,46.001 C7.0691,45.718 7.2061,45.328 7.4341,45.239 C7.6901,45.138 8.1061,45.241 8.3641,45.4 C8.6031,45.548 8.7791,45.864 8.8891,46.144 C9.4761,47.641 9.7781,49.204 9.9871,50.799 C10.1991,52.417 10.5251,54.021 10.8051,55.63 C11.0641,57.128 11.3301,58.624 11.5871,60.121 C11.6281,60.362 11.6371,60.609 11.6631,60.884 Z" id="Stroke-43" stroke="#B02524" stroke-width="0.3"></path>
                <path d="M6.1621,52.2942 C6.2091,52.4632 6.2601,52.6312 6.3021,52.8012 C6.5521,53.8322 6.5571,54.8422 6.0171,55.7942 C5.8351,56.1182 5.5841,56.4132 5.1591,56.2892 C4.7441,56.1672 4.4281,55.8832 4.3941,55.4272 C4.3081,54.2392 4.2391,53.0502 4.1901,51.8612 C4.1691,51.3252 4.3771,51.1742 4.9141,51.2542 C4.9781,51.2632 5.0431,51.2852 5.1051,51.2792 C5.3101,51.2572 5.6271,51.1302 5.6971,51.2142 C5.9461,51.5122 6.1121,51.8812 6.3091,52.2232 C6.2611,52.2462 6.2111,52.2702 6.1621,52.2942" id="Fill-45" fill="#B02524"></path>
                <path d="M6.1621,52.2942 C6.2091,52.4632 6.2601,52.6312 6.3021,52.8012 C6.5521,53.8322 6.5571,54.8422 6.0171,55.7942 C5.8351,56.1182 5.5841,56.4132 5.1591,56.2892 C4.7441,56.1672 4.4281,55.8832 4.3941,55.4272 C4.3081,54.2392 4.2391,53.0502 4.1901,51.8612 C4.1691,51.3252 4.3771,51.1742 4.9141,51.2542 C4.9781,51.2632 5.0431,51.2852 5.1051,51.2792 C5.3101,51.2572 5.6271,51.1302 5.6971,51.2142 C5.9461,51.5122 6.1121,51.8812 6.3091,52.2232 C6.2611,52.2462 6.2111,52.2702 6.1621,52.2942 Z" id="Stroke-47" stroke="#B02524" stroke-width="0.3"></path>
                <path d="M84.4033,14.3181 C84.3383,14.6301 84.2973,14.9931 84.1823,15.3311 C83.9913,15.8981 83.3373,16.0071 82.9933,15.5121 C82.7563,15.1711 82.5413,14.7691 82.4663,14.3661 C82.2693,13.3071 82.1323,12.2351 82.0193,11.1641 C81.9813,10.7991 82.0553,10.4111 82.1393,10.0481 C82.2503,9.5761 82.6083,9.4801 82.9113,9.8561 C83.1403,10.1401 83.3203,10.4901 83.4293,10.8401 C83.7703,11.9291 84.0673,13.0321 84.3803,14.1301 C84.3923,14.1761 84.3923,14.2261 84.4033,14.3181" id="Fill-49" fill="#B02524"></path>
                <path d="M84.4033,14.3181 C84.3383,14.6301 84.2973,14.9931 84.1823,15.3311 C83.9913,15.8981 83.3373,16.0071 82.9933,15.5121 C82.7563,15.1711 82.5413,14.7691 82.4663,14.3661 C82.2693,13.3071 82.1323,12.2351 82.0193,11.1641 C81.9813,10.7991 82.0553,10.4111 82.1393,10.0481 C82.2503,9.5761 82.6083,9.4801 82.9113,9.8561 C83.1403,10.1401 83.3203,10.4901 83.4293,10.8401 C83.7703,11.9291 84.0673,13.0321 84.3803,14.1301 C84.3923,14.1761 84.3923,14.2261 84.4033,14.3181 Z" id="Stroke-51" stroke="#B02524" stroke-width="0.3"></path>
                <path d="M12.4101,44.0042 C12.1601,44.1762 12.0091,44.3632 11.8831,44.3472 C11.7401,44.3292 11.6221,44.1282 11.4931,44.0062 C11.6291,43.8872 11.7501,43.7052 11.9041,43.6702 C12.0091,43.6472 12.1601,43.8302 12.4101,44.0042" id="Fill-53" fill="#B02524"></path>
                <path d="M12.4101,44.0042 C12.1601,44.1762 12.0091,44.3632 11.8831,44.3472 C11.7401,44.3292 11.6221,44.1282 11.4931,44.0062 C11.6291,43.8872 11.7501,43.7052 11.9041,43.6702 C12.0091,43.6472 12.1601,43.8302 12.4101,44.0042 Z" id="Stroke-55" stroke="#B02524" stroke-width="0.3"></path>
                <path d="M24.0508,43.6463 C24.2468,43.6143 24.3548,43.5973 24.5018,43.5743 C24.5508,44.3003 24.5978,44.9933 24.6448,45.6853 C24.6068,45.6933 24.5688,45.7003 24.5308,45.7083 C24.3748,45.0383 24.2188,44.3683 24.0508,43.6463" id="Fill-57" fill="#FEFEFE"></path>
                <path d="M24.0508,43.6463 C24.2468,43.6143 24.3548,43.5973 24.5018,43.5743 C24.5508,44.3003 24.5978,44.9933 24.6448,45.6853 C24.6068,45.6933 24.5688,45.7003 24.5308,45.7083 C24.3748,45.0383 24.2188,44.3683 24.0508,43.6463 Z" id="Stroke-59" stroke="#B02524" stroke-width="0.3"></path>
                <path d="M27.3701,42.2146 C27.5091,42.9896 27.6461,43.7656 27.7841,44.5416 C27.7431,44.5486 27.7011,44.5556 27.6601,44.5636 L27.2291,42.2146 C27.2761,42.2146 27.3231,42.2146 27.3701,42.2146" id="Fill-61" fill="#FEFEFE"></path>
                <path d="M27.3701,42.2146 C27.5091,42.9896 27.6461,43.7656 27.7841,44.5416 C27.7431,44.5486 27.7011,44.5556 27.6601,44.5636 L27.2291,42.2146 C27.2761,42.2146 27.3231,42.2146 27.3701,42.2146 Z" id="Stroke-63" stroke="#B02524" stroke-width="0.3"></path>
                <path d="M35.8262,37.9978 C36.0582,38.1838 36.3362,38.3468 36.5272,38.5808 C36.6542,38.7348 36.7612,39.0318 36.6972,39.1948 C36.4062,39.9418 36.5612,40.6748 36.6722,41.4158 C36.7022,41.6218 36.7142,41.8308 36.6542,42.0488 C36.3732,40.6718 36.0912,39.2948 35.8262,37.9978" id="Fill-65" fill="#FEFEFE"></path>
                <path d="M35.8262,37.9978 C36.0582,38.1838 36.3362,38.3468 36.5272,38.5808 C36.6542,38.7348 36.7612,39.0318 36.6972,39.1948 C36.4062,39.9418 36.5612,40.6748 36.6722,41.4158 C36.7022,41.6218 36.7142,41.8308 36.6542,42.0488 C36.3732,40.6718 36.0912,39.2948 35.8262,37.9978 Z" id="Stroke-67" stroke="#B02524" stroke-width="0.3"></path>
                <path d="M37.706,45.5794 L38.019,47.0174 C37.954,47.0314 37.888,47.0454 37.822,47.0594 C37.727,46.5754 37.633,46.0924 37.538,45.6084 C37.595,45.5994 37.65,45.5894 37.706,45.5794" id="Fill-69" fill="#FEFEFE"></path>
                <path d="M37.706,45.5794 L38.019,47.0174 C37.954,47.0314 37.888,47.0454 37.822,47.0594 C37.727,46.5754 37.633,46.0924 37.538,45.6084 C37.595,45.5994 37.65,45.5894 37.706,45.5794 Z" id="Stroke-71" stroke="#B02524" stroke-width="0.3"></path>
                <path d="M34.2373,31.4202 C34.0663,30.9412 33.9433,30.5972 33.8203,30.2532 C34.2053,30.1032 34.3063,30.3612 34.2373,31.4202" id="Fill-73" fill="#FEFEFE"></path>
                <path d="M34.2373,31.4202 C34.0663,30.9412 33.9433,30.5972 33.8203,30.2532 C34.2053,30.1032 34.3063,30.3612 34.2373,31.4202 Z" id="Stroke-75" stroke="#B02524" stroke-width="0.3"></path>
                <path d="M14.8457,43.0369 C15.1667,43.1029 15.3907,43.1479 15.6747,43.2059 C15.4667,43.4499 15.2537,43.6999 15.0407,43.9499 L14.9177,43.9189 C14.8947,43.6329 14.8707,43.3469 14.8457,43.0369" id="Fill-77" fill="#FEFEFE"></path>
                <path d="M14.8457,43.0369 C15.1667,43.1029 15.3907,43.1479 15.6747,43.2059 C15.4667,43.4499 15.2537,43.6999 15.0407,43.9499 L14.9177,43.9189 C14.8947,43.6329 14.8707,43.3469 14.8457,43.0369 Z" id="Stroke-79" stroke="#B02524" stroke-width="0.3"></path>
                <path d="M57.2461,23.5823 C57.0411,22.9893 56.8661,22.4843 56.6561,21.8783 C57.2061,22.0683 57.4541,22.9023 57.2461,23.5823" id="Fill-81" fill="#FEFEFE"></path>
                <path d="M57.2461,23.5823 C57.0411,22.9893 56.8661,22.4843 56.6561,21.8783 C57.2061,22.0683 57.4541,22.9023 57.2461,23.5823 Z" id="Stroke-83" stroke="#B02524" stroke-width="0.3"></path>
                <path d="M65.9219,10.8616 C65.9509,10.4076 65.9809,9.9536 66.0089,9.4996 C66.0869,9.5046 66.1639,9.5076 66.2409,9.5126 C66.2119,9.9656 66.1839,10.4196 66.1539,10.8736 C66.0769,10.8696 65.9999,10.8656 65.9219,10.8616" id="Fill-85" fill="#FEFEFE"></path>
                <path d="M65.9219,10.8616 C65.9509,10.4076 65.9809,9.9536 66.0089,9.4996 C66.0869,9.5046 66.1639,9.5076 66.2409,9.5126 C66.2119,9.9656 66.1839,10.4196 66.1539,10.8736 C66.0769,10.8696 65.9999,10.8656 65.9219,10.8616 Z" id="Stroke-87" stroke="#B02524" stroke-width="0.3"></path>
                <path d="M67.7344,17.8831 L67.9954,18.7001 C67.9224,18.7241 67.8504,18.7491 67.7784,18.7731 C67.6844,18.5051 67.5904,18.2371 67.4964,17.9691 C67.5764,17.9401 67.6554,17.9111 67.7344,17.8831" id="Fill-89" fill="#FEFEFE"></path>
                <path d="M67.7344,17.8831 L67.9954,18.7001 C67.9224,18.7241 67.8504,18.7491 67.7784,18.7731 C67.6844,18.5051 67.5904,18.2371 67.4964,17.9691 C67.5764,17.9401 67.6554,17.9111 67.7344,17.8831 Z" id="Stroke-91" stroke="#B02524" stroke-width="0.3"></path>
            </g>
        </g>
    </g>
</svg>